<?xml version="1.0" encoding="UTF-8" standalone="no"?>
<!DOCTYPE svg PUBLIC "-//W3C//DTD SVG 1.1//EN"
 "http://www.w3.org/Graphics/SVG/1.1/DTD/svg11.dtd">
<!-- Generated by graphviz version 2.44.0 (20200408.0750)
 -->
<!-- Title: unnamed Pages: 1 -->
<svg width="685pt" height="956pt"
 viewBox="0.00 0.00 685.00 956.00" xmlns="http://www.w3.org/2000/svg" xmlns:xlink="http://www.w3.org/1999/xlink">
<g id="graph0" class="graph" transform="scale(1 1) rotate(0) translate(4 952)">
<title>unnamed</title>
<polygon fill="white" stroke="transparent" points="-4,4 -4,-952 681,-952 681,4 -4,4"/>
<g id="clust1" class="cluster">
<title>cluster_L</title>
<polygon fill="none" stroke="black" points="8,-825 8,-940 462,-940 462,-825 8,-825"/>
</g>
<!-- Type: space -->
<g id="node1" class="node">
<title>Type: space</title>
<polygon fill="#f8f8f8" stroke="black" points="453.5,-932 16.5,-932 16.5,-833 453.5,-833 453.5,-932"/>
<text text-anchor="start" x="24.5" y="-915.2" font-family="Times,serif" font-size="16.00">Type: space</text>
<text text-anchor="start" x="24.5" y="-897.2" font-family="Times,serif" font-size="16.00">Showing nodes accounting for 80.11MB, 100% of 80.13MB total</text>
<text text-anchor="start" x="24.5" y="-879.2" font-family="Times,serif" font-size="16.00">Dropped 26 nodes (cum &lt;= 0.40MB)</text>
<text text-anchor="start" x="24.5" y="-842.2" font-family="Times,serif" font-size="16.00">See https://git.io/JfYMW for how to read the graph</text>
</g>
<!-- N1 -->
<g id="node1" class="node">
<title>N1</title>
<g id="a_node1"><a xlink:title="_execute_compiled_primitive (76.29MB)">
<polygon fill="#edd5d5" stroke="#b20200" points="568.5,-173 265.5,-173 265.5,-87 568.5,-87 568.5,-173"/>
<text text-anchor="middle" x="417" y="-149.8" font-family="Times,serif" font-size="24.00">_execute_compiled_primitive</text>
<text text-anchor="middle" x="417" y="-123.8" font-family="Times,serif" font-size="24.00">76.29MB (95.21%)</text>
<text text-anchor="middle" x="417" y="-97.8" font-family="Times,serif" font-size="24.00">of 76.29MB (95.21%)</text>
</a>
</g>
</g>
<!-- N1_0 -->
<g id="N1_0" class="node">
<title>N1_0</title>
<g id="a_N1_0"><a xlink:title="76.29MB">
<polygon fill="#f8f8f8" stroke="black" points="444,-36 394,-36 390,-32 390,0 440,0 444,-4 444,-36"/>
<polyline fill="none" stroke="black" points="440,-32 390,-32 "/>
<polyline fill="none" stroke="black" points="440,-32 440,0 "/>
<polyline fill="none" stroke="black" points="440,-32 444,-36 "/>
<text text-anchor="middle" x="417" y="-16.1" font-family="Times,serif" font-size="8.00">kind:buffer</text>
</a>
</g>
</g>
<!-- N1&#45;&gt;N1_0 -->
<g id="edge1" class="edge">
<title>N1&#45;&gt;N1_0</title>
<g id="a_edge1"><a xlink:title="76.29MB">
<path fill="none" stroke="black" d="M417,-86.79C417,-73.2 417,-58.5 417,-46.28"/>
<polygon fill="black" stroke="black" points="420.5,-46.27 417,-36.27 413.5,-46.27 420.5,-46.27"/>
</a>
</g>
<g id="a_edge1&#45;label"><a xlink:title="76.29MB">
<text text-anchor="middle" x="445.5" y="-57.8" font-family="Times,serif" font-size="14.00"> 76.29MB</text>
</a>
</g>
</g>
<!-- N2 -->
<g id="node2" class="node">
<title>N2</title>
<g id="a_node2"><a xlink:title="&lt;unknown&gt; (80.13MB)">
<polygon fill="#edd5d5" stroke="#b20000" points="558.5,-900.5 471.5,-900.5 471.5,-864.5 558.5,-864.5 558.5,-900.5"/>
<text text-anchor="middle" x="515" y="-885.1" font-family="Times,serif" font-size="8.00">&lt;unknown&gt;</text>
<text text-anchor="middle" x="515" y="-876.1" font-family="Times,serif" font-size="8.00">0 of 80.13MB (100%)</text>
</a>
</g>
</g>
<!-- N4 -->
<g id="node4" class="node">
<title>N4</title>
<g id="a_node4"><a xlink:title="func2 (76.30MB)">
<polygon fill="#edd5d5" stroke="#b20200" points="561.5,-782 468.5,-782 468.5,-746 561.5,-746 561.5,-782"/>
<text text-anchor="middle" x="515" y="-766.6" font-family="Times,serif" font-size="8.00">func2</text>
<text text-anchor="middle" x="515" y="-757.6" font-family="Times,serif" font-size="8.00">0 of 76.30MB (95.22%)</text>
</a>
</g>
</g>
<!-- N2&#45;&gt;N4 -->
<g id="edge4" class="edge">
<title>N2&#45;&gt;N4</title>
<g id="a_edge4"><a xlink:title="&lt;unknown&gt; &#45;&gt; func2 (76.30MB)">
<path fill="none" stroke="#b20200" stroke-width="5" d="M515,-864.31C515,-845.38 515,-814.68 515,-792.42"/>
<polygon fill="#b20200" stroke="#b20200" stroke-width="5" points="519.38,-792.26 515,-782.26 510.63,-792.26 519.38,-792.26"/>
</a>
</g>
<g id="a_edge4&#45;label"><a xlink:title="&lt;unknown&gt; &#45;&gt; func2 (76.30MB)">
<text text-anchor="middle" x="543.5" y="-803.8" font-family="Times,serif" font-size="14.00"> 76.30MB</text>
</a>
</g>
</g>
<!-- N15 -->
<g id="node15" class="node">
<title>N15</title>
<g id="a_node15"><a xlink:title="normal (3.83MB)">
<polygon fill="#edeae7" stroke="#b2a187" points="666,-782 580,-782 580,-746 666,-746 666,-782"/>
<text text-anchor="middle" x="623" y="-766.6" font-family="Times,serif" font-size="8.00">normal</text>
<text text-anchor="middle" x="623" y="-757.6" font-family="Times,serif" font-size="8.00">0 of 3.83MB (4.78%)</text>
</a>
</g>
</g>
<!-- N2&#45;&gt;N15 -->
<g id="edge14" class="edge">
<title>N2&#45;&gt;N15</title>
<g id="a_edge14"><a xlink:title="&lt;unknown&gt; &#45;&gt; normal (3.83MB)">
<path fill="none" stroke="#b2a187" d="M530.94,-864.31C549.2,-844.61 579.29,-812.15 600.07,-789.73"/>
<polygon fill="#b2a187" stroke="#b2a187" points="602.77,-791.97 607,-782.26 597.63,-787.21 602.77,-791.97"/>
</a>
</g>
<g id="a_edge14&#45;label"><a xlink:title="&lt;unknown&gt; &#45;&gt; normal (3.83MB)">
<text text-anchor="middle" x="614" y="-803.8" font-family="Times,serif" font-size="14.00"> 3.83MB</text>
</a>
</g>
</g>
<!-- N3 -->
<g id="node3" class="node">
<title>N3</title>
<g id="a_node3"><a xlink:title="bind (76.30MB)">
<polygon fill="#edd5d5" stroke="#b20200" points="463.5,-347 370.5,-347 370.5,-311 463.5,-311 463.5,-347"/>
<text text-anchor="middle" x="417" y="-331.6" font-family="Times,serif" font-size="8.00">bind</text>
<text text-anchor="middle" x="417" y="-322.6" font-family="Times,serif" font-size="8.00">0 of 76.30MB (95.22%)</text>
</a>
</g>
</g>
<!-- N11 -->
<g id="node11" class="node">
<title>N11</title>
<g id="a_node11"><a xlink:title="apply_primitive (76.30MB)">
<polygon fill="#edd5d5" stroke="#b20200" points="463.5,-260 370.5,-260 370.5,-224 463.5,-224 463.5,-260"/>
<text text-anchor="middle" x="417" y="-244.6" font-family="Times,serif" font-size="8.00">apply_primitive</text>
<text text-anchor="middle" x="417" y="-235.6" font-family="Times,serif" font-size="8.00">0 of 76.30MB (95.22%)</text>
</a>
</g>
</g>
<!-- N3&#45;&gt;N11 -->
<g id="edge3" class="edge">
<title>N3&#45;&gt;N11</title>
<g id="a_edge3"><a xlink:title="bind &#45;&gt; apply_primitive (76.30MB)">
<path fill="none" stroke="#b20200" stroke-width="5" d="M417,-310.8C417,-299.16 417,-283.55 417,-270.24"/>
<polygon fill="#b20200" stroke="#b20200" stroke-width="5" points="421.38,-270.18 417,-260.18 412.63,-270.18 421.38,-270.18"/>
</a>
</g>
<g id="a_edge3&#45;label"><a xlink:title="bind &#45;&gt; apply_primitive (76.30MB)">
<text text-anchor="middle" x="445.5" y="-281.8" font-family="Times,serif" font-size="14.00"> 76.30MB</text>
</a>
</g>
</g>
<!-- N5 -->
<g id="node5" class="node">
<title>N5</title>
<g id="a_node5"><a xlink:title="deferring_binary_op (76.30MB)">
<polygon fill="#edd5d5" stroke="#b20200" points="494.5,-608 401.5,-608 401.5,-572 494.5,-572 494.5,-608"/>
<text text-anchor="middle" x="448" y="-592.6" font-family="Times,serif" font-size="8.00">deferring_binary_op</text>
<text text-anchor="middle" x="448" y="-583.6" font-family="Times,serif" font-size="8.00">0 of 76.30MB (95.22%)</text>
</a>
</g>
</g>
<!-- N4&#45;&gt;N5 -->
<g id="edge12" class="edge">
<title>N4&#45;&gt;N5</title>
<g id="a_edge12"><a xlink:title="func2 &#45;&gt; deferring_binary_op (38.15MB)">
<path fill="none" stroke="#b22300" stroke-width="3" d="M468.45,-747.76C444.01,-737.11 416.25,-720.21 402,-695 387.27,-668.94 406.12,-637.27 423.95,-615.77"/>
<polygon fill="#b22300" stroke="#b22300" stroke-width="3" points="426.73,-617.9 430.66,-608.06 421.45,-613.31 426.73,-617.9"/>
</a>
</g>
<g id="a_edge12&#45;label"><a xlink:title="func2 &#45;&gt; deferring_binary_op (38.15MB)">
<text text-anchor="middle" x="430.5" y="-673.3" font-family="Times,serif" font-size="14.00"> 38.15MB</text>
</a>
</g>
</g>
<!-- N8 -->
<g id="node8" class="node">
<title>N8</title>
<g id="a_node8"><a xlink:title="func1 (38.15MB)">
<polygon fill="#eddad5" stroke="#b22300" points="561.5,-695 468.5,-695 468.5,-659 561.5,-659 561.5,-695"/>
<text text-anchor="middle" x="515" y="-679.6" font-family="Times,serif" font-size="8.00">func1</text>
<text text-anchor="middle" x="515" y="-670.6" font-family="Times,serif" font-size="8.00">0 of 38.15MB (47.61%)</text>
</a>
</g>
</g>
<!-- N4&#45;&gt;N8 -->
<g id="edge7" class="edge">
<title>N4&#45;&gt;N8</title>
<g id="a_edge7"><a xlink:title="func2 &#45;&gt; func1 (38.15MB)">
<path fill="none" stroke="#b22300" stroke-width="3" d="M515,-745.8C515,-734.16 515,-718.55 515,-705.24"/>
<polygon fill="#b22300" stroke="#b22300" stroke-width="3" points="518.5,-705.18 515,-695.18 511.5,-705.18 518.5,-705.18"/>
</a>
</g>
<g id="a_edge7&#45;label"><a xlink:title="func2 &#45;&gt; func1 (38.15MB)">
<text text-anchor="middle" x="543.5" y="-716.8" font-family="Times,serif" font-size="14.00"> 38.15MB</text>
</a>
</g>
</g>
<!-- N6 -->
<g id="node6" class="node">
<title>N6</title>
<g id="a_node6"><a xlink:title="fn (76.30MB)">
<polygon fill="#edd5d5" stroke="#b20200" points="494.5,-521 401.5,-521 401.5,-485 494.5,-485 494.5,-521"/>
<text text-anchor="middle" x="448" y="-505.6" font-family="Times,serif" font-size="8.00">fn</text>
<text text-anchor="middle" x="448" y="-496.6" font-family="Times,serif" font-size="8.00">0 of 76.30MB (95.22%)</text>
</a>
</g>
</g>
<!-- N5&#45;&gt;N6 -->
<g id="edge5" class="edge">
<title>N5&#45;&gt;N6</title>
<g id="a_edge5"><a xlink:title="deferring_binary_op &#45;&gt; fn (76.30MB)">
<path fill="none" stroke="#b20200" stroke-width="5" d="M448,-571.8C448,-560.16 448,-544.55 448,-531.24"/>
<polygon fill="#b20200" stroke="#b20200" stroke-width="5" points="452.38,-531.18 448,-521.18 443.63,-531.18 452.38,-531.18"/>
</a>
</g>
<g id="a_edge5&#45;label"><a xlink:title="deferring_binary_op &#45;&gt; fn (76.30MB)">
<text text-anchor="middle" x="476.5" y="-542.8" font-family="Times,serif" font-size="14.00"> 76.30MB</text>
</a>
</g>
</g>
<!-- N10 -->
<g id="node10" class="node">
<title>N10</title>
<g id="a_node10"><a xlink:title="add (38.15MB)">
<polygon fill="#eddad5" stroke="#b22300" points="411.5,-434 318.5,-434 318.5,-398 411.5,-398 411.5,-434"/>
<text text-anchor="middle" x="365" y="-418.6" font-family="Times,serif" font-size="8.00">add</text>
<text text-anchor="middle" x="365" y="-409.6" font-family="Times,serif" font-size="8.00">0 of 38.15MB (47.61%)</text>
</a>
</g>
</g>
<!-- N6&#45;&gt;N10 -->
<g id="edge9" class="edge">
<title>N6&#45;&gt;N10</title>
<g id="a_edge9"><a xlink:title="fn &#45;&gt; add (38.15MB)">
<path fill="none" stroke="#b22300" stroke-width="3" d="M421.33,-484.94C414.01,-479.64 406.36,-473.48 400,-467 392.92,-459.78 386.25,-450.99 380.67,-442.81"/>
<polygon fill="#b22300" stroke="#b22300" stroke-width="3" points="383.49,-440.72 375.08,-434.27 377.63,-444.55 383.49,-440.72"/>
</a>
</g>
<g id="a_edge9&#45;label"><a xlink:title="fn &#45;&gt; add (38.15MB)">
<text text-anchor="middle" x="428.5" y="-455.8" font-family="Times,serif" font-size="14.00"> 38.15MB</text>
</a>
</g>
</g>
<!-- N14 -->
<g id="node14" class="node">
<title>N14</title>
<g id="a_node14"><a xlink:title="mul (38.15MB)">
<polygon fill="#eddad5" stroke="#b22300" points="522.5,-434 429.5,-434 429.5,-398 522.5,-398 522.5,-434"/>
<text text-anchor="middle" x="476" y="-418.6" font-family="Times,serif" font-size="8.00">mul</text>
<text text-anchor="middle" x="476" y="-409.6" font-family="Times,serif" font-size="8.00">0 of 38.15MB (47.61%)</text>
</a>
</g>
</g>
<!-- N6&#45;&gt;N14 -->
<g id="edge10" class="edge">
<title>N6&#45;&gt;N14</title>
<g id="a_edge10"><a xlink:title="fn &#45;&gt; mul (38.15MB)">
<path fill="none" stroke="#b22300" stroke-width="3" d="M453.67,-484.8C457.54,-473.05 462.75,-457.24 467.16,-443.84"/>
<polygon fill="#b22300" stroke="#b22300" stroke-width="3" points="470.54,-444.77 470.34,-434.18 463.89,-442.58 470.54,-444.77"/>
</a>
</g>
<g id="a_edge10&#45;label"><a xlink:title="fn &#45;&gt; mul (38.15MB)">
<text text-anchor="middle" x="492.5" y="-455.8" font-family="Times,serif" font-size="14.00"> 38.15MB</text>
</a>
</g>
</g>
<!-- N7 -->
<g id="node7" class="node">
<title>N7</title>
<g id="a_node7"><a xlink:title="_execute_compiled (3.81MB)">
<polygon fill="#edeae7" stroke="#b2a188" points="677,-434 569,-434 569,-398 677,-398 677,-434"/>
<text text-anchor="middle" x="623" y="-419.4" font-family="Times,serif" font-size="12.00">_execute_compiled</text>
<text text-anchor="middle" x="623" y="-406.4" font-family="Times,serif" font-size="12.00">3.81MB (4.76%)</text>
</a>
</g>
</g>
<!-- N7_0 -->
<g id="N7_0" class="node">
<title>N7_0</title>
<g id="a_N7_0"><a xlink:title="3.81MB">
<polygon fill="#f8f8f8" stroke="black" points="650,-347 600,-347 596,-343 596,-311 646,-311 650,-315 650,-347"/>
<polyline fill="none" stroke="black" points="646,-343 596,-343 "/>
<polyline fill="none" stroke="black" points="646,-343 646,-311 "/>
<polyline fill="none" stroke="black" points="646,-343 650,-347 "/>
<text text-anchor="middle" x="623" y="-327.1" font-family="Times,serif" font-size="8.00">kind:buffer</text>
</a>
</g>
</g>
<!-- N7&#45;&gt;N7_0 -->
<g id="edge2" class="edge">
<title>N7&#45;&gt;N7_0</title>
<g id="a_edge2"><a xlink:title="3.81MB">
<path fill="none" stroke="black" d="M623,-397.8C623,-386.16 623,-370.55 623,-357.24"/>
<polygon fill="black" stroke="black" points="626.5,-357.18 623,-347.18 619.5,-357.18 626.5,-357.18"/>
</a>
</g>
<g id="a_edge2&#45;label"><a xlink:title="3.81MB">
<text text-anchor="middle" x="648" y="-368.8" font-family="Times,serif" font-size="14.00"> 3.81MB</text>
</a>
</g>
</g>
<!-- N8&#45;&gt;N5 -->
<g id="edge11" class="edge">
<title>N8&#45;&gt;N5</title>
<g id="a_edge11"><a xlink:title="func1 &#45;&gt; deferring_binary_op (38.15MB)">
<path fill="none" stroke="#b22300" stroke-width="3" d="M501.44,-658.8C491.82,-646.59 478.73,-629.99 467.92,-616.28"/>
<polygon fill="#b22300" stroke="#b22300" stroke-width="3" points="470.48,-613.86 461.54,-608.18 464.98,-618.2 470.48,-613.86"/>
</a>
</g>
<g id="a_edge11&#45;label"><a xlink:title="func1 &#45;&gt; deferring_binary_op (38.15MB)">
<text text-anchor="middle" x="514.5" y="-629.8" font-family="Times,serif" font-size="14.00"> 38.15MB</text>
</a>
</g>
</g>
<!-- N9 -->
<g id="node9" class="node">
<title>N9</title>
<g id="a_node9"><a xlink:title="_xla_call_impl (3.83MB)">
<polygon fill="#edeae7" stroke="#b2a187" points="666,-521 580,-521 580,-485 666,-485 666,-521"/>
<text text-anchor="middle" x="623" y="-505.6" font-family="Times,serif" font-size="8.00">_xla_call_impl</text>
<text text-anchor="middle" x="623" y="-496.6" font-family="Times,serif" font-size="8.00">0 of 3.83MB (4.78%)</text>
</a>
</g>
</g>
<!-- N9&#45;&gt;N7 -->
<g id="edge18" class="edge">
<title>N9&#45;&gt;N7</title>
<g id="a_edge18"><a xlink:title="_xla_call_impl &#45;&gt; _execute_compiled (3.81MB)">
<path fill="none" stroke="#b2a188" d="M623,-484.8C623,-473.16 623,-457.55 623,-444.24"/>
<polygon fill="#b2a188" stroke="#b2a188" points="626.5,-444.18 623,-434.18 619.5,-444.18 626.5,-444.18"/>
</a>
</g>
<g id="a_edge18&#45;label"><a xlink:title="_xla_call_impl &#45;&gt; _execute_compiled (3.81MB)">
<text text-anchor="middle" x="648" y="-455.8" font-family="Times,serif" font-size="14.00"> 3.81MB</text>
</a>
</g>
</g>
<!-- N10&#45;&gt;N3 -->
<g id="edge8" class="edge">
<title>N10&#45;&gt;N3</title>
<g id="a_edge8"><a xlink:title="add &#45;&gt; bind (38.15MB)">
<path fill="none" stroke="#b22300" stroke-width="3" d="M368.72,-397.94C371.42,-387.86 375.7,-375.12 382,-365 384.25,-361.39 386.93,-357.86 389.81,-354.53"/>
<polygon fill="#b22300" stroke="#b22300" stroke-width="3" points="392.45,-356.83 396.73,-347.14 387.34,-352.05 392.45,-356.83"/>
</a>
</g>
<g id="a_edge8&#45;label"><a xlink:title="add &#45;&gt; bind (38.15MB)">
<text text-anchor="middle" x="410.5" y="-368.8" font-family="Times,serif" font-size="14.00"> 38.15MB</text>
</a>
</g>
</g>
<!-- N11&#45;&gt;N1 -->
<g id="edge6" class="edge">
<title>N11&#45;&gt;N1</title>
<g id="a_edge6"><a xlink:title="apply_primitive &#45;&gt; _execute_compiled_primitive (76.29MB)">
<path fill="none" stroke="#b20200" stroke-width="5" d="M417,-223.81C417,-212.82 417,-197.91 417,-183.26"/>
<polygon fill="#b20200" stroke="#b20200" stroke-width="5" points="421.38,-183.21 417,-173.21 412.63,-183.21 421.38,-183.21"/>
</a>
</g>
<g id="a_edge6&#45;label"><a xlink:title="apply_primitive &#45;&gt; _execute_compiled_primitive (76.29MB)">
<text text-anchor="middle" x="445.5" y="-194.8" font-family="Times,serif" font-size="14.00"> 76.29MB</text>
</a>
</g>
</g>
<!-- N12 -->
<g id="node12" class="node">
<title>N12</title>
<g id="a_node12"><a xlink:title="call_bind (3.83MB)">
<polygon fill="#edeae7" stroke="#b2a187" points="666,-608 580,-608 580,-572 666,-572 666,-608"/>
<text text-anchor="middle" x="623" y="-592.6" font-family="Times,serif" font-size="8.00">call_bind</text>
<text text-anchor="middle" x="623" y="-583.6" font-family="Times,serif" font-size="8.00">0 of 3.83MB (4.78%)</text>
</a>
</g>
</g>
<!-- N12&#45;&gt;N9 -->
<g id="edge15" class="edge">
<title>N12&#45;&gt;N9</title>
<g id="a_edge15"><a xlink:title="call_bind &#45;&gt; _xla_call_impl (3.83MB)">
<path fill="none" stroke="#b2a187" d="M623,-571.8C623,-560.16 623,-544.55 623,-531.24"/>
<polygon fill="#b2a187" stroke="#b2a187" points="626.5,-531.18 623,-521.18 619.5,-531.18 626.5,-531.18"/>
</a>
</g>
<g id="a_edge15&#45;label"><a xlink:title="call_bind &#45;&gt; _xla_call_impl (3.83MB)">
<text text-anchor="middle" x="648" y="-542.8" font-family="Times,serif" font-size="14.00"> 3.83MB</text>
</a>
</g>
</g>
<!-- N13 -->
<g id="node13" class="node">
<title>N13</title>
<g id="a_node13"><a xlink:title="f_jitted (3.83MB)">
<polygon fill="#edeae7" stroke="#b2a187" points="666,-695 580,-695 580,-659 666,-659 666,-695"/>
<text text-anchor="middle" x="623" y="-679.6" font-family="Times,serif" font-size="8.00">f_jitted</text>
<text text-anchor="middle" x="623" y="-670.6" font-family="Times,serif" font-size="8.00">0 of 3.83MB (4.78%)</text>
</a>
</g>
</g>
<!-- N13&#45;&gt;N12 -->
<g id="edge16" class="edge">
<title>N13&#45;&gt;N12</title>
<g id="a_edge16"><a xlink:title="f_jitted &#45;&gt; call_bind (3.83MB)">
<path fill="none" stroke="#b2a187" d="M623,-658.8C623,-647.16 623,-631.55 623,-618.24"/>
<polygon fill="#b2a187" stroke="#b2a187" points="626.5,-618.18 623,-608.18 619.5,-618.18 626.5,-618.18"/>
</a>
</g>
<g id="a_edge16&#45;label"><a xlink:title="f_jitted &#45;&gt; call_bind (3.83MB)">
<text text-anchor="middle" x="648" y="-629.8" font-family="Times,serif" font-size="14.00"> 3.83MB</text>
</a>
</g>
</g>
<!-- N14&#45;&gt;N3 -->
<g id="edge13" class="edge">
<title>N14&#45;&gt;N3</title>
<g id="a_edge13"><a xlink:title="mul &#45;&gt; bind (38.15MB)">
<path fill="none" stroke="#b22300" stroke-width="3" d="M464.06,-397.8C455.66,-385.7 444.28,-369.3 434.82,-355.67"/>
<polygon fill="#b22300" stroke="#b22300" stroke-width="3" points="437.5,-353.39 428.92,-347.18 431.75,-357.39 437.5,-353.39"/>
</a>
</g>
<g id="a_edge13&#45;label"><a xlink:title="mul &#45;&gt; bind (38.15MB)">
<text text-anchor="middle" x="479.5" y="-368.8" font-family="Times,serif" font-size="14.00"> 38.15MB</text>
</a>
</g>
</g>
<!-- N15&#45;&gt;N13 -->
<g id="edge17" class="edge">
<title>N15&#45;&gt;N13</title>
<g id="a_edge17"><a xlink:title="normal &#45;&gt; f_jitted (3.83MB)">
<path fill="none" stroke="#b2a187" d="M623,-745.8C623,-734.16 623,-718.55 623,-705.24"/>
<polygon fill="#b2a187" stroke="#b2a187" points="626.5,-705.18 623,-695.18 619.5,-705.18 626.5,-705.18"/>
</a>
</g>
<g id="a_edge17&#45;label"><a xlink:title="normal &#45;&gt; f_jitted (3.83MB)">
<text text-anchor="middle" x="648" y="-716.8" font-family="Times,serif" font-size="14.00"> 3.83MB</text>
</a>
</g>
</g>
</g>
</svg>
