<svg version="1.1" viewBox="0.0 0.0 927.9580052493438 310.753280839895" fill="none" stroke="none" stroke-linecap="square" stroke-miterlimit="10" xmlns:xlink="http://www.w3.org/1999/xlink" xmlns="http://www.w3.org/2000/svg"><clipPath id="p.0"><path d="m0 0l927.958 0l0 310.7533l-927.958 0l0 -310.7533z" clip-rule="nonzero"/></clipPath><g clip-path="url(#p.0)"><path fill="#000000" fill-opacity="0.0" d="m0 0l927.958 0l0 310.7533l-927.958 0z" fill-rule="evenodd"/><path fill="#cfe2f3" d="m49.14173 50.28609l53.70079 0l0 53.700787l-53.70079 0z" fill-rule="evenodd"/><path stroke="#000000" stroke-width="2.0" stroke-linejoin="round" stroke-linecap="butt" d="m49.14173 50.28609l53.70079 0l0 53.700787l-53.70079 0z" fill-rule="evenodd"/><path fill="#000000" d="m78.35114 82.86898q-0.921875 0.765625 -1.765625 1.09375q-0.828125 0.3125 -1.796875 0.3125q-1.59375 0 -2.453125 -0.78125q-0.859375 -0.78125 -0.859375 -1.984375q0 -0.71875 0.328125 -1.296875q0.328125 -0.59375 0.84375 -0.9375q0.53125 -0.359375 1.1875 -0.546875q0.46875 -0.125 1.453125 -0.25q1.984375 -0.234375 2.921875 -0.5625q0.015625 -0.34375 0.015625 -0.421875q0 -1.0 -0.46875 -1.421875q-0.625 -0.546875 -1.875 -0.546875q-1.15625 0 -1.703125 0.40625q-0.546875 0.40625 -0.8125 1.421875l-1.609375 -0.21875q0.21875 -1.015625 0.71875 -1.640625q0.5 -0.640625 1.453125 -0.984375q0.953125 -0.34375 2.1875 -0.34375q1.25 0 2.015625 0.296875q0.78125 0.28125 1.140625 0.734375q0.375 0.4375 0.515625 1.109375q0.078125 0.421875 0.078125 1.515625l0 2.1875q0 2.28125 0.109375 2.890625q0.109375 0.59375 0.40625 1.15625l-1.703125 0q-0.265625 -0.515625 -0.328125 -1.1875zm-0.140625 -3.671875q-0.890625 0.375 -2.671875 0.625q-1.015625 0.140625 -1.4375 0.328125q-0.421875 0.1875 -0.65625 0.53125q-0.21875 0.34375 -0.21875 0.78125q0 0.65625 0.5 1.09375q0.5 0.4375 1.453125 0.4375q0.9375 0 1.671875 -0.40625q0.75 -0.421875 1.09375 -1.140625q0.265625 -0.5625 0.265625 -1.640625l0 -0.609375z" fill-rule="nonzero"/><path fill="#efefef" d="m102.84252 50.28609l53.700783 0l0 53.700787l-53.700783 0z" fill-rule="evenodd"/><path stroke="#000000" stroke-width="2.0" stroke-linejoin="round" stroke-linecap="butt" d="m102.84252 50.28609l53.700783 0l0 53.700787l-53.700783 0z" fill-rule="evenodd"/><path fill="#efefef" d="m156.5433 50.28609l53.70079 0l0 53.700787l-53.70079 0z" fill-rule="evenodd"/><path stroke="#000000" stroke-width="2.0" stroke-linejoin="round" stroke-linecap="butt" d="m156.5433 50.28609l53.70079 0l0 53.700787l-53.70079 0z" fill-rule="evenodd"/><path fill="#efefef" d="m210.2441 50.28609l53.70079 0l0 53.700787l-53.70079 0z" fill-rule="evenodd"/><path stroke="#000000" stroke-width="2.0" stroke-linejoin="round" stroke-linecap="butt" d="m210.2441 50.28609l53.70079 0l0 53.700787l-53.70079 0z" fill-rule="evenodd"/><path fill="#efefef" d="m49.14173 103.98688l53.70079 0l0 53.70079l-53.70079 0z" fill-rule="evenodd"/><path stroke="#000000" stroke-width="2.0" stroke-linejoin="round" stroke-linecap="butt" d="m49.14173 103.98688l53.70079 0l0 53.70079l-53.70079 0z" fill-rule="evenodd"/><path fill="#efefef" d="m102.84252 103.98688l53.700783 0l0 53.70079l-53.700783 0z" fill-rule="evenodd"/><path stroke="#000000" stroke-width="2.0" stroke-linejoin="round" stroke-linecap="butt" d="m102.84252 103.98688l53.700783 0l0 53.70079l-53.700783 0z" fill-rule="evenodd"/><path fill="#efefef" d="m156.5433 103.98688l53.70079 0l0 53.70079l-53.70079 0z" fill-rule="evenodd"/><path stroke="#000000" stroke-width="2.0" stroke-linejoin="round" stroke-linecap="butt" d="m156.5433 103.98688l53.70079 0l0 53.70079l-53.70079 0z" fill-rule="evenodd"/><path fill="#cfe2f3" d="m210.2441 103.98688l53.70079 0l0 53.70079l-53.70079 0z" fill-rule="evenodd"/><path stroke="#000000" stroke-width="2.0" stroke-linejoin="round" stroke-linecap="butt" d="m210.2441 103.98688l53.70079 0l0 53.70079l-53.70079 0z" fill-rule="evenodd"/><path fill="#000000" d="m234.641 137.75726l-1.515625 0l0 -13.359367l1.640625 0l0 4.7656174q1.046875 -1.2968674 2.65625 -1.2968674q0.890625 0 1.6875 0.35936737q0.796875 0.359375 1.3125 1.015625q0.515625 0.640625 0.796875 1.5625q0.296875 0.921875 0.296875 1.96875q0 2.484375 -1.234375 3.84375q-1.21875 1.359375 -2.953125 1.359375q-1.703125 0 -2.6875 -1.4375l0 1.21875zm-0.015625 -4.90625q0 1.734375 0.484375 2.515625q0.765625 1.265625 2.09375 1.265625q1.078125 0 1.859375 -0.9375q0.78125 -0.9375 0.78125 -2.78125q0 -1.890625 -0.75 -2.796875q-0.75 -0.90625 -1.828125 -0.90625q-1.0625 0 -1.859375 0.9375q-0.78125 0.9375 -0.78125 2.703125z" fill-rule="nonzero"/><path fill="#efefef" d="m49.14173 157.68767l53.70079 0l0 53.70079l-53.70079 0z" fill-rule="evenodd"/><path stroke="#000000" stroke-width="2.0" stroke-linejoin="round" stroke-linecap="butt" d="m49.14173 157.68767l53.70079 0l0 53.70079l-53.70079 0z" fill-rule="evenodd"/><path fill="#efefef" d="m102.84252 157.68767l53.700783 0l0 53.70079l-53.700783 0z" fill-rule="evenodd"/><path stroke="#000000" stroke-width="2.0" stroke-linejoin="round" stroke-linecap="butt" d="m102.84252 157.68767l53.700783 0l0 53.70079l-53.700783 0z" fill-rule="evenodd"/><path fill="#cfe2f3" d="m156.5433 157.68767l53.70079 0l0 53.70079l-53.70079 0z" fill-rule="evenodd"/><path stroke="#000000" stroke-width="2.0" stroke-linejoin="round" stroke-linecap="butt" d="m156.5433 157.68767l53.70079 0l0 53.70079l-53.70079 0z" fill-rule="evenodd"/><path fill="#000000" d="m186.27652 187.91118l1.609375 0.21875q-0.265625 1.65625 -1.359375 2.609375q-1.078125 0.9375 -2.671875 0.9375q-1.984375 0 -3.1875 -1.296875q-1.203125 -1.296875 -1.203125 -3.71875q0 -1.578125 0.515625 -2.75q0.515625 -1.171875 1.578125 -1.75q1.0625 -0.59375 2.3125 -0.59375q1.578125 0 2.578125 0.796875q1.0 0.796875 1.28125 2.265625l-1.59375 0.234375q-0.234375 -0.96875 -0.8125 -1.453125q-0.578125 -0.5 -1.390625 -0.5q-1.234375 0 -2.015625 0.890625q-0.78125 0.890625 -0.78125 2.8125q0 1.953125 0.75 2.84375q0.75 0.875 1.953125 0.875q0.96875 0 1.609375 -0.59375q0.65625 -0.59375 0.828125 -1.828125z" fill-rule="nonzero"/><path fill="#efefef" d="m210.2441 157.68767l53.70079 0l0 53.70079l-53.70079 0z" fill-rule="evenodd"/><path stroke="#000000" stroke-width="2.0" stroke-linejoin="round" stroke-linecap="butt" d="m210.2441 157.68767l53.70079 0l0 53.70079l-53.70079 0z" fill-rule="evenodd"/><path fill="#efefef" d="m49.14173 211.38846l53.70079 0l0 53.700775l-53.70079 0z" fill-rule="evenodd"/><path stroke="#000000" stroke-width="2.0" stroke-linejoin="round" stroke-linecap="butt" d="m49.14173 211.38846l53.70079 0l0 53.700775l-53.70079 0z" fill-rule="evenodd"/><path fill="#efefef" d="m102.84252 211.38846l53.700783 0l0 53.700775l-53.700783 0z" fill-rule="evenodd"/><path stroke="#000000" stroke-width="2.0" stroke-linejoin="round" stroke-linecap="butt" d="m102.84252 211.38846l53.700783 0l0 53.700775l-53.700783 0z" fill-rule="evenodd"/><path fill="#cfe2f3" d="m156.5433 211.38846l53.70079 0l0 53.700775l-53.70079 0z" fill-rule="evenodd"/><path stroke="#000000" stroke-width="2.0" stroke-linejoin="round" stroke-linecap="butt" d="m156.5433 211.38846l53.70079 0l0 53.700775l-53.70079 0z" fill-rule="evenodd"/><path fill="#000000" d="m185.70584 245.15884l0 -1.21875q-0.90625 1.4375 -2.703125 1.4375q-1.15625 0 -2.125 -0.640625q-0.96875 -0.640625 -1.5 -1.78125q-0.53125 -1.140625 -0.53125 -2.625q0 -1.453125 0.484375 -2.625q0.484375 -1.1875 1.4375 -1.8125q0.96875 -0.625 2.171875 -0.625q0.875 0 1.546875 0.375q0.6875 0.359375 1.109375 0.953125l0 -4.796875l1.640625 0l0 13.359375l-1.53125 0zm-5.171875 -4.828125q0 1.859375 0.78125 2.78125q0.78125 0.921875 1.84375 0.921875q1.078125 0 1.828125 -0.875q0.75 -0.890625 0.75 -2.6875q0 -1.984375 -0.765625 -2.90625q-0.765625 -0.9375 -1.890625 -0.9375q-1.078125 0 -1.8125 0.890625q-0.734375 0.890625 -0.734375 2.8125z" fill-rule="nonzero"/><path fill="#cfe2f3" d="m210.2441 211.38846l53.70079 0l0 53.700775l-53.70079 0z" fill-rule="evenodd"/><path stroke="#000000" stroke-width="2.0" stroke-linejoin="round" stroke-linecap="butt" d="m210.2441 211.38846l53.70079 0l0 53.700775l-53.70079 0z" fill-rule="evenodd"/><path fill="#000000" d="m239.766 242.04947l1.6875 0.203125q-0.40625 1.484375 -1.484375 2.3125q-1.078125 0.8125 -2.765625 0.8125q-2.125 0 -3.375 -1.296875q-1.234375 -1.3125 -1.234375 -3.671875q0 -2.453125 1.25 -3.796875q1.265625 -1.34375 3.265625 -1.34375q1.9375 0 3.15625 1.328125q1.234375 1.3125 1.234375 3.703125q0 0.15625 0 0.4375l-7.21875 0q0.09375 1.59375 0.90625 2.453125q0.8125 0.84375 2.015625 0.84375q0.90625 0 1.546875 -0.46875q0.640625 -0.484375 1.015625 -1.515625zm-5.390625 -2.65625l5.40625 0q-0.109375 -1.21875 -0.625 -1.828125q-0.78125 -0.953125 -2.03125 -0.953125q-1.125 0 -1.90625 0.765625q-0.765625 0.75 -0.84375 2.015625z" fill-rule="nonzero"/><path fill="#fce5cd" d="m354.28348 50.28609l53.700775 0l0 53.700787l-53.700775 0z" fill-rule="evenodd"/><path stroke="#000000" stroke-width="2.0" stroke-linejoin="round" stroke-linecap="butt" d="m354.28348 50.28609l53.700775 0l0 53.700787l-53.700775 0z" fill-rule="evenodd"/><path fill="#000000" d="m377.41302 84.05648l-2.96875 -9.671875l1.703125 0l1.53125 5.578125l0.578125 2.078125q0.046875 -0.15625 0.5 -2.0l1.546875 -5.65625l1.6875 0l1.4375 5.609375l0.484375 1.84375l0.5625 -1.859375l1.65625 -5.59375l1.59375 0l-3.03125 9.671875l-1.703125 0l-1.53125 -5.796875l-0.375 -1.640625l-1.953125 7.4375l-1.71875 0z" fill-rule="nonzero"/><path fill="#fce5cd" d="m354.28348 103.98688l53.700775 0l0 53.70079l-53.700775 0z" fill-rule="evenodd"/><path stroke="#000000" stroke-width="2.0" stroke-linejoin="round" stroke-linecap="butt" d="m354.28348 103.98688l53.700775 0l0 53.70079l-53.700775 0z" fill-rule="evenodd"/><path fill="#000000" d="m376.6104 137.75726l3.53125 -5.03125l-3.265625 -4.640625l2.046875 0l1.484375 2.265625q0.421875 0.640625 0.671875 1.078125q0.40625 -0.59375 0.734375 -1.0625l1.640625 -2.28125l1.953125 0l-3.34375 4.546875l3.59375 5.125l-2.015625 0l-1.984375 -3.0l-0.515625 -0.8125l-2.546875 3.8125l-1.984375 0z" fill-rule="nonzero"/><path fill="#fce5cd" d="m354.28348 157.68767l53.700775 0l0 53.70079l-53.700775 0z" fill-rule="evenodd"/><path stroke="#000000" stroke-width="2.0" stroke-linejoin="round" stroke-linecap="butt" d="m354.28348 157.68767l53.700775 0l0 53.70079l-53.700775 0z" fill-rule="evenodd"/><path fill="#000000" d="m377.62604 195.1768l-0.1875 -1.53125q0.546875 0.140625 0.9375 0.140625q0.546875 0 0.875 -0.1875q0.328125 -0.171875 0.546875 -0.5q0.15625 -0.25 0.5 -1.21875q0.046875 -0.140625 0.140625 -0.40625l-3.671875 -9.6875l1.765625 0l2.015625 5.59375q0.390625 1.078125 0.703125 2.25q0.28125 -1.125 0.671875 -2.203125l2.078125 -5.640625l1.640625 0l-3.6875 9.828125q-0.59375 1.609375 -0.921875 2.203125q-0.4375 0.8125 -1.0 1.1875q-0.5625 0.375 -1.34375 0.375q-0.484375 0 -1.0625 -0.203125z" fill-rule="nonzero"/><path fill="#fce5cd" d="m354.28348 211.38846l53.700775 0l0 53.700775l-53.700775 0z" fill-rule="evenodd"/><path stroke="#000000" stroke-width="2.0" stroke-linejoin="round" stroke-linecap="butt" d="m354.28348 211.38846l53.700775 0l0 53.700775l-53.700775 0z" fill-rule="evenodd"/><path fill="#000000" d="m376.82916 245.15884l0 -1.328125l6.15625 -7.078125q-1.046875 0.0625 -1.84375 0.0625l-3.9375 0l0 -1.328125l7.90625 0l0 1.078125l-5.25 6.140625l-1.0 1.125q1.09375 -0.078125 2.0625 -0.078125l4.46875 0l0 1.40625l-8.5625 0z" fill-rule="nonzero"/><path fill="#efefef" d="m407.98425 50.28609l53.700775 0l0 53.700787l-53.700775 0z" fill-rule="evenodd"/><path stroke="#000000" stroke-width="2.0" stroke-linejoin="round" stroke-linecap="butt" d="m407.98425 50.28609l53.700775 0l0 53.700787l-53.700775 0z" fill-rule="evenodd"/><path fill="#efefef" d="m407.98425 103.98688l53.700775 0l0 53.70079l-53.700775 0z" fill-rule="evenodd"/><path stroke="#000000" stroke-width="2.0" stroke-linejoin="round" stroke-linecap="butt" d="m407.98425 103.98688l53.700775 0l0 53.70079l-53.700775 0z" fill-rule="evenodd"/><path fill="#efefef" d="m407.98425 157.68767l53.700775 0l0 53.70079l-53.700775 0z" fill-rule="evenodd"/><path stroke="#000000" stroke-width="2.0" stroke-linejoin="round" stroke-linecap="butt" d="m407.98425 157.68767l53.700775 0l0 53.70079l-53.700775 0z" fill-rule="evenodd"/><path fill="#efefef" d="m407.98425 211.38846l53.700775 0l0 53.700775l-53.700775 0z" fill-rule="evenodd"/><path stroke="#000000" stroke-width="2.0" stroke-linejoin="round" stroke-linecap="butt" d="m407.98425 211.38846l53.700775 0l0 53.700775l-53.700775 0z" fill-rule="evenodd"/><path fill="#efefef" d="m461.68503 50.28609l53.700775 0l0 53.700787l-53.700775 0z" fill-rule="evenodd"/><path stroke="#000000" stroke-width="2.0" stroke-linejoin="round" stroke-linecap="butt" d="m461.68503 50.28609l53.700775 0l0 53.700787l-53.700775 0z" fill-rule="evenodd"/><path fill="#efefef" d="m461.68503 103.98688l53.700775 0l0 53.70079l-53.700775 0z" fill-rule="evenodd"/><path stroke="#000000" stroke-width="2.0" stroke-linejoin="round" stroke-linecap="butt" d="m461.68503 103.98688l53.700775 0l0 53.70079l-53.700775 0z" fill-rule="evenodd"/><path fill="#efefef" d="m461.68503 157.68767l53.700775 0l0 53.70079l-53.700775 0z" fill-rule="evenodd"/><path stroke="#000000" stroke-width="2.0" stroke-linejoin="round" stroke-linecap="butt" d="m461.68503 157.68767l53.700775 0l0 53.70079l-53.700775 0z" fill-rule="evenodd"/><path fill="#efefef" d="m461.68503 211.38846l53.700775 0l0 53.700775l-53.700775 0z" fill-rule="evenodd"/><path stroke="#000000" stroke-width="2.0" stroke-linejoin="round" stroke-linecap="butt" d="m461.68503 211.38846l53.700775 0l0 53.700775l-53.700775 0z" fill-rule="evenodd"/><path fill="#efefef" d="m515.3858 50.28609l53.700806 0l0 53.700787l-53.700806 0z" fill-rule="evenodd"/><path stroke="#000000" stroke-width="2.0" stroke-linejoin="round" stroke-linecap="butt" d="m515.3858 50.28609l53.700806 0l0 53.700787l-53.700806 0z" fill-rule="evenodd"/><path fill="#efefef" d="m515.3858 103.98688l53.700806 0l0 53.70079l-53.700806 0z" fill-rule="evenodd"/><path stroke="#000000" stroke-width="2.0" stroke-linejoin="round" stroke-linecap="butt" d="m515.3858 103.98688l53.700806 0l0 53.70079l-53.700806 0z" fill-rule="evenodd"/><path fill="#efefef" d="m515.3858 157.68767l53.700806 0l0 53.70079l-53.700806 0z" fill-rule="evenodd"/><path stroke="#000000" stroke-width="2.0" stroke-linejoin="round" stroke-linecap="butt" d="m515.3858 157.68767l53.700806 0l0 53.70079l-53.700806 0z" fill-rule="evenodd"/><path fill="#efefef" d="m515.3858 211.38846l53.700806 0l0 53.700775l-53.700806 0z" fill-rule="evenodd"/><path stroke="#000000" stroke-width="2.0" stroke-linejoin="round" stroke-linecap="butt" d="m515.3858 211.38846l53.700806 0l0 53.700775l-53.700806 0z" fill-rule="evenodd"/><path fill="#d9ead3" d="m659.4252 50.28609l53.700806 0l0 53.700787l-53.700806 0z" fill-rule="evenodd"/><path stroke="#000000" stroke-width="2.0" stroke-linejoin="round" stroke-linecap="butt" d="m659.4252 50.28609l53.700806 0l0 53.700787l-53.700806 0z" fill-rule="evenodd"/><path fill="#000000" d="m679.7139 77.13961l-1.671875 -0.3125q0.28125 -1.0 0.96875 -1.46875q0.6875 -0.484375 2.03125 -0.484375q1.21875 0 1.8125 0.296875q0.609375 0.28125 0.84375 0.734375q0.25 0.4375 0.25 1.625l-0.015625 2.140625q0 0.90625 0.078125 1.34375q0.09375 0.421875 0.34375 0.921875l-1.8125 0q-0.078125 -0.1875 -0.171875 -0.546875q-0.046875 -0.15625 -0.078125 -0.203125q-0.46875 0.453125 -1.0 0.6875q-0.53125 0.21875 -1.140625 0.21875q-1.0625 0 -1.6875 -0.578125q-0.609375 -0.578125 -0.609375 -1.46875q0 -0.578125 0.28125 -1.03125q0.28125 -0.46875 0.78125 -0.703125q0.515625 -0.25 1.46875 -0.4375q1.28125 -0.234375 1.765625 -0.453125l0 -0.171875q0 -0.53125 -0.265625 -0.75q-0.25 -0.234375 -0.96875 -0.234375q-0.484375 0 -0.765625 0.203125q-0.265625 0.1875 -0.4375 0.671875zm2.4375 1.484375q-0.34375 0.109375 -1.109375 0.28125q-0.765625 0.15625 -1.0 0.3125q-0.359375 0.25 -0.359375 0.640625q0 0.390625 0.28125 0.671875q0.296875 0.28125 0.734375 0.28125q0.5 0 0.953125 -0.328125q0.328125 -0.25 0.4375 -0.609375q0.0625 -0.234375 0.0625 -0.890625l0 -0.359375zm4.8968506 3.3125l-2.1875 -6.90625l1.765625 0l1.296875 4.53125l1.203125 -4.53125l1.75 0l1.15625 4.53125l1.328125 -4.53125l1.796875 0l-2.21875 6.90625l-1.75 0l-1.203125 -4.4375l-1.171875 4.4375l-1.765625 0z" fill-rule="nonzero"/><path fill="#d9ead3" d="m659.4252 103.98688l53.700806 0l0 53.70079l-53.700806 0z" fill-rule="evenodd"/><path stroke="#000000" stroke-width="2.0" stroke-linejoin="round" stroke-linecap="butt" d="m659.4252 103.98688l53.700806 0l0 53.70079l-53.700806 0z" fill-rule="evenodd"/><path fill="#000000" d="m679.74786 135.63727l0 -9.546875l1.828125 0l0 3.4375q0.84375 -0.953125 2.015625 -0.953125q1.25 0 2.078125 0.921875q0.828125 0.90625 0.828125 2.609375q0 1.78125 -0.84375 2.734375q-0.84375 0.953125 -2.046875 0.953125q-0.59375 0 -1.171875 -0.296875q-0.5625 -0.296875 -0.984375 -0.875l0 1.015625l-1.703125 0zm1.8125 -3.609375q0 1.078125 0.34375 1.59375q0.46875 0.734375 1.265625 0.734375q0.609375 0 1.03125 -0.515625q0.421875 -0.53125 0.421875 -1.640625q0 -1.1875 -0.4375 -1.703125q-0.421875 -0.53125 -1.09375 -0.53125q-0.65625 0 -1.09375 0.515625q-0.4375 0.515625 -0.4375 1.546875zm5.6726074 3.609375l0 -1.421875l2.59375 -2.984375q0.640625 -0.71875 0.9375 -1.03125q-0.3125 0.015625 -0.828125 0.03125l-2.453125 0.015625l0 -1.515625l5.71875 0l0 1.296875l-2.640625 3.03125l-0.9375 1.015625q0.765625 -0.046875 0.953125 -0.046875l2.828125 0l0 1.609375l-6.171875 0z" fill-rule="nonzero"/><path fill="#d9ead3" d="m659.4252 157.68767l53.700806 0l0 53.70079l-53.700806 0z" fill-rule="evenodd"/><path stroke="#000000" stroke-width="2.0" stroke-linejoin="round" stroke-linecap="butt" d="m659.4252 157.68767l53.700806 0l0 53.70079l-53.700806 0z" fill-rule="evenodd"/><path fill="#000000" d="m685.8475 184.46306l-1.796875 0.328125q-0.09375 -0.53125 -0.421875 -0.796875q-0.328125 -0.28125 -0.828125 -0.28125q-0.6875 0 -1.09375 0.46875q-0.40625 0.46875 -0.40625 1.578125q0 1.234375 0.40625 1.75q0.421875 0.5 1.109375 0.5q0.53125 0 0.859375 -0.296875q0.328125 -0.296875 0.46875 -1.03125l1.796875 0.3125q-0.28125 1.234375 -1.078125 1.875q-0.796875 0.625 -2.125 0.625q-1.515625 0 -2.421875 -0.953125q-0.90625 -0.953125 -0.90625 -2.65625q0 -1.703125 0.90625 -2.65625q0.90625 -0.953125 2.453125 -0.953125q1.265625 0 2.0 0.546875q0.75 0.53125 1.078125 1.640625zm0.5218506 -2.03125l1.9375 0l1.65625 4.90625l1.609375 -4.90625l1.90625 0l-2.453125 6.640625l-0.421875 1.203125q-0.25 0.609375 -0.46875 0.921875q-0.21875 0.328125 -0.5 0.515625q-0.28125 0.203125 -0.703125 0.3125q-0.40625 0.125 -0.921875 0.125q-0.53125 0 -1.03125 -0.125l-0.171875 -1.421875q0.4375 0.078125 0.78125 0.078125q0.640625 0 0.9375 -0.375q0.3125 -0.375 0.46875 -0.953125l-2.625 -6.921875z" fill-rule="nonzero"/><path fill="#d9ead3" d="m659.4252 211.38846l53.700806 0l0 53.700775l-53.700806 0z" fill-rule="evenodd"/><path stroke="#000000" stroke-width="2.0" stroke-linejoin="round" stroke-linecap="butt" d="m659.4252 211.38846l53.700806 0l0 53.700775l-53.700806 0z" fill-rule="evenodd"/><path fill="#000000" d="m675.9953 242.75885l-1.515625 0l0 -0.921875q-0.390625 0.546875 -0.90625 0.8125q-0.515625 0.25 -1.046875 0.25q-1.078125 0 -1.84375 -0.859375q-0.75 -0.875 -0.75 -2.421875q0 -1.578125 0.734375 -2.390625q0.75 -0.828125 1.890625 -0.828125q1.03125 0 1.796875 0.859375l0 -3.09375l1.640625 0l0 8.59375zm-4.390625 -3.25q0 1.0 0.28125 1.4375q0.390625 0.65625 1.109375 0.65625q0.5625 0 0.953125 -0.484375q0.40625 -0.484375 0.40625 -1.453125q0 -1.0625 -0.390625 -1.53125q-0.375 -0.484375 -0.984375 -0.484375q-0.578125 0 -0.984375 0.46875q-0.390625 0.46875 -0.390625 1.390625zm5.236328 -2.96875l1.75 0l1.5 4.40625l1.453125 -4.40625l1.703125 0l-2.203125 5.984375l-0.390625 1.078125q-0.21875 0.546875 -0.421875 0.828125q-0.1875 0.296875 -0.453125 0.46875q-0.25 0.1875 -0.625 0.28125q-0.359375 0.109375 -0.828125 0.109375q-0.484375 0 -0.9375 -0.109375l-0.140625 -1.28125q0.390625 0.078125 0.6875 0.078125q0.578125 0 0.84375 -0.34375q0.28125 -0.328125 0.4375 -0.859375l-2.375 -6.234375zm9.345703 4.984375l0 -2.234375l-2.25 0l0 -1.546875l2.25 0l0 -2.234375l1.5 0l0 2.234375l2.25 0l0 1.546875l-2.25 0l0 2.234375l-1.5 0zm8.7265625 -0.75l1.640625 0.28125q-0.3125 0.90625 -1.0 1.375q-0.6875 0.46875 -1.703125 0.46875q-1.625 0 -2.40625 -1.0625q-0.625 -0.84375 -0.625 -2.140625q0 -1.546875 0.8125 -2.421875q0.8125 -0.875 2.046875 -0.875q1.390625 0 2.1875 0.921875q0.8125 0.90625 0.765625 2.796875l-4.125 0q0.03125 0.734375 0.40625 1.140625q0.375 0.40625 0.953125 0.40625q0.375 0 0.640625 -0.203125q0.265625 -0.21875 0.40625 -0.6875zm0.09375 -1.65625q-0.015625 -0.71875 -0.375 -1.09375q-0.34375 -0.375 -0.859375 -0.375q-0.53125 0 -0.890625 0.390625q-0.34375 0.40625 -0.34375 1.078125l2.46875 0zm2.3144531 3.640625l0 -1.28125l2.328125 -2.6875q0.578125 -0.65625 0.84375 -0.921875q-0.28125 0.015625 -0.75 0.015625l-2.203125 0.015625l0 -1.359375l5.15625 0l0 1.15625l-2.390625 2.75l-0.828125 0.90625q0.6875 -0.046875 0.84375 -0.046875l2.546875 0l0 1.453125l-5.546875 0z" fill-rule="nonzero"/><path fill="#efefef" d="m713.126 50.28609l53.700806 0l0 53.700787l-53.700806 0z" fill-rule="evenodd"/><path stroke="#000000" stroke-width="2.0" stroke-linejoin="round" stroke-linecap="butt" d="m713.126 50.28609l53.700806 0l0 53.700787l-53.700806 0z" fill-rule="evenodd"/><path fill="#efefef" d="m713.126 103.98688l53.700806 0l0 53.70079l-53.700806 0z" fill-rule="evenodd"/><path stroke="#000000" stroke-width="2.0" stroke-linejoin="round" stroke-linecap="butt" d="m713.126 103.98688l53.700806 0l0 53.70079l-53.700806 0z" fill-rule="evenodd"/><path fill="#efefef" d="m713.126 157.68767l53.700806 0l0 53.70079l-53.700806 0z" fill-rule="evenodd"/><path stroke="#000000" stroke-width="2.0" stroke-linejoin="round" stroke-linecap="butt" d="m713.126 157.68767l53.700806 0l0 53.70079l-53.700806 0z" fill-rule="evenodd"/><path fill="#efefef" d="m713.126 211.38846l53.700806 0l0 53.700775l-53.700806 0z" fill-rule="evenodd"/><path stroke="#000000" stroke-width="2.0" stroke-linejoin="round" stroke-linecap="butt" d="m713.126 211.38846l53.700806 0l0 53.700775l-53.700806 0z" fill-rule="evenodd"/><path fill="#efefef" d="m766.8268 50.28609l53.700806 0l0 53.700787l-53.700806 0z" fill-rule="evenodd"/><path stroke="#000000" stroke-width="2.0" stroke-linejoin="round" stroke-linecap="butt" d="m766.8268 50.28609l53.700806 0l0 53.700787l-53.700806 0z" fill-rule="evenodd"/><path fill="#efefef" d="m766.8268 103.98688l53.700806 0l0 53.70079l-53.700806 0z" fill-rule="evenodd"/><path stroke="#000000" stroke-width="2.0" stroke-linejoin="round" stroke-linecap="butt" d="m766.8268 103.98688l53.700806 0l0 53.70079l-53.700806 0z" fill-rule="evenodd"/><path fill="#efefef" d="m766.8268 157.68767l53.700806 0l0 53.70079l-53.700806 0z" fill-rule="evenodd"/><path stroke="#000000" stroke-width="2.0" stroke-linejoin="round" stroke-linecap="butt" d="m766.8268 157.68767l53.700806 0l0 53.70079l-53.700806 0z" fill-rule="evenodd"/><path fill="#efefef" d="m766.8268 211.38846l53.700806 0l0 53.700775l-53.700806 0z" fill-rule="evenodd"/><path stroke="#000000" stroke-width="2.0" stroke-linejoin="round" stroke-linecap="butt" d="m766.8268 211.38846l53.700806 0l0 53.700775l-53.700806 0z" fill-rule="evenodd"/><path fill="#efefef" d="m820.5276 50.28609l53.700745 0l0 53.700787l-53.700745 0z" fill-rule="evenodd"/><path stroke="#000000" stroke-width="2.0" stroke-linejoin="round" stroke-linecap="butt" d="m820.5276 50.28609l53.700745 0l0 53.700787l-53.700745 0z" fill-rule="evenodd"/><path fill="#efefef" d="m820.5276 103.98688l53.700745 0l0 53.70079l-53.700745 0z" fill-rule="evenodd"/><path stroke="#000000" stroke-width="2.0" stroke-linejoin="round" stroke-linecap="butt" d="m820.5276 103.98688l53.700745 0l0 53.70079l-53.700745 0z" fill-rule="evenodd"/><path fill="#efefef" d="m820.5276 157.68767l53.700745 0l0 53.70079l-53.700745 0z" fill-rule="evenodd"/><path stroke="#000000" stroke-width="2.0" stroke-linejoin="round" stroke-linecap="butt" d="m820.5276 157.68767l53.700745 0l0 53.70079l-53.700745 0z" fill-rule="evenodd"/><path fill="#efefef" d="m820.5276 211.38846l53.700745 0l0 53.700775l-53.700745 0z" fill-rule="evenodd"/><path stroke="#000000" stroke-width="2.0" stroke-linejoin="round" stroke-linecap="butt" d="m820.5276 211.38846l53.700745 0l0 53.700775l-53.700745 0z" fill-rule="evenodd"/><path fill="#000000" fill-opacity="0.0" d="m288.0118 122.28609l42.204712 0l0 51.716537l-42.204712 0z" fill-rule="evenodd"/><path fill="#000000" d="m312.1212 154.7611q-0.84375 0.984375 -1.890625 1.578125q-1.046875 0.578125 -2.109375 0.578125q-1.15625 0 -2.25 -0.671875q-1.09375 -0.671875 -1.78125 -2.078125q-0.671875 -1.40625 -0.671875 -3.09375q0 -2.0625 1.0625 -4.140625q1.0625 -2.078125 2.625 -3.109375q1.578125 -1.046875 3.0625 -1.046875q1.140625 0 2.15625 0.59375q1.03125 0.59375 1.78125 1.796875l0.4375 -2.015625l2.328125 0l-1.875 8.734375q-0.390625 1.828125 -0.390625 2.015625q0 0.359375 0.265625 0.609375q0.265625 0.25 0.65625 0.25q0.6875 0 1.796875 -0.796875q1.484375 -1.03125 2.34375 -2.78125q0.875 -1.75 0.875 -3.609375q0 -2.1875 -1.109375 -4.0625q-1.109375 -1.890625 -3.328125 -3.015625q-2.203125 -1.140625 -4.875 -1.140625q-3.03125 0 -5.5625 1.421875q-2.515625 1.421875 -3.90625 4.09375q-1.375 2.65625 -1.375 5.703125q0 3.1875 1.375 5.5q1.390625 2.296875 4.015625 3.390625q2.625 1.109375 5.8125 1.109375q3.40625 0 5.703125 -1.15625q2.3125 -1.140625 3.453125 -2.78125l2.359375 0q-0.65625 1.375 -2.28125 2.78125q-1.609375 1.421875 -3.84375 2.25q-2.21875 0.828125 -5.359375 0.828125q-2.875 0 -5.328125 -0.75q-2.4375 -0.734375 -4.15625 -2.234375q-1.71875 -1.484375 -2.59375 -3.421875q-1.09375 -2.453125 -1.09375 -5.3125q0 -3.171875 1.3125 -6.046875q1.578125 -3.53125 4.5 -5.40625q2.921875 -1.875 7.09375 -1.875q3.234375 0 5.796875 1.328125q2.578125 1.3125 4.0625 3.9375q1.25 2.25 1.25 4.890625q0 3.78125 -2.65625 6.703125q-2.359375 2.625 -5.171875 2.625q-0.90625 0 -1.453125 -0.265625q-0.546875 -0.28125 -0.8125 -0.78125q-0.171875 -0.328125 -0.25 -1.125zm-6.296875 -3.53125q0 1.796875 0.84375 2.78125q0.84375 0.984375 1.9375 0.984375q0.734375 0 1.53125 -0.4375q0.8125 -0.4375 1.546875 -1.296875q0.734375 -0.859375 1.203125 -2.171875q0.46875 -1.328125 0.46875 -2.65625q0 -1.765625 -0.875 -2.734375q-0.875 -0.984375 -2.140625 -0.984375q-0.828125 0 -1.5625 0.421875q-0.734375 0.421875 -1.4375 1.359375q-0.6875 0.9375 -1.109375 2.28125q-0.40625 1.34375 -0.40625 2.453125z" fill-rule="nonzero"/><path fill="#000000" fill-opacity="0.0" d="m596.58136 129.14174l42.204712 0l0 51.716522l-42.204712 0z" fill-rule="evenodd"/><path fill="#000000" d="m619.6595 152.52298l-12.59375 0l0 -2.1875l12.59375 0l0 2.1875zm0 5.796875l-12.59375 0l0 -2.1875l12.59375 0l0 2.1875z" fill-rule="nonzero"/></g></svg>