<svg version="1.1" viewBox="0.0 0.0 958.4724409448819 269.4278215223097" fill="none" stroke="none" stroke-linecap="square" stroke-miterlimit="10" xmlns:xlink="http://www.w3.org/1999/xlink" xmlns="http://www.w3.org/2000/svg"><clipPath id="p.0"><path d="m0 0l958.4724 0l0 269.42783l-958.4724 0l0 -269.42783z" clip-rule="nonzero"/></clipPath><g clip-path="url(#p.0)"><path fill="#000000" fill-opacity="0.0" d="m0 0l958.4724 0l0 269.42783l-958.4724 0z" fill-rule="evenodd"/><path fill="#d9d9d9" d="m258.14658 56.553352l192.126 0l0 101.54331l-192.126 0z" fill-rule="evenodd"/><path fill="#9fc5e8" d="m271.87057 65.7026l167.40158 0l0 32.913383l-167.40158 0z" fill-rule="evenodd"/><path fill="#000000" d="m323.99625 83.00116q-0.453125 -0.296875 -0.953125 -0.4375q-0.5 -0.140625 -1.046875 -0.140625q-1.078125 0 -1.71875 0.359375q-0.28125 0.15625 -0.28125 0.34375q0 0.203125 0.375 0.40625q0.296875 0.140625 1.3125 0.28125q1.859375 0.25 2.578125 0.515625q0.96875 0.328125 1.484375 1.0q0.515625 0.65625 0.515625 1.40625q0 1.0 -0.890625 1.671875q-1.265625 0.96875 -3.28125 0.96875q-0.8125 0 -1.5 -0.140625q-0.6875 -0.140625 -1.265625 -0.40625q-0.125 0.109375 -0.28125 0.171875q-0.15625 0.0625 -0.328125 0.0625q-0.4375 0 -0.703125 -0.28125q-0.25 -0.28125 -0.25 -0.953125l0 -0.640625q0 -0.671875 0.25 -0.953125q0.265625 -0.296875 0.6875 -0.296875q0.34375 0 0.5625 0.1875q0.234375 0.1875 0.359375 0.640625q0.421875 0.375 1.015625 0.5625q0.609375 0.1875 1.390625 0.1875q1.296875 0 2.0 -0.40625q0.34375 -0.203125 0.34375 -0.421875q0 -0.359375 -0.484375 -0.59375q-0.484375 -0.234375 -2.0 -0.40625q-2.25 -0.234375 -3.0 -0.90625q-0.765625 -0.671875 -0.765625 -1.640625q0 -1.0 0.859375 -1.671875q1.140625 -0.90625 3.0 -0.90625q0.640625 0 1.234375 0.125q0.609375 0.125 1.15625 0.375q0.171875 -0.125 0.3125 -0.1875q0.15625 -0.0625 0.28125 -0.0625q0.390625 0 0.640625 0.28125q0.25 0.28125 0.25 0.96875l0 0.453125q0 0.609375 -0.140625 0.828125q-0.296875 0.421875 -0.796875 0.421875q-0.328125 0 -0.59375 -0.203125q-0.25 -0.21875 -0.328125 -0.5625zm8.789307 -2.1875l0 1.15625q1.1875 -0.84375 1.859375 -1.125q0.6875 -0.28125 1.265625 -0.28125q0.921875 0 1.78125 0.671875q0.578125 0.453125 0.578125 0.921875q0 0.40625 -0.28125 0.6875q-0.28125 0.28125 -0.671875 0.28125q-0.34375 0 -0.734375 -0.34375q-0.375 -0.359375 -0.671875 -0.359375q-0.390625 0 -1.171875 0.5q-0.78125 0.484375 -1.953125 1.46875l0 2.8125l2.671875 0q0.671875 0 0.953125 0.265625q0.296875 0.265625 0.296875 0.6875q0 0.40625 -0.296875 0.671875q-0.28125 0.25 -0.953125 0.25l-5.640625 0q-0.671875 0 -0.96875 -0.25q-0.28125 -0.265625 -0.28125 -0.6875q0 -0.40625 0.28125 -0.671875q0.296875 -0.265625 0.96875 -0.265625l1.109375 0l0 -4.53125l-0.671875 0q-0.671875 0 -0.96875 -0.25q-0.28125 -0.265625 -0.28125 -0.6875q0 -0.40625 0.28125 -0.65625q0.296875 -0.265625 0.96875 -0.265625l2.53125 0zm14.508087 0.328125q0.328125 -0.3125 0.6875 -0.3125q0.390625 0 0.65625 0.296875q0.265625 0.28125 0.265625 0.9375l0 1.203125q0 0.671875 -0.265625 0.953125q-0.265625 0.28125 -0.671875 0.28125q-0.390625 0 -0.65625 -0.21875q-0.1875 -0.15625 -0.296875 -0.65625q-0.109375 -0.515625 -0.53125 -0.765625q-0.734375 -0.4375 -1.875 -0.4375q-1.328125 0 -2.125 0.78125q-0.796875 0.78125 -0.796875 1.953125q0 1.09375 0.765625 1.734375q0.765625 0.625 2.546875 0.625q1.15625 0 1.890625 -0.234375q0.4375 -0.140625 0.828125 -0.484375q0.40625 -0.359375 0.71875 -0.359375q0.375 0 0.65625 0.28125q0.28125 0.28125 0.28125 0.671875q0 0.609375 -0.84375 1.171875q-1.265625 0.828125 -3.6875 0.828125q-2.171875 0 -3.390625 -0.90625q-1.640625 -1.203125 -1.640625 -3.3125q0 -2.0 1.328125 -3.296875q1.34375 -1.3125 3.484375 -1.3125q0.765625 0 1.421875 0.15625q0.671875 0.140625 1.25 0.421875zm13.445557 13.546875l-10.25 0q-0.671875 0 -0.953125 -0.265625q-0.296875 -0.25 -0.296875 -0.671875q0 -0.421875 0.296875 -0.6875q0.28125 -0.25 0.953125 -0.25l10.25 0q0.671875 0 0.953125 0.25q0.28125 0.265625 0.28125 0.6875q0 0.40625 -0.28125 0.671875q-0.28125 0.265625 -0.953125 0.265625zm5.633087 -13.875l0 1.15625q1.1875 -0.84375 1.859375 -1.125q0.6875 -0.28125 1.265625 -0.28125q0.921875 0 1.78125 0.671875q0.578125 0.453125 0.578125 0.921875q0 0.40625 -0.28125 0.6875q-0.28125 0.28125 -0.671875 0.28125q-0.34375 0 -0.734375 -0.34375q-0.375 -0.359375 -0.671875 -0.359375q-0.390625 0 -1.171875 0.5q-0.78125 0.484375 -1.953125 1.46875l0 2.8125l2.671875 0q0.671875 0 0.953125 0.265625q0.296875 0.265625 0.296875 0.6875q0 0.40625 -0.296875 0.671875q-0.28125 0.25 -0.953125 0.25l-5.640625 0q-0.671875 0 -0.96875 -0.25q-0.28125 -0.265625 -0.28125 -0.6875q0 -0.40625 0.28125 -0.671875q0.296875 -0.265625 0.96875 -0.265625l1.109375 0l0 -4.53125l-0.671875 0q-0.671875 0 -0.96875 -0.25q-0.28125 -0.265625 -0.28125 -0.6875q0 -0.40625 0.28125 -0.65625q0.296875 -0.265625 0.96875 -0.265625l2.53125 0zm16.273682 5.078125l-7.65625 0q0.296875 0.734375 1.03125 1.1875q0.75 0.4375 2.015625 0.4375q1.03125 0 2.75 -0.453125q0.71875 -0.1875 0.984375 -0.1875q0.375 0 0.625 0.265625q0.265625 0.265625 0.265625 0.671875q0 0.359375 -0.28125 0.625q-0.359375 0.328125 -1.78125 0.640625q-1.40625 0.296875 -2.703125 0.296875q-2.25 0 -3.59375 -1.265625q-1.34375 -1.265625 -1.34375 -3.109375q0 -1.96875 1.453125 -3.203125q1.453125 -1.234375 3.359375 -1.234375q1.140625 0 2.078125 0.40625q0.953125 0.390625 1.421875 0.859375q0.65625 0.671875 1.09375 1.671875q0.28125 0.6875 0.28125 1.59375l0 0.796875zm-2.0625 -1.875q-0.4375 -0.796875 -1.125 -1.1875q-0.6875 -0.40625 -1.640625 -0.40625q-0.953125 0 -1.65625 0.40625q-0.6875 0.390625 -1.125 1.1875l5.546875 0zm8.554962 -1.34375l0 4.53125l2.671875 0q0.671875 0 0.953125 0.265625q0.28125 0.265625 0.28125 0.6875q0 0.40625 -0.28125 0.671875q-0.28125 0.25 -0.953125 0.25l-5.640625 0q-0.671875 0 -0.96875 -0.25q-0.28125 -0.265625 -0.28125 -0.6875q0 -0.40625 0.28125 -0.671875q0.296875 -0.265625 0.96875 -0.265625l1.109375 0l0 -4.53125l-0.890625 0q-0.671875 0 -0.96875 -0.25q-0.28125 -0.265625 -0.28125 -0.6875q0 -0.40625 0.28125 -0.65625q0.296875 -0.265625 0.96875 -0.265625l0.890625 0l0 -0.71875q0 -1.21875 0.90625 -2.015625q0.921875 -0.8125 2.65625 -0.8125q0.78125 0 1.796875 0.140625q1.015625 0.140625 1.296875 0.40625q0.296875 0.25 0.296875 0.640625q0 0.4375 -0.265625 0.703125q-0.25 0.265625 -0.625 0.265625q-0.171875 0 -0.515625 -0.0625q-1.15625 -0.234375 -2.046875 -0.234375q-0.9375 0 -1.296875 0.28125q-0.34375 0.28125 -0.34375 0.6875l0 0.71875l2.890625 0q0.671875 0 0.953125 0.265625q0.28125 0.25 0.28125 0.671875q0 0.40625 -0.28125 0.671875q-0.28125 0.25 -0.953125 0.25l-2.890625 0z" fill-rule="nonzero"/><path fill="#ea9999" d="m271.87057 109.58044l167.40158 0l0 32.913383l-167.40158 0z" fill-rule="evenodd"/><path fill="#000000" d="m326.2775 121.14463l0 9.937492l0.3125 0q0.671875 0 0.953125 0.265625q0.296875 0.265625 0.296875 0.6875q0 0.40625 -0.296875 0.671875q-0.28125 0.25 -0.953125 0.25l-2.1875 0l0 -0.453125q-0.640625 0.375 -1.34375 0.5625q-0.6875 0.1875 -1.4375 0.1875q-2.09375 0 -3.390625 -1.203125q-1.28125 -1.21875 -1.28125 -3.03125q0 -1.9062424 1.34375 -3.2343674q1.359375 -1.34375 3.296875 -1.34375q0.734375 0 1.421875 0.21875q0.703125 0.21875 1.390625 0.671875l0 -2.328125l-0.3125 0q-0.6875 0 -0.96875 -0.25q-0.28125 -0.265625 -0.28125 -0.671875q0 -0.421875 0.28125 -0.671875q0.28125 -0.265625 0.96875 -0.265625l2.1875 0zm-1.875 7.9218674q0 -1.1562424 -0.8125 -1.9531174q-0.8125 -0.8125 -1.984375 -0.8125q-1.171875 0 -1.984375 0.8125q-0.796875 0.796875 -0.796875 1.9218674q0 1.03125 0.71875 1.703125q0.734375 0.65625 2.0625 0.65625q1.328125 0 2.0625 -0.65625q0.734375 -0.671875 0.734375 -1.671875zm10.789307 -2.1874924q-0.453125 -0.296875 -0.953125 -0.4375q-0.5 -0.140625 -1.046875 -0.140625q-1.078125 0 -1.71875 0.359375q-0.28125 0.15625 -0.28125 0.34375q0 0.203125 0.375 0.40625q0.296875 0.140625 1.3125 0.28125q1.859375 0.25 2.578125 0.5156174q0.96875 0.328125 1.484375 1.0q0.515625 0.65625 0.515625 1.40625q0 1.0 -0.890625 1.671875q-1.265625 0.96875 -3.28125 0.96875q-0.8125 0 -1.5 -0.140625q-0.6875 -0.140625 -1.265625 -0.40625q-0.125 0.109375 -0.28125 0.171875q-0.15625 0.0625 -0.328125 0.0625q-0.4375 0 -0.703125 -0.28125q-0.25 -0.28125 -0.25 -0.953125l0 -0.640625q0 -0.671875 0.25 -0.953125q0.265625 -0.296875 0.6875 -0.296875q0.34375 0 0.5625 0.1875q0.234375 0.1875 0.359375 0.640625q0.421875 0.375 1.015625 0.5625q0.609375 0.1875 1.390625 0.1875q1.296875 0 2.0 -0.40625q0.34375 -0.203125 0.34375 -0.421875q0 -0.359375 -0.484375 -0.59375q-0.484375 -0.234375 -2.0 -0.40625q-2.25 -0.234375 -3.0 -0.90625q-0.765625 -0.6718674 -0.765625 -1.6406174q0 -1.0 0.859375 -1.671875q1.140625 -0.90625 3.0 -0.90625q0.640625 0 1.234375 0.125q0.609375 0.125 1.15625 0.375q0.171875 -0.125 0.3125 -0.1875q0.15625 -0.0625 0.28125 -0.0625q0.390625 0 0.640625 0.28125q0.25 0.28125 0.25 0.96875l0 0.453125q0 0.609375 -0.140625 0.828125q-0.296875 0.421875 -0.796875 0.421875q-0.328125 0 -0.59375 -0.203125q-0.25 -0.21875 -0.328125 -0.5625zm8.726837 -0.328125l0 3.7499924q0 0.59375 0.25 0.78125q0.375 0.3125 1.359375 0.3125q1.4375 0 2.640625 -0.609375q0.46875 -0.234375 0.734375 -0.234375q0.359375 0 0.625 0.265625q0.265625 0.265625 0.265625 0.671875q0 0.359375 -0.28125 0.625q-0.453125 0.421875 -1.765625 0.78125q-1.3125 0.359375 -2.21875 0.359375q-1.734375 0 -2.609375 -0.75q-0.875 -0.75 -0.875 -1.84375l0 -4.1093674l-0.671875 0q-0.671875 0 -0.96875 -0.25q-0.28125 -0.265625 -0.28125 -0.6875q0 -0.40625 0.28125 -0.65625q0.296875 -0.265625 0.96875 -0.265625l0.671875 0l0 -1.6875q0 -0.671875 0.265625 -0.953125q0.265625 -0.296875 0.671875 -0.296875q0.421875 0 0.671875 0.296875q0.265625 0.28125 0.265625 0.953125l0 1.6875l3.453125 0q0.671875 0 0.953125 0.265625q0.296875 0.25 0.296875 0.671875q0 0.40625 -0.296875 0.671875q-0.28125 0.25 -0.953125 0.25l-3.453125 0zm16.820557 12.015617l-10.25 0q-0.671875 0 -0.953125 -0.265625q-0.296875 -0.25 -0.296875 -0.671875q0 -0.421875 0.296875 -0.6875q0.28125 -0.25 0.953125 -0.25l10.25 0q0.671875 0 0.953125 0.25q0.28125 0.265625 0.28125 0.6875q0 0.40625 -0.28125 0.671875q-0.28125 0.265625 -0.953125 0.265625zm5.633087 -13.874992l0 1.15625q1.1875 -0.84375 1.859375 -1.125q0.6875 -0.28125 1.265625 -0.28125q0.921875 0 1.78125 0.671875q0.578125 0.453125 0.578125 0.921875q0 0.40625 -0.28125 0.6875q-0.28125 0.28125 -0.671875 0.28125q-0.34375 0 -0.734375 -0.34375q-0.375 -0.359375 -0.671875 -0.359375q-0.390625 0 -1.171875 0.5q-0.78125 0.484375 -1.953125 1.4687424l0 2.8125l2.671875 0q0.671875 0 0.953125 0.265625q0.296875 0.265625 0.296875 0.6875q0 0.40625 -0.296875 0.671875q-0.28125 0.25 -0.953125 0.25l-5.640625 0q-0.671875 0 -0.96875 -0.25q-0.28125 -0.265625 -0.28125 -0.6875q0 -0.40625 0.28125 -0.671875q0.296875 -0.265625 0.96875 -0.265625l1.109375 0l0 -4.5312424l-0.671875 0q-0.671875 0 -0.96875 -0.25q-0.28125 -0.265625 -0.28125 -0.6875q0 -0.40625 0.28125 -0.65625q0.296875 -0.265625 0.96875 -0.265625l2.53125 0zm16.273682 5.0781174l-7.65625 0q0.296875 0.734375 1.03125 1.1875q0.75 0.4375 2.015625 0.4375q1.03125 0 2.75 -0.453125q0.71875 -0.1875 0.984375 -0.1875q0.375 0 0.625 0.265625q0.265625 0.265625 0.265625 0.671875q0 0.359375 -0.28125 0.625q-0.359375 0.328125 -1.78125 0.640625q-1.40625 0.296875 -2.703125 0.296875q-2.25 0 -3.59375 -1.265625q-1.34375 -1.265625 -1.34375 -3.109375q0 -1.9687424 1.453125 -3.2031174q1.453125 -1.234375 3.359375 -1.234375q1.140625 0 2.078125 0.40625q0.953125 0.390625 1.421875 0.859375q0.65625 0.671875 1.09375 1.671875q0.28125 0.6874924 0.28125 1.5937424l0 0.796875zm-2.0625 -1.8749924q-0.4375 -0.796875 -1.125 -1.1875q-0.6875 -0.40625 -1.640625 -0.40625q-0.953125 0 -1.65625 0.40625q-0.6875 0.390625 -1.125 1.1875l5.546875 0zm8.554962 -1.34375l0 4.5312424l2.671875 0q0.671875 0 0.953125 0.265625q0.28125 0.265625 0.28125 0.6875q0 0.40625 -0.28125 0.671875q-0.28125 0.25 -0.953125 0.25l-5.640625 0q-0.671875 0 -0.96875 -0.25q-0.28125 -0.265625 -0.28125 -0.6875q0 -0.40625 0.28125 -0.671875q0.296875 -0.265625 0.96875 -0.265625l1.109375 0l0 -4.5312424l-0.890625 0q-0.671875 0 -0.96875 -0.25q-0.28125 -0.265625 -0.28125 -0.6875q0 -0.40625 0.28125 -0.65625q0.296875 -0.265625 0.96875 -0.265625l0.890625 0l0 -0.71875q0 -1.21875 0.90625 -2.015625q0.921875 -0.8125 2.65625 -0.8125q0.78125 0 1.796875 0.140625q1.015625 0.140625 1.296875 0.40625q0.296875 0.25 0.296875 0.640625q0 0.4375 -0.265625 0.703125q-0.25 0.265625 -0.625 0.265625q-0.171875 0 -0.515625 -0.0625q-1.15625 -0.234375 -2.046875 -0.234375q-0.9375 0 -1.296875 0.28125q-0.34375 0.28125 -0.34375 0.6875l0 0.71875l2.890625 0q0.671875 0 0.953125 0.265625q0.28125 0.25 0.28125 0.671875q0 0.40625 -0.28125 0.671875q-0.28125 0.25 -0.953125 0.25l-2.890625 0z" fill-rule="nonzero"/><path fill="#d9d9d9" d="m258.14658 164.5178l192.126 0l0 42.015747l-192.126 0z" fill-rule="evenodd"/><path fill="#000000" d="m324.36975 191.4378l0 -1.21875q-0.90625 1.4375 -2.703125 1.4375q-1.15625 0 -2.125 -0.640625q-0.96875 -0.640625 -1.5 -1.78125q-0.53125 -1.140625 -0.53125 -2.625q0 -1.453125 0.484375 -2.625q0.484375 -1.1875 1.4375 -1.8125q0.96875 -0.625 2.171875 -0.625q0.875 0 1.546875 0.375q0.6875 0.359375 1.109375 0.953125l0 -4.796875l1.640625 0l0 13.359375l-1.53125 0zm-5.171875 -4.828125q0 1.859375 0.78125 2.78125q0.78125 0.921875 1.84375 0.921875q1.078125 0 1.828125 -0.875q0.75 -0.890625 0.75 -2.6875q0 -1.984375 -0.765625 -2.90625q-0.765625 -0.9375 -1.890625 -0.9375q-1.078125 0 -1.8125 0.890625q-0.734375 0.890625 -0.734375 2.8125zm15.906982 1.71875l1.6875 0.203125q-0.40625 1.484375 -1.484375 2.3125q-1.078125 0.8125 -2.765625 0.8125q-2.125 0 -3.375 -1.296875q-1.234375 -1.3125 -1.234375 -3.671875q0 -2.453125 1.25 -3.796875q1.265625 -1.34375 3.265625 -1.34375q1.9375 0 3.15625 1.328125q1.234375 1.3125 1.234375 3.703125q0 0.15625 0 0.4375l-7.21875 0q0.09375 1.59375 0.90625 2.453125q0.8125 0.84375 2.015625 0.84375q0.90625 0 1.546875 -0.46875q0.640625 -0.484375 1.015625 -1.515625zm-5.390625 -2.65625l5.40625 0q-0.109375 -1.21875 -0.625 -1.828125q-0.78125 -0.953125 -2.03125 -0.953125q-1.125 0 -1.90625 0.765625q-0.765625 0.75 -0.84375 2.015625zm11.828827 5.765625l-3.6875 -9.671875l1.734375 0l2.078125 5.796875q0.328125 0.9375 0.625 1.9375q0.203125 -0.765625 0.609375 -1.828125l2.140625 -5.90625l1.6875 0l-3.65625 9.671875l-1.53125 0zm6.640625 -11.46875l0 -1.890625l1.640625 0l0 1.890625l-1.640625 0zm0 11.46875l0 -9.671875l1.640625 0l0 9.671875l-1.640625 0zm10.457336 -3.546875l1.609375 0.21875q-0.265625 1.65625 -1.359375 2.609375q-1.078125 0.9375 -2.671875 0.9375q-1.984375 0 -3.1875 -1.296875q-1.203125 -1.296875 -1.203125 -3.71875q0 -1.578125 0.515625 -2.75q0.515625 -1.171875 1.578125 -1.75q1.0625 -0.59375 2.3125 -0.59375q1.578125 0 2.578125 0.796875q1.0 0.796875 1.28125 2.265625l-1.59375 0.234375q-0.234375 -0.96875 -0.8125 -1.453125q-0.578125 -0.5 -1.390625 -0.5q-1.234375 0 -2.015625 0.890625q-0.78125 0.890625 -0.78125 2.8125q0 1.953125 0.75 2.84375q0.75 0.875 1.953125 0.875q0.96875 0 1.609375 -0.59375q0.65625 -0.59375 0.828125 -1.828125zm9.640625 0.4375l1.6875 0.203125q-0.40625 1.484375 -1.484375 2.3125q-1.078125 0.8125 -2.765625 0.8125q-2.125 0 -3.375 -1.296875q-1.234375 -1.3125 -1.234375 -3.671875q0 -2.453125 1.25 -3.796875q1.265625 -1.34375 3.265625 -1.34375q1.9375 0 3.15625 1.328125q1.234375 1.3125 1.234375 3.703125q0 0.15625 0 0.4375l-7.21875 0q0.09375 1.59375 0.90625 2.453125q0.8125 0.84375 2.015625 0.84375q0.90625 0 1.546875 -0.46875q0.640625 -0.484375 1.015625 -1.515625zm-5.390625 -2.65625l5.40625 0q-0.109375 -1.21875 -0.625 -1.828125q-0.78125 -0.953125 -2.03125 -0.953125q-1.125 0 -1.90625 0.765625q-0.765625 0.75 -0.84375 2.015625zm7.625702 9.46875l0 -1.1875l10.859375 0l0 1.1875l-10.859375 0zm17.610077 -3.703125l-1.640625 0l0 -10.453125q-0.5937195 0.5625 -1.5624695 1.140625q-0.953125 0.5625 -1.71875 0.84375l0 -1.59375q1.375 -0.640625 2.40625 -1.5625q1.0312195 -0.921875 1.4530945 -1.78125l1.0625 0l0 13.40625z" fill-rule="nonzero"/><path fill="#d9d9d9" d="m19.5958 55.29659l192.12599 0l0 101.543304l-192.12599 0z" fill-rule="evenodd"/><path fill="#9fc5e8" d="m33.319798 64.44583l167.40158 0l0 32.91339l-167.40158 0z" fill-rule="evenodd"/><path stroke="#000000" stroke-width="4.0" stroke-linejoin="round" stroke-linecap="butt" d="m33.319798 64.44583l167.40158 0l0 32.91339l-167.40158 0z" fill-rule="evenodd"/><path fill="#000000" d="m85.44546 81.7444q-0.453125 -0.296875 -0.953125 -0.4375q-0.5 -0.140625 -1.046875 -0.140625q-1.078125 0 -1.71875 0.359375q-0.28125 0.15625 -0.28125 0.34375q0 0.203125 0.375 0.40625q0.296875 0.140625 1.3125 0.28125q1.859375 0.25 2.578125 0.515625q0.96875 0.328125 1.484375 1.0q0.515625 0.65625 0.515625 1.40625q0 1.0 -0.890625 1.671875q-1.265625 0.96875 -3.28125 0.96875q-0.8125 0 -1.5 -0.140625q-0.6875 -0.140625 -1.265625 -0.40625q-0.125 0.109375 -0.28125 0.171875q-0.15625 0.0625 -0.328125 0.0625q-0.4375 0 -0.703125 -0.28125q-0.25 -0.28125 -0.25 -0.953125l0 -0.640625q0 -0.671875 0.25 -0.953125q0.265625 -0.296875 0.6875 -0.296875q0.34375 0 0.5625 0.1875q0.234375 0.1875 0.359375 0.640625q0.421875 0.375 1.015625 0.5625q0.609375 0.1875 1.390625 0.1875q1.296875 0 2.0 -0.40625q0.34375 -0.203125 0.34375 -0.421875q0 -0.359375 -0.484375 -0.59375q-0.484375 -0.234375 -2.0 -0.40625q-2.25 -0.234375 -3.0 -0.90625q-0.765625 -0.671875 -0.765625 -1.640625q0 -1.0 0.859375 -1.671875q1.140625 -0.90625 3.0 -0.90625q0.640625 0 1.234375 0.125q0.609375 0.125 1.15625 0.375q0.171875 -0.125 0.3125 -0.1875q0.15625 -0.0625 0.28125 -0.0625q0.390625 0 0.640625 0.28125q0.25 0.28125 0.25 0.96875l0 0.453125q0 0.609375 -0.140625 0.828125q-0.296875 0.421875 -0.796875 0.421875q-0.328125 0 -0.59375 -0.203125q-0.25 -0.21875 -0.328125 -0.5625zm8.789322 -2.1875l0 1.15625q1.1875 -0.84375 1.859375 -1.125q0.6875 -0.28125 1.265625 -0.28125q0.921875 0 1.78125 0.671875q0.578125 0.453125 0.578125 0.921875q0 0.40625 -0.28125 0.6875q-0.28125 0.28125 -0.671875 0.28125q-0.34375 0 -0.734375 -0.34375q-0.375 -0.359375 -0.671875 -0.359375q-0.390625 0 -1.171875 0.5q-0.78125 0.484375 -1.953125 1.46875l0 2.8125l2.671875 0q0.671875 0 0.953125 0.265625q0.296875 0.265625 0.296875 0.6875q0 0.40625 -0.296875 0.671875q-0.28125 0.25 -0.953125 0.25l-5.640625 0q-0.671875 0 -0.96875 -0.25q-0.28125 -0.265625 -0.28125 -0.6875q0 -0.40625 0.28125 -0.671875q0.296875 -0.265625 0.96875 -0.265625l1.109375 0l0 -4.53125l-0.671875 0q-0.671875 0 -0.96875 -0.25q-0.28125 -0.265625 -0.28125 -0.6875q0 -0.40625 0.28125 -0.65625q0.296875 -0.265625 0.96875 -0.265625l2.53125 0zm14.508072 0.328125q0.328125 -0.3125 0.6875 -0.3125q0.390625 0 0.65625 0.296875q0.265625 0.28125 0.265625 0.9375l0 1.203125q0 0.671875 -0.265625 0.953125q-0.265625 0.28125 -0.671875 0.28125q-0.390625 0 -0.65625 -0.21875q-0.1875 -0.15625 -0.296875 -0.65625q-0.109375 -0.515625 -0.53125 -0.765625q-0.734375 -0.4375 -1.875 -0.4375q-1.328125 0 -2.125 0.78125q-0.796875 0.78125 -0.796875 1.953125q0 1.09375 0.765625 1.734375q0.765625 0.625 2.546875 0.625q1.15625 0 1.890625 -0.234375q0.4375 -0.140625 0.828125 -0.484375q0.40625 -0.359375 0.71875 -0.359375q0.375 0 0.65625 0.28125q0.28125 0.28125 0.28125 0.671875q0 0.609375 -0.84375 1.171875q-1.265625 0.828125 -3.6875 0.828125q-2.171875 0 -3.390625 -0.90625q-1.640625 -1.203125 -1.640625 -3.3125q0 -2.0 1.328125 -3.296875q1.34375 -1.3125 3.484375 -1.3125q0.765625 0 1.421875 0.15625q0.671875 0.140625 1.25 0.421875zm13.445572 13.546875l-10.25 0q-0.671875 0 -0.953125 -0.265625q-0.296875 -0.25 -0.296875 -0.671875q0 -0.421875 0.296875 -0.6875q0.28125 -0.25 0.953125 -0.25l10.25 0q0.671875 0 0.953125 0.25q0.28125 0.265625 0.28125 0.6875q0 0.40625 -0.28125 0.671875q-0.28125 0.265625 -0.953125 0.265625zm5.633072 -13.875l0 1.15625q1.1875076 -0.84375 1.8593826 -1.125q0.6875 -0.28125 1.265625 -0.28125q0.921875 0 1.78125 0.671875q0.578125 0.453125 0.578125 0.921875q0 0.40625 -0.28125 0.6875q-0.28125 0.28125 -0.671875 0.28125q-0.34375 0 -0.734375 -0.34375q-0.375 -0.359375 -0.671875 -0.359375q-0.390625 0 -1.171875 0.5q-0.78125 0.484375 -1.9531326 1.46875l0 2.8125l2.6718826 0q0.671875 0 0.953125 0.265625q0.296875 0.265625 0.296875 0.6875q0 0.40625 -0.296875 0.671875q-0.28125 0.25 -0.953125 0.25l-5.6406326 0q-0.671875 0 -0.96875 -0.25q-0.28125 -0.265625 -0.28125 -0.6875q0 -0.40625 0.28125 -0.671875q0.296875 -0.265625 0.96875 -0.265625l1.109375 0l0 -4.53125l-0.671875 0q-0.671875 0 -0.96875 -0.25q-0.28125 -0.265625 -0.28125 -0.6875q0 -0.40625 0.28125 -0.65625q0.296875 -0.265625 0.96875 -0.265625l2.53125 0zm16.273705 5.078125l-7.65625 0q0.296875 0.734375 1.03125 1.1875q0.75 0.4375 2.015625 0.4375q1.03125 0 2.75 -0.453125q0.71875 -0.1875 0.984375 -0.1875q0.375 0 0.625 0.265625q0.265625 0.265625 0.265625 0.671875q0 0.359375 -0.28125 0.625q-0.359375 0.328125 -1.78125 0.640625q-1.40625 0.296875 -2.703125 0.296875q-2.25 0 -3.59375 -1.265625q-1.34375 -1.265625 -1.34375 -3.109375q0 -1.96875 1.453125 -3.203125q1.453125 -1.234375 3.359375 -1.234375q1.140625 0 2.078125 0.40625q0.953125 0.390625 1.421875 0.859375q0.65625 0.671875 1.09375 1.671875q0.28125 0.6875 0.28125 1.59375l0 0.796875zm-2.0625 -1.875q-0.4375 -0.796875 -1.125 -1.1875q-0.6875 -0.40625 -1.640625 -0.40625q-0.953125 0 -1.65625 0.40625q-0.6875 0.390625 -1.125 1.1875l5.546875 0zm8.554947 -1.34375l0 4.53125l2.671875 0q0.671875 0 0.953125 0.265625q0.28125 0.265625 0.28125 0.6875q0 0.40625 -0.28125 0.671875q-0.28125 0.25 -0.953125 0.25l-5.640625 0q-0.671875 0 -0.96875 -0.25q-0.28125 -0.265625 -0.28125 -0.6875q0 -0.40625 0.28125 -0.671875q0.296875 -0.265625 0.96875 -0.265625l1.109375 0l0 -4.53125l-0.890625 0q-0.671875 0 -0.96875 -0.25q-0.28125 -0.265625 -0.28125 -0.6875q0 -0.40625 0.28125 -0.65625q0.296875 -0.265625 0.96875 -0.265625l0.890625 0l0 -0.71875q0 -1.21875 0.90625 -2.015625q0.921875 -0.8125 2.65625 -0.8125q0.78125 0 1.796875 0.140625q1.015625 0.140625 1.296875 0.40625q0.296875 0.25 0.296875 0.640625q0 0.4375 -0.265625 0.703125q-0.25 0.265625 -0.625 0.265625q-0.171875 0 -0.515625 -0.0625q-1.15625 -0.234375 -2.046875 -0.234375q-0.9375 0 -1.296875 0.28125q-0.34375 0.28125 -0.34375 0.6875l0 0.71875l2.890625 0q0.671875 0 0.953125 0.265625q0.28125 0.25 0.28125 0.671875q0 0.40625 -0.28125 0.671875q-0.28125 0.25 -0.953125 0.25l-2.890625 0z" fill-rule="nonzero"/><path fill="#ea9999" d="m33.319798 108.32368l167.40158 0l0 32.913383l-167.40158 0z" fill-rule="evenodd"/><path fill="#000000" d="m87.72671 119.88786l0 9.9375l0.3125 0q0.671875 0 0.953125 0.265625q0.296875 0.265625 0.296875 0.6875q0 0.40625 -0.296875 0.671875q-0.28125 0.25 -0.953125 0.25l-2.1875 0l0 -0.453125q-0.640625 0.375 -1.34375 0.5625q-0.6875 0.1875 -1.4375 0.1875q-2.09375 0 -3.390625 -1.203125q-1.28125 -1.21875 -1.28125 -3.03125q0 -1.90625 1.34375 -3.234375q1.359375 -1.34375 3.296875 -1.34375q0.734375 0 1.421875 0.21875q0.703125 0.21875 1.390625 0.671875l0 -2.328125l-0.3125 0q-0.6875 0 -0.96875 -0.25q-0.28125 -0.265625 -0.28125 -0.671875q0 -0.421875 0.28125 -0.671875q0.28125 -0.265625 0.96875 -0.265625l2.1875 0zm-1.875 7.921875q0 -1.15625 -0.8125 -1.953125q-0.8125 -0.8125 -1.984375 -0.8125q-1.171875 0 -1.984375 0.8125q-0.796875 0.796875 -0.796875 1.921875q0 1.03125 0.71875 1.703125q0.734375 0.65625 2.0625 0.65625q1.328125 0 2.0625 -0.65625q0.734375 -0.671875 0.734375 -1.671875zm10.789322 -2.1875q-0.453125 -0.296875 -0.953125 -0.4375q-0.5 -0.140625 -1.046875 -0.140625q-1.078125 0 -1.71875 0.359375q-0.28125 0.15625 -0.28125 0.34375q0 0.203125 0.375 0.40625q0.296875 0.140625 1.3125 0.28125q1.859375 0.25 2.578125 0.515625q0.96875 0.328125 1.484375 1.0q0.515625 0.65625 0.515625 1.40625q0 1.0 -0.890625 1.671875q-1.265625 0.96875 -3.28125 0.96875q-0.8125 0 -1.5 -0.140625q-0.6875 -0.140625 -1.265625 -0.40625q-0.125 0.109375 -0.28125 0.171875q-0.15625 0.0625 -0.328125 0.0625q-0.4375 0 -0.703125 -0.28125q-0.25 -0.28125 -0.25 -0.953125l0 -0.640625q0 -0.671875 0.25 -0.953125q0.265625 -0.296875 0.6875 -0.296875q0.34375 0 0.5625 0.1875q0.234375 0.1875 0.359375 0.640625q0.421875 0.375 1.015625 0.5625q0.609375 0.1875 1.390625 0.1875q1.296875 0 2.0 -0.40625q0.34375 -0.203125 0.34375 -0.421875q0 -0.359375 -0.484375 -0.59375q-0.484375 -0.234375 -2.0 -0.40625q-2.25 -0.234375 -3.0 -0.90625q-0.765625 -0.671875 -0.765625 -1.640625q0 -1.0 0.859375 -1.671875q1.140625 -0.90625 3.0 -0.90625q0.640625 0 1.234375 0.125q0.609375 0.125 1.15625 0.375q0.171875 -0.125 0.3125 -0.1875q0.15625 -0.0625 0.28125 -0.0625q0.390625 0 0.640625 0.28125q0.25 0.28125 0.25 0.96875l0 0.453125q0 0.609375 -0.140625 0.828125q-0.296875 0.421875 -0.796875 0.421875q-0.328125 0 -0.59375 -0.203125q-0.25 -0.21875 -0.328125 -0.5625zm8.726822 -0.328125l0 3.75q0 0.59375 0.25 0.78125q0.375 0.3125 1.359375 0.3125q1.4375 0 2.640625 -0.609375q0.46875 -0.234375 0.734375 -0.234375q0.359375 0 0.625 0.265625q0.265625 0.265625 0.265625 0.671875q0 0.359375 -0.28125 0.625q-0.453125 0.421875 -1.765625 0.78125q-1.3125 0.359375 -2.21875 0.359375q-1.734375 0 -2.609375 -0.75q-0.875 -0.75 -0.875 -1.84375l0 -4.109375l-0.671875 0q-0.671875 0 -0.96875 -0.25q-0.28125 -0.265625 -0.28125 -0.6875q0 -0.40625 0.28125 -0.65625q0.296875 -0.265625 0.96875 -0.265625l0.671875 0l0 -1.6875q0 -0.671875 0.265625 -0.953125q0.265625 -0.296875 0.671875 -0.296875q0.421875 0 0.671875 0.296875q0.265625 0.28125 0.265625 0.953125l0 1.6875l3.453125 0q0.671875 0 0.953125 0.265625q0.296875 0.25 0.296875 0.671875q0 0.40625 -0.296875 0.671875q-0.28125 0.25 -0.953125 0.25l-3.453125 0zm16.820572 12.015625l-10.25 0q-0.671875 0 -0.953125 -0.265625q-0.296875 -0.25 -0.296875 -0.671875q0 -0.421875 0.296875 -0.6875q0.28125 -0.25 0.953125 -0.25l10.25 0q0.671875 0 0.953125 0.25q0.28125 0.265625 0.28125 0.6875q0 0.40625 -0.28125 0.671875q-0.28125 0.265625 -0.953125 0.265625zm5.633072 -13.875l0 1.15625q1.1875076 -0.84375 1.8593826 -1.125q0.6875 -0.28125 1.265625 -0.28125q0.921875 0 1.78125 0.671875q0.578125 0.453125 0.578125 0.921875q0 0.40625 -0.28125 0.6875q-0.28125 0.28125 -0.671875 0.28125q-0.34375 0 -0.734375 -0.34375q-0.375 -0.359375 -0.671875 -0.359375q-0.390625 0 -1.171875 0.5q-0.78125 0.484375 -1.9531326 1.46875l0 2.8125l2.6718826 0q0.671875 0 0.953125 0.265625q0.296875 0.265625 0.296875 0.6875q0 0.40625 -0.296875 0.671875q-0.28125 0.25 -0.953125 0.25l-5.6406326 0q-0.671875 0 -0.96875 -0.25q-0.28125 -0.265625 -0.28125 -0.6875q0 -0.40625 0.28125 -0.671875q0.296875 -0.265625 0.96875 -0.265625l1.109375 0l0 -4.53125l-0.671875 0q-0.671875 0 -0.96875 -0.25q-0.28125 -0.265625 -0.28125 -0.6875q0 -0.40625 0.28125 -0.65625q0.296875 -0.265625 0.96875 -0.265625l2.53125 0zm16.273705 5.078125l-7.65625 0q0.296875 0.734375 1.03125 1.1875q0.75 0.4375 2.015625 0.4375q1.03125 0 2.75 -0.453125q0.71875 -0.1875 0.984375 -0.1875q0.375 0 0.625 0.265625q0.265625 0.265625 0.265625 0.671875q0 0.359375 -0.28125 0.625q-0.359375 0.328125 -1.78125 0.640625q-1.40625 0.296875 -2.703125 0.296875q-2.25 0 -3.59375 -1.265625q-1.34375 -1.265625 -1.34375 -3.109375q0 -1.96875 1.453125 -3.203125q1.453125 -1.234375 3.359375 -1.234375q1.140625 0 2.078125 0.40625q0.953125 0.390625 1.421875 0.859375q0.65625 0.671875 1.09375 1.671875q0.28125 0.6875 0.28125 1.59375l0 0.796875zm-2.0625 -1.875q-0.4375 -0.796875 -1.125 -1.1875q-0.6875 -0.40625 -1.640625 -0.40625q-0.953125 0 -1.65625 0.40625q-0.6875 0.390625 -1.125 1.1875l5.546875 0zm8.554947 -1.34375l0 4.53125l2.671875 0q0.671875 0 0.953125 0.265625q0.28125 0.265625 0.28125 0.6875q0 0.40625 -0.28125 0.671875q-0.28125 0.25 -0.953125 0.25l-5.640625 0q-0.671875 0 -0.96875 -0.25q-0.28125 -0.265625 -0.28125 -0.6875q0 -0.40625 0.28125 -0.671875q0.296875 -0.265625 0.96875 -0.265625l1.109375 0l0 -4.53125l-0.890625 0q-0.671875 0 -0.96875 -0.25q-0.28125 -0.265625 -0.28125 -0.6875q0 -0.40625 0.28125 -0.65625q0.296875 -0.265625 0.96875 -0.265625l0.890625 0l0 -0.71875q0 -1.21875 0.90625 -2.015625q0.921875 -0.8125 2.65625 -0.8125q0.78125 0 1.796875 0.140625q1.015625 0.140625 1.296875 0.40625q0.296875 0.25 0.296875 0.640625q0 0.4375 -0.265625 0.703125q-0.25 0.265625 -0.625 0.265625q-0.171875 0 -0.515625 -0.0625q-1.15625 -0.234375 -2.046875 -0.234375q-0.9375 0 -1.296875 0.28125q-0.34375 0.28125 -0.34375 0.6875l0 0.71875l2.890625 0q0.671875 0 0.953125 0.265625q0.28125 0.25 0.28125 0.671875q0 0.40625 -0.28125 0.671875q-0.28125 0.25 -0.953125 0.25l-2.890625 0z" fill-rule="nonzero"/><path fill="#d9d9d9" d="m19.5958 163.26105l192.12599 0l0 42.015747l-192.12599 0z" fill-rule="evenodd"/><path fill="#000000" d="m85.81897 190.18105l0 -1.21875q-0.90625 1.4375 -2.703125 1.4375q-1.15625 0 -2.125 -0.640625q-0.96875 -0.640625 -1.5 -1.78125q-0.53125 -1.140625 -0.53125 -2.625q0 -1.453125 0.484375 -2.625q0.484375 -1.1875 1.4375 -1.8125q0.96875 -0.625 2.171875 -0.625q0.875 0 1.546875 0.375q0.6875 0.359375 1.109375 0.953125l0 -4.796875l1.640625 0l0 13.359375l-1.53125 0zm-5.171875 -4.828125q0 1.859375 0.78125 2.78125q0.78125 0.921875 1.84375 0.921875q1.078125 0 1.828125 -0.875q0.75 -0.890625 0.75 -2.6875q0 -1.984375 -0.765625 -2.90625q-0.765625 -0.9375 -1.890625 -0.9375q-1.078125 0 -1.8125 0.890625q-0.734375 0.890625 -0.734375 2.8125zm15.906967 1.71875l1.6875 0.203125q-0.40625 1.484375 -1.484375 2.3125q-1.078125 0.8125 -2.765625 0.8125q-2.125 0 -3.375 -1.296875q-1.234375 -1.3125 -1.234375 -3.671875q0 -2.453125 1.25 -3.796875q1.265625 -1.34375 3.265625 -1.34375q1.9375 0 3.15625 1.328125q1.234375 1.3125 1.234375 3.703125q0 0.15625 0 0.4375l-7.21875 0q0.09375 1.59375 0.90625 2.453125q0.8125 0.84375 2.015625 0.84375q0.90625 0 1.546875 -0.46875q0.640625 -0.484375 1.015625 -1.515625zm-5.390625 -2.65625l5.40625 0q-0.109375 -1.21875 -0.625 -1.828125q-0.78125 -0.953125 -2.03125 -0.953125q-1.125 0 -1.90625 0.765625q-0.765625 0.75 -0.84375 2.015625zm11.828842 5.765625l-3.6875 -9.671875l1.734375 0l2.078125 5.796875q0.328125 0.9375 0.625 1.9375q0.203125 -0.765625 0.609375 -1.828125l2.140625 -5.90625l1.6875 0l-3.65625 9.671875l-1.53125 0zm6.640625 -11.46875l0 -1.890625l1.640625 0l0 1.890625l-1.640625 0zm0 11.46875l0 -9.671875l1.640625 0l0 9.671875l-1.640625 0zm10.457321 -3.546875l1.609375 0.21875q-0.265625 1.65625 -1.359375 2.609375q-1.078125 0.9375 -2.671875 0.9375q-1.984375 0 -3.1875 -1.296875q-1.203125 -1.296875 -1.203125 -3.71875q0 -1.578125 0.515625 -2.75q0.515625 -1.171875 1.578125 -1.75q1.0625 -0.59375 2.3125 -0.59375q1.578125 0 2.578125 0.796875q1.0 0.796875 1.28125 2.265625l-1.59375 0.234375q-0.234375 -0.96875 -0.8125 -1.453125q-0.578125 -0.5 -1.390625 -0.5q-1.234375 0 -2.015625 0.890625q-0.78125 0.890625 -0.78125 2.8125q0 1.953125 0.75 2.84375q0.75 0.875 1.953125 0.875q0.96875 0 1.609375 -0.59375q0.65625 -0.59375 0.828125 -1.828125zm9.640625 0.4375l1.6875 0.203125q-0.40625 1.484375 -1.484375 2.3125q-1.078125 0.8125 -2.765625 0.8125q-2.125 0 -3.375 -1.296875q-1.234375 -1.3125 -1.234375 -3.671875q0 -2.453125 1.25 -3.796875q1.265625 -1.34375 3.265625 -1.34375q1.9375 0 3.15625 1.328125q1.234375 1.3125 1.234375 3.703125q0 0.15625 0 0.4375l-7.21875 0q0.09375 1.59375 0.90625 2.453125q0.8125 0.84375 2.015625 0.84375q0.90625 0 1.546875 -0.46875q0.640625 -0.484375 1.015625 -1.515625zm-5.390625 -2.65625l5.40625 0q-0.109375 -1.21875 -0.625 -1.828125q-0.78125 -0.953125 -2.03125 -0.953125q-1.125 0 -1.90625 0.765625q-0.765625 0.75 -0.84375 2.015625zm7.625717 9.46875l0 -1.1875l10.859375 0l0 1.1875l-10.859375 0zm11.438217 -10.296875q0 -2.359375 0.484375 -3.796875q0.484375 -1.453125 1.4375 -2.234375q0.96875 -0.78125 2.4218597 -0.78125q1.078125 0 1.890625 0.4375q0.8125 0.421875 1.328125 1.25q0.53125 0.8125 0.828125 1.984375q0.3125 1.15625 0.3125 3.140625q0 2.359375 -0.484375 3.8125q-0.484375 1.4375 -1.453125 2.234375q-0.953125 0.78125 -2.421875 0.78125q-1.9218597 0 -3.0312347 -1.390625q-1.3125 -1.671875 -1.3125 -5.4375zm1.671875 0q0 3.296875 0.765625 4.390625q0.78125 1.078125 1.9062347 1.078125q1.140625 0 1.90625 -1.09375q0.765625 -1.09375 0.765625 -4.375q0 -3.296875 -0.765625 -4.375q-0.765625 -1.078125 -1.921875 -1.078125q-1.1249847 0 -1.7968597 0.953125q-0.859375 1.21875 -0.859375 4.5z" fill-rule="nonzero"/><path fill="#d9d9d9" d="m496.69736 55.29659l192.126 0l0 101.543304l-192.126 0z" fill-rule="evenodd"/><path fill="#9fc5e8" d="m510.42136 64.44583l167.40158 0l0 32.91339l-167.40158 0z" fill-rule="evenodd"/><path stroke="#000000" stroke-width="4.0" stroke-linejoin="round" stroke-linecap="butt" d="m510.42136 64.44583l167.40158 0l0 32.91339l-167.40158 0z" fill-rule="evenodd"/><path fill="#000000" d="m562.547 81.7444q-0.453125 -0.296875 -0.953125 -0.4375q-0.5 -0.140625 -1.046875 -0.140625q-1.078125 0 -1.71875 0.359375q-0.28125 0.15625 -0.28125 0.34375q0 0.203125 0.375 0.40625q0.296875 0.140625 1.3125 0.28125q1.859375 0.25 2.578125 0.515625q0.96875 0.328125 1.484375 1.0q0.515625 0.65625 0.515625 1.40625q0 1.0 -0.890625 1.671875q-1.265625 0.96875 -3.28125 0.96875q-0.8125 0 -1.5 -0.140625q-0.6875 -0.140625 -1.265625 -0.40625q-0.125 0.109375 -0.28125 0.171875q-0.15625 0.0625 -0.328125 0.0625q-0.4375 0 -0.703125 -0.28125q-0.25 -0.28125 -0.25 -0.953125l0 -0.640625q0 -0.671875 0.25 -0.953125q0.265625 -0.296875 0.6875 -0.296875q0.34375 0 0.5625 0.1875q0.234375 0.1875 0.359375 0.640625q0.421875 0.375 1.015625 0.5625q0.609375 0.1875 1.390625 0.1875q1.296875 0 2.0 -0.40625q0.34375 -0.203125 0.34375 -0.421875q0 -0.359375 -0.484375 -0.59375q-0.484375 -0.234375 -2.0 -0.40625q-2.25 -0.234375 -3.0 -0.90625q-0.765625 -0.671875 -0.765625 -1.640625q0 -1.0 0.859375 -1.671875q1.140625 -0.90625 3.0 -0.90625q0.640625 0 1.234375 0.125q0.609375 0.125 1.15625 0.375q0.171875 -0.125 0.3125 -0.1875q0.15625 -0.0625 0.28125 -0.0625q0.390625 0 0.640625 0.28125q0.25 0.28125 0.25 0.96875l0 0.453125q0 0.609375 -0.140625 0.828125q-0.296875 0.421875 -0.796875 0.421875q-0.328125 0 -0.59375 -0.203125q-0.25 -0.21875 -0.328125 -0.5625zm8.789368 -2.1875l0 1.15625q1.1875 -0.84375 1.859375 -1.125q0.6875 -0.28125 1.265625 -0.28125q0.921875 0 1.78125 0.671875q0.578125 0.453125 0.578125 0.921875q0 0.40625 -0.28125 0.6875q-0.28125 0.28125 -0.671875 0.28125q-0.34375 0 -0.734375 -0.34375q-0.375 -0.359375 -0.671875 -0.359375q-0.390625 0 -1.171875 0.5q-0.78125 0.484375 -1.953125 1.46875l0 2.8125l2.671875 0q0.671875 0 0.953125 0.265625q0.296875 0.265625 0.296875 0.6875q0 0.40625 -0.296875 0.671875q-0.28125 0.25 -0.953125 0.25l-5.640625 0q-0.671875 0 -0.96875 -0.25q-0.28125 -0.265625 -0.28125 -0.6875q0 -0.40625 0.28125 -0.671875q0.296875 -0.265625 0.96875 -0.265625l1.109375 0l0 -4.53125l-0.671875 0q-0.671875 0 -0.96875 -0.25q-0.28125 -0.265625 -0.28125 -0.6875q0 -0.40625 0.28125 -0.65625q0.296875 -0.265625 0.96875 -0.265625l2.53125 0zm14.508057 0.328125q0.328125 -0.3125 0.6875 -0.3125q0.390625 0 0.65625 0.296875q0.265625 0.28125 0.265625 0.9375l0 1.203125q0 0.671875 -0.265625 0.953125q-0.265625 0.28125 -0.671875 0.28125q-0.390625 0 -0.65625 -0.21875q-0.1875 -0.15625 -0.296875 -0.65625q-0.109375 -0.515625 -0.53125 -0.765625q-0.734375 -0.4375 -1.875 -0.4375q-1.328125 0 -2.125 0.78125q-0.796875 0.78125 -0.796875 1.953125q0 1.09375 0.765625 1.734375q0.765625 0.625 2.546875 0.625q1.15625 0 1.890625 -0.234375q0.4375 -0.140625 0.828125 -0.484375q0.40625 -0.359375 0.71875 -0.359375q0.375 0 0.65625 0.28125q0.28125 0.28125 0.28125 0.671875q0 0.609375 -0.84375 1.171875q-1.265625 0.828125 -3.6875 0.828125q-2.171875 0 -3.390625 -0.90625q-1.640625 -1.203125 -1.640625 -3.3125q0 -2.0 1.328125 -3.296875q1.34375 -1.3125 3.484375 -1.3125q0.765625 0 1.421875 0.15625q0.671875 0.140625 1.25 0.421875zm13.445557 13.546875l-10.25 0q-0.671875 0 -0.953125 -0.265625q-0.296875 -0.25 -0.296875 -0.671875q0 -0.421875 0.296875 -0.6875q0.28125 -0.25 0.953125 -0.25l10.25 0q0.671875 0 0.953125 0.25q0.28125 0.265625 0.28125 0.6875q0 0.40625 -0.28125 0.671875q-0.28125 0.265625 -0.953125 0.265625zm5.6330566 -13.875l0 1.15625q1.1875 -0.84375 1.859375 -1.125q0.6875 -0.28125 1.265625 -0.28125q0.921875 0 1.78125 0.671875q0.578125 0.453125 0.578125 0.921875q0 0.40625 -0.28125 0.6875q-0.28125 0.28125 -0.671875 0.28125q-0.34375 0 -0.734375 -0.34375q-0.375 -0.359375 -0.671875 -0.359375q-0.390625 0 -1.171875 0.5q-0.78125 0.484375 -1.953125 1.46875l0 2.8125l2.671875 0q0.671875 0 0.953125 0.265625q0.296875 0.265625 0.296875 0.6875q0 0.40625 -0.296875 0.671875q-0.28125 0.25 -0.953125 0.25l-5.640625 0q-0.671875 0 -0.96875 -0.25q-0.28125 -0.265625 -0.28125 -0.6875q0 -0.40625 0.28125 -0.671875q0.296875 -0.265625 0.96875 -0.265625l1.109375 0l0 -4.53125l-0.671875 0q-0.671875 0 -0.96875 -0.25q-0.28125 -0.265625 -0.28125 -0.6875q0 -0.40625 0.28125 -0.65625q0.296875 -0.265625 0.96875 -0.265625l2.53125 0zm16.273743 5.078125l-7.65625 0q0.296875 0.734375 1.03125 1.1875q0.75 0.4375 2.015625 0.4375q1.03125 0 2.75 -0.453125q0.71875 -0.1875 0.984375 -0.1875q0.375 0 0.625 0.265625q0.265625 0.265625 0.265625 0.671875q0 0.359375 -0.28125 0.625q-0.359375 0.328125 -1.78125 0.640625q-1.40625 0.296875 -2.703125 0.296875q-2.25 0 -3.59375 -1.265625q-1.34375 -1.265625 -1.34375 -3.109375q0 -1.96875 1.453125 -3.203125q1.453125 -1.234375 3.359375 -1.234375q1.140625 0 2.078125 0.40625q0.953125 0.390625 1.421875 0.859375q0.65625 0.671875 1.09375 1.671875q0.28125 0.6875 0.28125 1.59375l0 0.796875zm-2.0625 -1.875q-0.4375 -0.796875 -1.125 -1.1875q-0.6875 -0.40625 -1.640625 -0.40625q-0.953125 0 -1.65625 0.40625q-0.6875 0.390625 -1.125 1.1875l5.546875 0zm8.554932 -1.34375l0 4.53125l2.671875 0q0.671875 0 0.953125 0.265625q0.28125 0.265625 0.28125 0.6875q0 0.40625 -0.28125 0.671875q-0.28125 0.25 -0.953125 0.25l-5.640625 0q-0.671875 0 -0.96875 -0.25q-0.28125 -0.265625 -0.28125 -0.6875q0 -0.40625 0.28125 -0.671875q0.296875 -0.265625 0.96875 -0.265625l1.109375 0l0 -4.53125l-0.890625 0q-0.671875 0 -0.96875 -0.25q-0.28125 -0.265625 -0.28125 -0.6875q0 -0.40625 0.28125 -0.65625q0.296875 -0.265625 0.96875 -0.265625l0.890625 0l0 -0.71875q0 -1.21875 0.90625 -2.015625q0.921875 -0.8125 2.65625 -0.8125q0.78125 0 1.796875 0.140625q1.015625 0.140625 1.296875 0.40625q0.296875 0.25 0.296875 0.640625q0 0.4375 -0.265625 0.703125q-0.25 0.265625 -0.625 0.265625q-0.171875 0 -0.515625 -0.0625q-1.15625 -0.234375 -2.046875 -0.234375q-0.9375 0 -1.296875 0.28125q-0.34375 0.28125 -0.34375 0.6875l0 0.71875l2.890625 0q0.671875 0 0.953125 0.265625q0.28125 0.25 0.28125 0.671875q0 0.40625 -0.28125 0.671875q-0.28125 0.25 -0.953125 0.25l-2.890625 0z" fill-rule="nonzero"/><path fill="#ea9999" d="m510.42136 108.32368l167.40158 0l0 32.913383l-167.40158 0z" fill-rule="evenodd"/><path fill="#000000" d="m564.82825 119.88786l0 9.9375l0.3125 0q0.671875 0 0.953125 0.265625q0.296875 0.265625 0.296875 0.6875q0 0.40625 -0.296875 0.671875q-0.28125 0.25 -0.953125 0.25l-2.1875 0l0 -0.453125q-0.640625 0.375 -1.34375 0.5625q-0.6875 0.1875 -1.4375 0.1875q-2.09375 0 -3.390625 -1.203125q-1.28125 -1.21875 -1.28125 -3.03125q0 -1.90625 1.34375 -3.234375q1.359375 -1.34375 3.296875 -1.34375q0.734375 0 1.421875 0.21875q0.703125 0.21875 1.390625 0.671875l0 -2.328125l-0.3125 0q-0.6875 0 -0.96875 -0.25q-0.28125 -0.265625 -0.28125 -0.671875q0 -0.421875 0.28125 -0.671875q0.28125 -0.265625 0.96875 -0.265625l2.1875 0zm-1.875 7.921875q0 -1.15625 -0.8125 -1.953125q-0.8125 -0.8125 -1.984375 -0.8125q-1.171875 0 -1.984375 0.8125q-0.796875 0.796875 -0.796875 1.921875q0 1.03125 0.71875 1.703125q0.734375 0.65625 2.0625 0.65625q1.328125 0 2.0625 -0.65625q0.734375 -0.671875 0.734375 -1.671875zm10.789368 -2.1875q-0.453125 -0.296875 -0.953125 -0.4375q-0.5 -0.140625 -1.046875 -0.140625q-1.078125 0 -1.71875 0.359375q-0.28125 0.15625 -0.28125 0.34375q0 0.203125 0.375 0.40625q0.296875 0.140625 1.3125 0.28125q1.859375 0.25 2.578125 0.515625q0.96875 0.328125 1.484375 1.0q0.515625 0.65625 0.515625 1.40625q0 1.0 -0.890625 1.671875q-1.265625 0.96875 -3.28125 0.96875q-0.8125 0 -1.5 -0.140625q-0.6875 -0.140625 -1.265625 -0.40625q-0.125 0.109375 -0.28125 0.171875q-0.15625 0.0625 -0.328125 0.0625q-0.4375 0 -0.703125 -0.28125q-0.25 -0.28125 -0.25 -0.953125l0 -0.640625q0 -0.671875 0.25 -0.953125q0.265625 -0.296875 0.6875 -0.296875q0.34375 0 0.5625 0.1875q0.234375 0.1875 0.359375 0.640625q0.421875 0.375 1.015625 0.5625q0.609375 0.1875 1.390625 0.1875q1.296875 0 2.0 -0.40625q0.34375 -0.203125 0.34375 -0.421875q0 -0.359375 -0.484375 -0.59375q-0.484375 -0.234375 -2.0 -0.40625q-2.25 -0.234375 -3.0 -0.90625q-0.765625 -0.671875 -0.765625 -1.640625q0 -1.0 0.859375 -1.671875q1.140625 -0.90625 3.0 -0.90625q0.640625 0 1.234375 0.125q0.609375 0.125 1.15625 0.375q0.171875 -0.125 0.3125 -0.1875q0.15625 -0.0625 0.28125 -0.0625q0.390625 0 0.640625 0.28125q0.25 0.28125 0.25 0.96875l0 0.453125q0 0.609375 -0.140625 0.828125q-0.296875 0.421875 -0.796875 0.421875q-0.328125 0 -0.59375 -0.203125q-0.25 -0.21875 -0.328125 -0.5625zm8.726807 -0.328125l0 3.75q0 0.59375 0.25 0.78125q0.375 0.3125 1.359375 0.3125q1.4375 0 2.640625 -0.609375q0.46875 -0.234375 0.734375 -0.234375q0.359375 0 0.625 0.265625q0.265625 0.265625 0.265625 0.671875q0 0.359375 -0.28125 0.625q-0.453125 0.421875 -1.765625 0.78125q-1.3125 0.359375 -2.21875 0.359375q-1.734375 0 -2.609375 -0.75q-0.875 -0.75 -0.875 -1.84375l0 -4.109375l-0.671875 0q-0.671875 0 -0.96875 -0.25q-0.28125 -0.265625 -0.28125 -0.6875q0 -0.40625 0.28125 -0.65625q0.296875 -0.265625 0.96875 -0.265625l0.671875 0l0 -1.6875q0 -0.671875 0.265625 -0.953125q0.265625 -0.296875 0.671875 -0.296875q0.421875 0 0.671875 0.296875q0.265625 0.28125 0.265625 0.953125l0 1.6875l3.453125 0q0.671875 0 0.953125 0.265625q0.296875 0.25 0.296875 0.671875q0 0.40625 -0.296875 0.671875q-0.28125 0.25 -0.953125 0.25l-3.453125 0zm16.820557 12.015625l-10.25 0q-0.671875 0 -0.953125 -0.265625q-0.296875 -0.25 -0.296875 -0.671875q0 -0.421875 0.296875 -0.6875q0.28125 -0.25 0.953125 -0.25l10.25 0q0.671875 0 0.953125 0.25q0.28125 0.265625 0.28125 0.6875q0 0.40625 -0.28125 0.671875q-0.28125 0.265625 -0.953125 0.265625zm5.6330566 -13.875l0 1.15625q1.1875 -0.84375 1.859375 -1.125q0.6875 -0.28125 1.265625 -0.28125q0.921875 0 1.78125 0.671875q0.578125 0.453125 0.578125 0.921875q0 0.40625 -0.28125 0.6875q-0.28125 0.28125 -0.671875 0.28125q-0.34375 0 -0.734375 -0.34375q-0.375 -0.359375 -0.671875 -0.359375q-0.390625 0 -1.171875 0.5q-0.78125 0.484375 -1.953125 1.46875l0 2.8125l2.671875 0q0.671875 0 0.953125 0.265625q0.296875 0.265625 0.296875 0.6875q0 0.40625 -0.296875 0.671875q-0.28125 0.25 -0.953125 0.25l-5.640625 0q-0.671875 0 -0.96875 -0.25q-0.28125 -0.265625 -0.28125 -0.6875q0 -0.40625 0.28125 -0.671875q0.296875 -0.265625 0.96875 -0.265625l1.109375 0l0 -4.53125l-0.671875 0q-0.671875 0 -0.96875 -0.25q-0.28125 -0.265625 -0.28125 -0.6875q0 -0.40625 0.28125 -0.65625q0.296875 -0.265625 0.96875 -0.265625l2.53125 0zm16.273743 5.078125l-7.65625 0q0.296875 0.734375 1.03125 1.1875q0.75 0.4375 2.015625 0.4375q1.03125 0 2.75 -0.453125q0.71875 -0.1875 0.984375 -0.1875q0.375 0 0.625 0.265625q0.265625 0.265625 0.265625 0.671875q0 0.359375 -0.28125 0.625q-0.359375 0.328125 -1.78125 0.640625q-1.40625 0.296875 -2.703125 0.296875q-2.25 0 -3.59375 -1.265625q-1.34375 -1.265625 -1.34375 -3.109375q0 -1.96875 1.453125 -3.203125q1.453125 -1.234375 3.359375 -1.234375q1.140625 0 2.078125 0.40625q0.953125 0.390625 1.421875 0.859375q0.65625 0.671875 1.09375 1.671875q0.28125 0.6875 0.28125 1.59375l0 0.796875zm-2.0625 -1.875q-0.4375 -0.796875 -1.125 -1.1875q-0.6875 -0.40625 -1.640625 -0.40625q-0.953125 0 -1.65625 0.40625q-0.6875 0.390625 -1.125 1.1875l5.546875 0zm8.554932 -1.34375l0 4.53125l2.671875 0q0.671875 0 0.953125 0.265625q0.28125 0.265625 0.28125 0.6875q0 0.40625 -0.28125 0.671875q-0.28125 0.25 -0.953125 0.25l-5.640625 0q-0.671875 0 -0.96875 -0.25q-0.28125 -0.265625 -0.28125 -0.6875q0 -0.40625 0.28125 -0.671875q0.296875 -0.265625 0.96875 -0.265625l1.109375 0l0 -4.53125l-0.890625 0q-0.671875 0 -0.96875 -0.25q-0.28125 -0.265625 -0.28125 -0.6875q0 -0.40625 0.28125 -0.65625q0.296875 -0.265625 0.96875 -0.265625l0.890625 0l0 -0.71875q0 -1.21875 0.90625 -2.015625q0.921875 -0.8125 2.65625 -0.8125q0.78125 0 1.796875 0.140625q1.015625 0.140625 1.296875 0.40625q0.296875 0.25 0.296875 0.640625q0 0.4375 -0.265625 0.703125q-0.25 0.265625 -0.625 0.265625q-0.171875 0 -0.515625 -0.0625q-1.15625 -0.234375 -2.046875 -0.234375q-0.9375 0 -1.296875 0.28125q-0.34375 0.28125 -0.34375 0.6875l0 0.71875l2.890625 0q0.671875 0 0.953125 0.265625q0.28125 0.25 0.28125 0.671875q0 0.40625 -0.28125 0.671875q-0.28125 0.25 -0.953125 0.25l-2.890625 0z" fill-rule="nonzero"/><path fill="#d9d9d9" d="m496.69736 163.26105l192.126 0l0 42.015747l-192.126 0z" fill-rule="evenodd"/><path fill="#000000" d="m562.92053 190.18105l0 -1.21875q-0.90625 1.4375 -2.703125 1.4375q-1.15625 0 -2.125 -0.640625q-0.96875 -0.640625 -1.5 -1.78125q-0.53125 -1.140625 -0.53125 -2.625q0 -1.453125 0.484375 -2.625q0.484375 -1.1875 1.4375 -1.8125q0.96875 -0.625 2.171875 -0.625q0.875 0 1.546875 0.375q0.6875 0.359375 1.109375 0.953125l0 -4.796875l1.640625 0l0 13.359375l-1.53125 0zm-5.171875 -4.828125q0 1.859375 0.78125 2.78125q0.78125 0.921875 1.84375 0.921875q1.078125 0 1.828125 -0.875q0.75 -0.890625 0.75 -2.6875q0 -1.984375 -0.765625 -2.90625q-0.765625 -0.9375 -1.890625 -0.9375q-1.078125 0 -1.8125 0.890625q-0.734375 0.890625 -0.734375 2.8125zm15.906982 1.71875l1.6875 0.203125q-0.40625 1.484375 -1.484375 2.3125q-1.078125 0.8125 -2.765625 0.8125q-2.125 0 -3.375 -1.296875q-1.234375 -1.3125 -1.234375 -3.671875q0 -2.453125 1.25 -3.796875q1.265625 -1.34375 3.265625 -1.34375q1.9375 0 3.15625 1.328125q1.234375 1.3125 1.234375 3.703125q0 0.15625 0 0.4375l-7.21875 0q0.09375 1.59375 0.90625 2.453125q0.8125 0.84375 2.015625 0.84375q0.90625 0 1.546875 -0.46875q0.640625 -0.484375 1.015625 -1.515625zm-5.390625 -2.65625l5.40625 0q-0.109375 -1.21875 -0.625 -1.828125q-0.78125 -0.953125 -2.03125 -0.953125q-1.125 0 -1.90625 0.765625q-0.765625 0.75 -0.84375 2.015625zm11.828857 5.765625l-3.6875 -9.671875l1.734375 0l2.078125 5.796875q0.328125 0.9375 0.625 1.9375q0.203125 -0.765625 0.609375 -1.828125l2.140625 -5.90625l1.6875 0l-3.65625 9.671875l-1.53125 0zm6.640625 -11.46875l0 -1.890625l1.640625 0l0 1.890625l-1.640625 0zm0 11.46875l0 -9.671875l1.640625 0l0 9.671875l-1.640625 0zm10.457275 -3.546875l1.609375 0.21875q-0.265625 1.65625 -1.359375 2.609375q-1.078125 0.9375 -2.671875 0.9375q-1.984375 0 -3.1875 -1.296875q-1.203125 -1.296875 -1.203125 -3.71875q0 -1.578125 0.515625 -2.75q0.515625 -1.171875 1.578125 -1.75q1.0625 -0.59375 2.3125 -0.59375q1.578125 0 2.578125 0.796875q1.0 0.796875 1.28125 2.265625l-1.59375 0.234375q-0.234375 -0.96875 -0.8125 -1.453125q-0.578125 -0.5 -1.390625 -0.5q-1.234375 0 -2.015625 0.890625q-0.78125 0.890625 -0.78125 2.8125q0 1.953125 0.75 2.84375q0.75 0.875 1.953125 0.875q0.96875 0 1.609375 -0.59375q0.65625 -0.59375 0.828125 -1.828125zm9.640625 0.4375l1.6875 0.203125q-0.40625 1.484375 -1.484375 2.3125q-1.078125 0.8125 -2.765625 0.8125q-2.125 0 -3.375 -1.296875q-1.234375 -1.3125 -1.234375 -3.671875q0 -2.453125 1.25 -3.796875q1.265625 -1.34375 3.265625 -1.34375q1.9375 0 3.15625 1.328125q1.234375 1.3125 1.234375 3.703125q0 0.15625 0 0.4375l-7.21875 0q0.09375 1.59375 0.90625 2.453125q0.8125 0.84375 2.015625 0.84375q0.90625 0 1.546875 -0.46875q0.640625 -0.484375 1.015625 -1.515625zm-5.390625 -2.65625l5.40625 0q-0.109375 -1.21875 -0.625 -1.828125q-0.78125 -0.953125 -2.03125 -0.953125q-1.125 0 -1.90625 0.765625q-0.765625 0.75 -0.84375 2.015625zm7.6257324 9.46875l0 -1.1875l10.859375 0l0 1.1875l-10.859375 0zm20.047607 -5.28125l0 1.578125l-8.828125 0q-0.015625 -0.59375 0.1875 -1.140625q0.34375 -0.90625 1.078125 -1.78125q0.75 -0.875 2.15625 -2.015625q2.171875 -1.78125 2.9375 -2.828125q0.765625 -1.046875 0.765625 -1.96875q0 -0.984375 -0.703125 -1.640625q-0.6875 -0.671875 -1.8125 -0.671875q-1.1875 0 -1.90625 0.71875q-0.703125 0.703125 -0.703125 1.953125l-1.6875 -0.171875q0.171875 -1.890625 1.296875 -2.875q1.140625 -0.984375 3.03125 -0.984375q1.921875 0 3.046875 1.0625q1.125 1.0625 1.125 2.640625q0 0.796875 -0.328125 1.578125q-0.328125 0.78125 -1.09375 1.640625q-0.75 0.84375 -2.53125 2.34375q-1.46875 1.234375 -1.890625 1.6875q-0.421875 0.4375 -0.6875 0.875l6.546875 0z" fill-rule="nonzero"/><path fill="#000000" fill-opacity="0.0" d="m200.72137 80.90253l71.1496 45.133858" fill-rule="evenodd"/><path stroke="#000000" stroke-width="4.0" stroke-linejoin="round" stroke-linecap="butt" stroke-dasharray="4.0,12.0" d="m200.72137 80.90253l50.883286 32.277885" fill-rule="evenodd"/><path fill="#000000" stroke="#000000" stroke-width="4.0" stroke-linecap="butt" d="m248.06555 118.75951l18.867523 4.144516l-11.789307 -15.302696z" fill-rule="evenodd"/><path fill="#d9d9d9" d="m746.2387 56.55235l192.12598 0l0 101.543304l-192.12598 0z" fill-rule="evenodd"/><path fill="#9fc5e8" d="m759.9627 65.70159l167.40155 0l0 32.91339l-167.40155 0z" fill-rule="evenodd"/><path stroke="#000000" stroke-width="4.0" stroke-linejoin="round" stroke-linecap="butt" d="m759.9627 65.70159l167.40155 0l0 32.91339l-167.40155 0z" fill-rule="evenodd"/><path fill="#000000" d="m812.0884 83.00016q-0.453125 -0.296875 -0.953125 -0.4375q-0.5 -0.140625 -1.046875 -0.140625q-1.078125 0 -1.71875 0.359375q-0.28125 0.15625 -0.28125 0.34375q0 0.203125 0.375 0.40625q0.296875 0.140625 1.3125 0.28125q1.859375 0.25 2.578125 0.515625q0.96875 0.328125 1.484375 1.0q0.515625 0.65625 0.515625 1.40625q0 1.0 -0.890625 1.671875q-1.265625 0.96875 -3.28125 0.96875q-0.8125 0 -1.5 -0.140625q-0.6875 -0.140625 -1.265625 -0.40625q-0.125 0.109375 -0.28125 0.171875q-0.15625 0.0625 -0.328125 0.0625q-0.4375 0 -0.703125 -0.28125q-0.25 -0.28125 -0.25 -0.953125l0 -0.640625q0 -0.671875 0.25 -0.953125q0.265625 -0.296875 0.6875 -0.296875q0.34375 0 0.5625 0.1875q0.234375 0.1875 0.359375 0.640625q0.421875 0.375 1.015625 0.5625q0.609375 0.1875 1.390625 0.1875q1.296875 0 2.0 -0.40625q0.34375 -0.203125 0.34375 -0.421875q0 -0.359375 -0.484375 -0.59375q-0.484375 -0.234375 -2.0 -0.40625q-2.25 -0.234375 -3.0 -0.90625q-0.765625 -0.671875 -0.765625 -1.640625q0 -1.0 0.859375 -1.671875q1.140625 -0.90625 3.0 -0.90625q0.640625 0 1.234375 0.125q0.609375 0.125 1.15625 0.375q0.171875 -0.125 0.3125 -0.1875q0.15625 -0.0625 0.28125 -0.0625q0.390625 0 0.640625 0.28125q0.25 0.28125 0.25 0.96875l0 0.453125q0 0.609375 -0.140625 0.828125q-0.296875 0.421875 -0.796875 0.421875q-0.328125 0 -0.59375 -0.203125q-0.25 -0.21875 -0.328125 -0.5625zm8.789307 -2.1875l0 1.15625q1.1875 -0.84375 1.859375 -1.125q0.6875 -0.28125 1.265625 -0.28125q0.921875 0 1.78125 0.671875q0.578125 0.453125 0.578125 0.921875q0 0.40625 -0.28125 0.6875q-0.28125 0.28125 -0.671875 0.28125q-0.34375 0 -0.734375 -0.34375q-0.375 -0.359375 -0.671875 -0.359375q-0.390625 0 -1.171875 0.5q-0.78125 0.484375 -1.953125 1.46875l0 2.8125l2.671875 0q0.671875 0 0.953125 0.265625q0.296875 0.265625 0.296875 0.6875q0 0.40625 -0.296875 0.671875q-0.28125 0.25 -0.953125 0.25l-5.640625 0q-0.671875 0 -0.96875 -0.25q-0.28125 -0.265625 -0.28125 -0.6875q0 -0.40625 0.28125 -0.671875q0.296875 -0.265625 0.96875 -0.265625l1.109375 0l0 -4.53125l-0.671875 0q-0.671875 0 -0.96875 -0.25q-0.28125 -0.265625 -0.28125 -0.6875q0 -0.40625 0.28125 -0.65625q0.296875 -0.265625 0.96875 -0.265625l2.53125 0zm14.508057 0.328125q0.328125 -0.3125 0.6875 -0.3125q0.390625 0 0.65625 0.296875q0.265625 0.28125 0.265625 0.9375l0 1.203125q0 0.671875 -0.265625 0.953125q-0.265625 0.28125 -0.671875 0.28125q-0.390625 0 -0.65625 -0.21875q-0.1875 -0.15625 -0.296875 -0.65625q-0.109375 -0.515625 -0.53125 -0.765625q-0.734375 -0.4375 -1.875 -0.4375q-1.328125 0 -2.125 0.78125q-0.796875 0.78125 -0.796875 1.953125q0 1.09375 0.765625 1.734375q0.765625 0.625 2.546875 0.625q1.15625 0 1.890625 -0.234375q0.4375 -0.140625 0.828125 -0.484375q0.40625 -0.359375 0.71875 -0.359375q0.375 0 0.65625 0.28125q0.28125 0.28125 0.28125 0.671875q0 0.609375 -0.84375 1.171875q-1.265625 0.828125 -3.6875 0.828125q-2.171875 0 -3.390625 -0.90625q-1.640625 -1.203125 -1.640625 -3.3125q0 -2.0 1.328125 -3.296875q1.34375 -1.3125 3.484375 -1.3125q0.765625 0 1.421875 0.15625q0.671875 0.140625 1.25 0.421875zm13.445618 13.546875l-10.25 0q-0.671875 0 -0.953125 -0.265625q-0.296875 -0.25 -0.296875 -0.671875q0 -0.421875 0.296875 -0.6875q0.28125 -0.25 0.953125 -0.25l10.25 0q0.671875 0 0.953125 0.25q0.28125 0.265625 0.28125 0.6875q0 0.40625 -0.28125 0.671875q-0.28125 0.265625 -0.953125 0.265625zm5.6330566 -13.875l0 1.15625q1.1875 -0.84375 1.859375 -1.125q0.6875 -0.28125 1.265625 -0.28125q0.921875 0 1.78125 0.671875q0.578125 0.453125 0.578125 0.921875q0 0.40625 -0.28125 0.6875q-0.28125 0.28125 -0.671875 0.28125q-0.34375 0 -0.734375 -0.34375q-0.375 -0.359375 -0.671875 -0.359375q-0.390625 0 -1.171875 0.5q-0.78125 0.484375 -1.953125 1.46875l0 2.8125l2.671875 0q0.671875 0 0.953125 0.265625q0.296875 0.265625 0.296875 0.6875q0 0.40625 -0.296875 0.671875q-0.28125 0.25 -0.953125 0.25l-5.640625 0q-0.671875 0 -0.96875 -0.25q-0.28125 -0.265625 -0.28125 -0.6875q0 -0.40625 0.28125 -0.671875q0.296875 -0.265625 0.96875 -0.265625l1.109375 0l0 -4.53125l-0.671875 0q-0.671875 0 -0.96875 -0.25q-0.28125 -0.265625 -0.28125 -0.6875q0 -0.40625 0.28125 -0.65625q0.296875 -0.265625 0.96875 -0.265625l2.53125 0zm16.273682 5.078125l-7.65625 0q0.296875 0.734375 1.03125 1.1875q0.75 0.4375 2.015625 0.4375q1.03125 0 2.75 -0.453125q0.71875 -0.1875 0.984375 -0.1875q0.375 0 0.625 0.265625q0.265625 0.265625 0.265625 0.671875q0 0.359375 -0.28125 0.625q-0.359375 0.328125 -1.78125 0.640625q-1.40625 0.296875 -2.703125 0.296875q-2.25 0 -3.59375 -1.265625q-1.34375 -1.265625 -1.34375 -3.109375q0 -1.96875 1.453125 -3.203125q1.453125 -1.234375 3.359375 -1.234375q1.140625 0 2.078125 0.40625q0.953125 0.390625 1.421875 0.859375q0.65625 0.671875 1.09375 1.671875q0.28125 0.6875 0.28125 1.59375l0 0.796875zm-2.0625 -1.875q-0.4375 -0.796875 -1.125 -1.1875q-0.6875 -0.40625 -1.640625 -0.40625q-0.953125 0 -1.65625 0.40625q-0.6875 0.390625 -1.125 1.1875l5.546875 0zm8.554932 -1.34375l0 4.53125l2.671875 0q0.671875 0 0.953125 0.265625q0.28125 0.265625 0.28125 0.6875q0 0.40625 -0.28125 0.671875q-0.28125 0.25 -0.953125 0.25l-5.640625 0q-0.671875 0 -0.96875 -0.25q-0.28125 -0.265625 -0.28125 -0.6875q0 -0.40625 0.28125 -0.671875q0.296875 -0.265625 0.96875 -0.265625l1.109375 0l0 -4.53125l-0.890625 0q-0.671875 0 -0.96875 -0.25q-0.28125 -0.265625 -0.28125 -0.6875q0 -0.40625 0.28125 -0.65625q0.296875 -0.265625 0.96875 -0.265625l0.890625 0l0 -0.71875q0 -1.21875 0.90625 -2.015625q0.921875 -0.8125 2.65625 -0.8125q0.78125 0 1.796875 0.140625q1.015625 0.140625 1.296875 0.40625q0.296875 0.25 0.296875 0.640625q0 0.4375 -0.265625 0.703125q-0.25 0.265625 -0.625 0.265625q-0.171875 0 -0.515625 -0.0625q-1.15625 -0.234375 -2.046875 -0.234375q-0.9375 0 -1.296875 0.28125q-0.34375 0.28125 -0.34375 0.6875l0 0.71875l2.890625 0q0.671875 0 0.953125 0.265625q0.28125 0.25 0.28125 0.671875q0 0.40625 -0.28125 0.671875q-0.28125 0.25 -0.953125 0.25l-2.890625 0z" fill-rule="nonzero"/><path fill="#ea9999" d="m759.9627 109.57944l167.40155 0l0 32.913376l-167.40155 0z" fill-rule="evenodd"/><path fill="#000000" d="m814.3696 121.14362l0 9.937508l0.3125 0q0.671875 0 0.953125 0.265625q0.296875 0.265625 0.296875 0.6875q0 0.40625 -0.296875 0.671875q-0.28125 0.25 -0.953125 0.25l-2.1875 0l0 -0.453125q-0.640625 0.375 -1.34375 0.5625q-0.6875 0.1875 -1.4375 0.1875q-2.09375 0 -3.390625 -1.203125q-1.28125 -1.21875 -1.28125 -3.03125q0 -1.9062576 1.34375 -3.2343826q1.359375 -1.34375 3.296875 -1.34375q0.734375 0 1.421875 0.21875q0.703125 0.21875 1.390625 0.671875l0 -2.328125l-0.3125 0q-0.6875 0 -0.96875 -0.25q-0.28125 -0.265625 -0.28125 -0.671875q0 -0.421875 0.28125 -0.671875q0.28125 -0.265625 0.96875 -0.265625l2.1875 0zm-1.875 7.9218826q0 -1.1562576 -0.8125 -1.9531326q-0.8125 -0.8125 -1.984375 -0.8125q-1.171875 0 -1.984375 0.8125q-0.796875 0.796875 -0.796875 1.9218826q0 1.03125 0.71875 1.703125q0.734375 0.65625 2.0625 0.65625q1.328125 0 2.0625 -0.65625q0.734375 -0.671875 0.734375 -1.671875zm10.789307 -2.1875076q-0.453125 -0.296875 -0.953125 -0.4375q-0.5 -0.140625 -1.046875 -0.140625q-1.078125 0 -1.71875 0.359375q-0.28125 0.15625 -0.28125 0.34375q0 0.203125 0.375 0.40625q0.296875 0.140625 1.3125 0.28125q1.859375 0.25 2.578125 0.5156326q0.96875 0.328125 1.484375 1.0q0.515625 0.65625 0.515625 1.40625q0 1.0 -0.890625 1.671875q-1.265625 0.96875 -3.28125 0.96875q-0.8125 0 -1.5 -0.140625q-0.6875 -0.140625 -1.265625 -0.40625q-0.125 0.109375 -0.28125 0.171875q-0.15625 0.0625 -0.328125 0.0625q-0.4375 0 -0.703125 -0.28125q-0.25 -0.28125 -0.25 -0.953125l0 -0.640625q0 -0.671875 0.25 -0.953125q0.265625 -0.296875 0.6875 -0.296875q0.34375 0 0.5625 0.1875q0.234375 0.1875 0.359375 0.640625q0.421875 0.375 1.015625 0.5625q0.609375 0.1875 1.390625 0.1875q1.296875 0 2.0 -0.40625q0.34375 -0.203125 0.34375 -0.421875q0 -0.359375 -0.484375 -0.59375q-0.484375 -0.234375 -2.0 -0.40625q-2.25 -0.234375 -3.0 -0.90625q-0.765625 -0.6718826 -0.765625 -1.6406326q0 -1.0 0.859375 -1.671875q1.140625 -0.90625 3.0 -0.90625q0.640625 0 1.234375 0.125q0.609375 0.125 1.15625 0.375q0.171875 -0.125 0.3125 -0.1875q0.15625 -0.0625 0.28125 -0.0625q0.390625 0 0.640625 0.28125q0.25 0.28125 0.25 0.96875l0 0.453125q0 0.609375 -0.140625 0.828125q-0.296875 0.421875 -0.796875 0.421875q-0.328125 0 -0.59375 -0.203125q-0.25 -0.21875 -0.328125 -0.5625zm8.726807 -0.328125l0 3.7500076q0 0.59375 0.25 0.78125q0.375 0.3125 1.359375 0.3125q1.4375 0 2.640625 -0.609375q0.46875 -0.234375 0.734375 -0.234375q0.359375 0 0.625 0.265625q0.265625 0.265625 0.265625 0.671875q0 0.359375 -0.28125 0.625q-0.453125 0.421875 -1.765625 0.78125q-1.3125 0.359375 -2.21875 0.359375q-1.734375 0 -2.609375 -0.75q-0.875 -0.75 -0.875 -1.84375l0 -4.1093826l-0.671875 0q-0.671875 0 -0.96875 -0.25q-0.28125 -0.265625 -0.28125 -0.6875q0 -0.40625 0.28125 -0.65625q0.296875 -0.265625 0.96875 -0.265625l0.671875 0l0 -1.6875q0 -0.671875 0.265625 -0.953125q0.265625 -0.296875 0.671875 -0.296875q0.421875 0 0.671875 0.296875q0.265625 0.28125 0.265625 0.953125l0 1.6875l3.453125 0q0.671875 0 0.953125 0.265625q0.296875 0.25 0.296875 0.671875q0 0.40625 -0.296875 0.671875q-0.28125 0.25 -0.953125 0.25l-3.453125 0zm16.820618 12.015633l-10.25 0q-0.671875 0 -0.953125 -0.265625q-0.296875 -0.25 -0.296875 -0.671875q0 -0.421875 0.296875 -0.6875q0.28125 -0.25 0.953125 -0.25l10.25 0q0.671875 0 0.953125 0.25q0.28125 0.265625 0.28125 0.6875q0 0.40625 -0.28125 0.671875q-0.28125 0.265625 -0.953125 0.265625zm5.6330566 -13.875008l0 1.15625q1.1875 -0.84375 1.859375 -1.125q0.6875 -0.28125 1.265625 -0.28125q0.921875 0 1.78125 0.671875q0.578125 0.453125 0.578125 0.921875q0 0.40625 -0.28125 0.6875q-0.28125 0.28125 -0.671875 0.28125q-0.34375 0 -0.734375 -0.34375q-0.375 -0.359375 -0.671875 -0.359375q-0.390625 0 -1.171875 0.5q-0.78125 0.484375 -1.953125 1.4687576l0 2.8125l2.671875 0q0.671875 0 0.953125 0.265625q0.296875 0.265625 0.296875 0.6875q0 0.40625 -0.296875 0.671875q-0.28125 0.25 -0.953125 0.25l-5.640625 0q-0.671875 0 -0.96875 -0.25q-0.28125 -0.265625 -0.28125 -0.6875q0 -0.40625 0.28125 -0.671875q0.296875 -0.265625 0.96875 -0.265625l1.109375 0l0 -4.5312576l-0.671875 0q-0.671875 0 -0.96875 -0.25q-0.28125 -0.265625 -0.28125 -0.6875q0 -0.40625 0.28125 -0.65625q0.296875 -0.265625 0.96875 -0.265625l2.53125 0zm16.273682 5.0781326l-7.65625 0q0.296875 0.734375 1.03125 1.1875q0.75 0.4375 2.015625 0.4375q1.03125 0 2.75 -0.453125q0.71875 -0.1875 0.984375 -0.1875q0.375 0 0.625 0.265625q0.265625 0.265625 0.265625 0.671875q0 0.359375 -0.28125 0.625q-0.359375 0.328125 -1.78125 0.640625q-1.40625 0.296875 -2.703125 0.296875q-2.25 0 -3.59375 -1.265625q-1.34375 -1.265625 -1.34375 -3.109375q0 -1.9687576 1.453125 -3.2031326q1.453125 -1.234375 3.359375 -1.234375q1.140625 0 2.078125 0.40625q0.953125 0.390625 1.421875 0.859375q0.65625 0.671875 1.09375 1.671875q0.28125 0.6875076 0.28125 1.5937576l0 0.796875zm-2.0625 -1.8750076q-0.4375 -0.796875 -1.125 -1.1875q-0.6875 -0.40625 -1.640625 -0.40625q-0.953125 0 -1.65625 0.40625q-0.6875 0.390625 -1.125 1.1875l5.546875 0zm8.554932 -1.34375l0 4.5312576l2.671875 0q0.671875 0 0.953125 0.265625q0.28125 0.265625 0.28125 0.6875q0 0.40625 -0.28125 0.671875q-0.28125 0.25 -0.953125 0.25l-5.640625 0q-0.671875 0 -0.96875 -0.25q-0.28125 -0.265625 -0.28125 -0.6875q0 -0.40625 0.28125 -0.671875q0.296875 -0.265625 0.96875 -0.265625l1.109375 0l0 -4.5312576l-0.890625 0q-0.671875 0 -0.96875 -0.25q-0.28125 -0.265625 -0.28125 -0.6875q0 -0.40625 0.28125 -0.65625q0.296875 -0.265625 0.96875 -0.265625l0.890625 0l0 -0.71875q0 -1.21875 0.90625 -2.015625q0.921875 -0.8125 2.65625 -0.8125q0.78125 0 1.796875 0.140625q1.015625 0.140625 1.296875 0.40625q0.296875 0.25 0.296875 0.640625q0 0.4375 -0.265625 0.703125q-0.25 0.265625 -0.625 0.265625q-0.171875 0 -0.515625 -0.0625q-1.15625 -0.234375 -2.046875 -0.234375q-0.9375 0 -1.296875 0.28125q-0.34375 0.28125 -0.34375 0.6875l0 0.71875l2.890625 0q0.671875 0 0.953125 0.265625q0.28125 0.25 0.28125 0.671875q0 0.40625 -0.28125 0.671875q-0.28125 0.25 -0.953125 0.25l-2.890625 0z" fill-rule="nonzero"/><path fill="#d9d9d9" d="m746.2387 164.5168l192.12598 0l0 42.015747l-192.12598 0z" fill-rule="evenodd"/><path fill="#000000" d="m812.46185 191.4368l0 -1.21875q-0.90625 1.4375 -2.703125 1.4375q-1.15625 0 -2.125 -0.640625q-0.96875 -0.640625 -1.5 -1.78125q-0.53125 -1.140625 -0.53125 -2.625q0 -1.453125 0.484375 -2.625q0.484375 -1.1875 1.4375 -1.8125q0.96875 -0.625 2.171875 -0.625q0.875 0 1.546875 0.375q0.6875 0.359375 1.109375 0.953125l0 -4.796875l1.640625 0l0 13.359375l-1.53125 0zm-5.171875 -4.828125q0 1.859375 0.78125 2.78125q0.78125 0.921875 1.84375 0.921875q1.078125 0 1.828125 -0.875q0.75 -0.890625 0.75 -2.6875q0 -1.984375 -0.765625 -2.90625q-0.765625 -0.9375 -1.890625 -0.9375q-1.078125 0 -1.8125 0.890625q-0.734375 0.890625 -0.734375 2.8125zm15.906982 1.71875l1.6875 0.203125q-0.40625 1.484375 -1.484375 2.3125q-1.078125 0.8125 -2.765625 0.8125q-2.125 0 -3.375 -1.296875q-1.234375 -1.3125 -1.234375 -3.671875q0 -2.453125 1.25 -3.796875q1.265625 -1.34375 3.265625 -1.34375q1.9375 0 3.15625 1.328125q1.234375 1.3125 1.234375 3.703125q0 0.15625 0 0.4375l-7.21875 0q0.09375 1.59375 0.90625 2.453125q0.8125 0.84375 2.015625 0.84375q0.90625 0 1.546875 -0.46875q0.640625 -0.484375 1.015625 -1.515625zm-5.390625 -2.65625l5.40625 0q-0.109375 -1.21875 -0.625 -1.828125q-0.78125 -0.953125 -2.03125 -0.953125q-1.125 0 -1.90625 0.765625q-0.765625 0.75 -0.84375 2.015625zm11.828857 5.765625l-3.6875 -9.671875l1.734375 0l2.078125 5.796875q0.328125 0.9375 0.625 1.9375q0.203125 -0.765625 0.609375 -1.828125l2.140625 -5.90625l1.6875 0l-3.65625 9.671875l-1.53125 0zm6.640625 -11.46875l0 -1.890625l1.640625 0l0 1.890625l-1.640625 0zm0 11.46875l0 -9.671875l1.640625 0l0 9.671875l-1.640625 0zm10.457336 -3.546875l1.609375 0.21875q-0.265625 1.65625 -1.359375 2.609375q-1.078125 0.9375 -2.671875 0.9375q-1.984375 0 -3.1875 -1.296875q-1.203125 -1.296875 -1.203125 -3.71875q0 -1.578125 0.515625 -2.75q0.515625 -1.171875 1.578125 -1.75q1.0625 -0.59375 2.3125 -0.59375q1.578125 0 2.578125 0.796875q1.0 0.796875 1.28125 2.265625l-1.59375 0.234375q-0.234375 -0.96875 -0.8125 -1.453125q-0.578125 -0.5 -1.390625 -0.5q-1.234375 0 -2.015625 0.890625q-0.78125 0.890625 -0.78125 2.8125q0 1.953125 0.75 2.84375q0.75 0.875 1.953125 0.875q0.96875 0 1.609375 -0.59375q0.65625 -0.59375 0.828125 -1.828125zm9.640625 0.4375l1.6875 0.203125q-0.40625 1.484375 -1.484375 2.3125q-1.078125 0.8125 -2.765625 0.8125q-2.125 0 -3.375 -1.296875q-1.234375 -1.3125 -1.234375 -3.671875q0 -2.453125 1.25 -3.796875q1.265625 -1.34375 3.265625 -1.34375q1.9375 0 3.15625 1.328125q1.234375 1.3125 1.234375 3.703125q0 0.15625 0 0.4375l-7.21875 0q0.09375 1.59375 0.90625 2.453125q0.8125 0.84375 2.015625 0.84375q0.90625 0 1.546875 -0.46875q0.640625 -0.484375 1.015625 -1.515625zm-5.390625 -2.65625l5.40625 0q-0.109375 -1.21875 -0.625 -1.828125q-0.78125 -0.953125 -2.03125 -0.953125q-1.125 0 -1.90625 0.765625q-0.765625 0.75 -0.84375 2.015625zm7.6256714 9.46875l0 -1.1875l10.859375 0l0 1.1875l-10.859375 0zm11.438232 -7.234375l1.640625 -0.21875q0.28125 1.40625 0.953125 2.015625q0.6875 0.609375 1.65625 0.609375q1.15625 0 1.953125 -0.796875q0.796875 -0.796875 0.796875 -1.984375q0 -1.125 -0.734375 -1.859375q-0.734375 -0.734375 -1.875 -0.734375q-0.46875 0 -1.15625 0.171875l0.1875 -1.4375q0.15625 0.015625 0.265625 0.015625q1.046875 0 1.875 -0.546875q0.84375 -0.546875 0.84375 -1.671875q0 -0.90625 -0.609375 -1.5q-0.609375 -0.59375 -1.578125 -0.59375q-0.953125 0 -1.59375 0.609375q-0.640625 0.59375 -0.8125 1.796875l-1.640625 -0.296875q0.296875 -1.640625 1.359375 -2.546875q1.0625 -0.90625 2.65625 -0.90625q1.09375 0 2.0 0.46875q0.921875 0.46875 1.40625 1.28125q0.5 0.8125 0.5 1.71875q0 0.859375 -0.46875 1.578125q-0.46875 0.703125 -1.375 1.125q1.1875 0.28125 1.84375 1.140625q0.65625 0.859375 0.65625 2.15625q0 1.734375 -1.28125 2.953125q-1.265625 1.21875 -3.21875 1.21875q-1.765625 0 -2.921875 -1.046875q-1.15625 -1.046875 -1.328125 -2.71875z" fill-rule="nonzero"/><path fill="#000000" fill-opacity="0.0" d="m680.0572 80.90227l79.90552 45.133858" fill-rule="evenodd"/><path stroke="#000000" stroke-width="4.0" stroke-linejoin="round" stroke-linecap="butt" stroke-dasharray="4.0,12.0" d="m680.0572 80.90227l59.008606 33.33046" fill-rule="evenodd"/><path fill="#000000" stroke="#000000" stroke-width="4.0" stroke-linecap="butt" d="m735.81647 119.9854l19.054688 3.1748276l-12.55603 -14.680176z" fill-rule="evenodd"/><path fill="#000000" fill-opacity="0.0" d="m759.96466 80.90635l-82.14172 43.874016" fill-rule="evenodd"/><path stroke="#000000" stroke-width="4.0" stroke-linejoin="round" stroke-linecap="butt" stroke-dasharray="4.0,12.0" d="m759.96466 80.90635l-60.97223 32.56684" fill-rule="evenodd"/><path fill="#000000" stroke="#000000" stroke-width="4.0" stroke-linecap="butt" d="m695.8797 107.64546l-12.898804 14.379906l19.124329 -2.7244568z" fill-rule="evenodd"/></g></svg>