<svg version="1.1" viewBox="0.0 0.0 1053.5380577427823 568.1732283464567" fill="none" stroke="none" stroke-linecap="square" stroke-miterlimit="10" xmlns:xlink="http://www.w3.org/1999/xlink" xmlns="http://www.w3.org/2000/svg"><clipPath id="p.0"><path d="m0 0l1053.5381 0l0 568.1732l-1053.5381 0l0 -568.1732z" clip-rule="nonzero"/></clipPath><g clip-path="url(#p.0)"><path fill="#000000" fill-opacity="0.0" d="m0 0l1053.5381 0l0 568.1732l-1053.5381 0z" fill-rule="evenodd"/><path fill="#cfe2f3" d="m82.10236 9.099737l39.527557 0l0 39.527557l-39.527557 0z" fill-rule="evenodd"/><path stroke="#000000" stroke-width="1.0" stroke-linejoin="round" stroke-linecap="butt" d="m82.10236 9.099737l39.527557 0l0 39.527557l-39.527557 0z" fill-rule="evenodd"/><path fill="#000000" d="m100.29961 25.861639l0 2.21875q1.03125 -0.328125 1.875 -0.328125q1.734375 0 2.859375 1.1875q1.140625 1.171875 1.140625 3.03125q0 1.9062519 -1.15625 3.000002q-1.140625 1.078125 -3.515625 1.078125q-2.09375 0 -3.328125 -0.78125q-0.703125 -0.453125 -0.703125 -1.046875q0 -0.375 0.28125 -0.65625q0.28125 -0.28125 0.65625 -0.28125q0.3125 0 0.6875 0.3125q0.375 0.296875 0.78125 0.421875q0.59375 0.171875 1.5 0.171875q1.703125 0 2.3125 -0.53125q0.625 -0.546875 0.625 -1.6718769q0 -1.109375 -0.609375 -1.734375q-0.59375 -0.625 -1.53125 -0.625q-1.0 0 -2.296875 0.65625q-0.296875 0.15625 -0.515625 0.15625q-0.390625 0 -0.671875 -0.296875q-0.265625 -0.296875 -0.265625 -0.75l0 -5.390625l5.71875 0q0.671875 0 0.953125 0.265625q0.296875 0.25 0.296875 0.671875q0 0.40625 -0.296875 0.671875q-0.28125 0.25 -0.953125 0.25l-3.84375 0z" fill-rule="nonzero"/><path fill="#efefef" d="m121.64599 9.099737l39.527565 0l0 39.527557l-39.527565 0z" fill-rule="evenodd"/><path stroke="#000000" stroke-width="1.0" stroke-linejoin="round" stroke-linecap="butt" d="m121.64599 9.099737l39.527565 0l0 39.527557l-39.527565 0z" fill-rule="evenodd"/><path fill="#efefef" d="m161.18962 9.099737l39.527557 0l0 39.527557l-39.527557 0z" fill-rule="evenodd"/><path stroke="#000000" stroke-width="1.0" stroke-linejoin="round" stroke-linecap="butt" d="m161.18962 9.099737l39.527557 0l0 39.527557l-39.527557 0z" fill-rule="evenodd"/><path fill="#efefef" d="m200.73325 9.099737l39.527557 0l0 39.527557l-39.527557 0z" fill-rule="evenodd"/><path stroke="#000000" stroke-width="1.0" stroke-linejoin="round" stroke-linecap="butt" d="m200.73325 9.099737l39.527557 0l0 39.527557l-39.527557 0z" fill-rule="evenodd"/><path fill="#cfe2f3" d="m65.11811 126.817604l30.015747 0l0 30.015755l-30.015747 0z" fill-rule="evenodd"/><path stroke="#000000" stroke-width="1.0" stroke-linejoin="round" stroke-linecap="butt" d="m65.11811 126.817604l30.015747 0l0 30.015755l-30.015747 0z" fill-rule="evenodd"/><path fill="#000000" d="m82.79382 142.51111q0.828125 0.5625 1.234375 1.3125q0.40625 0.734375 0.40625 1.65625q0 0.984375 -0.546875 1.828125q-0.53125 0.84375 -1.5625 1.28125q-1.03125 0.421875 -2.703125 0.421875q-2.15625 0 -3.25 -0.671875q-0.609375 -0.375 -0.609375 -0.90625q0 -0.40625 0.265625 -0.671875q0.265625 -0.28125 0.65625 -0.28125q0.25 0 0.546875 0.171875q0.390625 0.28125 0.75 0.375q0.546875 0.125 1.5 0.125q1.640625 0 2.359375 -0.421875q0.734375 -0.421875 0.734375 -1.203125q0 -0.578125 -0.421875 -1.109375q-0.421875 -0.53125 -1.140625 -0.8125q-0.40625 -0.171875 -1.390625 -0.234375q-0.453125 -0.03125 -0.703125 -0.28125q-0.25 -0.265625 -0.25 -0.640625q0 -0.40625 0.265625 -0.671875q0.28125 -0.28125 0.6875 -0.28125q0.9375 0 1.0 -0.015625q0.359375 -0.03125 0.71875 -0.234375q0.375 -0.203125 0.59375 -0.546875q0.234375 -0.359375 0.234375 -0.71875q0 -0.59375 -0.53125 -1.03125q-0.515625 -0.4375 -1.578125 -0.4375q-1.34375 0 -2.046875 0.78125q-0.21875 0.234375 -0.34375 0.296875q-0.1875 0.09375 -0.421875 0.09375q-0.390625 0 -0.671875 -0.265625q-0.265625 -0.265625 -0.265625 -0.671875q0 -0.625 0.84375 -1.21875q1.21875 -0.875 3.046875 -0.875q1.734375 0 2.78125 0.984375q1.046875 0.984375 1.046875 2.375q0 0.71875 -0.3125 1.34375q-0.3125 0.625 -0.921875 1.15625z" fill-rule="nonzero"/><path fill="#3d85c6" d="m77.65092 190.82414l39.527557 0l0 39.527557l-39.527557 0z" fill-rule="evenodd"/><path stroke="#000000" stroke-width="1.0" stroke-linejoin="round" stroke-linecap="butt" d="m77.65092 190.82414l39.527557 0l0 39.527557l-39.527557 0z" fill-rule="evenodd"/><path fill="#000000" d="m100.06691 211.53917q0.71875 0.5625 1.078125 1.265625q0.359375 0.703125 0.359375 1.546875q0 0.9375 -0.46875 1.734375q-0.453125 0.78125 -1.4375 1.234375q-0.984375 0.453125 -2.1875 0.453125q-1.203125 0 -2.171875 -0.453125q-0.96875 -0.453125 -1.421875 -1.234375q-0.453125 -0.796875 -0.453125 -1.734375q0 -0.84375 0.359375 -1.546875q0.359375 -0.703125 1.078125 -1.265625q-0.640625 -0.578125 -0.953125 -1.234375q-0.3125 -0.65625 -0.3125 -1.390625q0 -1.421875 1.09375 -2.453125q1.09375 -1.046875 2.796875 -1.046875q1.71875 0 2.8125 1.046875q1.09375 1.03125 1.09375 2.453125q0 0.734375 -0.328125 1.390625q-0.3125 0.65625 -0.9375 1.234375zm-0.65625 -2.578125q0 -0.703125 -0.546875 -1.1875q-0.53125 -0.484375 -1.453125 -0.484375q-0.921875 0 -1.46875 0.484375q-0.546875 0.484375 -0.546875 1.1875q0 0.6875 0.546875 1.1875q0.546875 0.484375 1.46875 0.484375q0.921875 0 1.453125 -0.484375q0.546875 -0.5 0.546875 -1.1875zm0.21875 5.484375q0 -0.734375 -0.640625 -1.328125q-0.625 -0.59375 -1.5625 -0.59375q-0.9375 0 -1.578125 0.59375q-0.625 0.59375 -0.625 1.34375q0 0.59375 0.546875 1.03125q0.546875 0.421875 1.65625 0.421875q1.125 0 1.65625 -0.421875q0.546875 -0.4375 0.546875 -1.046875z" fill-rule="nonzero"/><path fill="#efefef" d="m117.19454 190.82414l39.527565 0l0 39.527557l-39.527565 0z" fill-rule="evenodd"/><path stroke="#000000" stroke-width="1.0" stroke-linejoin="round" stroke-linecap="butt" d="m117.19454 190.82414l39.527565 0l0 39.527557l-39.527565 0z" fill-rule="evenodd"/><path fill="#efefef" d="m156.73817 190.82414l39.527557 0l0 39.527557l-39.527557 0z" fill-rule="evenodd"/><path stroke="#000000" stroke-width="1.0" stroke-linejoin="round" stroke-linecap="butt" d="m156.73817 190.82414l39.527557 0l0 39.527557l-39.527557 0z" fill-rule="evenodd"/><path fill="#efefef" d="m196.2818 190.82414l39.527557 0l0 39.527557l-39.527557 0z" fill-rule="evenodd"/><path stroke="#000000" stroke-width="1.0" stroke-linejoin="round" stroke-linecap="butt" d="m196.2818 190.82414l39.527557 0l0 39.527557l-39.527557 0z" fill-rule="evenodd"/><path fill="#cfe2f3" d="m125.184845 126.817604l30.015747 0l0 30.015755l-30.015747 0z" fill-rule="evenodd"/><path stroke="#000000" stroke-width="1.0" stroke-linejoin="round" stroke-linecap="butt" d="m125.184845 126.817604l30.015747 0l0 30.015755l-30.015747 0z" fill-rule="evenodd"/><path fill="#000000" d="m138.62619 138.82361l0 2.21875q1.03125 -0.328125 1.875 -0.328125q1.734375 0 2.859375 1.1875q1.140625 1.171875 1.140625 3.03125q0 1.90625 -1.15625 3.0q-1.140625 1.078125 -3.515625 1.078125q-2.09375 0 -3.328125 -0.78125q-0.703125 -0.453125 -0.703125 -1.046875q0 -0.375 0.28125 -0.65625q0.28125 -0.28125 0.65625 -0.28125q0.3125 0 0.6875 0.3125q0.375 0.296875 0.78125 0.421875q0.59375 0.171875 1.5 0.171875q1.703125 0 2.3125 -0.53125q0.625 -0.546875 0.625 -1.671875q0 -1.109375 -0.609375 -1.734375q-0.59375 -0.625 -1.53125 -0.625q-1.0 0 -2.296875 0.65625q-0.296875 0.15625 -0.515625 0.15625q-0.390625 0 -0.671875 -0.296875q-0.265625 -0.296875 -0.265625 -0.75l0 -5.390625l5.71875 0q0.671875 0 0.953125 0.265625q0.296875 0.25 0.296875 0.671875q0 0.40625 -0.296875 0.671875q-0.28125 0.25 -0.953125 0.25l-3.84375 0z" fill-rule="nonzero"/><path fill="#efefef" d="m155.21846 126.817604l30.015747 0l0 30.015755l-30.015747 0z" fill-rule="evenodd"/><path stroke="#000000" stroke-width="1.0" stroke-linejoin="round" stroke-linecap="butt" d="m155.21846 126.817604l30.015747 0l0 30.015755l-30.015747 0z" fill-rule="evenodd"/><path fill="#efefef" d="m185.25208 126.817604l30.015747 0l0 30.015755l-30.015747 0z" fill-rule="evenodd"/><path stroke="#000000" stroke-width="1.0" stroke-linejoin="round" stroke-linecap="butt" d="m185.25208 126.817604l30.015747 0l0 30.015755l-30.015747 0z" fill-rule="evenodd"/><path fill="#efefef" d="m215.28568 126.817604l30.015747 0l0 30.015755l-30.015747 0z" fill-rule="evenodd"/><path stroke="#000000" stroke-width="1.0" stroke-linejoin="round" stroke-linecap="butt" d="m215.28568 126.817604l30.015747 0l0 30.015755l-30.015747 0z" fill-rule="evenodd"/><path fill="#000000" fill-opacity="0.0" d="m95.35693 120.81759l30.015747 0l0 42.01574l-30.015747 0z" fill-rule="evenodd"/><path fill="#000000" d="m111.29827 143.36258l0 3.125q0 0.671875 -0.265625 0.96875q-0.25 0.28125 -0.65625 0.28125q-0.421875 0 -0.6875 -0.28125q-0.25 -0.296875 -0.25 -0.96875l0 -3.125l-2.671875 0q-0.671875 0 -0.96875 -0.25q-0.28125 -0.265625 -0.28125 -0.6875q0 -0.421875 0.28125 -0.671875q0.296875 -0.265625 0.96875 -0.25l2.671875 0l0 -3.125q0 -0.65625 0.25 -0.953125q0.265625 -0.296875 0.6875 -0.296875q0.40625 0 0.671875 0.296875q0.265625 0.28125 0.265625 0.953125l-0.015625 3.125l2.671875 0q0.671875 0 0.953125 0.25q0.296875 0.25 0.296875 0.671875q0 0.421875 -0.296875 0.6875q-0.28125 0.25 -0.953125 0.25l-2.671875 0z" fill-rule="nonzero"/><path fill="#000000" fill-opacity="0.0" d="m140.30576 148.80708l30.015747 0l0 42.015747l-30.015747 0z" fill-rule="evenodd"/><path fill="#000000" d="m159.30959 169.58646l-7.96875 0q-0.671875 0 -0.96875 -0.25q-0.28125 -0.265625 -0.28125 -0.6875q0 -0.40625 0.28125 -0.65625q0.296875 -0.265625 0.96875 -0.265625l7.96875 0q0.6875 0 0.96875 0.265625q0.28125 0.25 0.28125 0.671875q0 0.40625 -0.28125 0.671875q-0.28125 0.25 -0.96875 0.25zm0 3.515625l-7.96875 0q-0.671875 0 -0.96875 -0.25q-0.28125 -0.265625 -0.28125 -0.671875q0 -0.421875 0.28125 -0.671875q0.296875 -0.265625 0.96875 -0.265625l7.96875 0q0.6875 0 0.96875 0.265625q0.28125 0.25 0.28125 0.671875q0 0.40625 -0.28125 0.671875q-0.28125 0.25 -0.96875 0.25z" fill-rule="nonzero"/><path fill="#cfe2f3" d="m65.11811 286.58664l30.015747 0l0 30.015747l-30.015747 0z" fill-rule="evenodd"/><path stroke="#000000" stroke-width="1.0" stroke-linejoin="round" stroke-linecap="butt" d="m65.11811 286.58664l30.015747 0l0 30.015747l-30.015747 0z" fill-rule="evenodd"/><path fill="#000000" d="m81.07507 296.42075l0 10.21875l1.890625 0q0.671875 0 0.953125 0.265625q0.296875 0.265625 0.296875 0.6875q0 0.40625 -0.296875 0.671875q-0.28125 0.25 -0.953125 0.25l-5.640625 0q-0.671875 0 -0.96875 -0.25q-0.28125 -0.265625 -0.28125 -0.6875q0 -0.40625 0.28125 -0.671875q0.296875 -0.265625 0.96875 -0.265625l1.890625 0l0 -7.78125l-1.671875 0.4375q-0.40625 0.109375 -0.609375 0.109375q-0.34375 0 -0.609375 -0.28125q-0.25 -0.28125 -0.25 -0.6875q0 -0.375 0.1875 -0.59375q0.1875 -0.21875 0.796875 -0.375l4.015625 -1.046875z" fill-rule="nonzero"/><path fill="#3d85c6" d="m77.65092 350.59317l39.527557 0l0 39.527557l-39.527557 0z" fill-rule="evenodd"/><path stroke="#000000" stroke-width="1.0" stroke-linejoin="round" stroke-linecap="butt" d="m77.65092 350.59317l39.527557 0l0 39.527557l-39.527557 0z" fill-rule="evenodd"/><path fill="#000000" d="m100.03566 372.3707q-0.6875 0.609375 -1.28125 0.859375q-0.578125 0.25 -1.21875 0.25q-1.515625 0 -2.640625 -1.203125q-1.125 -1.203125 -1.125 -2.984375q0 -1.390625 0.78125 -2.53125q1.0625 -1.578125 2.984375 -1.578125q1.375 0 2.390625 0.828125q1.03125 0.828125 1.515625 2.390625q0.484375 1.546875 0.484375 3.234375q0 2.859375 -2.21875 4.578125q-1.703125 1.328125 -3.75 1.328125q-1.125 0 -1.75 -0.453125q-0.40625 -0.296875 -0.40625 -0.78125q0 -0.40625 0.265625 -0.671875q0.265625 -0.265625 0.65625 -0.265625q0.21875 0 0.484375 0.125q0.359375 0.1875 0.75 0.1875q1.421875 0 2.609375 -0.953125q1.1875 -0.96875 1.46875 -2.359375zm-0.25 -2.9375q-0.3125 -1.296875 -0.90625 -1.828125q-0.578125 -0.546875 -1.328125 -0.546875q-0.796875 0 -1.359375 0.609375q-0.546875 0.59375 -0.546875 1.609375q0 1.046875 0.5625 1.6875q0.5625 0.640625 1.28125 0.640625q1.265625 0 2.296875 -2.171875z" fill-rule="nonzero"/><path fill="#efefef" d="m117.19454 350.59317l39.527565 0l0 39.527557l-39.527565 0z" fill-rule="evenodd"/><path stroke="#000000" stroke-width="1.0" stroke-linejoin="round" stroke-linecap="butt" d="m117.19454 350.59317l39.527565 0l0 39.527557l-39.527565 0z" fill-rule="evenodd"/><path fill="#efefef" d="m156.73817 350.59317l39.527557 0l0 39.527557l-39.527557 0z" fill-rule="evenodd"/><path stroke="#000000" stroke-width="1.0" stroke-linejoin="round" stroke-linecap="butt" d="m156.73817 350.59317l39.527557 0l0 39.527557l-39.527557 0z" fill-rule="evenodd"/><path fill="#efefef" d="m196.2818 350.59317l39.527557 0l0 39.527557l-39.527557 0z" fill-rule="evenodd"/><path stroke="#000000" stroke-width="1.0" stroke-linejoin="round" stroke-linecap="butt" d="m196.2818 350.59317l39.527557 0l0 39.527557l-39.527557 0z" fill-rule="evenodd"/><path fill="#cfe2f3" d="m125.184845 286.58664l30.015747 0l0 30.015747l-30.015747 0z" fill-rule="evenodd"/><path stroke="#000000" stroke-width="1.0" stroke-linejoin="round" stroke-linecap="butt" d="m125.184845 286.58664l30.015747 0l0 30.015747l-30.015747 0z" fill-rule="evenodd"/><path fill="#000000" d="m142.84494 302.54575q0.71875 0.5625 1.078125 1.265625q0.359375 0.703125 0.359375 1.546875q0 0.9375 -0.46875 1.734375q-0.453125 0.78125 -1.4375 1.234375q-0.984375 0.453125 -2.1875 0.453125q-1.203125 0 -2.171875 -0.453125q-0.96875 -0.453125 -1.421875 -1.234375q-0.453125 -0.796875 -0.453125 -1.734375q0 -0.84375 0.359375 -1.546875q0.359375 -0.703125 1.078125 -1.265625q-0.640625 -0.578125 -0.953125 -1.234375q-0.3125 -0.65625 -0.3125 -1.390625q0 -1.421875 1.09375 -2.453125q1.09375 -1.046875 2.796875 -1.046875q1.71875 0 2.8125 1.046875q1.09375 1.03125 1.09375 2.453125q0 0.734375 -0.328125 1.390625q-0.3125 0.65625 -0.9375 1.234375zm-0.65625 -2.578125q0 -0.703125 -0.546875 -1.1875q-0.53125 -0.484375 -1.453125 -0.484375q-0.921875 0 -1.46875 0.484375q-0.546875 0.484375 -0.546875 1.1875q0 0.6875 0.546875 1.1875q0.546875 0.484375 1.46875 0.484375q0.921875 0 1.453125 -0.484375q0.546875 -0.5 0.546875 -1.1875zm0.21875 5.484375q0 -0.734375 -0.640625 -1.328125q-0.625 -0.59375 -1.5625 -0.59375q-0.9375 0 -1.578125 0.59375q-0.625 0.59375 -0.625 1.34375q0 0.59375 0.546875 1.03125q0.546875 0.421875 1.65625 0.421875q1.125 0 1.65625 -0.421875q0.546875 -0.4375 0.546875 -1.046875z" fill-rule="nonzero"/><path fill="#efefef" d="m155.21846 286.58664l30.015747 0l0 30.015747l-30.015747 0z" fill-rule="evenodd"/><path stroke="#000000" stroke-width="1.0" stroke-linejoin="round" stroke-linecap="butt" d="m155.21846 286.58664l30.015747 0l0 30.015747l-30.015747 0z" fill-rule="evenodd"/><path fill="#efefef" d="m185.25208 286.58664l30.015747 0l0 30.015747l-30.015747 0z" fill-rule="evenodd"/><path stroke="#000000" stroke-width="1.0" stroke-linejoin="round" stroke-linecap="butt" d="m185.25208 286.58664l30.015747 0l0 30.015747l-30.015747 0z" fill-rule="evenodd"/><path fill="#efefef" d="m215.28568 286.58664l30.015747 0l0 30.015747l-30.015747 0z" fill-rule="evenodd"/><path stroke="#000000" stroke-width="1.0" stroke-linejoin="round" stroke-linecap="butt" d="m215.28568 286.58664l30.015747 0l0 30.015747l-30.015747 0z" fill-rule="evenodd"/><path fill="#000000" fill-opacity="0.0" d="m95.35693 280.5866l30.015747 0l0 42.015747l-30.015747 0z" fill-rule="evenodd"/><path fill="#000000" d="m111.29827 303.13162l0 3.125q0 0.671875 -0.265625 0.96875q-0.25 0.28125 -0.65625 0.28125q-0.421875 0 -0.6875 -0.28125q-0.25 -0.296875 -0.25 -0.96875l0 -3.125l-2.671875 0q-0.671875 0 -0.96875 -0.25q-0.28125 -0.265625 -0.28125 -0.6875q0 -0.421875 0.28125 -0.671875q0.296875 -0.265625 0.96875 -0.25l2.671875 0l0 -3.125q0 -0.65625 0.25 -0.953125q0.265625 -0.296875 0.6875 -0.296875q0.40625 0 0.671875 0.296875q0.265625 0.28125 0.265625 0.953125l-0.015625 3.125l2.671875 0q0.671875 0 0.953125 0.25q0.296875 0.25 0.296875 0.671875q0 0.421875 -0.296875 0.6875q-0.28125 0.25 -0.953125 0.25l-2.671875 0z" fill-rule="nonzero"/><path fill="#000000" fill-opacity="0.0" d="m140.30576 308.5761l30.015747 0l0 42.015747l-30.015747 0z" fill-rule="evenodd"/><path fill="#000000" d="m159.30959 329.3555l-7.96875 0q-0.671875 0 -0.96875 -0.25q-0.28125 -0.265625 -0.28125 -0.6875q0 -0.40625 0.28125 -0.65625q0.296875 -0.265625 0.96875 -0.265625l7.96875 0q0.6875 0 0.96875 0.265625q0.28125 0.25 0.28125 0.671875q0 0.40625 -0.28125 0.671875q-0.28125 0.25 -0.96875 0.25zm0 3.515625l-7.96875 0q-0.671875 0 -0.96875 -0.25q-0.28125 -0.265625 -0.28125 -0.671875q0 -0.421875 0.28125 -0.671875q0.296875 -0.265625 0.96875 -0.265625l7.96875 0q0.6875 0 0.96875 0.265625q0.28125 0.25 0.28125 0.671875q0 0.40625 -0.28125 0.671875q-0.28125 0.25 -0.96875 0.25z" fill-rule="nonzero"/><path fill="#cfe2f3" d="m65.220474 446.35565l30.015747 0l0 30.015747l-30.015747 0z" fill-rule="evenodd"/><path stroke="#000000" stroke-width="1.0" stroke-linejoin="round" stroke-linecap="butt" d="m65.220474 446.35565l30.015747 0l0 30.015747l-30.015747 0z" fill-rule="evenodd"/><path fill="#000000" d="m78.48994 466.40854l4.078125 0q0.34375 -0.265625 0.640625 -0.265625q0.4375 0 0.6875 0.28125q0.25 0.28125 0.25 0.96875l0 0.890625l-8.515625 0l0 -1.984375q5.046875 -4.15625 6.09375 -5.34375q0.53125 -0.609375 0.53125 -1.15625q0 -0.6875 -0.59375 -1.203125q-0.59375 -0.53125 -1.59375 -0.53125q-1.0 0 -1.671875 0.578125q-0.34375 0.3125 -0.546875 0.921875q-0.125 0.390625 -0.359375 0.5625q-0.21875 0.15625 -0.546875 0.15625q-0.375 0 -0.65625 -0.265625q-0.28125 -0.28125 -0.28125 -0.65625q0 -0.546875 0.5 -1.359375q0.515625 -0.828125 1.484375 -1.3125q0.96875 -0.5 2.109375 -0.5q1.765625 0 2.890625 1.078125q1.125 1.0625 1.125 2.59375q0 0.765625 -0.328125 1.4375q-0.3125 0.65625 -1.546875 1.8125q-0.953125 0.921875 -3.75 3.296875z" fill-rule="nonzero"/><path fill="#3d85c6" d="m77.75328 510.3622l39.527557 0l0 39.527557l-39.527557 0z" fill-rule="evenodd"/><path stroke="#000000" stroke-width="1.0" stroke-linejoin="round" stroke-linecap="butt" d="m77.75328 510.3622l39.527557 0l0 39.527557l-39.527557 0z" fill-rule="evenodd"/><path fill="#000000" d="m93.5405 525.61096l0 8.765625l1.609375 0q0.578125 0 0.828125 0.234375q0.25 0.21875 0.25 0.578125q0 0.34375 -0.25 0.578125q-0.25 0.21875 -0.828125 0.21875l-4.828125 0q-0.578125 0 -0.828125 -0.21875q-0.25 -0.234375 -0.25 -0.59375q0 -0.34375 0.25 -0.5625q0.25 -0.234375 0.828125 -0.234375l1.609375 0l0 -6.671875l-1.421875 0.375q-0.34375 0.09375 -0.515625 0.09375q-0.3125 0 -0.53125 -0.234375q-0.21875 -0.25 -0.21875 -0.609375q0 -0.3125 0.15625 -0.5q0.171875 -0.1875 0.6875 -0.328125l3.453125 -0.890625zm9.6015625 0l0 8.765625l1.609375 0q0.578125 0 0.828125 0.234375q0.25 0.21875 0.25 0.578125q0 0.34375 -0.25 0.578125q-0.25 0.21875 -0.828125 0.21875l-4.828125 0q-0.578125 0 -0.828125 -0.21875q-0.25 -0.234375 -0.25 -0.59375q0 -0.34375 0.25 -0.5625q0.25 -0.234375 0.828125 -0.234375l1.609375 0l0 -6.671875l-1.421875 0.375q-0.34375 0.09375 -0.515625 0.09375q-0.3125 0 -0.53125 -0.234375q-0.21875 -0.25 -0.21875 -0.609375q0 -0.3125 0.15625 -0.5q0.171875 -0.1875 0.6875 -0.328125l3.453125 -0.890625z" fill-rule="nonzero"/><path fill="#efefef" d="m117.296906 510.3622l39.527557 0l0 39.527557l-39.527557 0z" fill-rule="evenodd"/><path stroke="#000000" stroke-width="1.0" stroke-linejoin="round" stroke-linecap="butt" d="m117.296906 510.3622l39.527557 0l0 39.527557l-39.527557 0z" fill-rule="evenodd"/><path fill="#efefef" d="m156.84053 510.3622l39.527557 0l0 39.527557l-39.527557 0z" fill-rule="evenodd"/><path stroke="#000000" stroke-width="1.0" stroke-linejoin="round" stroke-linecap="butt" d="m156.84053 510.3622l39.527557 0l0 39.527557l-39.527557 0z" fill-rule="evenodd"/><path fill="#efefef" d="m196.38416 510.3622l39.527557 0l0 39.527557l-39.527557 0z" fill-rule="evenodd"/><path stroke="#000000" stroke-width="1.0" stroke-linejoin="round" stroke-linecap="butt" d="m196.38416 510.3622l39.527557 0l0 39.527557l-39.527557 0z" fill-rule="evenodd"/><path fill="#cfe2f3" d="m125.28721 446.35565l30.015755 0l0 30.015747l-30.015755 0z" fill-rule="evenodd"/><path stroke="#000000" stroke-width="1.0" stroke-linejoin="round" stroke-linecap="butt" d="m125.28721 446.35565l30.015755 0l0 30.015747l-30.015755 0z" fill-rule="evenodd"/><path fill="#000000" d="m142.91605 463.3773q-0.6875 0.609375 -1.28125 0.859375q-0.578125 0.25 -1.21875 0.25q-1.515625 0 -2.640625 -1.203125q-1.125 -1.203125 -1.125 -2.984375q0 -1.390625 0.78125 -2.53125q1.0625 -1.578125 2.984375 -1.578125q1.375 0 2.390625 0.828125q1.03125 0.828125 1.515625 2.390625q0.484375 1.546875 0.484375 3.234375q0 2.859375 -2.21875 4.578125q-1.703125 1.328125 -3.75 1.328125q-1.125 0 -1.75 -0.453125q-0.40625 -0.296875 -0.40625 -0.78125q0 -0.40625 0.265625 -0.671875q0.265625 -0.265625 0.65625 -0.265625q0.21875 0 0.484375 0.125q0.359375 0.1875 0.75 0.1875q1.421875 0 2.609375 -0.953125q1.1875 -0.96875 1.46875 -2.359375zm-0.25 -2.9375q-0.3125 -1.296875 -0.90625 -1.828125q-0.578125 -0.546875 -1.328125 -0.546875q-0.796875 0 -1.359375 0.609375q-0.546875 0.59375 -0.546875 1.609375q0 1.046875 0.5625 1.6875q0.5625 0.640625 1.28125 0.640625q1.265625 0 2.296875 -2.171875z" fill-rule="nonzero"/><path fill="#efefef" d="m155.32082 446.35565l30.015747 0l0 30.015747l-30.015747 0z" fill-rule="evenodd"/><path stroke="#000000" stroke-width="1.0" stroke-linejoin="round" stroke-linecap="butt" d="m155.32082 446.35565l30.015747 0l0 30.015747l-30.015747 0z" fill-rule="evenodd"/><path fill="#efefef" d="m185.35443 446.35565l30.015747 0l0 30.015747l-30.015747 0z" fill-rule="evenodd"/><path stroke="#000000" stroke-width="1.0" stroke-linejoin="round" stroke-linecap="butt" d="m185.35443 446.35565l30.015747 0l0 30.015747l-30.015747 0z" fill-rule="evenodd"/><path fill="#efefef" d="m215.38805 446.35565l30.015747 0l0 30.015747l-30.015747 0z" fill-rule="evenodd"/><path stroke="#000000" stroke-width="1.0" stroke-linejoin="round" stroke-linecap="butt" d="m215.38805 446.35565l30.015747 0l0 30.015747l-30.015747 0z" fill-rule="evenodd"/><path fill="#000000" fill-opacity="0.0" d="m95.4593 440.35565l30.015747 0l0 42.015747l-30.015747 0z" fill-rule="evenodd"/><path fill="#000000" d="m111.400635 462.90063l0 3.125q0 0.671875 -0.265625 0.96875q-0.25 0.28125 -0.65625 0.28125q-0.421875 0 -0.6875 -0.28125q-0.25 -0.296875 -0.25 -0.96875l0 -3.125l-2.671875 0q-0.671875 0 -0.96875 -0.25q-0.28125 -0.265625 -0.28125 -0.6875q0 -0.421875 0.28125 -0.671875q0.296875 -0.265625 0.96875 -0.25l2.671875 0l0 -3.125q0 -0.65625 0.25 -0.953125q0.265625 -0.296875 0.6875 -0.296875q0.40625 0 0.671875 0.296875q0.265625 0.28125 0.265625 0.953125l-0.015625 3.125l2.671875 0q0.671875 0 0.953125 0.25q0.296875 0.25 0.296875 0.671875q0 0.421875 -0.296875 0.6875q-0.28125 0.25 -0.953125 0.25l-2.671875 0z" fill-rule="nonzero"/><path fill="#000000" fill-opacity="0.0" d="m140.40811 468.34515l30.015747 0l0 42.015747l-30.015747 0z" fill-rule="evenodd"/><path fill="#000000" d="m159.41196 489.1245l-7.96875 0q-0.671875 0 -0.96875 -0.25q-0.28125 -0.265625 -0.28125 -0.6875q0 -0.40625 0.28125 -0.65625q0.296875 -0.265625 0.96875 -0.265625l7.96875 0q0.6875 0 0.96875 0.265625q0.28125 0.25 0.28125 0.671875q0 0.40625 -0.28125 0.671875q-0.28125 0.25 -0.96875 0.25zm0 3.515625l-7.96875 0q-0.671875 0 -0.96875 -0.25q-0.28125 -0.265625 -0.28125 -0.671875q0 -0.421875 0.28125 -0.671875q0.296875 -0.265625 0.96875 -0.265625l7.96875 0q0.6875 0 0.96875 0.265625q0.28125 0.25 0.28125 0.671875q0 0.40625 -0.28125 0.671875q-0.28125 0.25 -0.96875 0.25z" fill-rule="nonzero"/><path fill="#efefef" d="m342.52625 9.099737l39.527557 0l0 39.527557l-39.527557 0z" fill-rule="evenodd"/><path stroke="#000000" stroke-width="1.0" stroke-linejoin="round" stroke-linecap="butt" d="m342.52625 9.099737l39.527557 0l0 39.527557l-39.527557 0z" fill-rule="evenodd"/><path fill="#cfe2f3" d="m382.0699 9.099737l39.527557 0l0 39.527557l-39.527557 0z" fill-rule="evenodd"/><path stroke="#000000" stroke-width="1.0" stroke-linejoin="round" stroke-linecap="butt" d="m382.0699 9.099737l39.527557 0l0 39.527557l-39.527557 0z" fill-rule="evenodd"/><path fill="#000000" d="m400.09525 33.908516l4.078125 0q0.34375 -0.265625 0.640625 -0.265625q0.4375 0 0.6875 0.28125q0.25 0.28125 0.25 0.96875l0 0.890625l-8.515625 0l0 -1.984375q5.046875 -4.156252 6.09375 -5.343752q0.53125 -0.609375 0.53125 -1.15625q0 -0.6875 -0.59375 -1.203125q-0.59375 -0.53125 -1.59375 -0.53125q-1.0 0 -1.671875 0.578125q-0.34375 0.3125 -0.546875 0.921875q-0.125 0.390625 -0.359375 0.5625q-0.21875 0.15625 -0.546875 0.15625q-0.375 0 -0.65625 -0.265625q-0.28125 -0.28125 -0.28125 -0.65625q0 -0.546875 0.5 -1.359375q0.515625 -0.828125 1.484375 -1.3125q0.96875 -0.5 2.109375 -0.5q1.765625 0 2.890625 1.078125q1.125 1.0625 1.125 2.59375q0 0.765625 -0.328125 1.4375q-0.3125 0.65625 -1.546875 1.8125q-0.953125 0.921875 -3.75 3.296877z" fill-rule="nonzero"/><path fill="#efefef" d="m421.6135 9.099737l39.527557 0l0 39.527557l-39.527557 0z" fill-rule="evenodd"/><path stroke="#000000" stroke-width="1.0" stroke-linejoin="round" stroke-linecap="butt" d="m421.6135 9.099737l39.527557 0l0 39.527557l-39.527557 0z" fill-rule="evenodd"/><path fill="#efefef" d="m461.15714 9.099737l39.527557 0l0 39.527557l-39.527557 0z" fill-rule="evenodd"/><path stroke="#000000" stroke-width="1.0" stroke-linejoin="round" stroke-linecap="butt" d="m461.15714 9.099737l39.527557 0l0 39.527557l-39.527557 0z" fill-rule="evenodd"/><path fill="#cfe2f3" d="m325.542 126.817604l30.015747 0l0 30.015755l-30.015747 0z" fill-rule="evenodd"/><path stroke="#000000" stroke-width="1.0" stroke-linejoin="round" stroke-linecap="butt" d="m325.542 126.817604l30.015747 0l0 30.015755l-30.015747 0z" fill-rule="evenodd"/><path fill="#000000" d="m338.98334 138.82361l0 2.21875q1.03125 -0.328125 1.875 -0.328125q1.734375 0 2.859375 1.1875q1.140625 1.171875 1.140625 3.03125q0 1.90625 -1.15625 3.0q-1.140625 1.078125 -3.515625 1.078125q-2.09375 0 -3.328125 -0.78125q-0.703125 -0.453125 -0.703125 -1.046875q0 -0.375 0.28125 -0.65625q0.28125 -0.28125 0.65625 -0.28125q0.3125 0 0.6875 0.3125q0.375 0.296875 0.78125 0.421875q0.59375 0.171875 1.5 0.171875q1.703125 0 2.3125 -0.53125q0.625 -0.546875 0.625 -1.671875q0 -1.109375 -0.609375 -1.734375q-0.59375 -0.625 -1.53125 -0.625q-1.0 0 -2.296875 0.65625q-0.296875 0.15625 -0.515625 0.15625q-0.390625 0 -0.671875 -0.296875q-0.265625 -0.296875 -0.265625 -0.75l0 -5.390625l5.71875 0q0.671875 0 0.953125 0.265625q0.296875 0.25 0.296875 0.671875q0 0.40625 -0.296875 0.671875q-0.28125 0.25 -0.953125 0.25l-3.84375 0z" fill-rule="nonzero"/><path fill="#efefef" d="m338.0748 190.82414l39.527557 0l0 39.527557l-39.527557 0z" fill-rule="evenodd"/><path stroke="#000000" stroke-width="1.0" stroke-linejoin="round" stroke-linecap="butt" d="m338.0748 190.82414l39.527557 0l0 39.527557l-39.527557 0z" fill-rule="evenodd"/><path fill="#3d85c6" d="m377.61844 190.82414l39.527557 0l0 39.527557l-39.527557 0z" fill-rule="evenodd"/><path stroke="#000000" stroke-width="1.0" stroke-linejoin="round" stroke-linecap="butt" d="m377.61844 190.82414l39.527557 0l0 39.527557l-39.527557 0z" fill-rule="evenodd"/><path fill="#000000" d="m399.31567 207.58604l-4.28125 0q-0.03125 0.546875 -0.28125 0.796875q-0.25 0.234375 -0.640625 0.234375q-0.421875 0 -0.6875 -0.28125q-0.25 -0.28125 -0.25 -0.953125l0 -1.65625l8.09375 0l0 1.859375l-3.015625 9.0q-0.1875 0.5625 -0.421875 0.75q-0.234375 0.1875 -0.5625 0.1875q-0.390625 0 -0.671875 -0.265625q-0.28125 -0.28125 -0.28125 -0.640625q0 -0.1875 0.15625 -0.625l2.84375 -8.40625z" fill-rule="nonzero"/><path fill="#efefef" d="m417.16205 190.82414l39.527557 0l0 39.527557l-39.527557 0z" fill-rule="evenodd"/><path stroke="#000000" stroke-width="1.0" stroke-linejoin="round" stroke-linecap="butt" d="m417.16205 190.82414l39.527557 0l0 39.527557l-39.527557 0z" fill-rule="evenodd"/><path fill="#efefef" d="m456.7057 190.82414l39.527557 0l0 39.527557l-39.527557 0z" fill-rule="evenodd"/><path stroke="#000000" stroke-width="1.0" stroke-linejoin="round" stroke-linecap="butt" d="m456.7057 190.82414l39.527557 0l0 39.527557l-39.527557 0z" fill-rule="evenodd"/><path fill="#efefef" d="m385.60873 126.817604l30.015747 0l0 30.015755l-30.015747 0z" fill-rule="evenodd"/><path stroke="#000000" stroke-width="1.0" stroke-linejoin="round" stroke-linecap="butt" d="m385.60873 126.817604l30.015747 0l0 30.015755l-30.015747 0z" fill-rule="evenodd"/><path fill="#cfe2f3" d="m415.64233 126.817604l30.015747 0l0 30.015755l-30.015747 0z" fill-rule="evenodd"/><path stroke="#000000" stroke-width="1.0" stroke-linejoin="round" stroke-linecap="butt" d="m415.64233 126.817604l30.015747 0l0 30.015755l-30.015747 0z" fill-rule="evenodd"/><path fill="#000000" d="m428.9118 146.87048l4.078125 0q0.34375 -0.265625 0.640625 -0.265625q0.4375 0 0.6875 0.28125q0.25 0.28125 0.25 0.96875l0 0.890625l-8.515625 0l0 -1.984375q5.046875 -4.15625 6.09375 -5.34375q0.53125 -0.609375 0.53125 -1.15625q0 -0.6875 -0.59375 -1.203125q-0.59375 -0.53125 -1.59375 -0.53125q-1.0 0 -1.671875 0.578125q-0.34375 0.3125 -0.546875 0.921875q-0.125 0.390625 -0.359375 0.5625q-0.21875 0.15625 -0.546875 0.15625q-0.375 0 -0.65625 -0.265625q-0.28125 -0.28125 -0.28125 -0.65625q0 -0.546875 0.5 -1.359375q0.515625 -0.828125 1.484375 -1.3125q0.96875 -0.5 2.109375 -0.5q1.765625 0 2.890625 1.078125q1.125 1.0625 1.125 2.59375q0 0.765625 -0.328125 1.4375q-0.3125 0.65625 -1.546875 1.8125q-0.953125 0.921875 -3.75 3.296875z" fill-rule="nonzero"/><path fill="#efefef" d="m445.67596 126.817604l30.015747 0l0 30.015755l-30.015747 0z" fill-rule="evenodd"/><path stroke="#000000" stroke-width="1.0" stroke-linejoin="round" stroke-linecap="butt" d="m445.67596 126.817604l30.015747 0l0 30.015755l-30.015747 0z" fill-rule="evenodd"/><path fill="#efefef" d="m475.70956 126.817604l30.015747 0l0 30.015755l-30.015747 0z" fill-rule="evenodd"/><path stroke="#000000" stroke-width="1.0" stroke-linejoin="round" stroke-linecap="butt" d="m475.70956 126.817604l30.015747 0l0 30.015755l-30.015747 0z" fill-rule="evenodd"/><path fill="#000000" fill-opacity="0.0" d="m355.78082 120.81759l30.015747 0l0 42.01574l-30.015747 0z" fill-rule="evenodd"/><path fill="#000000" d="m371.72217 143.36258l0 3.125q0 0.671875 -0.265625 0.96875q-0.25 0.28125 -0.65625 0.28125q-0.421875 0 -0.6875 -0.28125q-0.25 -0.296875 -0.25 -0.96875l0 -3.125l-2.671875 0q-0.671875 0 -0.96875 -0.25q-0.28125 -0.265625 -0.28125 -0.6875q0 -0.421875 0.28125 -0.671875q0.296875 -0.265625 0.96875 -0.25l2.671875 0l0 -3.125q0 -0.65625 0.25 -0.953125q0.265625 -0.296875 0.6875 -0.296875q0.40625 0 0.671875 0.296875q0.265625 0.28125 0.265625 0.953125l-0.015625 3.125l2.671875 0q0.671875 0 0.953125 0.25q0.296875 0.25 0.296875 0.671875q0 0.421875 -0.296875 0.6875q-0.28125 0.25 -0.953125 0.25l-2.671875 0z" fill-rule="nonzero"/><path fill="#000000" fill-opacity="0.0" d="m400.72964 148.80708l30.015747 0l0 42.015747l-30.015747 0z" fill-rule="evenodd"/><path fill="#000000" d="m419.7335 169.58646l-7.96875 0q-0.671875 0 -0.96875 -0.25q-0.28125 -0.265625 -0.28125 -0.6875q0 -0.40625 0.28125 -0.65625q0.296875 -0.265625 0.96875 -0.265625l7.96875 0q0.6875 0 0.96875 0.265625q0.28125 0.25 0.28125 0.671875q0 0.40625 -0.28125 0.671875q-0.28125 0.25 -0.96875 0.25zm0 3.515625l-7.96875 0q-0.671875 0 -0.96875 -0.25q-0.28125 -0.265625 -0.28125 -0.671875q0 -0.421875 0.28125 -0.671875q0.296875 -0.265625 0.96875 -0.265625l7.96875 0q0.6875 0 0.96875 0.265625q0.28125 0.25 0.28125 0.671875q0 0.40625 -0.28125 0.671875q-0.28125 0.25 -0.96875 0.25z" fill-rule="nonzero"/><path fill="#cfe2f3" d="m325.542 286.58664l30.015747 0l0 30.015747l-30.015747 0z" fill-rule="evenodd"/><path stroke="#000000" stroke-width="1.0" stroke-linejoin="round" stroke-linecap="butt" d="m325.542 286.58664l30.015747 0l0 30.015747l-30.015747 0z" fill-rule="evenodd"/><path fill="#000000" d="m343.2177 302.28012q0.828125 0.5625 1.234375 1.3125q0.40625 0.734375 0.40625 1.65625q0 0.984375 -0.546875 1.828125q-0.53125 0.84375 -1.5625 1.28125q-1.03125 0.421875 -2.703125 0.421875q-2.15625 0 -3.25 -0.671875q-0.609375 -0.375 -0.609375 -0.90625q0 -0.40625 0.265625 -0.671875q0.265625 -0.28125 0.65625 -0.28125q0.25 0 0.546875 0.171875q0.390625 0.28125 0.75 0.375q0.546875 0.125 1.5 0.125q1.640625 0 2.359375 -0.421875q0.734375 -0.421875 0.734375 -1.203125q0 -0.578125 -0.421875 -1.109375q-0.421875 -0.53125 -1.140625 -0.8125q-0.40625 -0.171875 -1.390625 -0.234375q-0.453125 -0.03125 -0.703125 -0.28125q-0.25 -0.265625 -0.25 -0.640625q0 -0.40625 0.265625 -0.671875q0.28125 -0.28125 0.6875 -0.28125q0.9375 0 1.0 -0.015625q0.359375 -0.03125 0.71875 -0.234375q0.375 -0.203125 0.59375 -0.546875q0.234375 -0.359375 0.234375 -0.71875q0 -0.59375 -0.53125 -1.03125q-0.515625 -0.4375 -1.578125 -0.4375q-1.34375 0 -2.046875 0.78125q-0.21875 0.234375 -0.34375 0.296875q-0.1875 0.09375 -0.421875 0.09375q-0.390625 0 -0.671875 -0.265625q-0.265625 -0.265625 -0.265625 -0.671875q0 -0.625 0.84375 -1.21875q1.21875 -0.875 3.046875 -0.875q1.734375 0 2.78125 0.984375q1.046875 0.984375 1.046875 2.375q0 0.71875 -0.3125 1.34375q-0.3125 0.625 -0.921875 1.15625z" fill-rule="nonzero"/><path fill="#efefef" d="m338.0748 350.59317l39.527557 0l0 39.527557l-39.527557 0z" fill-rule="evenodd"/><path stroke="#000000" stroke-width="1.0" stroke-linejoin="round" stroke-linecap="butt" d="m338.0748 350.59317l39.527557 0l0 39.527557l-39.527557 0z" fill-rule="evenodd"/><path fill="#3d85c6" d="m377.61844 350.59317l39.527557 0l0 39.527557l-39.527557 0z" fill-rule="evenodd"/><path stroke="#000000" stroke-width="1.0" stroke-linejoin="round" stroke-linecap="butt" d="m377.61844 350.59317l39.527557 0l0 39.527557l-39.527557 0z" fill-rule="evenodd"/><path fill="#000000" d="m393.40564 365.84195l0 8.765625l1.609375 0q0.578125 0 0.828125 0.234375q0.25 0.21875 0.25 0.578125q0 0.34375 -0.25 0.578125q-0.25 0.21875 -0.828125 0.21875l-4.828125 0q-0.578125 0 -0.828125 -0.21875q-0.25 -0.234375 -0.25 -0.59375q0 -0.34375 0.25 -0.5625q0.25 -0.234375 0.828125 -0.234375l1.609375 0l0 -6.671875l-1.421875 0.375q-0.34375 0.09375 -0.515625 0.09375q-0.3125 0 -0.53125 -0.234375q-0.21875 -0.25 -0.21875 -0.609375q0 -0.3125 0.15625 -0.5q0.171875 -0.1875 0.6875 -0.328125l3.453125 -0.890625zm12.2734375 4.421875l0 1.765625q0 1.5625 -0.90625 3.0q-0.890625 1.421875 -2.578125 1.421875q-0.96875 0 -1.640625 -0.421875q-0.65625 -0.4375 -1.265625 -1.578125q-0.59375 -1.140625 -0.59375 -2.421875l0 -1.765625q0 -1.546875 0.890625 -2.984375q0.90625 -1.4375 2.59375 -1.4375q0.953125 0 1.625 0.421875q0.671875 0.421875 1.265625 1.578125q0.609375 1.140625 0.609375 2.421875zm-1.609375 0q0 -1.296875 -0.71875 -2.28125q-0.421875 -0.53125 -1.171875 -0.53125q-0.71875 0 -1.1875 0.59375q-0.6875 0.890625 -0.6875 2.21875l0 1.765625q0 1.3125 0.734375 2.28125q0.40625 0.53125 1.15625 0.53125q0.71875 0 1.1875 -0.59375q0.6875 -0.890625 0.6875 -2.21875l0 -1.765625z" fill-rule="nonzero"/><path fill="#efefef" d="m417.16205 350.59317l39.527557 0l0 39.527557l-39.527557 0z" fill-rule="evenodd"/><path stroke="#000000" stroke-width="1.0" stroke-linejoin="round" stroke-linecap="butt" d="m417.16205 350.59317l39.527557 0l0 39.527557l-39.527557 0z" fill-rule="evenodd"/><path fill="#efefef" d="m456.7057 350.59317l39.527557 0l0 39.527557l-39.527557 0z" fill-rule="evenodd"/><path stroke="#000000" stroke-width="1.0" stroke-linejoin="round" stroke-linecap="butt" d="m456.7057 350.59317l39.527557 0l0 39.527557l-39.527557 0z" fill-rule="evenodd"/><path fill="#efefef" d="m385.60873 286.58664l30.015747 0l0 30.015747l-30.015747 0z" fill-rule="evenodd"/><path stroke="#000000" stroke-width="1.0" stroke-linejoin="round" stroke-linecap="butt" d="m385.60873 286.58664l30.015747 0l0 30.015747l-30.015747 0z" fill-rule="evenodd"/><path fill="#cfe2f3" d="m415.64233 286.58664l30.015747 0l0 30.015747l-30.015747 0z" fill-rule="evenodd"/><path stroke="#000000" stroke-width="1.0" stroke-linejoin="round" stroke-linecap="butt" d="m415.64233 286.58664l30.015747 0l0 30.015747l-30.015747 0z" fill-rule="evenodd"/><path fill="#000000" d="m432.58368 298.59262l-4.28125 0q-0.03125 0.546875 -0.28125 0.796875q-0.25 0.234375 -0.640625 0.234375q-0.421875 0 -0.6875 -0.28125q-0.25 -0.28125 -0.25 -0.953125l0 -1.65625l8.09375 0l0 1.859375l-3.015625 9.0q-0.1875 0.5625 -0.421875 0.75q-0.234375 0.1875 -0.5625 0.1875q-0.390625 0 -0.671875 -0.265625q-0.28125 -0.28125 -0.28125 -0.640625q0 -0.1875 0.15625 -0.625l2.84375 -8.40625z" fill-rule="nonzero"/><path fill="#efefef" d="m445.67596 286.58664l30.015747 0l0 30.015747l-30.015747 0z" fill-rule="evenodd"/><path stroke="#000000" stroke-width="1.0" stroke-linejoin="round" stroke-linecap="butt" d="m445.67596 286.58664l30.015747 0l0 30.015747l-30.015747 0z" fill-rule="evenodd"/><path fill="#efefef" d="m475.70956 286.58664l30.015747 0l0 30.015747l-30.015747 0z" fill-rule="evenodd"/><path stroke="#000000" stroke-width="1.0" stroke-linejoin="round" stroke-linecap="butt" d="m475.70956 286.58664l30.015747 0l0 30.015747l-30.015747 0z" fill-rule="evenodd"/><path fill="#000000" fill-opacity="0.0" d="m355.78082 280.5866l30.015747 0l0 42.015747l-30.015747 0z" fill-rule="evenodd"/><path fill="#000000" d="m371.72217 303.13162l0 3.125q0 0.671875 -0.265625 0.96875q-0.25 0.28125 -0.65625 0.28125q-0.421875 0 -0.6875 -0.28125q-0.25 -0.296875 -0.25 -0.96875l0 -3.125l-2.671875 0q-0.671875 0 -0.96875 -0.25q-0.28125 -0.265625 -0.28125 -0.6875q0 -0.421875 0.28125 -0.671875q0.296875 -0.265625 0.96875 -0.25l2.671875 0l0 -3.125q0 -0.65625 0.25 -0.953125q0.265625 -0.296875 0.6875 -0.296875q0.40625 0 0.671875 0.296875q0.265625 0.28125 0.265625 0.953125l-0.015625 3.125l2.671875 0q0.671875 0 0.953125 0.25q0.296875 0.25 0.296875 0.671875q0 0.421875 -0.296875 0.6875q-0.28125 0.25 -0.953125 0.25l-2.671875 0z" fill-rule="nonzero"/><path fill="#000000" fill-opacity="0.0" d="m400.72964 308.5761l30.015747 0l0 42.015747l-30.015747 0z" fill-rule="evenodd"/><path fill="#000000" d="m419.7335 329.3555l-7.96875 0q-0.671875 0 -0.96875 -0.25q-0.28125 -0.265625 -0.28125 -0.6875q0 -0.40625 0.28125 -0.65625q0.296875 -0.265625 0.96875 -0.265625l7.96875 0q0.6875 0 0.96875 0.265625q0.28125 0.25 0.28125 0.671875q0 0.40625 -0.28125 0.671875q-0.28125 0.25 -0.96875 0.25zm0 3.515625l-7.96875 0q-0.671875 0 -0.96875 -0.25q-0.28125 -0.265625 -0.28125 -0.671875q0 -0.421875 0.28125 -0.671875q0.296875 -0.265625 0.96875 -0.265625l7.96875 0q0.6875 0 0.96875 0.265625q0.28125 0.25 0.28125 0.671875q0 0.40625 -0.28125 0.671875q-0.28125 0.25 -0.96875 0.25z" fill-rule="nonzero"/><path fill="#cfe2f3" d="m325.64435 446.35565l30.015747 0l0 30.015747l-30.015747 0z" fill-rule="evenodd"/><path stroke="#000000" stroke-width="1.0" stroke-linejoin="round" stroke-linecap="butt" d="m325.64435 446.35565l30.015747 0l0 30.015747l-30.015747 0z" fill-rule="evenodd"/><path fill="#000000" d="m341.60132 456.1898l0 10.21875l1.890625 0q0.671875 0 0.953125 0.265625q0.296875 0.265625 0.296875 0.6875q0 0.40625 -0.296875 0.671875q-0.28125 0.25 -0.953125 0.25l-5.640625 0q-0.671875 0 -0.96875 -0.25q-0.28125 -0.265625 -0.28125 -0.6875q0 -0.40625 0.28125 -0.671875q0.296875 -0.265625 0.96875 -0.265625l1.890625 0l0 -7.78125l-1.671875 0.4375q-0.40625 0.109375 -0.609375 0.109375q-0.34375 0 -0.609375 -0.28125q-0.25 -0.28125 -0.25 -0.6875q0 -0.375 0.1875 -0.59375q0.1875 -0.21875 0.796875 -0.375l4.015625 -1.046875z" fill-rule="nonzero"/><path fill="#efefef" d="m338.17715 510.3622l39.527557 0l0 39.527557l-39.527557 0z" fill-rule="evenodd"/><path stroke="#000000" stroke-width="1.0" stroke-linejoin="round" stroke-linecap="butt" d="m338.17715 510.3622l39.527557 0l0 39.527557l-39.527557 0z" fill-rule="evenodd"/><path fill="#3d85c6" d="m377.7208 510.3622l39.527557 0l0 39.527557l-39.527557 0z" fill-rule="evenodd"/><path stroke="#000000" stroke-width="1.0" stroke-linejoin="round" stroke-linecap="butt" d="m377.7208 510.3622l39.527557 0l0 39.527557l-39.527557 0z" fill-rule="evenodd"/><path fill="#000000" d="m393.508 525.61096l0 8.765625l1.609375 0q0.578125 0 0.828125 0.234375q0.25 0.21875 0.25 0.578125q0 0.34375 -0.25 0.578125q-0.25 0.21875 -0.828125 0.21875l-4.828125 0q-0.578125 0 -0.828125 -0.21875q-0.25 -0.234375 -0.25 -0.59375q0 -0.34375 0.25 -0.5625q0.25 -0.234375 0.828125 -0.234375l1.609375 0l0 -6.671875l-1.421875 0.375q-0.34375 0.09375 -0.515625 0.09375q-0.3125 0 -0.53125 -0.234375q-0.21875 -0.25 -0.21875 -0.609375q0 -0.3125 0.15625 -0.5q0.171875 -0.1875 0.6875 -0.328125l3.453125 -0.890625zm9.6015625 0l0 8.765625l1.609375 0q0.578125 0 0.828125 0.234375q0.25 0.21875 0.25 0.578125q0 0.34375 -0.25 0.578125q-0.25 0.21875 -0.828125 0.21875l-4.828125 0q-0.578125 0 -0.828125 -0.21875q-0.25 -0.234375 -0.25 -0.59375q0 -0.34375 0.25 -0.5625q0.25 -0.234375 0.828125 -0.234375l1.609375 0l0 -6.671875l-1.421875 0.375q-0.34375 0.09375 -0.515625 0.09375q-0.3125 0 -0.53125 -0.234375q-0.21875 -0.25 -0.21875 -0.609375q0 -0.3125 0.15625 -0.5q0.171875 -0.1875 0.6875 -0.328125l3.453125 -0.890625z" fill-rule="nonzero"/><path fill="#efefef" d="m417.2644 510.3622l39.527588 0l0 39.527557l-39.527588 0z" fill-rule="evenodd"/><path stroke="#000000" stroke-width="1.0" stroke-linejoin="round" stroke-linecap="butt" d="m417.2644 510.3622l39.527588 0l0 39.527557l-39.527588 0z" fill-rule="evenodd"/><path fill="#efefef" d="m456.80804 510.3622l39.527557 0l0 39.527557l-39.527557 0z" fill-rule="evenodd"/><path stroke="#000000" stroke-width="1.0" stroke-linejoin="round" stroke-linecap="butt" d="m456.80804 510.3622l39.527557 0l0 39.527557l-39.527557 0z" fill-rule="evenodd"/><path fill="#efefef" d="m385.7111 446.35565l30.015747 0l0 30.015747l-30.015747 0z" fill-rule="evenodd"/><path stroke="#000000" stroke-width="1.0" stroke-linejoin="round" stroke-linecap="butt" d="m385.7111 446.35565l30.015747 0l0 30.015747l-30.015747 0z" fill-rule="evenodd"/><path fill="#cfe2f3" d="m415.7447 446.35565l30.015747 0l0 30.015747l-30.015747 0z" fill-rule="evenodd"/><path stroke="#000000" stroke-width="1.0" stroke-linejoin="round" stroke-linecap="butt" d="m415.7447 446.35565l30.015747 0l0 30.015747l-30.015747 0z" fill-rule="evenodd"/><path fill="#000000" d="m428.76428 458.85605l0 4.390625l0.8125 0q0.28125 0 0.40625 0.109375q0.125 0.109375 0.125 0.28125q0 0.1875 -0.125 0.296875q-0.125 0.109375 -0.40625 0.109375l-2.421875 0q-0.296875 0 -0.421875 -0.109375q-0.109375 -0.109375 -0.109375 -0.296875q0 -0.171875 0.109375 -0.28125q0.125 -0.109375 0.421875 -0.109375l0.8125 0l0 -3.34375l-0.71875 0.1875q-0.171875 0.046875 -0.265625 0.046875q-0.140625 0 -0.265625 -0.125q-0.109375 -0.125 -0.109375 -0.296875q0 -0.15625 0.078125 -0.25q0.09375 -0.09375 0.359375 -0.15625l1.71875 -0.453125zm6.1445312 2.21875l0 0.875q0 0.78125 -0.453125 1.5q-0.453125 0.71875 -1.296875 0.71875q-0.484375 0 -0.828125 -0.21875q-0.328125 -0.21875 -0.625 -0.78125q-0.296875 -0.578125 -0.296875 -1.21875l0 -0.875q0 -0.78125 0.453125 -1.5q0.453125 -0.71875 1.28125 -0.71875q0.484375 0 0.8125 0.21875q0.34375 0.203125 0.640625 0.78125q0.3125 0.5625 0.3125 1.21875zm-0.8125 0q0 -0.65625 -0.359375 -1.140625q-0.203125 -0.28125 -0.578125 -0.28125q-0.375 0 -0.59375 0.296875q-0.359375 0.453125 -0.359375 1.125l0 0.875q0 0.65625 0.375 1.140625q0.203125 0.265625 0.578125 0.265625q0.359375 0 0.59375 -0.296875q0.34375 -0.453125 0.34375 -1.109375l0 -0.875z" fill-rule="nonzero"/><path fill="#efefef" d="m445.77832 446.35565l30.015747 0l0 30.015747l-30.015747 0z" fill-rule="evenodd"/><path stroke="#000000" stroke-width="1.0" stroke-linejoin="round" stroke-linecap="butt" d="m445.77832 446.35565l30.015747 0l0 30.015747l-30.015747 0z" fill-rule="evenodd"/><path fill="#efefef" d="m475.81192 446.35565l30.015747 0l0 30.015747l-30.015747 0z" fill-rule="evenodd"/><path stroke="#000000" stroke-width="1.0" stroke-linejoin="round" stroke-linecap="butt" d="m475.81192 446.35565l30.015747 0l0 30.015747l-30.015747 0z" fill-rule="evenodd"/><path fill="#000000" fill-opacity="0.0" d="m355.88318 440.35565l30.015747 0l0 42.015747l-30.015747 0z" fill-rule="evenodd"/><path fill="#000000" d="m371.82452 462.90063l0 3.125q0 0.671875 -0.265625 0.96875q-0.25 0.28125 -0.65625 0.28125q-0.421875 0 -0.6875 -0.28125q-0.25 -0.296875 -0.25 -0.96875l0 -3.125l-2.671875 0q-0.671875 0 -0.96875 -0.25q-0.28125 -0.265625 -0.28125 -0.6875q0 -0.421875 0.28125 -0.671875q0.296875 -0.265625 0.96875 -0.25l2.671875 0l0 -3.125q0 -0.65625 0.25 -0.953125q0.265625 -0.296875 0.6875 -0.296875q0.40625 0 0.671875 0.296875q0.265625 0.28125 0.265625 0.953125l-0.015625 3.125l2.671875 0q0.671875 0 0.953125 0.25q0.296875 0.25 0.296875 0.671875q0 0.421875 -0.296875 0.6875q-0.28125 0.25 -0.953125 0.25l-2.671875 0z" fill-rule="nonzero"/><path fill="#000000" fill-opacity="0.0" d="m400.832 468.34515l30.015747 0l0 42.015747l-30.015747 0z" fill-rule="evenodd"/><path fill="#000000" d="m419.83585 489.1245l-7.96875 0q-0.671875 0 -0.96875 -0.25q-0.28125 -0.265625 -0.28125 -0.6875q0 -0.40625 0.28125 -0.65625q0.296875 -0.265625 0.96875 -0.265625l7.96875 0q0.6875 0 0.96875 0.265625q0.28125 0.25 0.28125 0.671875q0 0.40625 -0.28125 0.671875q-0.28125 0.25 -0.96875 0.25zm0 3.515625l-7.96875 0q-0.671875 0 -0.96875 -0.25q-0.28125 -0.265625 -0.28125 -0.671875q0 -0.421875 0.28125 -0.671875q0.296875 -0.265625 0.96875 -0.265625l7.96875 0q0.6875 0 0.96875 0.265625q0.28125 0.25 0.28125 0.671875q0 0.40625 -0.28125 0.671875q-0.28125 0.25 -0.96875 0.25z" fill-rule="nonzero"/><path fill="#efefef" d="m602.9488 9.099737l39.527588 0l0 39.527557l-39.527588 0z" fill-rule="evenodd"/><path stroke="#000000" stroke-width="1.0" stroke-linejoin="round" stroke-linecap="butt" d="m602.9488 9.099737l39.527588 0l0 39.527557l-39.527588 0z" fill-rule="evenodd"/><path fill="#efefef" d="m642.49243 9.099737l39.527588 0l0 39.527557l-39.527588 0z" fill-rule="evenodd"/><path stroke="#000000" stroke-width="1.0" stroke-linejoin="round" stroke-linecap="butt" d="m642.49243 9.099737l39.527588 0l0 39.527557l-39.527588 0z" fill-rule="evenodd"/><path fill="#cfe2f3" d="m682.0361 9.099737l39.527588 0l0 39.527557l-39.527588 0z" fill-rule="evenodd"/><path stroke="#000000" stroke-width="1.0" stroke-linejoin="round" stroke-linecap="butt" d="m682.0361 9.099737l39.527588 0l0 39.527557l-39.527588 0z" fill-rule="evenodd"/><path fill="#000000" d="m702.74896 23.689764l0 10.218752l1.890625 0q0.671875 0 0.953125 0.265625q0.296875 0.265625 0.296875 0.6875q0 0.40625 -0.296875 0.671875q-0.28125 0.25 -0.953125 0.25l-5.640625 0q-0.671875 0 -0.96875 -0.25q-0.28125 -0.265625 -0.28125 -0.6875q0 -0.40625 0.28125 -0.671875q0.296875 -0.265625 0.96875 -0.265625l1.890625 0l0 -7.781252l-1.671875 0.4375q-0.40625 0.109375 -0.609375 0.109375q-0.34375 0 -0.609375 -0.28125q-0.25 -0.28125 -0.25 -0.6875q0 -0.375 0.1875 -0.59375q0.1875 -0.21875 0.796875 -0.375l4.015625 -1.046875z" fill-rule="nonzero"/><path fill="#efefef" d="m721.5797 9.099737l39.527527 0l0 39.527557l-39.527527 0z" fill-rule="evenodd"/><path stroke="#000000" stroke-width="1.0" stroke-linejoin="round" stroke-linecap="butt" d="m721.5797 9.099737l39.527527 0l0 39.527557l-39.527527 0z" fill-rule="evenodd"/><path fill="#cfe2f3" d="m585.96454 126.817604l30.015747 0l0 30.015755l-30.015747 0z" fill-rule="evenodd"/><path stroke="#000000" stroke-width="1.0" stroke-linejoin="round" stroke-linecap="butt" d="m585.96454 126.817604l30.015747 0l0 30.015755l-30.015747 0z" fill-rule="evenodd"/><path fill="#000000" d="m599.234 146.87048l4.078125 0q0.34375 -0.265625 0.640625 -0.265625q0.4375 0 0.6875 0.28125q0.25 0.28125 0.25 0.96875l0 0.890625l-8.515625 0l0 -1.984375q5.046875 -4.15625 6.09375 -5.34375q0.53125 -0.609375 0.53125 -1.15625q0 -0.6875 -0.59375 -1.203125q-0.59375 -0.53125 -1.59375 -0.53125q-1.0 0 -1.671875 0.578125q-0.34375 0.3125 -0.546875 0.921875q-0.125 0.390625 -0.359375 0.5625q-0.21875 0.15625 -0.546875 0.15625q-0.375 0 -0.65625 -0.265625q-0.28125 -0.28125 -0.28125 -0.65625q0 -0.546875 0.5 -1.359375q0.515625 -0.828125 1.484375 -1.3125q0.96875 -0.5 2.109375 -0.5q1.765625 0 2.890625 1.078125q1.125 1.0625 1.125 2.59375q0 0.765625 -0.328125 1.4375q-0.3125 0.65625 -1.546875 1.8125q-0.953125 0.921875 -3.75 3.296875z" fill-rule="nonzero"/><path fill="#efefef" d="m598.4974 190.82414l39.527588 0l0 39.527557l-39.527588 0z" fill-rule="evenodd"/><path stroke="#000000" stroke-width="1.0" stroke-linejoin="round" stroke-linecap="butt" d="m598.4974 190.82414l39.527588 0l0 39.527557l-39.527588 0z" fill-rule="evenodd"/><path fill="#efefef" d="m638.041 190.82414l39.527527 0l0 39.527557l-39.527527 0z" fill-rule="evenodd"/><path stroke="#000000" stroke-width="1.0" stroke-linejoin="round" stroke-linecap="butt" d="m638.041 190.82414l39.527527 0l0 39.527557l-39.527527 0z" fill-rule="evenodd"/><path fill="#3d85c6" d="m677.58466 190.82414l39.527527 0l0 39.527557l-39.527527 0z" fill-rule="evenodd"/><path stroke="#000000" stroke-width="1.0" stroke-linejoin="round" stroke-linecap="butt" d="m677.58466 190.82414l39.527527 0l0 39.527557l-39.527527 0z" fill-rule="evenodd"/><path fill="#000000" d="m700.01624 211.27354q0.828125 0.5625 1.234375 1.3125q0.40625 0.734375 0.40625 1.65625q0 0.984375 -0.546875 1.828125q-0.53125 0.84375 -1.5625 1.28125q-1.03125 0.421875 -2.703125 0.421875q-2.15625 0 -3.25 -0.671875q-0.609375 -0.375 -0.609375 -0.90625q0 -0.40625 0.265625 -0.671875q0.265625 -0.28125 0.65625 -0.28125q0.25 0 0.546875 0.171875q0.390625 0.28125 0.75 0.375q0.546875 0.125 1.5 0.125q1.640625 0 2.359375 -0.421875q0.734375 -0.421875 0.734375 -1.203125q0 -0.578125 -0.421875 -1.109375q-0.421875 -0.53125 -1.140625 -0.8125q-0.40625 -0.171875 -1.390625 -0.234375q-0.453125 -0.03125 -0.703125 -0.28125q-0.25 -0.265625 -0.25 -0.640625q0 -0.40625 0.265625 -0.671875q0.28125 -0.28125 0.6875 -0.28125q0.9375 0 1.0 -0.015625q0.359375 -0.03125 0.71875 -0.234375q0.375 -0.203125 0.59375 -0.546875q0.234375 -0.359375 0.234375 -0.71875q0 -0.59375 -0.53125 -1.03125q-0.515625 -0.4375 -1.578125 -0.4375q-1.34375 0 -2.046875 0.78125q-0.21875 0.234375 -0.34375 0.296875q-0.1875 0.09375 -0.421875 0.09375q-0.390625 0 -0.671875 -0.265625q-0.265625 -0.265625 -0.265625 -0.671875q0 -0.625 0.84375 -1.21875q1.21875 -0.875 3.046875 -0.875q1.734375 0 2.78125 0.984375q1.046875 0.984375 1.046875 2.375q0 0.71875 -0.3125 1.34375q-0.3125 0.625 -0.921875 1.15625z" fill-rule="nonzero"/><path fill="#efefef" d="m717.12823 190.82414l39.527588 0l0 39.527557l-39.527588 0z" fill-rule="evenodd"/><path stroke="#000000" stroke-width="1.0" stroke-linejoin="round" stroke-linecap="butt" d="m717.12823 190.82414l39.527588 0l0 39.527557l-39.527588 0z" fill-rule="evenodd"/><path fill="#efefef" d="m646.0313 126.817604l30.015747 0l0 30.015755l-30.015747 0z" fill-rule="evenodd"/><path stroke="#000000" stroke-width="1.0" stroke-linejoin="round" stroke-linecap="butt" d="m646.0313 126.817604l30.015747 0l0 30.015755l-30.015747 0z" fill-rule="evenodd"/><path fill="#efefef" d="m676.06494 126.817604l30.015747 0l0 30.015755l-30.015747 0z" fill-rule="evenodd"/><path stroke="#000000" stroke-width="1.0" stroke-linejoin="round" stroke-linecap="butt" d="m676.06494 126.817604l30.015747 0l0 30.015755l-30.015747 0z" fill-rule="evenodd"/><path fill="#cfe2f3" d="m706.0985 126.817604l30.015747 0l0 30.015755l-30.015747 0z" fill-rule="evenodd"/><path stroke="#000000" stroke-width="1.0" stroke-linejoin="round" stroke-linecap="butt" d="m706.0985 126.817604l30.015747 0l0 30.015755l-30.015747 0z" fill-rule="evenodd"/><path fill="#000000" d="m722.0555 136.65173l0 10.21875l1.890625 0q0.671875 0 0.953125 0.265625q0.296875 0.265625 0.296875 0.6875q0 0.40625 -0.296875 0.671875q-0.28125 0.25 -0.953125 0.25l-5.640625 0q-0.671875 0 -0.96875 -0.25q-0.28125 -0.265625 -0.28125 -0.6875q0 -0.40625 0.28125 -0.671875q0.296875 -0.265625 0.96875 -0.265625l1.890625 0l0 -7.78125l-1.671875 0.4375q-0.40625 0.109375 -0.609375 0.109375q-0.34375 0 -0.609375 -0.28125q-0.25 -0.28125 -0.25 -0.6875q0 -0.375 0.1875 -0.59375q0.1875 -0.21875 0.796875 -0.375l4.015625 -1.046875z" fill-rule="nonzero"/><path fill="#efefef" d="m736.13214 126.817604l30.015747 0l0 30.015755l-30.015747 0z" fill-rule="evenodd"/><path stroke="#000000" stroke-width="1.0" stroke-linejoin="round" stroke-linecap="butt" d="m736.13214 126.817604l30.015747 0l0 30.015755l-30.015747 0z" fill-rule="evenodd"/><path fill="#000000" fill-opacity="0.0" d="m616.20337 120.81759l30.015747 0l0 42.01574l-30.015747 0z" fill-rule="evenodd"/><path fill="#000000" d="m632.1447 143.36258l0 3.125q0 0.671875 -0.265625 0.96875q-0.25 0.28125 -0.65625 0.28125q-0.421875 0 -0.6875 -0.28125q-0.25 -0.296875 -0.25 -0.96875l0 -3.125l-2.671875 0q-0.671875 0 -0.96875 -0.25q-0.28125 -0.265625 -0.28125 -0.6875q0 -0.421875 0.28125 -0.671875q0.296875 -0.265625 0.96875 -0.25l2.671875 0l0 -3.125q0 -0.65625 0.25 -0.953125q0.265625 -0.296875 0.6875 -0.296875q0.40625 0 0.671875 0.296875q0.265625 0.28125 0.265625 0.953125l-0.015625 3.125l2.671875 0q0.671875 0 0.953125 0.25q0.296875 0.25 0.296875 0.671875q0 0.421875 -0.296875 0.6875q-0.28125 0.25 -0.953125 0.25l-2.671875 0z" fill-rule="nonzero"/><path fill="#000000" fill-opacity="0.0" d="m661.1522 148.80708l30.015747 0l0 42.015747l-30.015747 0z" fill-rule="evenodd"/><path fill="#000000" d="m680.15607 169.58646l-7.96875 0q-0.671875 0 -0.96875 -0.25q-0.28125 -0.265625 -0.28125 -0.6875q0 -0.40625 0.28125 -0.65625q0.296875 -0.265625 0.96875 -0.265625l7.96875 0q0.6875 0 0.96875 0.265625q0.28125 0.25 0.28125 0.671875q0 0.40625 -0.28125 0.671875q-0.28125 0.25 -0.96875 0.25zm0 3.515625l-7.96875 0q-0.671875 0 -0.96875 -0.25q-0.28125 -0.265625 -0.28125 -0.671875q0 -0.421875 0.28125 -0.671875q0.296875 -0.265625 0.96875 -0.265625l7.96875 0q0.6875 0 0.96875 0.265625q0.28125 0.25 0.28125 0.671875q0 0.40625 -0.28125 0.671875q-0.28125 0.25 -0.96875 0.25z" fill-rule="nonzero"/><path fill="#cfe2f3" d="m585.96454 286.58664l30.015747 0l0 30.015747l-30.015747 0z" fill-rule="evenodd"/><path stroke="#000000" stroke-width="1.0" stroke-linejoin="round" stroke-linecap="butt" d="m585.96454 286.58664l30.015747 0l0 30.015747l-30.015747 0z" fill-rule="evenodd"/><path fill="#000000" d="m599.4059 298.59262l0 2.21875q1.03125 -0.328125 1.875 -0.328125q1.734375 0 2.859375 1.1875q1.140625 1.171875 1.140625 3.03125q0 1.90625 -1.15625 3.0q-1.140625 1.078125 -3.515625 1.078125q-2.09375 0 -3.328125 -0.78125q-0.703125 -0.453125 -0.703125 -1.046875q0 -0.375 0.28125 -0.65625q0.28125 -0.28125 0.65625 -0.28125q0.3125 0 0.6875 0.3125q0.375 0.296875 0.78125 0.421875q0.59375 0.171875 1.5 0.171875q1.703125 0 2.3125 -0.53125q0.625 -0.546875 0.625 -1.671875q0 -1.109375 -0.609375 -1.734375q-0.59375 -0.625 -1.53125 -0.625q-1.0 0 -2.296875 0.65625q-0.296875 0.15625 -0.515625 0.15625q-0.390625 0 -0.671875 -0.296875q-0.265625 -0.296875 -0.265625 -0.75l0 -5.390625l5.71875 0q0.671875 0 0.953125 0.265625q0.296875 0.25 0.296875 0.671875q0 0.40625 -0.296875 0.671875q-0.28125 0.25 -0.953125 0.25l-3.84375 0z" fill-rule="nonzero"/><path fill="#efefef" d="m598.4974 350.59317l39.527588 0l0 39.527557l-39.527588 0z" fill-rule="evenodd"/><path stroke="#000000" stroke-width="1.0" stroke-linejoin="round" stroke-linecap="butt" d="m598.4974 350.59317l39.527588 0l0 39.527557l-39.527588 0z" fill-rule="evenodd"/><path fill="#efefef" d="m638.041 350.59317l39.527527 0l0 39.527557l-39.527527 0z" fill-rule="evenodd"/><path stroke="#000000" stroke-width="1.0" stroke-linejoin="round" stroke-linecap="butt" d="m638.041 350.59317l39.527527 0l0 39.527557l-39.527527 0z" fill-rule="evenodd"/><path fill="#3d85c6" d="m677.58466 350.59317l39.527527 0l0 39.527557l-39.527527 0z" fill-rule="evenodd"/><path stroke="#000000" stroke-width="1.0" stroke-linejoin="round" stroke-linecap="butt" d="m677.58466 350.59317l39.527527 0l0 39.527557l-39.527527 0z" fill-rule="evenodd"/><path fill="#000000" d="m700.0006 371.3082q0.71875 0.5625 1.078125 1.265625q0.359375 0.703125 0.359375 1.546875q0 0.9375 -0.46875 1.734375q-0.453125 0.78125 -1.4375 1.234375q-0.984375 0.453125 -2.1875 0.453125q-1.203125 0 -2.171875 -0.453125q-0.96875 -0.453125 -1.421875 -1.234375q-0.453125 -0.796875 -0.453125 -1.734375q0 -0.84375 0.359375 -1.546875q0.359375 -0.703125 1.078125 -1.265625q-0.640625 -0.578125 -0.953125 -1.234375q-0.3125 -0.65625 -0.3125 -1.390625q0 -1.421875 1.09375 -2.453125q1.09375 -1.046875 2.796875 -1.046875q1.71875 0 2.8125 1.046875q1.09375 1.03125 1.09375 2.453125q0 0.734375 -0.328125 1.390625q-0.3125 0.65625 -0.9375 1.234375zm-0.65625 -2.578125q0 -0.703125 -0.546875 -1.1875q-0.53125 -0.484375 -1.453125 -0.484375q-0.921875 0 -1.46875 0.484375q-0.546875 0.484375 -0.546875 1.1875q0 0.6875 0.546875 1.1875q0.546875 0.484375 1.46875 0.484375q0.921875 0 1.453125 -0.484375q0.546875 -0.5 0.546875 -1.1875zm0.21875 5.484375q0 -0.734375 -0.640625 -1.328125q-0.625 -0.59375 -1.5625 -0.59375q-0.9375 0 -1.578125 0.59375q-0.625 0.59375 -0.625 1.34375q0 0.59375 0.546875 1.03125q0.546875 0.421875 1.65625 0.421875q1.125 0 1.65625 -0.421875q0.546875 -0.4375 0.546875 -1.046875z" fill-rule="nonzero"/><path fill="#efefef" d="m717.12823 350.59317l39.527588 0l0 39.527557l-39.527588 0z" fill-rule="evenodd"/><path stroke="#000000" stroke-width="1.0" stroke-linejoin="round" stroke-linecap="butt" d="m717.12823 350.59317l39.527588 0l0 39.527557l-39.527588 0z" fill-rule="evenodd"/><path fill="#efefef" d="m646.0313 286.58664l30.015747 0l0 30.015747l-30.015747 0z" fill-rule="evenodd"/><path stroke="#000000" stroke-width="1.0" stroke-linejoin="round" stroke-linecap="butt" d="m646.0313 286.58664l30.015747 0l0 30.015747l-30.015747 0z" fill-rule="evenodd"/><path fill="#efefef" d="m676.06494 286.58664l30.015747 0l0 30.015747l-30.015747 0z" fill-rule="evenodd"/><path stroke="#000000" stroke-width="1.0" stroke-linejoin="round" stroke-linecap="butt" d="m676.06494 286.58664l30.015747 0l0 30.015747l-30.015747 0z" fill-rule="evenodd"/><path fill="#cfe2f3" d="m706.0985 286.58664l30.015747 0l0 30.015747l-30.015747 0z" fill-rule="evenodd"/><path stroke="#000000" stroke-width="1.0" stroke-linejoin="round" stroke-linecap="butt" d="m706.0985 286.58664l30.015747 0l0 30.015747l-30.015747 0z" fill-rule="evenodd"/><path fill="#000000" d="m723.77423 302.28012q0.828125 0.5625 1.234375 1.3125q0.40625 0.734375 0.40625 1.65625q0 0.984375 -0.546875 1.828125q-0.53125 0.84375 -1.5625 1.28125q-1.03125 0.421875 -2.703125 0.421875q-2.15625 0 -3.25 -0.671875q-0.609375 -0.375 -0.609375 -0.90625q0 -0.40625 0.265625 -0.671875q0.265625 -0.28125 0.65625 -0.28125q0.25 0 0.546875 0.171875q0.390625 0.28125 0.75 0.375q0.546875 0.125 1.5 0.125q1.640625 0 2.359375 -0.421875q0.734375 -0.421875 0.734375 -1.203125q0 -0.578125 -0.421875 -1.109375q-0.421875 -0.53125 -1.140625 -0.8125q-0.40625 -0.171875 -1.390625 -0.234375q-0.453125 -0.03125 -0.703125 -0.28125q-0.25 -0.265625 -0.25 -0.640625q0 -0.40625 0.265625 -0.671875q0.28125 -0.28125 0.6875 -0.28125q0.9375 0 1.0 -0.015625q0.359375 -0.03125 0.71875 -0.234375q0.375 -0.203125 0.59375 -0.546875q0.234375 -0.359375 0.234375 -0.71875q0 -0.59375 -0.53125 -1.03125q-0.515625 -0.4375 -1.578125 -0.4375q-1.34375 0 -2.046875 0.78125q-0.21875 0.234375 -0.34375 0.296875q-0.1875 0.09375 -0.421875 0.09375q-0.390625 0 -0.671875 -0.265625q-0.265625 -0.265625 -0.265625 -0.671875q0 -0.625 0.84375 -1.21875q1.21875 -0.875 3.046875 -0.875q1.734375 0 2.78125 0.984375q1.046875 0.984375 1.046875 2.375q0 0.71875 -0.3125 1.34375q-0.3125 0.625 -0.921875 1.15625z" fill-rule="nonzero"/><path fill="#efefef" d="m736.13214 286.58664l30.015747 0l0 30.015747l-30.015747 0z" fill-rule="evenodd"/><path stroke="#000000" stroke-width="1.0" stroke-linejoin="round" stroke-linecap="butt" d="m736.13214 286.58664l30.015747 0l0 30.015747l-30.015747 0z" fill-rule="evenodd"/><path fill="#000000" fill-opacity="0.0" d="m616.20337 280.5866l30.015747 0l0 42.015747l-30.015747 0z" fill-rule="evenodd"/><path fill="#000000" d="m632.1447 303.13162l0 3.125q0 0.671875 -0.265625 0.96875q-0.25 0.28125 -0.65625 0.28125q-0.421875 0 -0.6875 -0.28125q-0.25 -0.296875 -0.25 -0.96875l0 -3.125l-2.671875 0q-0.671875 0 -0.96875 -0.25q-0.28125 -0.265625 -0.28125 -0.6875q0 -0.421875 0.28125 -0.671875q0.296875 -0.265625 0.96875 -0.25l2.671875 0l0 -3.125q0 -0.65625 0.25 -0.953125q0.265625 -0.296875 0.6875 -0.296875q0.40625 0 0.671875 0.296875q0.265625 0.28125 0.265625 0.953125l-0.015625 3.125l2.671875 0q0.671875 0 0.953125 0.25q0.296875 0.25 0.296875 0.671875q0 0.421875 -0.296875 0.6875q-0.28125 0.25 -0.953125 0.25l-2.671875 0z" fill-rule="nonzero"/><path fill="#000000" fill-opacity="0.0" d="m661.1522 308.5761l30.015747 0l0 42.015747l-30.015747 0z" fill-rule="evenodd"/><path fill="#000000" d="m680.15607 329.3555l-7.96875 0q-0.671875 0 -0.96875 -0.25q-0.28125 -0.265625 -0.28125 -0.6875q0 -0.40625 0.28125 -0.65625q0.296875 -0.265625 0.96875 -0.265625l7.96875 0q0.6875 0 0.96875 0.265625q0.28125 0.25 0.28125 0.671875q0 0.40625 -0.28125 0.671875q-0.28125 0.25 -0.96875 0.25zm0 3.515625l-7.96875 0q-0.671875 0 -0.96875 -0.25q-0.28125 -0.265625 -0.28125 -0.671875q0 -0.421875 0.28125 -0.671875q0.296875 -0.265625 0.96875 -0.265625l7.96875 0q0.6875 0 0.96875 0.265625q0.28125 0.25 0.28125 0.671875q0 0.40625 -0.28125 0.671875q-0.28125 0.25 -0.96875 0.25z" fill-rule="nonzero"/><path fill="#cfe2f3" d="m586.06696 446.35565l30.015747 0l0 30.015747l-30.015747 0z" fill-rule="evenodd"/><path stroke="#000000" stroke-width="1.0" stroke-linejoin="round" stroke-linecap="butt" d="m586.06696 446.35565l30.015747 0l0 30.015747l-30.015747 0z" fill-rule="evenodd"/><path fill="#000000" d="m603.7426 462.04916q0.828125 0.5625 1.234375 1.3125q0.40625 0.734375 0.40625 1.65625q0 0.984375 -0.546875 1.828125q-0.53125 0.84375 -1.5625 1.28125q-1.03125 0.421875 -2.703125 0.421875q-2.15625 0 -3.25 -0.671875q-0.609375 -0.375 -0.609375 -0.90625q0 -0.40625 0.265625 -0.671875q0.265625 -0.28125 0.65625 -0.28125q0.25 0 0.546875 0.171875q0.390625 0.28125 0.75 0.375q0.546875 0.125 1.5 0.125q1.640625 0 2.359375 -0.421875q0.734375 -0.421875 0.734375 -1.203125q0 -0.578125 -0.421875 -1.109375q-0.421875 -0.53125 -1.140625 -0.8125q-0.40625 -0.171875 -1.390625 -0.234375q-0.453125 -0.03125 -0.703125 -0.28125q-0.25 -0.265625 -0.25 -0.640625q0 -0.40625 0.265625 -0.671875q0.28125 -0.28125 0.6875 -0.28125q0.9375 0 1.0 -0.015625q0.359375 -0.03125 0.71875 -0.234375q0.375 -0.203125 0.59375 -0.546875q0.234375 -0.359375 0.234375 -0.71875q0 -0.59375 -0.53125 -1.03125q-0.515625 -0.4375 -1.578125 -0.4375q-1.34375 0 -2.046875 0.78125q-0.21875 0.234375 -0.34375 0.296875q-0.1875 0.09375 -0.421875 0.09375q-0.390625 0 -0.671875 -0.265625q-0.265625 -0.265625 -0.265625 -0.671875q0 -0.625 0.84375 -1.21875q1.21875 -0.875 3.046875 -0.875q1.734375 0 2.78125 0.984375q1.046875 0.984375 1.046875 2.375q0 0.71875 -0.3125 1.34375q-0.3125 0.625 -0.921875 1.15625z" fill-rule="nonzero"/><path fill="#efefef" d="m598.59973 510.3622l39.527588 0l0 39.527557l-39.527588 0z" fill-rule="evenodd"/><path stroke="#000000" stroke-width="1.0" stroke-linejoin="round" stroke-linecap="butt" d="m598.59973 510.3622l39.527588 0l0 39.527557l-39.527588 0z" fill-rule="evenodd"/><path fill="#efefef" d="m638.1434 510.3622l39.527527 0l0 39.527557l-39.527527 0z" fill-rule="evenodd"/><path stroke="#000000" stroke-width="1.0" stroke-linejoin="round" stroke-linecap="butt" d="m638.1434 510.3622l39.527527 0l0 39.527557l-39.527527 0z" fill-rule="evenodd"/><path fill="#3d85c6" d="m677.687 510.3622l39.527527 0l0 39.527557l-39.527527 0z" fill-rule="evenodd"/><path stroke="#000000" stroke-width="1.0" stroke-linejoin="round" stroke-linecap="butt" d="m677.687 510.3622l39.527527 0l0 39.527557l-39.527527 0z" fill-rule="evenodd"/><path fill="#000000" d="m693.4742 525.61096l0 8.765625l1.609375 0q0.578125 0 0.828125 0.234375q0.25 0.21875 0.25 0.578125q0 0.34375 -0.25 0.578125q-0.25 0.21875 -0.828125 0.21875l-4.828125 0q-0.578125 0 -0.828125 -0.21875q-0.25 -0.234375 -0.25 -0.59375q0 -0.34375 0.25 -0.5625q0.25 -0.234375 0.828125 -0.234375l1.609375 0l0 -6.671875l-1.421875 0.375q-0.34375 0.09375 -0.515625 0.09375q-0.3125 0 -0.53125 -0.234375q-0.21875 -0.25 -0.21875 -0.609375q0 -0.3125 0.15625 -0.5q0.171875 -0.1875 0.6875 -0.328125l3.453125 -0.890625zm9.6015625 0l0 8.765625l1.609375 0q0.578125 0 0.828125 0.234375q0.25 0.21875 0.25 0.578125q0 0.34375 -0.25 0.578125q-0.25 0.21875 -0.828125 0.21875l-4.828125 0q-0.578125 0 -0.828125 -0.21875q-0.25 -0.234375 -0.25 -0.59375q0 -0.34375 0.25 -0.5625q0.25 -0.234375 0.828125 -0.234375l1.609375 0l0 -6.671875l-1.421875 0.375q-0.34375 0.09375 -0.515625 0.09375q-0.3125 0 -0.53125 -0.234375q-0.21875 -0.25 -0.21875 -0.609375q0 -0.3125 0.15625 -0.5q0.171875 -0.1875 0.6875 -0.328125l3.453125 -0.890625z" fill-rule="nonzero"/><path fill="#efefef" d="m717.2306 510.3622l39.527588 0l0 39.527557l-39.527588 0z" fill-rule="evenodd"/><path stroke="#000000" stroke-width="1.0" stroke-linejoin="round" stroke-linecap="butt" d="m717.2306 510.3622l39.527588 0l0 39.527557l-39.527588 0z" fill-rule="evenodd"/><path fill="#efefef" d="m646.13367 446.35565l30.015747 0l0 30.015747l-30.015747 0z" fill-rule="evenodd"/><path stroke="#000000" stroke-width="1.0" stroke-linejoin="round" stroke-linecap="butt" d="m646.13367 446.35565l30.015747 0l0 30.015747l-30.015747 0z" fill-rule="evenodd"/><path fill="#efefef" d="m676.1673 446.35565l30.015747 0l0 30.015747l-30.015747 0z" fill-rule="evenodd"/><path stroke="#000000" stroke-width="1.0" stroke-linejoin="round" stroke-linecap="butt" d="m676.1673 446.35565l30.015747 0l0 30.015747l-30.015747 0z" fill-rule="evenodd"/><path fill="#cfe2f3" d="m706.20087 446.35565l30.015747 0l0 30.015747l-30.015747 0z" fill-rule="evenodd"/><path stroke="#000000" stroke-width="1.0" stroke-linejoin="round" stroke-linecap="butt" d="m706.20087 446.35565l30.015747 0l0 30.015747l-30.015747 0z" fill-rule="evenodd"/><path fill="#000000" d="m723.86096 462.3148q0.71875 0.5625 1.078125 1.265625q0.359375 0.703125 0.359375 1.546875q0 0.9375 -0.46875 1.734375q-0.453125 0.78125 -1.4375 1.234375q-0.984375 0.453125 -2.1875 0.453125q-1.203125 0 -2.171875 -0.453125q-0.96875 -0.453125 -1.421875 -1.234375q-0.453125 -0.796875 -0.453125 -1.734375q0 -0.84375 0.359375 -1.546875q0.359375 -0.703125 1.078125 -1.265625q-0.640625 -0.578125 -0.953125 -1.234375q-0.3125 -0.65625 -0.3125 -1.390625q0 -1.421875 1.09375 -2.453125q1.09375 -1.046875 2.796875 -1.046875q1.71875 0 2.8125 1.046875q1.09375 1.03125 1.09375 2.453125q0 0.734375 -0.328125 1.390625q-0.3125 0.65625 -0.9375 1.234375zm-0.65625 -2.578125q0 -0.703125 -0.546875 -1.1875q-0.53125 -0.484375 -1.453125 -0.484375q-0.921875 0 -1.46875 0.484375q-0.546875 0.484375 -0.546875 1.1875q0 0.6875 0.546875 1.1875q0.546875 0.484375 1.46875 0.484375q0.921875 0 1.453125 -0.484375q0.546875 -0.5 0.546875 -1.1875zm0.21875 5.484375q0 -0.734375 -0.640625 -1.328125q-0.625 -0.59375 -1.5625 -0.59375q-0.9375 0 -1.578125 0.59375q-0.625 0.59375 -0.625 1.34375q0 0.59375 0.546875 1.03125q0.546875 0.421875 1.65625 0.421875q1.125 0 1.65625 -0.421875q0.546875 -0.4375 0.546875 -1.046875z" fill-rule="nonzero"/><path fill="#efefef" d="m736.2345 446.35565l30.015747 0l0 30.015747l-30.015747 0z" fill-rule="evenodd"/><path stroke="#000000" stroke-width="1.0" stroke-linejoin="round" stroke-linecap="butt" d="m736.2345 446.35565l30.015747 0l0 30.015747l-30.015747 0z" fill-rule="evenodd"/><path fill="#000000" fill-opacity="0.0" d="m616.3057 440.35565l30.015808 0l0 42.015747l-30.015808 0z" fill-rule="evenodd"/><path fill="#000000" d="m632.2471 462.90063l0 3.125q0 0.671875 -0.265625 0.96875q-0.25 0.28125 -0.65625 0.28125q-0.421875 0 -0.6875 -0.28125q-0.25 -0.296875 -0.25 -0.96875l0 -3.125l-2.671875 0q-0.671875 0 -0.96875 -0.25q-0.28125 -0.265625 -0.28125 -0.6875q0 -0.421875 0.28125 -0.671875q0.296875 -0.265625 0.96875 -0.25l2.671875 0l0 -3.125q0 -0.65625 0.25 -0.953125q0.265625 -0.296875 0.6875 -0.296875q0.40625 0 0.671875 0.296875q0.265625 0.28125 0.265625 0.953125l-0.015625 3.125l2.671875 0q0.671875 0 0.953125 0.25q0.296875 0.25 0.296875 0.671875q0 0.421875 -0.296875 0.6875q-0.28125 0.25 -0.953125 0.25l-2.671875 0z" fill-rule="nonzero"/><path fill="#000000" fill-opacity="0.0" d="m661.2546 468.34515l30.015747 0l0 42.015747l-30.015747 0z" fill-rule="evenodd"/><path fill="#000000" d="m680.2584 489.1245l-7.96875 0q-0.671875 0 -0.96875 -0.25q-0.28125 -0.265625 -0.28125 -0.6875q0 -0.40625 0.28125 -0.65625q0.296875 -0.265625 0.96875 -0.265625l7.96875 0q0.6875 0 0.96875 0.265625q0.28125 0.25 0.28125 0.671875q0 0.40625 -0.28125 0.671875q-0.28125 0.25 -0.96875 0.25zm0 3.515625l-7.96875 0q-0.671875 0 -0.96875 -0.25q-0.28125 -0.265625 -0.28125 -0.671875q0 -0.421875 0.28125 -0.671875q0.296875 -0.265625 0.96875 -0.265625l7.96875 0q0.6875 0 0.96875 0.265625q0.28125 0.25 0.28125 0.671875q0 0.40625 -0.28125 0.671875q-0.28125 0.25 -0.96875 0.25z" fill-rule="nonzero"/><path fill="#efefef" d="m863.3714 9.099737l39.527527 0l0 39.527557l-39.527527 0z" fill-rule="evenodd"/><path stroke="#000000" stroke-width="1.0" stroke-linejoin="round" stroke-linecap="butt" d="m863.3714 9.099737l39.527527 0l0 39.527557l-39.527527 0z" fill-rule="evenodd"/><path fill="#efefef" d="m902.91504 9.099737l39.527527 0l0 39.527557l-39.527527 0z" fill-rule="evenodd"/><path stroke="#000000" stroke-width="1.0" stroke-linejoin="round" stroke-linecap="butt" d="m902.91504 9.099737l39.527527 0l0 39.527557l-39.527527 0z" fill-rule="evenodd"/><path fill="#efefef" d="m942.4586 9.099737l39.527588 0l0 39.527557l-39.527588 0z" fill-rule="evenodd"/><path stroke="#000000" stroke-width="1.0" stroke-linejoin="round" stroke-linecap="butt" d="m942.4586 9.099737l39.527588 0l0 39.527557l-39.527588 0z" fill-rule="evenodd"/><path fill="#cfe2f3" d="m982.00226 9.099737l39.527588 0l0 39.527557l-39.527588 0z" fill-rule="evenodd"/><path stroke="#000000" stroke-width="1.0" stroke-linejoin="round" stroke-linecap="butt" d="m982.00226 9.099737l39.527588 0l0 39.527557l-39.527588 0z" fill-rule="evenodd"/><path fill="#000000" d="m1004.4339 29.549139q0.828125 0.5625 1.234375 1.3125q0.40625 0.734375 0.40625 1.6562519q0 0.984375 -0.546875 1.828125q-0.53125 0.84375 -1.5625 1.28125q-1.03125 0.421875 -2.703125 0.421875q-2.15625 0 -3.25 -0.671875q-0.609375 -0.375 -0.609375 -0.90625q0 -0.40625 0.265625 -0.671875q0.265625 -0.28125 0.65625 -0.28125q0.25 0 0.546875 0.171875q0.390625 0.28125 0.75 0.375q0.546875 0.125 1.5 0.125q1.640625 0 2.359375 -0.421875q0.734375 -0.421875 0.734375 -1.203125q0 -0.5781269 -0.421875 -1.1093769q-0.421875 -0.53125 -1.140625 -0.8125q-0.40625 -0.171875 -1.390625 -0.234375q-0.453125 -0.03125 -0.703125 -0.28125q-0.25 -0.265625 -0.25 -0.640625q0 -0.40625 0.265625 -0.671875q0.28125 -0.28125 0.6875 -0.28125q0.9375 0 1.0 -0.015625q0.359375 -0.03125 0.71875 -0.234375q0.375 -0.203125 0.59375 -0.546875q0.234375 -0.359375 0.234375 -0.71875q0 -0.59375 -0.53125 -1.03125q-0.515625 -0.4375 -1.578125 -0.4375q-1.34375 0 -2.046875 0.78125q-0.21875 0.234375 -0.34375 0.296875q-0.1875 0.09375 -0.421875 0.09375q-0.390625 0 -0.671875 -0.265625q-0.265625 -0.265625 -0.265625 -0.671875q0 -0.625 0.84375 -1.21875q1.21875 -0.875 3.046875 -0.875q1.734375 0 2.78125 0.984375q1.046875 0.984375 1.046875 2.375q0 0.71875 -0.3125 1.34375q-0.3125 0.625 -0.921875 1.15625z" fill-rule="nonzero"/><path fill="#cfe2f3" d="m846.38715 126.817604l30.015747 0l0 30.015755l-30.015747 0z" fill-rule="evenodd"/><path stroke="#000000" stroke-width="1.0" stroke-linejoin="round" stroke-linecap="butt" d="m846.38715 126.817604l30.015747 0l0 30.015755l-30.015747 0z" fill-rule="evenodd"/><path fill="#000000" d="m862.3441 136.65173l0 10.21875l1.890625 0q0.671875 0 0.953125 0.265625q0.296875 0.265625 0.296875 0.6875q0 0.40625 -0.296875 0.671875q-0.28125 0.25 -0.953125 0.25l-5.640625 0q-0.671875 0 -0.96875 -0.25q-0.28125 -0.265625 -0.28125 -0.6875q0 -0.40625 0.28125 -0.671875q0.296875 -0.265625 0.96875 -0.265625l1.890625 0l0 -7.78125l-1.671875 0.4375q-0.40625 0.109375 -0.609375 0.109375q-0.34375 0 -0.609375 -0.28125q-0.25 -0.28125 -0.25 -0.6875q0 -0.375 0.1875 -0.59375q0.1875 -0.21875 0.796875 -0.375l4.015625 -1.046875z" fill-rule="nonzero"/><path fill="#efefef" d="m858.9199 190.82414l39.527588 0l0 39.527557l-39.527588 0z" fill-rule="evenodd"/><path stroke="#000000" stroke-width="1.0" stroke-linejoin="round" stroke-linecap="butt" d="m858.9199 190.82414l39.527588 0l0 39.527557l-39.527588 0z" fill-rule="evenodd"/><path fill="#efefef" d="m898.46356 190.82414l39.527588 0l0 39.527557l-39.527588 0z" fill-rule="evenodd"/><path stroke="#000000" stroke-width="1.0" stroke-linejoin="round" stroke-linecap="butt" d="m898.46356 190.82414l39.527588 0l0 39.527557l-39.527588 0z" fill-rule="evenodd"/><path fill="#efefef" d="m938.0072 190.82414l39.527588 0l0 39.527557l-39.527588 0z" fill-rule="evenodd"/><path stroke="#000000" stroke-width="1.0" stroke-linejoin="round" stroke-linecap="butt" d="m938.0072 190.82414l39.527588 0l0 39.527557l-39.527588 0z" fill-rule="evenodd"/><path fill="#3d85c6" d="m977.55084 190.82414l39.527527 0l0 39.527557l-39.527527 0z" fill-rule="evenodd"/><path stroke="#000000" stroke-width="1.0" stroke-linejoin="round" stroke-linecap="butt" d="m977.55084 190.82414l39.527527 0l0 39.527557l-39.527527 0z" fill-rule="evenodd"/><path fill="#000000" d="m1000.0449 205.72667l0 7.296875q0.59375 0 0.875 0.265625q0.28125 0.25 0.28125 0.671875q0 0.40625 -0.28125 0.671875q-0.28125 0.265625 -0.875 0.265625l0 0.734375q0.59375 0 0.875 0.265625q0.28125 0.265625 0.28125 0.6875q0 0.40625 -0.28125 0.671875q-0.28125 0.25 -0.953125 0.25l-2.515625 0q-0.671875 0 -0.96875 -0.25q-0.28125 -0.265625 -0.28125 -0.6875q0 -0.40625 0.28125 -0.671875q0.296875 -0.265625 0.96875 -0.265625l0.734375 0l0 -0.734375l-5.078125 0l0 -1.5625l4.46875 -7.609375l2.46875 0zm-1.859375 7.296875l0 -4.59375l-2.703125 4.59375l2.703125 0z" fill-rule="nonzero"/><path fill="#efefef" d="m906.45386 126.817604l30.015747 0l0 30.015755l-30.015747 0z" fill-rule="evenodd"/><path stroke="#000000" stroke-width="1.0" stroke-linejoin="round" stroke-linecap="butt" d="m906.45386 126.817604l30.015747 0l0 30.015755l-30.015747 0z" fill-rule="evenodd"/><path fill="#efefef" d="m936.4875 126.817604l30.015747 0l0 30.015755l-30.015747 0z" fill-rule="evenodd"/><path stroke="#000000" stroke-width="1.0" stroke-linejoin="round" stroke-linecap="butt" d="m936.4875 126.817604l30.015747 0l0 30.015755l-30.015747 0z" fill-rule="evenodd"/><path fill="#efefef" d="m966.5211 126.817604l30.015747 0l0 30.015755l-30.015747 0z" fill-rule="evenodd"/><path stroke="#000000" stroke-width="1.0" stroke-linejoin="round" stroke-linecap="butt" d="m966.5211 126.817604l30.015747 0l0 30.015755l-30.015747 0z" fill-rule="evenodd"/><path fill="#cfe2f3" d="m996.5547 126.817604l30.015747 0l0 30.015755l-30.015747 0z" fill-rule="evenodd"/><path stroke="#000000" stroke-width="1.0" stroke-linejoin="round" stroke-linecap="butt" d="m996.5547 126.817604l30.015747 0l0 30.015755l-30.015747 0z" fill-rule="evenodd"/><path fill="#000000" d="m1014.2304 142.51111q0.828125 0.5625 1.234375 1.3125q0.40625 0.734375 0.40625 1.65625q0 0.984375 -0.546875 1.828125q-0.53125 0.84375 -1.5625 1.28125q-1.03125 0.421875 -2.703125 0.421875q-2.15625 0 -3.25 -0.671875q-0.609375 -0.375 -0.609375 -0.90625q0 -0.40625 0.265625 -0.671875q0.265625 -0.28125 0.65625 -0.28125q0.25 0 0.546875 0.171875q0.390625 0.28125 0.75 0.375q0.546875 0.125 1.5 0.125q1.640625 0 2.359375 -0.421875q0.734375 -0.421875 0.734375 -1.203125q0 -0.578125 -0.421875 -1.109375q-0.421875 -0.53125 -1.140625 -0.8125q-0.40625 -0.171875 -1.390625 -0.234375q-0.453125 -0.03125 -0.703125 -0.28125q-0.25 -0.265625 -0.25 -0.640625q0 -0.40625 0.265625 -0.671875q0.28125 -0.28125 0.6875 -0.28125q0.9375 0 1.0 -0.015625q0.359375 -0.03125 0.71875 -0.234375q0.375 -0.203125 0.59375 -0.546875q0.234375 -0.359375 0.234375 -0.71875q0 -0.59375 -0.53125 -1.03125q-0.515625 -0.4375 -1.578125 -0.4375q-1.34375 0 -2.046875 0.78125q-0.21875 0.234375 -0.34375 0.296875q-0.1875 0.09375 -0.421875 0.09375q-0.390625 0 -0.671875 -0.265625q-0.265625 -0.265625 -0.265625 -0.671875q0 -0.625 0.84375 -1.21875q1.21875 -0.875 3.046875 -0.875q1.734375 0 2.78125 0.984375q1.046875 0.984375 1.046875 2.375q0 0.71875 -0.3125 1.34375q-0.3125 0.625 -0.921875 1.15625z" fill-rule="nonzero"/><path fill="#000000" fill-opacity="0.0" d="m876.626 120.81759l30.015747 0l0 42.01574l-30.015747 0z" fill-rule="evenodd"/><path fill="#000000" d="m892.5673 143.36258l0 3.125q0 0.671875 -0.265625 0.96875q-0.25 0.28125 -0.65625 0.28125q-0.421875 0 -0.6875 -0.28125q-0.25 -0.296875 -0.25 -0.96875l0 -3.125l-2.671875 0q-0.671875 0 -0.96875 -0.25q-0.28125 -0.265625 -0.28125 -0.6875q0 -0.421875 0.28125 -0.671875q0.296875 -0.265625 0.96875 -0.25l2.671875 0l0 -3.125q0 -0.65625 0.25 -0.953125q0.265625 -0.296875 0.6875 -0.296875q0.40625 0 0.671875 0.296875q0.265625 0.28125 0.265625 0.953125l-0.015625 3.125l2.671875 0q0.671875 0 0.953125 0.25q0.296875 0.25 0.296875 0.671875q0 0.421875 -0.296875 0.6875q-0.28125 0.25 -0.953125 0.25l-2.671875 0z" fill-rule="nonzero"/><path fill="#000000" fill-opacity="0.0" d="m921.57477 148.80708l30.015747 0l0 42.015747l-30.015747 0z" fill-rule="evenodd"/><path fill="#000000" d="m940.5786 169.58646l-7.96875 0q-0.671875 0 -0.96875 -0.25q-0.28125 -0.265625 -0.28125 -0.6875q0 -0.40625 0.28125 -0.65625q0.296875 -0.265625 0.96875 -0.265625l7.96875 0q0.6875 0 0.96875 0.265625q0.28125 0.25 0.28125 0.671875q0 0.40625 -0.28125 0.671875q-0.28125 0.25 -0.96875 0.25zm0 3.515625l-7.96875 0q-0.671875 0 -0.96875 -0.25q-0.28125 -0.265625 -0.28125 -0.671875q0 -0.421875 0.28125 -0.671875q0.296875 -0.265625 0.96875 -0.265625l7.96875 0q0.6875 0 0.96875 0.265625q0.28125 0.25 0.28125 0.671875q0 0.40625 -0.28125 0.671875q-0.28125 0.25 -0.96875 0.25z" fill-rule="nonzero"/><path fill="#cfe2f3" d="m846.38715 286.58664l30.015747 0l0 30.015747l-30.015747 0z" fill-rule="evenodd"/><path stroke="#000000" stroke-width="1.0" stroke-linejoin="round" stroke-linecap="butt" d="m846.38715 286.58664l30.015747 0l0 30.015747l-30.015747 0z" fill-rule="evenodd"/><path fill="#000000" d="m859.6566 306.6395l4.078125 0q0.34375 -0.265625 0.640625 -0.265625q0.4375 0 0.6875 0.28125q0.25 0.28125 0.25 0.96875l0 0.890625l-8.515625 0l0 -1.984375q5.046875 -4.15625 6.09375 -5.34375q0.53125 -0.609375 0.53125 -1.15625q0 -0.6875 -0.59375 -1.203125q-0.59375 -0.53125 -1.59375 -0.53125q-1.0 0 -1.671875 0.578125q-0.34375 0.3125 -0.546875 0.921875q-0.125 0.390625 -0.359375 0.5625q-0.21875 0.15625 -0.546875 0.15625q-0.375 0 -0.65625 -0.265625q-0.28125 -0.28125 -0.28125 -0.65625q0 -0.546875 0.5 -1.359375q0.515625 -0.828125 1.484375 -1.3125q0.96875 -0.5 2.109375 -0.5q1.765625 0 2.890625 1.078125q1.125 1.0625 1.125 2.59375q0 0.765625 -0.328125 1.4375q-0.3125 0.65625 -1.546875 1.8125q-0.953125 0.921875 -3.75 3.296875z" fill-rule="nonzero"/><path fill="#efefef" d="m858.9199 350.59317l39.527588 0l0 39.527557l-39.527588 0z" fill-rule="evenodd"/><path stroke="#000000" stroke-width="1.0" stroke-linejoin="round" stroke-linecap="butt" d="m858.9199 350.59317l39.527588 0l0 39.527557l-39.527588 0z" fill-rule="evenodd"/><path fill="#efefef" d="m898.46356 350.59317l39.527588 0l0 39.527557l-39.527588 0z" fill-rule="evenodd"/><path stroke="#000000" stroke-width="1.0" stroke-linejoin="round" stroke-linecap="butt" d="m898.46356 350.59317l39.527588 0l0 39.527557l-39.527588 0z" fill-rule="evenodd"/><path fill="#efefef" d="m938.0072 350.59317l39.527588 0l0 39.527557l-39.527588 0z" fill-rule="evenodd"/><path stroke="#000000" stroke-width="1.0" stroke-linejoin="round" stroke-linecap="butt" d="m938.0072 350.59317l39.527588 0l0 39.527557l-39.527588 0z" fill-rule="evenodd"/><path fill="#3d85c6" d="m977.55084 350.59317l39.527527 0l0 39.527557l-39.527527 0z" fill-rule="evenodd"/><path stroke="#000000" stroke-width="1.0" stroke-linejoin="round" stroke-linecap="butt" d="m977.55084 350.59317l39.527527 0l0 39.527557l-39.527527 0z" fill-rule="evenodd"/><path fill="#000000" d="m995.56055 370.90195q0.671875 -0.5625 1.28125 -0.8125q0.609375 -0.265625 1.3125 -0.265625q1.453125 0 2.5625 1.171875q1.109375 1.15625 1.109375 2.90625q0 1.640625 -1.03125 2.640625q-1.03125 1.0 -2.78125 1.0q-1.46875 0 -2.421875 -0.671875q-0.9375 -0.6875 -1.421875 -2.109375q-0.484375 -1.421875 -0.484375 -3.171875q0 -2.09375 0.953125 -3.484375q0.953125 -1.390625 2.25 -2.15625q1.296875 -0.765625 2.734375 -0.765625q1.140625 0 1.765625 0.453125q0.40625 0.296875 0.40625 0.765625q0 0.40625 -0.28125 0.6875q-0.265625 0.28125 -0.640625 0.28125q-0.21875 0 -0.625 -0.21875q-0.25 -0.125 -0.484375 -0.125q-0.890625 0 -1.84375 0.5q-0.953125 0.5 -1.65625 1.546875q-0.484375 0.734375 -0.703125 1.828125zm0.28125 2.890625q0.28125 1.09375 0.78125 1.5q0.5 0.390625 1.421875 0.390625q0.90625 0 1.40625 -0.484375q0.5 -0.484375 0.5 -1.3125q0 -0.953125 -0.578125 -1.578125q-0.5625 -0.625 -1.265625 -0.625q-0.5625 0 -1.21875 0.5625q-0.640625 0.546875 -1.046875 1.546875z" fill-rule="nonzero"/><path fill="#efefef" d="m906.45386 286.58664l30.015747 0l0 30.015747l-30.015747 0z" fill-rule="evenodd"/><path stroke="#000000" stroke-width="1.0" stroke-linejoin="round" stroke-linecap="butt" d="m906.45386 286.58664l30.015747 0l0 30.015747l-30.015747 0z" fill-rule="evenodd"/><path fill="#efefef" d="m936.4875 286.58664l30.015747 0l0 30.015747l-30.015747 0z" fill-rule="evenodd"/><path stroke="#000000" stroke-width="1.0" stroke-linejoin="round" stroke-linecap="butt" d="m936.4875 286.58664l30.015747 0l0 30.015747l-30.015747 0z" fill-rule="evenodd"/><path fill="#efefef" d="m966.5211 286.58664l30.015747 0l0 30.015747l-30.015747 0z" fill-rule="evenodd"/><path stroke="#000000" stroke-width="1.0" stroke-linejoin="round" stroke-linecap="butt" d="m966.5211 286.58664l30.015747 0l0 30.015747l-30.015747 0z" fill-rule="evenodd"/><path fill="#cfe2f3" d="m996.5547 286.58664l30.015747 0l0 30.015747l-30.015747 0z" fill-rule="evenodd"/><path stroke="#000000" stroke-width="1.0" stroke-linejoin="round" stroke-linecap="butt" d="m996.5547 286.58664l30.015747 0l0 30.015747l-30.015747 0z" fill-rule="evenodd"/><path fill="#000000" d="m1014.2929 296.73325l0 7.296875q0.59375 0 0.875 0.265625q0.28125 0.25 0.28125 0.671875q0 0.40625 -0.28125 0.671875q-0.28125 0.265625 -0.875 0.265625l0 0.734375q0.59375 0 0.875 0.265625q0.28125 0.265625 0.28125 0.6875q0 0.40625 -0.28125 0.671875q-0.28125 0.25 -0.953125 0.25l-2.515625 0q-0.671875 0 -0.96875 -0.25q-0.28125 -0.265625 -0.28125 -0.6875q0 -0.40625 0.28125 -0.671875q0.296875 -0.265625 0.96875 -0.265625l0.734375 0l0 -0.734375l-5.078125 0l0 -1.5625l4.46875 -7.609375l2.46875 0zm-1.859375 7.296875l0 -4.59375l-2.703125 4.59375l2.703125 0z" fill-rule="nonzero"/><path fill="#000000" fill-opacity="0.0" d="m876.626 280.5866l30.015747 0l0 42.015747l-30.015747 0z" fill-rule="evenodd"/><path fill="#000000" d="m892.5673 303.13162l0 3.125q0 0.671875 -0.265625 0.96875q-0.25 0.28125 -0.65625 0.28125q-0.421875 0 -0.6875 -0.28125q-0.25 -0.296875 -0.25 -0.96875l0 -3.125l-2.671875 0q-0.671875 0 -0.96875 -0.25q-0.28125 -0.265625 -0.28125 -0.6875q0 -0.421875 0.28125 -0.671875q0.296875 -0.265625 0.96875 -0.25l2.671875 0l0 -3.125q0 -0.65625 0.25 -0.953125q0.265625 -0.296875 0.6875 -0.296875q0.40625 0 0.671875 0.296875q0.265625 0.28125 0.265625 0.953125l-0.015625 3.125l2.671875 0q0.671875 0 0.953125 0.25q0.296875 0.25 0.296875 0.671875q0 0.421875 -0.296875 0.6875q-0.28125 0.25 -0.953125 0.25l-2.671875 0z" fill-rule="nonzero"/><path fill="#000000" fill-opacity="0.0" d="m921.57477 308.5761l30.015747 0l0 42.015747l-30.015747 0z" fill-rule="evenodd"/><path fill="#000000" d="m940.5786 329.3555l-7.96875 0q-0.671875 0 -0.96875 -0.25q-0.28125 -0.265625 -0.28125 -0.6875q0 -0.40625 0.28125 -0.65625q0.296875 -0.265625 0.96875 -0.265625l7.96875 0q0.6875 0 0.96875 0.265625q0.28125 0.25 0.28125 0.671875q0 0.40625 -0.28125 0.671875q-0.28125 0.25 -0.96875 0.25zm0 3.515625l-7.96875 0q-0.671875 0 -0.96875 -0.25q-0.28125 -0.265625 -0.28125 -0.671875q0 -0.421875 0.28125 -0.671875q0.296875 -0.265625 0.96875 -0.265625l7.96875 0q0.6875 0 0.96875 0.265625q0.28125 0.25 0.28125 0.671875q0 0.40625 -0.28125 0.671875q-0.28125 0.25 -0.96875 0.25z" fill-rule="nonzero"/><path fill="#cfe2f3" d="m846.4895 446.35565l30.015747 0l0 30.015747l-30.015747 0z" fill-rule="evenodd"/><path stroke="#000000" stroke-width="1.0" stroke-linejoin="round" stroke-linecap="butt" d="m846.4895 446.35565l30.015747 0l0 30.015747l-30.015747 0z" fill-rule="evenodd"/><path fill="#000000" d="m859.93085 458.36166l0 2.21875q1.03125 -0.328125 1.875 -0.328125q1.734375 0 2.859375 1.1875q1.140625 1.171875 1.140625 3.03125q0 1.90625 -1.15625 3.0q-1.140625 1.078125 -3.515625 1.078125q-2.09375 0 -3.328125 -0.78125q-0.703125 -0.453125 -0.703125 -1.046875q0 -0.375 0.28125 -0.65625q0.28125 -0.28125 0.65625 -0.28125q0.3125 0 0.6875 0.3125q0.375 0.296875 0.78125 0.421875q0.59375 0.171875 1.5 0.171875q1.703125 0 2.3125 -0.53125q0.625 -0.546875 0.625 -1.671875q0 -1.109375 -0.609375 -1.734375q-0.59375 -0.625 -1.53125 -0.625q-1.0 0 -2.296875 0.65625q-0.296875 0.15625 -0.515625 0.15625q-0.390625 0 -0.671875 -0.296875q-0.265625 -0.296875 -0.265625 -0.75l0 -5.390625l5.71875 0q0.671875 0 0.953125 0.265625q0.296875 0.25 0.296875 0.671875q0 0.40625 -0.296875 0.671875q-0.28125 0.25 -0.953125 0.25l-3.84375 0z" fill-rule="nonzero"/><path fill="#efefef" d="m859.02234 510.3622l39.527527 0l0 39.527557l-39.527527 0z" fill-rule="evenodd"/><path stroke="#000000" stroke-width="1.0" stroke-linejoin="round" stroke-linecap="butt" d="m859.02234 510.3622l39.527527 0l0 39.527557l-39.527527 0z" fill-rule="evenodd"/><path fill="#efefef" d="m898.5659 510.3622l39.527588 0l0 39.527557l-39.527588 0z" fill-rule="evenodd"/><path stroke="#000000" stroke-width="1.0" stroke-linejoin="round" stroke-linecap="butt" d="m898.5659 510.3622l39.527588 0l0 39.527557l-39.527588 0z" fill-rule="evenodd"/><path fill="#efefef" d="m938.10956 510.3622l39.527588 0l0 39.527557l-39.527588 0z" fill-rule="evenodd"/><path stroke="#000000" stroke-width="1.0" stroke-linejoin="round" stroke-linecap="butt" d="m938.10956 510.3622l39.527588 0l0 39.527557l-39.527588 0z" fill-rule="evenodd"/><path fill="#3d85c6" d="m977.6532 510.3622l39.527527 0l0 39.527557l-39.527527 0z" fill-rule="evenodd"/><path stroke="#000000" stroke-width="1.0" stroke-linejoin="round" stroke-linecap="butt" d="m977.6532 510.3622l39.527527 0l0 39.527557l-39.527527 0z" fill-rule="evenodd"/><path fill="#000000" d="m993.4404 525.61096l0 8.765625l1.609375 0q0.578125 0 0.828125 0.234375q0.25 0.21875 0.25 0.578125q0 0.34375 -0.25 0.578125q-0.25 0.21875 -0.828125 0.21875l-4.828125 0q-0.578125 0 -0.828125 -0.21875q-0.25 -0.234375 -0.25 -0.59375q0 -0.34375 0.25 -0.5625q0.25 -0.234375 0.828125 -0.234375l1.609375 0l0 -6.671875l-1.421875 0.375q-0.34375 0.09375 -0.515625 0.09375q-0.3125 0 -0.53125 -0.234375q-0.21875 -0.25 -0.21875 -0.609375q0 -0.3125 0.15625 -0.5q0.171875 -0.1875 0.6875 -0.328125l3.453125 -0.890625zm9.6015625 0l0 8.765625l1.609375 0q0.578125 0 0.828125 0.234375q0.25 0.21875 0.25 0.578125q0 0.34375 -0.25 0.578125q-0.25 0.21875 -0.828125 0.21875l-4.828125 0q-0.578125 0 -0.828125 -0.21875q-0.25 -0.234375 -0.25 -0.59375q0 -0.34375 0.25 -0.5625q0.25 -0.234375 0.828125 -0.234375l1.609375 0l0 -6.671875l-1.421875 0.375q-0.34375 0.09375 -0.515625 0.09375q-0.3125 0 -0.53125 -0.234375q-0.21875 -0.25 -0.21875 -0.609375q0 -0.3125 0.15625 -0.5q0.171875 -0.1875 0.6875 -0.328125l3.453125 -0.890625z" fill-rule="nonzero"/><path fill="#efefef" d="m906.5562 446.35565l30.015747 0l0 30.015747l-30.015747 0z" fill-rule="evenodd"/><path stroke="#000000" stroke-width="1.0" stroke-linejoin="round" stroke-linecap="butt" d="m906.5562 446.35565l30.015747 0l0 30.015747l-30.015747 0z" fill-rule="evenodd"/><path fill="#efefef" d="m936.58984 446.35565l30.015747 0l0 30.015747l-30.015747 0z" fill-rule="evenodd"/><path stroke="#000000" stroke-width="1.0" stroke-linejoin="round" stroke-linecap="butt" d="m936.58984 446.35565l30.015747 0l0 30.015747l-30.015747 0z" fill-rule="evenodd"/><path fill="#efefef" d="m966.6235 446.35565l30.015747 0l0 30.015747l-30.015747 0z" fill-rule="evenodd"/><path stroke="#000000" stroke-width="1.0" stroke-linejoin="round" stroke-linecap="butt" d="m966.6235 446.35565l30.015747 0l0 30.015747l-30.015747 0z" fill-rule="evenodd"/><path fill="#cfe2f3" d="m996.65704 446.35565l30.015808 0l0 30.015747l-30.015808 0z" fill-rule="evenodd"/><path stroke="#000000" stroke-width="1.0" stroke-linejoin="round" stroke-linecap="butt" d="m996.65704 446.35565l30.015808 0l0 30.015747l-30.015808 0z" fill-rule="evenodd"/><path fill="#000000" d="m1009.9109 461.90854q0.671875 -0.5625 1.28125 -0.8125q0.609375 -0.265625 1.3125 -0.265625q1.453125 0 2.5625 1.171875q1.109375 1.15625 1.109375 2.90625q0 1.640625 -1.03125 2.640625q-1.03125 1.0 -2.78125 1.0q-1.46875 0 -2.421875 -0.671875q-0.9375 -0.6875 -1.421875 -2.109375q-0.484375 -1.421875 -0.484375 -3.171875q0 -2.09375 0.953125 -3.484375q0.953125 -1.390625 2.25 -2.15625q1.296875 -0.765625 2.734375 -0.765625q1.140625 0 1.765625 0.453125q0.40625 0.296875 0.40625 0.765625q0 0.40625 -0.28125 0.6875q-0.265625 0.28125 -0.640625 0.28125q-0.21875 0 -0.625 -0.21875q-0.25 -0.125 -0.484375 -0.125q-0.890625 0 -1.84375 0.5q-0.953125 0.5 -1.65625 1.546875q-0.484375 0.734375 -0.703125 1.828125zm0.28125 2.890625q0.28125 1.09375 0.78125 1.5q0.5 0.390625 1.421875 0.390625q0.90625 0 1.40625 -0.484375q0.5 -0.484375 0.5 -1.3125q0 -0.953125 -0.578125 -1.578125q-0.5625 -0.625 -1.265625 -0.625q-0.5625 0 -1.21875 0.5625q-0.640625 0.546875 -1.046875 1.546875z" fill-rule="nonzero"/><path fill="#000000" fill-opacity="0.0" d="m876.72833 440.35565l30.015747 0l0 42.015747l-30.015747 0z" fill-rule="evenodd"/><path fill="#000000" d="m892.6697 462.90063l0 3.125q0 0.671875 -0.265625 0.96875q-0.25 0.28125 -0.65625 0.28125q-0.421875 0 -0.6875 -0.28125q-0.25 -0.296875 -0.25 -0.96875l0 -3.125l-2.671875 0q-0.671875 0 -0.96875 -0.25q-0.28125 -0.265625 -0.28125 -0.6875q0 -0.421875 0.28125 -0.671875q0.296875 -0.265625 0.96875 -0.25l2.671875 0l0 -3.125q0 -0.65625 0.25 -0.953125q0.265625 -0.296875 0.6875 -0.296875q0.40625 0 0.671875 0.296875q0.265625 0.28125 0.265625 0.953125l-0.015625 3.125l2.671875 0q0.671875 0 0.953125 0.25q0.296875 0.25 0.296875 0.671875q0 0.421875 -0.296875 0.6875q-0.28125 0.25 -0.953125 0.25l-2.671875 0z" fill-rule="nonzero"/><path fill="#000000" fill-opacity="0.0" d="m921.6771 468.34515l30.015747 0l0 42.015747l-30.015747 0z" fill-rule="evenodd"/><path fill="#000000" d="m940.68097 489.1245l-7.96875 0q-0.671875 0 -0.96875 -0.25q-0.28125 -0.265625 -0.28125 -0.6875q0 -0.40625 0.28125 -0.65625q0.296875 -0.265625 0.96875 -0.265625l7.96875 0q0.6875 0 0.96875 0.265625q0.28125 0.25 0.28125 0.671875q0 0.40625 -0.28125 0.671875q-0.28125 0.25 -0.96875 0.25zm0 3.515625l-7.96875 0q-0.671875 0 -0.96875 -0.25q-0.28125 -0.265625 -0.28125 -0.671875q0 -0.421875 0.28125 -0.671875q0.296875 -0.265625 0.96875 -0.265625l7.96875 0q0.6875 0 0.96875 0.265625q0.28125 0.25 0.28125 0.671875q0 0.40625 -0.28125 0.671875q-0.28125 0.25 -0.96875 0.25z" fill-rule="nonzero"/><path fill="#000000" fill-opacity="0.0" d="m240.2608 28.863518l85.29135 112.97637" fill-rule="evenodd"/><path stroke="#000000" stroke-width="1.0" stroke-linejoin="round" stroke-linecap="butt" d="m240.2608 28.863518l81.67618 108.18778" fill-rule="evenodd"/><path fill="#000000" stroke="#000000" stroke-width="1.0" stroke-linecap="butt" d="m320.61874 138.04651l4.052582 2.626648l-1.4160767 -4.6170654z" fill-rule="evenodd"/><path fill="#000000" fill-opacity="0.0" d="m500.6847 28.863518l85.29132 112.97637" fill-rule="evenodd"/><path stroke="#000000" stroke-width="1.0" stroke-linejoin="round" stroke-linecap="butt" d="m500.68466 28.863518l81.67618 108.18778" fill-rule="evenodd"/><path fill="#000000" stroke="#000000" stroke-width="1.0" stroke-linecap="butt" d="m581.0426 138.04651l4.0525513 2.626648l-1.4160156 -4.6170654z" fill-rule="evenodd"/><path fill="#000000" fill-opacity="0.0" d="m761.10724 28.863518l85.29138 112.97637" fill-rule="evenodd"/><path stroke="#000000" stroke-width="1.0" stroke-linejoin="round" stroke-linecap="butt" d="m761.1073 28.863518l81.67615 108.18778" fill-rule="evenodd"/><path fill="#000000" stroke="#000000" stroke-width="1.0" stroke-linecap="butt" d="m841.4652 138.04651l4.0525513 2.626648l-1.4160156 -4.6170654z" fill-rule="evenodd"/><path fill="#000000" fill-opacity="0.0" d="m95.35693 141.82545l230.17322 159.77953" fill-rule="evenodd"/><path stroke="#000000" stroke-width="1.0" stroke-linejoin="round" stroke-linecap="butt" d="m95.35693 141.82545l225.24438 156.35808" fill-rule="evenodd"/><path fill="#000000" stroke="#000000" stroke-width="1.0" stroke-linecap="butt" d="m319.65942 299.54037l4.6698303 1.230957l-2.7860413 -3.9446716z" fill-rule="evenodd"/><path fill="#000000" fill-opacity="0.0" d="m355.78082 141.82545l230.17322 159.77953" fill-rule="evenodd"/><path stroke="#000000" stroke-width="1.0" stroke-linejoin="round" stroke-linecap="butt" d="m355.78085 141.82545l225.24435 156.35808" fill-rule="evenodd"/><path fill="#000000" stroke="#000000" stroke-width="1.0" stroke-linecap="butt" d="m580.0833 299.54037l4.669861 1.230957l-2.7860718 -3.9446716z" fill-rule="evenodd"/><path fill="#000000" fill-opacity="0.0" d="m616.20337 141.82545l230.17328 159.77953" fill-rule="evenodd"/><path stroke="#000000" stroke-width="1.0" stroke-linejoin="round" stroke-linecap="butt" d="m616.2034 141.82545l225.24432 156.35808" fill-rule="evenodd"/><path fill="#000000" stroke="#000000" stroke-width="1.0" stroke-linecap="butt" d="m840.5059 299.54037l4.6698 1.230957l-2.7860107 -3.9446716z" fill-rule="evenodd"/><path fill="#000000" fill-opacity="0.0" d="m95.35693 301.59448l230.29922 159.77954" fill-rule="evenodd"/><path stroke="#000000" stroke-width="1.0" stroke-linejoin="round" stroke-linecap="butt" d="m95.35693 301.59448l225.36948 156.35934" fill-rule="evenodd"/><path fill="#000000" stroke="#000000" stroke-width="1.0" stroke-linecap="butt" d="m319.78488 459.3109l4.6701355 1.2297668l-2.7870483 -3.9439697z" fill-rule="evenodd"/><path fill="#000000" fill-opacity="0.0" d="m355.78082 301.59448l230.2992 159.77954" fill-rule="evenodd"/><path stroke="#000000" stroke-width="1.0" stroke-linejoin="round" stroke-linecap="butt" d="m355.78085 301.59448l225.36948 156.35934" fill-rule="evenodd"/><path fill="#000000" stroke="#000000" stroke-width="1.0" stroke-linecap="butt" d="m580.2088 459.3109l4.670105 1.2297668l-2.7870483 -3.9439697z" fill-rule="evenodd"/><path fill="#000000" fill-opacity="0.0" d="m616.20337 301.59448l230.29926 159.77954" fill-rule="evenodd"/><path stroke="#000000" stroke-width="1.0" stroke-linejoin="round" stroke-linecap="butt" d="m616.2034 301.59448l225.3695 156.35934" fill-rule="evenodd"/><path fill="#000000" stroke="#000000" stroke-width="1.0" stroke-linecap="butt" d="m840.63135 459.3109l4.670166 1.2297668l-2.7870483 -3.9439697z" fill-rule="evenodd"/><path fill="#000000" fill-opacity="0.0" d="m56.220474 89.71391l986.8347 0" fill-rule="evenodd"/><path stroke="#000000" stroke-width="1.0" stroke-linejoin="round" stroke-linecap="butt" stroke-dasharray="4.0,3.0" d="m56.220474 89.71391l986.8347 0" fill-rule="evenodd"/><path fill="#000000" fill-opacity="0.0" d="m56.220474 260.98425l986.8347 0" fill-rule="evenodd"/><path stroke="#000000" stroke-width="1.0" stroke-linejoin="round" stroke-linecap="butt" stroke-dasharray="4.0,3.0" d="m56.220474 260.98425l986.8347 0" fill-rule="evenodd"/><path fill="#000000" fill-opacity="0.0" d="m56.220474 415.85303l986.8347 0" fill-rule="evenodd"/><path stroke="#000000" stroke-width="1.0" stroke-linejoin="round" stroke-linecap="butt" stroke-dasharray="4.0,3.0" d="m56.220474 415.85303l986.8347 0" fill-rule="evenodd"/><path fill="#000000" fill-opacity="0.0" d="m8.052493 152.4147l39.11811 0l0 58.173218l-39.11811 0z" fill-rule="evenodd"/><path fill="#000000" d="m29.646244 192.1347l-4.390625 0l0 -16.546875q-2.40625 2.25 -5.671875 3.328125l0 -3.984375q1.71875 -0.5625 3.734375 -2.125q2.015625 -1.578125 2.765625 -3.671875l3.5625 0l0 23.0z" fill-rule="nonzero"/><path fill="#000000" fill-opacity="0.0" d="m8.052493 310.5433l39.11811 0l0 58.173218l-39.11811 0z" fill-rule="evenodd"/><path fill="#000000" d="m33.239994 346.18518l0 4.078125l-15.390625 0q0.25 -2.3125 1.5 -4.375q1.25 -2.078125 4.9375 -5.5q2.96875 -2.765625 3.640625 -3.75q0.90625 -1.359375 0.90625 -2.6875q0 -1.46875 -0.796875 -2.25q-0.78125 -0.796875 -2.171875 -0.796875q-1.375 0 -2.1875 0.828125q-0.8125 0.828125 -0.9375 2.75l-4.375 -0.4375q0.390625 -3.625 2.453125 -5.203125q2.0625 -1.578125 5.15625 -1.578125q3.390625 0 5.328125 1.828125q1.9375 1.828125 1.9375 4.546875q0 1.546875 -0.5625 2.953125q-0.546875 1.390625 -1.75 2.921875q-0.796875 1.015625 -2.875 2.921875q-2.078125 1.90625 -2.640625 2.53125q-0.546875 0.625 -0.890625 1.21875l8.71875 0z" fill-rule="nonzero"/><path fill="#000000" fill-opacity="0.0" d="m8.052493 451.90814l39.11811 0l0 58.173218l-39.11811 0z" fill-rule="evenodd"/><path fill="#000000" d="m18.25562 485.55002l4.25 -0.515625q0.203125 1.625 1.09375 2.484375q0.890625 0.859375 2.15625 0.859375q1.359375 0 2.28125 -1.03125q0.9375 -1.03125 0.9375 -2.78125q0 -1.65625 -0.890625 -2.625q-0.890625 -0.96875 -2.171875 -0.96875q-0.84375 0 -2.015625 0.328125l0.484375 -3.578125q1.78125 0.046875 2.71875 -0.765625q0.9375 -0.828125 0.9375 -2.1875q0 -1.15625 -0.6875 -1.84375q-0.6875 -0.6875 -1.828125 -0.6875q-1.125 0 -1.921875 0.78125q-0.796875 0.78125 -0.96875 2.28125l-4.046875 -0.6875q0.421875 -2.078125 1.265625 -3.3125q0.859375 -1.25 2.375 -1.953125q1.53125 -0.71875 3.421875 -0.71875q3.234375 0 5.1875 2.0625q1.609375 1.6875 1.609375 3.8125q0 3.015625 -3.296875 4.8125q1.96875 0.421875 3.140625 1.890625q1.1875 1.46875 1.1875 3.546875q0 3.015625 -2.203125 5.140625q-2.203125 2.125 -5.484375 2.125q-3.109375 0 -5.15625 -1.78125q-2.046875 -1.796875 -2.375 -4.6875z" fill-rule="nonzero"/></g></svg>