<svg version="1.1" viewBox="0.0 0.0 1189.9527559055118 290.65354330708664" fill="none" stroke="none" stroke-linecap="square" stroke-miterlimit="10" xmlns:xlink="http://www.w3.org/1999/xlink" xmlns="http://www.w3.org/2000/svg"><clipPath id="p.0"><path d="m0 0l1189.9528 0l0 290.65353l-1189.9528 0l0 -290.65353z" clip-rule="nonzero"/></clipPath><g clip-path="url(#p.0)"><path fill="#000000" fill-opacity="0.0" d="m0 0l1189.9528 0l0 290.65353l-1189.9528 0z" fill-rule="evenodd"/><path fill="#cfe2f3" d="m14.960629 12.6955385l62.330708 0l0 62.330708l-62.330708 0z" fill-rule="evenodd"/><path stroke="#000000" stroke-width="1.0" stroke-linejoin="round" stroke-linecap="butt" d="m14.960629 12.6955385l62.330708 0l0 62.330708l-62.330708 0z" fill-rule="evenodd"/><path fill="#000000" d="m44.55945 40.859013l0 2.21875q1.03125 -0.328125 1.875 -0.328125q1.7343712 0 2.8593712 1.1875q1.140625 1.171875 1.140625 3.03125q0 1.90625 -1.15625 3.0q-1.140625 1.078125 -3.5156212 1.078125q-2.09375 0 -3.328125 -0.78125q-0.703125 -0.453125 -0.703125 -1.046875q0 -0.375 0.28125 -0.65625q0.28125 -0.28125 0.65625 -0.28125q0.3125 0 0.6875 0.3125q0.375 0.296875 0.78125 0.421875q0.59375 0.171875 1.5 0.171875q1.7031212 0 2.3124962 -0.53125q0.625 -0.546875 0.625 -1.671875q0 -1.109375 -0.609375 -1.734375q-0.59375 -0.625 -1.5312462 -0.625q-1.0 0 -2.296875 0.65625q-0.296875 0.15625 -0.515625 0.15625q-0.390625 0 -0.671875 -0.296875q-0.265625 -0.296875 -0.265625 -0.75l0 -5.390625l5.718746 0q0.671875 0 0.953125 0.265625q0.296875 0.25 0.296875 0.671875q0 0.40625 -0.296875 0.671875q-0.28125 0.25 -0.953125 0.25l-3.8437462 0z" fill-rule="nonzero"/><path fill="#efefef" d="m77.29768 12.6955385l62.330704 0l0 62.330708l-62.330704 0z" fill-rule="evenodd"/><path stroke="#000000" stroke-width="1.0" stroke-linejoin="round" stroke-linecap="butt" d="m77.29768 12.6955385l62.330704 0l0 62.330708l-62.330704 0z" fill-rule="evenodd"/><path fill="#efefef" d="m139.63474 12.6955385l62.330704 0l0 62.330708l-62.330704 0z" fill-rule="evenodd"/><path stroke="#000000" stroke-width="1.0" stroke-linejoin="round" stroke-linecap="butt" d="m139.63474 12.6955385l62.330704 0l0 62.330708l-62.330704 0z" fill-rule="evenodd"/><path fill="#efefef" d="m201.97179 12.6955385l62.330704 0l0 62.330708l-62.330704 0z" fill-rule="evenodd"/><path stroke="#000000" stroke-width="1.0" stroke-linejoin="round" stroke-linecap="butt" d="m201.97179 12.6955385l62.330704 0l0 62.330708l-62.330704 0z" fill-rule="evenodd"/><path fill="#efefef" d="m317.63867 12.6955385l62.33069 0l0 62.330708l-62.33069 0z" fill-rule="evenodd"/><path stroke="#000000" stroke-width="1.0" stroke-linejoin="round" stroke-linecap="butt" d="m317.63867 12.6955385l62.33069 0l0 62.330708l-62.33069 0z" fill-rule="evenodd"/><path fill="#cfe2f3" d="m379.9757 12.6955385l62.33072 0l0 62.330708l-62.33072 0z" fill-rule="evenodd"/><path stroke="#000000" stroke-width="1.0" stroke-linejoin="round" stroke-linecap="butt" d="m379.9757 12.6955385l62.33072 0l0 62.330708l-62.33072 0z" fill-rule="evenodd"/><path fill="#000000" d="m409.40265 48.905888l4.078125 0q0.34375 -0.265625 0.640625 -0.265625q0.4375 0 0.6875 0.28125q0.25 0.28125 0.25 0.96875l0 0.890625l-8.515625 0l0 -1.984375q5.046875 -4.15625 6.09375 -5.34375q0.53125 -0.609375 0.53125 -1.15625q0 -0.6875 -0.59375 -1.203125q-0.59375 -0.53125 -1.59375 -0.53125q-1.0 0 -1.671875 0.578125q-0.34375 0.3125 -0.546875 0.921875q-0.125 0.390625 -0.359375 0.5625q-0.21875 0.15625 -0.546875 0.15625q-0.375 0 -0.65625 -0.265625q-0.28125 -0.28125 -0.28125 -0.65625q0 -0.546875 0.5 -1.359375q0.515625 -0.828125 1.484375 -1.3125q0.96875 -0.5 2.109375 -0.5q1.765625 0 2.890625 1.078125q1.125 1.0625 1.125 2.59375q0 0.765625 -0.328125 1.4375q-0.3125 0.65625 -1.546875 1.8125q-0.953125 0.921875 -3.75 3.296875z" fill-rule="nonzero"/><path fill="#efefef" d="m442.31277 12.6955385l62.33069 0l0 62.330708l-62.33069 0z" fill-rule="evenodd"/><path stroke="#000000" stroke-width="1.0" stroke-linejoin="round" stroke-linecap="butt" d="m442.31277 12.6955385l62.33069 0l0 62.330708l-62.33069 0z" fill-rule="evenodd"/><path fill="#efefef" d="m504.6498 12.6955385l62.33072 0l0 62.330708l-62.33072 0z" fill-rule="evenodd"/><path stroke="#000000" stroke-width="1.0" stroke-linejoin="round" stroke-linecap="butt" d="m504.6498 12.6955385l62.33072 0l0 62.330708l-62.33072 0z" fill-rule="evenodd"/><path fill="#efefef" d="m620.3184 12.6955385l62.33075 0l0 62.330708l-62.33075 0z" fill-rule="evenodd"/><path stroke="#000000" stroke-width="1.0" stroke-linejoin="round" stroke-linecap="butt" d="m620.3184 12.6955385l62.33075 0l0 62.330708l-62.33075 0z" fill-rule="evenodd"/><path fill="#efefef" d="m682.6555 12.6955385l62.33069 0l0 62.330708l-62.33069 0z" fill-rule="evenodd"/><path stroke="#000000" stroke-width="1.0" stroke-linejoin="round" stroke-linecap="butt" d="m682.6555 12.6955385l62.33069 0l0 62.330708l-62.33069 0z" fill-rule="evenodd"/><path fill="#cfe2f3" d="m744.99255 12.6955385l62.33069 0l0 62.330708l-62.33069 0z" fill-rule="evenodd"/><path stroke="#000000" stroke-width="1.0" stroke-linejoin="round" stroke-linecap="butt" d="m744.99255 12.6955385l62.33069 0l0 62.330708l-62.33069 0z" fill-rule="evenodd"/><path fill="#000000" d="m777.107 38.687138l0 10.21875l1.890625 0q0.671875 0 0.953125 0.265625q0.296875 0.265625 0.296875 0.6875q0 0.40625 -0.296875 0.671875q-0.28125 0.25 -0.953125 0.25l-5.640625 0q-0.671875 0 -0.96875 -0.25q-0.28125 -0.265625 -0.28125 -0.6875q0 -0.40625 0.28125 -0.671875q0.296875 -0.265625 0.96875 -0.265625l1.890625 0l0 -7.78125l-1.671875 0.4375q-0.40625 0.109375 -0.609375 0.109375q-0.34375 0 -0.609375 -0.28125q-0.25 -0.28125 -0.25 -0.6875q0 -0.375 0.1875 -0.59375q0.1875 -0.21875 0.796875 -0.375l4.015625 -1.046875z" fill-rule="nonzero"/><path fill="#efefef" d="m807.3296 12.6955385l62.33075 0l0 62.330708l-62.33075 0z" fill-rule="evenodd"/><path stroke="#000000" stroke-width="1.0" stroke-linejoin="round" stroke-linecap="butt" d="m807.3296 12.6955385l62.33075 0l0 62.330708l-62.33075 0z" fill-rule="evenodd"/><path fill="#efefef" d="m923.00085 12.6955385l62.33075 0l0 62.330708l-62.33075 0z" fill-rule="evenodd"/><path stroke="#000000" stroke-width="1.0" stroke-linejoin="round" stroke-linecap="butt" d="m923.00085 12.6955385l62.33075 0l0 62.330708l-62.33075 0z" fill-rule="evenodd"/><path fill="#efefef" d="m985.3379 12.6955385l62.33069 0l0 62.330708l-62.33069 0z" fill-rule="evenodd"/><path stroke="#000000" stroke-width="1.0" stroke-linejoin="round" stroke-linecap="butt" d="m985.3379 12.6955385l62.33069 0l0 62.330708l-62.33069 0z" fill-rule="evenodd"/><path fill="#efefef" d="m1047.6749 12.6955385l62.33081 0l0 62.330708l-62.33081 0z" fill-rule="evenodd"/><path stroke="#000000" stroke-width="1.0" stroke-linejoin="round" stroke-linecap="butt" d="m1047.6749 12.6955385l62.33081 0l0 62.330708l-62.33081 0z" fill-rule="evenodd"/><path fill="#cfe2f3" d="m1110.0121 12.6955385l62.33069 0l0 62.330708l-62.33069 0z" fill-rule="evenodd"/><path stroke="#000000" stroke-width="1.0" stroke-linejoin="round" stroke-linecap="butt" d="m1110.0121 12.6955385l62.33069 0l0 62.330708l-62.33069 0z" fill-rule="evenodd"/><path fill="#000000" d="m1143.8452 44.546513q0.828125 0.5625 1.234375 1.3125q0.40625 0.734375 0.40625 1.65625q0 0.984375 -0.546875 1.828125q-0.53125 0.84375 -1.5625 1.28125q-1.03125 0.421875 -2.703125 0.421875q-2.15625 0 -3.25 -0.671875q-0.609375 -0.375 -0.609375 -0.90625q0 -0.40625 0.265625 -0.671875q0.265625 -0.28125 0.65625 -0.28125q0.25 0 0.546875 0.171875q0.390625 0.28125 0.75 0.375q0.546875 0.125 1.5 0.125q1.640625 0 2.359375 -0.421875q0.734375 -0.421875 0.734375 -1.203125q0 -0.578125 -0.421875 -1.109375q-0.421875 -0.53125 -1.140625 -0.8125q-0.40625 -0.171875 -1.390625 -0.234375q-0.453125 -0.03125 -0.703125 -0.28125q-0.25 -0.265625 -0.25 -0.640625q0 -0.40625 0.265625 -0.671875q0.28125 -0.28125 0.6875 -0.28125q0.9375 0 1.0 -0.015625q0.359375 -0.03125 0.71875 -0.234375q0.375 -0.203125 0.59375 -0.546875q0.234375 -0.359375 0.234375 -0.71875q0 -0.59375 -0.53125 -1.03125q-0.515625 -0.4375 -1.578125 -0.4375q-1.34375 0 -2.046875 0.78125q-0.21875 0.234375 -0.34375 0.296875q-0.1875 0.09375 -0.421875 0.09375q-0.390625 0 -0.671875 -0.265625q-0.265625 -0.265625 -0.265625 -0.671875q0 -0.625 0.84375 -1.21875q1.21875 -0.875 3.046875 -0.875q1.734375 0 2.78125 0.984375q1.046875 0.984375 1.046875 2.375q0 0.71875 -0.3125 1.34375q-0.3125 0.625 -0.921875 1.15625z" fill-rule="nonzero"/><path fill="#cfe2f3" d="m14.960629 210.86613l62.330708 0l0 62.330704l-62.330708 0z" fill-rule="evenodd"/><path stroke="#000000" stroke-width="1.0" stroke-linejoin="round" stroke-linecap="butt" d="m14.960629 210.86613l62.330708 0l0 62.330704l-62.330708 0z" fill-rule="evenodd"/><path fill="#000000" d="m41.477287 236.85774l0 10.21875l1.890625 0q0.671875 0 0.953125 0.265625q0.296875 0.265625 0.296875 0.6875q0 0.40625 -0.296875 0.671875q-0.28125 0.25 -0.953125 0.25l-5.640625 0q-0.671875 0 -0.96875 -0.25q-0.28125 -0.265625 -0.28125 -0.6875q0 -0.40625 0.28125 -0.671875q0.296875 -0.265625 0.96875 -0.265625l1.890625 0l0 -7.78125l-1.671875 0.4375q-0.40625 0.109375 -0.609375 0.109375q-0.34375 0 -0.609375 -0.28125q-0.25 -0.28125 -0.25 -0.6875q0 -0.375 0.1875 -0.59375q0.1875 -0.21875 0.796875 -0.375l4.015625 -1.046875zm11.195568 0l0 10.21875l1.890625 0q0.671875 0 0.953125 0.265625q0.296875 0.265625 0.296875 0.6875q0 0.40625 -0.296875 0.671875q-0.28125 0.25 -0.953125 0.25l-5.640625 0q-0.671875 0 -0.96875 -0.25q-0.28125 -0.265625 -0.28125 -0.6875q0 -0.40625 0.28125 -0.671875q0.296875 -0.265625 0.96875 -0.265625l1.890625 0l0 -7.78125l-1.671875 0.4375q-0.40625 0.109375 -0.609375 0.109375q-0.34375 0 -0.609375 -0.28125q-0.25 -0.28125 -0.25 -0.6875q0 -0.375 0.1875 -0.59375q0.1875 -0.21875 0.796875 -0.375l4.015625 -1.046875z" fill-rule="nonzero"/><path fill="#efefef" d="m77.29768 210.86613l62.330704 0l0 62.330704l-62.330704 0z" fill-rule="evenodd"/><path stroke="#000000" stroke-width="1.0" stroke-linejoin="round" stroke-linecap="butt" d="m77.29768 210.86613l62.330704 0l0 62.330704l-62.330704 0z" fill-rule="evenodd"/><path fill="#efefef" d="m139.63474 210.86613l62.330704 0l0 62.330704l-62.330704 0z" fill-rule="evenodd"/><path stroke="#000000" stroke-width="1.0" stroke-linejoin="round" stroke-linecap="butt" d="m139.63474 210.86613l62.330704 0l0 62.330704l-62.330704 0z" fill-rule="evenodd"/><path fill="#efefef" d="m201.97179 210.86613l62.330704 0l0 62.330704l-62.330704 0z" fill-rule="evenodd"/><path stroke="#000000" stroke-width="1.0" stroke-linejoin="round" stroke-linecap="butt" d="m201.97179 210.86613l62.330704 0l0 62.330704l-62.330704 0z" fill-rule="evenodd"/><path fill="#efefef" d="m317.6378 210.86613l62.33072 0l0 62.330704l-62.33072 0z" fill-rule="evenodd"/><path stroke="#000000" stroke-width="1.0" stroke-linejoin="round" stroke-linecap="butt" d="m317.6378 210.86613l62.33072 0l0 62.330704l-62.33072 0z" fill-rule="evenodd"/><path fill="#cfe2f3" d="m379.97485 210.86613l62.33072 0l0 62.330704l-62.33072 0z" fill-rule="evenodd"/><path stroke="#000000" stroke-width="1.0" stroke-linejoin="round" stroke-linecap="butt" d="m379.97485 210.86613l62.33072 0l0 62.330704l-62.33072 0z" fill-rule="evenodd"/><path fill="#000000" d="m406.49152 236.85774l0 10.21875l1.890625 0q0.671875 0 0.953125 0.265625q0.296875 0.265625 0.296875 0.6875q0 0.40625 -0.296875 0.671875q-0.28125 0.25 -0.953125 0.25l-5.640625 0q-0.671875 0 -0.96875 -0.25q-0.28125 -0.265625 -0.28125 -0.6875q0 -0.40625 0.28125 -0.671875q0.296875 -0.265625 0.96875 -0.265625l1.890625 0l0 -7.78125l-1.671875 0.4375q-0.40625 0.109375 -0.609375 0.109375q-0.34375 0 -0.609375 -0.28125q-0.25 -0.28125 -0.25 -0.6875q0 -0.375 0.1875 -0.59375q0.1875 -0.21875 0.796875 -0.375l4.015625 -1.046875zm11.195557 0l0 10.21875l1.890625 0q0.671875 0 0.953125 0.265625q0.296875 0.265625 0.296875 0.6875q0 0.40625 -0.296875 0.671875q-0.28125 0.25 -0.953125 0.25l-5.640625 0q-0.671875 0 -0.96875 -0.25q-0.28125 -0.265625 -0.28125 -0.6875q0 -0.40625 0.28125 -0.671875q0.296875 -0.265625 0.96875 -0.265625l1.890625 0l0 -7.78125l-1.671875 0.4375q-0.40625 0.109375 -0.609375 0.109375q-0.34375 0 -0.609375 -0.28125q-0.25 -0.28125 -0.25 -0.6875q0 -0.375 0.1875 -0.59375q0.1875 -0.21875 0.796875 -0.375l4.015625 -1.046875z" fill-rule="nonzero"/><path fill="#efefef" d="m442.3119 210.86613l62.33072 0l0 62.330704l-62.33072 0z" fill-rule="evenodd"/><path stroke="#000000" stroke-width="1.0" stroke-linejoin="round" stroke-linecap="butt" d="m442.3119 210.86613l62.33072 0l0 62.330704l-62.33072 0z" fill-rule="evenodd"/><path fill="#efefef" d="m504.64896 210.86613l62.33072 0l0 62.330704l-62.33072 0z" fill-rule="evenodd"/><path stroke="#000000" stroke-width="1.0" stroke-linejoin="round" stroke-linecap="butt" d="m504.64896 210.86613l62.33072 0l0 62.330704l-62.33072 0z" fill-rule="evenodd"/><path fill="#efefef" d="m620.3123 210.86613l62.33075 0l0 62.330704l-62.33075 0z" fill-rule="evenodd"/><path stroke="#000000" stroke-width="1.0" stroke-linejoin="round" stroke-linecap="butt" d="m620.3123 210.86613l62.33075 0l0 62.330704l-62.33075 0z" fill-rule="evenodd"/><path fill="#efefef" d="m682.6494 210.86613l62.33069 0l0 62.330704l-62.33069 0z" fill-rule="evenodd"/><path stroke="#000000" stroke-width="1.0" stroke-linejoin="round" stroke-linecap="butt" d="m682.6494 210.86613l62.33069 0l0 62.330704l-62.33069 0z" fill-rule="evenodd"/><path fill="#cfe2f3" d="m744.98645 210.86613l62.33069 0l0 62.330704l-62.33069 0z" fill-rule="evenodd"/><path stroke="#000000" stroke-width="1.0" stroke-linejoin="round" stroke-linecap="butt" d="m744.98645 210.86613l62.33069 0l0 62.330704l-62.33069 0z" fill-rule="evenodd"/><path fill="#000000" d="m771.5031 236.85774l0 10.21875l1.890625 0q0.671875 0 0.953125 0.265625q0.296875 0.265625 0.296875 0.6875q0 0.40625 -0.296875 0.671875q-0.28125 0.25 -0.953125 0.25l-5.640625 0q-0.671875 0 -0.96875 -0.25q-0.28125 -0.265625 -0.28125 -0.6875q0 -0.40625 0.28125 -0.671875q0.296875 -0.265625 0.96875 -0.265625l1.890625 0l0 -7.78125l-1.671875 0.4375q-0.40625 0.109375 -0.609375 0.109375q-0.34375 0 -0.609375 -0.28125q-0.25 -0.28125 -0.25 -0.6875q0 -0.375 0.1875 -0.59375q0.1875 -0.21875 0.796875 -0.375l4.015625 -1.046875zm11.195557 0l0 10.21875l1.890625 0q0.671875 0 0.953125 0.265625q0.296875 0.265625 0.296875 0.6875q0 0.40625 -0.296875 0.671875q-0.28125 0.25 -0.953125 0.25l-5.640625 0q-0.671875 0 -0.96875 -0.25q-0.28125 -0.265625 -0.28125 -0.6875q0 -0.40625 0.28125 -0.671875q0.296875 -0.265625 0.96875 -0.265625l1.890625 0l0 -7.78125l-1.671875 0.4375q-0.40625 0.109375 -0.609375 0.109375q-0.34375 0 -0.609375 -0.28125q-0.25 -0.28125 -0.25 -0.6875q0 -0.375 0.1875 -0.59375q0.1875 -0.21875 0.796875 -0.375l4.015625 -1.046875z" fill-rule="nonzero"/><path fill="#efefef" d="m807.3235 210.86613l62.33075 0l0 62.330704l-62.33075 0z" fill-rule="evenodd"/><path stroke="#000000" stroke-width="1.0" stroke-linejoin="round" stroke-linecap="butt" d="m807.3235 210.86613l62.33075 0l0 62.330704l-62.33075 0z" fill-rule="evenodd"/><path fill="#efefef" d="m922.98425 210.86613l62.33069 0l0 62.330704l-62.33069 0z" fill-rule="evenodd"/><path stroke="#000000" stroke-width="1.0" stroke-linejoin="round" stroke-linecap="butt" d="m922.98425 210.86613l62.33069 0l0 62.330704l-62.33069 0z" fill-rule="evenodd"/><path fill="#efefef" d="m985.3213 210.86613l62.33069 0l0 62.330704l-62.33069 0z" fill-rule="evenodd"/><path stroke="#000000" stroke-width="1.0" stroke-linejoin="round" stroke-linecap="butt" d="m985.3213 210.86613l62.33069 0l0 62.330704l-62.33069 0z" fill-rule="evenodd"/><path fill="#efefef" d="m1047.6583 210.86613l62.33069 0l0 62.330704l-62.33069 0z" fill-rule="evenodd"/><path stroke="#000000" stroke-width="1.0" stroke-linejoin="round" stroke-linecap="butt" d="m1047.6583 210.86613l62.33069 0l0 62.330704l-62.33069 0z" fill-rule="evenodd"/><path fill="#cfe2f3" d="m1109.9954 210.86613l62.33081 0l0 62.330704l-62.33081 0z" fill-rule="evenodd"/><path stroke="#000000" stroke-width="1.0" stroke-linejoin="round" stroke-linecap="butt" d="m1109.9954 210.86613l62.33081 0l0 62.330704l-62.33081 0z" fill-rule="evenodd"/><path fill="#000000" d="m1136.5121 236.85774l0 10.21875l1.890625 0q0.671875 0 0.953125 0.265625q0.296875 0.265625 0.296875 0.6875q0 0.40625 -0.296875 0.671875q-0.28125 0.25 -0.953125 0.25l-5.640625 0q-0.671875 0 -0.96875 -0.25q-0.28125 -0.265625 -0.28125 -0.6875q0 -0.40625 0.28125 -0.671875q0.296875 -0.265625 0.96875 -0.265625l1.890625 0l0 -7.78125l-1.671875 0.4375q-0.40625 0.109375 -0.609375 0.109375q-0.34375 0 -0.609375 -0.28125q-0.25 -0.28125 -0.25 -0.6875q0 -0.375 0.1875 -0.59375q0.1875 -0.21875 0.796875 -0.375l4.015625 -1.046875zm11.195557 0l0 10.21875l1.890625 0q0.671875 0 0.953125 0.265625q0.296875 0.265625 0.296875 0.6875q0 0.40625 -0.296875 0.671875q-0.28125 0.25 -0.953125 0.25l-5.640625 0q-0.671875 0 -0.96875 -0.25q-0.28125 -0.265625 -0.28125 -0.6875q0 -0.40625 0.28125 -0.671875q0.296875 -0.265625 0.96875 -0.265625l1.890625 0l0 -7.78125l-1.671875 0.4375q-0.40625 0.109375 -0.609375 0.109375q-0.34375 0 -0.609375 -0.28125q-0.25 -0.28125 -0.25 -0.6875q0 -0.375 0.1875 -0.59375q0.1875 -0.21875 0.796875 -0.375l4.015625 -1.046875z" fill-rule="nonzero"/><path fill="#000000" fill-opacity="0.0" d="m46.125984 75.026245l0 135.84251" fill-rule="evenodd"/><path stroke="#000000" stroke-width="1.0" stroke-linejoin="round" stroke-linecap="butt" d="m46.125984 75.026245l0 129.84251" fill-rule="evenodd"/><path fill="#000000" stroke="#000000" stroke-width="1.0" stroke-linecap="butt" d="m44.47425 204.86876l1.6517334 4.538101l1.6517334 -4.538101z" fill-rule="evenodd"/><path fill="#000000" fill-opacity="0.0" d="m411.14108 75.026245l-365.00787 135.84251" fill-rule="evenodd"/><path stroke="#000000" stroke-width="1.0" stroke-linejoin="round" stroke-linecap="butt" d="m411.14108 75.026245l-359.38467 133.74977" fill-rule="evenodd"/><path fill="#000000" stroke="#000000" stroke-width="1.0" stroke-linecap="butt" d="m51.18029 207.22801l-3.6769981 3.1308594l4.829216 -0.034851074z" fill-rule="evenodd"/><path fill="#000000" fill-opacity="0.0" d="m776.1579 75.026245l-730.04724 135.84251" fill-rule="evenodd"/><path stroke="#000000" stroke-width="1.0" stroke-linejoin="round" stroke-linecap="butt" d="m776.1579 75.026245l-724.1485 134.74492" fill-rule="evenodd"/><path fill="#000000" stroke="#000000" stroke-width="1.0" stroke-linecap="butt" d="m51.70726 208.14731l-4.159359 2.4540253l4.7636757 0.7936859z" fill-rule="evenodd"/><path fill="#000000" fill-opacity="0.0" d="m1141.1774 75.026245l-1095.055 135.84251" fill-rule="evenodd"/><path stroke="#000000" stroke-width="1.0" stroke-linejoin="round" stroke-linecap="butt" d="m1141.1774 75.026245l-1089.1007 135.10388" fill-rule="evenodd"/><path fill="#000000" stroke="#000000" stroke-width="1.0" stroke-linecap="butt" d="m51.873283 208.49095l-4.3002396 2.1978455l4.7069206 1.0804901z" fill-rule="evenodd"/></g></svg>