<svg version="1.1" viewBox="0.0 0.0 989.6561679790026 896.5511811023622" fill="none" stroke="none" stroke-linecap="square" stroke-miterlimit="10" xmlns:xlink="http://www.w3.org/1999/xlink" xmlns="http://www.w3.org/2000/svg"><clipPath id="p.0"><path d="m0 0l989.6562 0l0 896.5512l-989.6562 0l0 -896.5512z" clip-rule="nonzero"/></clipPath><g clip-path="url(#p.0)"><path fill="#000000" fill-opacity="0.0" d="m0 0l989.6562 0l0 896.5512l-989.6562 0z" fill-rule="evenodd"/><path fill="#efefef" d="m225.55511 47.007874l37.826782 0l0 32.125984l-37.826782 0z" fill-rule="evenodd"/><path stroke="#000000" stroke-width="1.0" stroke-linejoin="round" stroke-linecap="butt" d="m225.55511 47.007874l37.826782 0l0 32.125984l-37.826782 0z" fill-rule="evenodd"/><path fill="#efefef" d="m225.55511 79.13386l37.826782 0l0 32.125984l-37.826782 0z" fill-rule="evenodd"/><path stroke="#000000" stroke-width="1.0" stroke-linejoin="round" stroke-linecap="butt" d="m225.55511 79.13386l37.826782 0l0 32.125984l-37.826782 0z" fill-rule="evenodd"/><path fill="#efefef" d="m225.55511 111.25984l37.826782 0l0 32.12599l-37.826782 0z" fill-rule="evenodd"/><path stroke="#000000" stroke-width="1.0" stroke-linejoin="round" stroke-linecap="butt" d="m225.55511 111.25984l37.826782 0l0 32.12599l-37.826782 0z" fill-rule="evenodd"/><path fill="#efefef" d="m225.55511 143.38583l37.826782 0l0 32.125977l-37.826782 0z" fill-rule="evenodd"/><path stroke="#000000" stroke-width="1.0" stroke-linejoin="round" stroke-linecap="butt" d="m225.55511 143.38583l37.826782 0l0 32.125977l-37.826782 0z" fill-rule="evenodd"/><path fill="#efefef" d="m382.5761 47.007874l37.826782 0l0 32.125984l-37.826782 0z" fill-rule="evenodd"/><path stroke="#000000" stroke-width="1.0" stroke-linejoin="round" stroke-linecap="butt" d="m382.5761 47.007874l37.826782 0l0 32.125984l-37.826782 0z" fill-rule="evenodd"/><path fill="#efefef" d="m382.5761 79.13386l37.826782 0l0 32.125984l-37.826782 0z" fill-rule="evenodd"/><path stroke="#000000" stroke-width="1.0" stroke-linejoin="round" stroke-linecap="butt" d="m382.5761 79.13386l37.826782 0l0 32.125984l-37.826782 0z" fill-rule="evenodd"/><path fill="#efefef" d="m382.5761 111.25984l37.826782 0l0 32.12599l-37.826782 0z" fill-rule="evenodd"/><path stroke="#000000" stroke-width="1.0" stroke-linejoin="round" stroke-linecap="butt" d="m382.5761 111.25984l37.826782 0l0 32.12599l-37.826782 0z" fill-rule="evenodd"/><path fill="#efefef" d="m382.5761 143.38583l37.826782 0l0 32.125977l-37.826782 0z" fill-rule="evenodd"/><path stroke="#000000" stroke-width="1.0" stroke-linejoin="round" stroke-linecap="butt" d="m382.5761 143.38583l37.826782 0l0 32.125977l-37.826782 0z" fill-rule="evenodd"/><path fill="#efefef" d="m539.5971 47.007874l37.826782 0l0 32.125984l-37.826782 0z" fill-rule="evenodd"/><path stroke="#000000" stroke-width="1.0" stroke-linejoin="round" stroke-linecap="butt" d="m539.5971 47.007874l37.826782 0l0 32.125984l-37.826782 0z" fill-rule="evenodd"/><path fill="#efefef" d="m539.5971 79.13386l37.826782 0l0 32.125984l-37.826782 0z" fill-rule="evenodd"/><path stroke="#000000" stroke-width="1.0" stroke-linejoin="round" stroke-linecap="butt" d="m539.5971 79.13386l37.826782 0l0 32.125984l-37.826782 0z" fill-rule="evenodd"/><path fill="#efefef" d="m539.5971 111.25984l37.826782 0l0 32.12599l-37.826782 0z" fill-rule="evenodd"/><path stroke="#000000" stroke-width="1.0" stroke-linejoin="round" stroke-linecap="butt" d="m539.5971 111.25984l37.826782 0l0 32.12599l-37.826782 0z" fill-rule="evenodd"/><path fill="#efefef" d="m539.5971 143.38583l37.826782 0l0 32.125977l-37.826782 0z" fill-rule="evenodd"/><path stroke="#000000" stroke-width="1.0" stroke-linejoin="round" stroke-linecap="butt" d="m539.5971 143.38583l37.826782 0l0 32.125977l-37.826782 0z" fill-rule="evenodd"/><path fill="#efefef" d="m696.6181 47.007874l37.826782 0l0 32.125984l-37.826782 0z" fill-rule="evenodd"/><path stroke="#000000" stroke-width="1.0" stroke-linejoin="round" stroke-linecap="butt" d="m696.6181 47.007874l37.826782 0l0 32.125984l-37.826782 0z" fill-rule="evenodd"/><path fill="#efefef" d="m696.6181 79.13386l37.826782 0l0 32.125984l-37.826782 0z" fill-rule="evenodd"/><path stroke="#000000" stroke-width="1.0" stroke-linejoin="round" stroke-linecap="butt" d="m696.6181 79.13386l37.826782 0l0 32.125984l-37.826782 0z" fill-rule="evenodd"/><path fill="#efefef" d="m696.6181 111.25984l37.826782 0l0 32.12599l-37.826782 0z" fill-rule="evenodd"/><path stroke="#000000" stroke-width="1.0" stroke-linejoin="round" stroke-linecap="butt" d="m696.6181 111.25984l37.826782 0l0 32.12599l-37.826782 0z" fill-rule="evenodd"/><path fill="#efefef" d="m696.6181 143.38583l37.826782 0l0 32.125977l-37.826782 0z" fill-rule="evenodd"/><path stroke="#000000" stroke-width="1.0" stroke-linejoin="round" stroke-linecap="butt" d="m696.6181 143.38583l37.826782 0l0 32.125977l-37.826782 0z" fill-rule="evenodd"/><path fill="#cfe2f3" d="m225.55511 47.007874l37.826782 0l0 16.062992l-37.826782 0z" fill-rule="evenodd"/><path stroke="#000000" stroke-width="1.0" stroke-linejoin="round" stroke-linecap="butt" d="m225.55511 47.007874l37.826782 0l0 16.062992l-37.826782 0z" fill-rule="evenodd"/><path fill="#000000" fill-opacity="0.0" d="m225.55511 55.03937l-29.007874 0" fill-rule="evenodd"/><path stroke="#000000" stroke-width="1.0" stroke-linejoin="round" stroke-linecap="butt" d="m225.55511 55.03937l-23.007874 0" fill-rule="evenodd"/><path fill="#000000" stroke="#000000" stroke-width="1.0" stroke-linecap="butt" d="m202.54724 53.387638l-4.538101 1.6517334l4.538101 1.6517296z" fill-rule="evenodd"/><path fill="#d9ead3" d="m382.5761 79.13386l37.826782 0l0 16.062996l-37.826782 0z" fill-rule="evenodd"/><path stroke="#000000" stroke-width="1.0" stroke-linejoin="round" stroke-linecap="butt" d="m382.5761 79.13386l37.826782 0l0 16.062996l-37.826782 0z" fill-rule="evenodd"/><path fill="#000000" fill-opacity="0.0" d="m382.5761 87.16535l-29.007874 0" fill-rule="evenodd"/><path stroke="#000000" stroke-width="1.0" stroke-linejoin="round" stroke-linecap="butt" d="m382.5761 87.16535l-23.007874 0" fill-rule="evenodd"/><path fill="#000000" stroke="#000000" stroke-width="1.0" stroke-linecap="butt" d="m359.56824 85.51362l-4.538086 1.6517334l4.538086 1.6517334z" fill-rule="evenodd"/><path fill="#fff2cc" d="m539.5971 111.25984l37.826782 0l0 16.062996l-37.826782 0z" fill-rule="evenodd"/><path stroke="#000000" stroke-width="1.0" stroke-linejoin="round" stroke-linecap="butt" d="m539.5971 111.25984l37.826782 0l0 16.062996l-37.826782 0z" fill-rule="evenodd"/><path fill="#000000" fill-opacity="0.0" d="m539.5971 119.291336l-29.007874 0" fill-rule="evenodd"/><path stroke="#000000" stroke-width="1.0" stroke-linejoin="round" stroke-linecap="butt" d="m539.5971 119.291336l-23.007874 0" fill-rule="evenodd"/><path fill="#000000" stroke="#000000" stroke-width="1.0" stroke-linecap="butt" d="m516.58923 117.6396l-4.538086 1.6517334l4.538086 1.6517334z" fill-rule="evenodd"/><path fill="#f4cccc" d="m696.6181 143.38583l37.826782 0l0 16.062988l-37.826782 0z" fill-rule="evenodd"/><path stroke="#000000" stroke-width="1.0" stroke-linejoin="round" stroke-linecap="butt" d="m696.6181 143.38583l37.826782 0l0 16.062988l-37.826782 0z" fill-rule="evenodd"/><path fill="#000000" fill-opacity="0.0" d="m696.6181 151.41733l-29.007874 0" fill-rule="evenodd"/><path stroke="#000000" stroke-width="1.0" stroke-linejoin="round" stroke-linecap="butt" d="m696.6181 151.41733l-23.007874 0" fill-rule="evenodd"/><path fill="#000000" stroke="#000000" stroke-width="1.0" stroke-linecap="butt" d="m673.6102 149.7656l-4.538086 1.6517334l4.538086 1.6517334z" fill-rule="evenodd"/><path fill="#cfe2f3" d="m225.55511 63.070866l37.826782 0l0 16.062992l-37.826782 0z" fill-rule="evenodd"/><path stroke="#000000" stroke-width="1.0" stroke-linejoin="round" stroke-linecap="butt" d="m225.55511 63.070866l37.826782 0l0 16.062992l-37.826782 0z" fill-rule="evenodd"/><path fill="#000000" fill-opacity="0.0" d="m263.3819 71.10236l29.007874 0" fill-rule="evenodd"/><path stroke="#000000" stroke-width="1.0" stroke-linejoin="round" stroke-linecap="butt" d="m263.3819 71.10236l23.007874 0" fill-rule="evenodd"/><path fill="#000000" stroke="#000000" stroke-width="1.0" stroke-linecap="butt" d="m286.38977 72.7541l4.538086 -1.6517334l-4.538086 -1.6517334z" fill-rule="evenodd"/><path fill="#d9ead3" d="m382.5761 95.19685l37.826782 0l0 16.062988l-37.826782 0z" fill-rule="evenodd"/><path stroke="#000000" stroke-width="1.0" stroke-linejoin="round" stroke-linecap="butt" d="m382.5761 95.19685l37.826782 0l0 16.062988l-37.826782 0z" fill-rule="evenodd"/><path fill="#000000" fill-opacity="0.0" d="m420.4029 103.22835l29.007874 0" fill-rule="evenodd"/><path stroke="#000000" stroke-width="1.0" stroke-linejoin="round" stroke-linecap="butt" d="m420.4029 103.22835l23.007874 0" fill-rule="evenodd"/><path fill="#000000" stroke="#000000" stroke-width="1.0" stroke-linecap="butt" d="m443.41077 104.88008l4.538086 -1.6517334l-4.538086 -1.6517334z" fill-rule="evenodd"/><path fill="#fff2cc" d="m539.5971 127.32284l37.826782 0l0 16.062996l-37.826782 0z" fill-rule="evenodd"/><path stroke="#000000" stroke-width="1.0" stroke-linejoin="round" stroke-linecap="butt" d="m539.5971 127.32284l37.826782 0l0 16.062996l-37.826782 0z" fill-rule="evenodd"/><path fill="#000000" fill-opacity="0.0" d="m577.4239 135.35432l29.007874 0" fill-rule="evenodd"/><path stroke="#000000" stroke-width="1.0" stroke-linejoin="round" stroke-linecap="butt" d="m577.4239 135.35432l23.007874 0" fill-rule="evenodd"/><path fill="#000000" stroke="#000000" stroke-width="1.0" stroke-linecap="butt" d="m600.43176 137.00606l4.538086 -1.6517334l-4.538086 -1.6517334z" fill-rule="evenodd"/><path fill="#f4cccc" d="m696.6181 159.44882l37.826782 0l0 16.062988l-37.826782 0z" fill-rule="evenodd"/><path stroke="#000000" stroke-width="1.0" stroke-linejoin="round" stroke-linecap="butt" d="m696.6181 159.44882l37.826782 0l0 16.062988l-37.826782 0z" fill-rule="evenodd"/><path fill="#000000" fill-opacity="0.0" d="m734.4449 167.48032l29.007874 0" fill-rule="evenodd"/><path stroke="#000000" stroke-width="1.0" stroke-linejoin="round" stroke-linecap="butt" d="m734.4449 167.48032l23.007874 0" fill-rule="evenodd"/><path fill="#000000" stroke="#000000" stroke-width="1.0" stroke-linecap="butt" d="m757.45276 169.13205l4.538086 -1.6517334l-4.538086 -1.6517334z" fill-rule="evenodd"/><path fill="#efefef" d="m225.5538 207.6378l37.826782 0l0 32.125977l-37.826782 0z" fill-rule="evenodd"/><path stroke="#000000" stroke-width="1.0" stroke-linejoin="round" stroke-linecap="butt" d="m225.5538 207.6378l37.826782 0l0 32.125977l-37.826782 0z" fill-rule="evenodd"/><path fill="#efefef" d="m225.5538 239.76378l37.826782 0l0 32.12599l-37.826782 0z" fill-rule="evenodd"/><path stroke="#000000" stroke-width="1.0" stroke-linejoin="round" stroke-linecap="butt" d="m225.5538 239.76378l37.826782 0l0 32.12599l-37.826782 0z" fill-rule="evenodd"/><path fill="#efefef" d="m225.5538 271.88977l37.826782 0l0 32.125977l-37.826782 0z" fill-rule="evenodd"/><path stroke="#000000" stroke-width="1.0" stroke-linejoin="round" stroke-linecap="butt" d="m225.5538 271.88977l37.826782 0l0 32.125977l-37.826782 0z" fill-rule="evenodd"/><path fill="#efefef" d="m225.5538 304.01575l37.826782 0l0 32.125977l-37.826782 0z" fill-rule="evenodd"/><path stroke="#000000" stroke-width="1.0" stroke-linejoin="round" stroke-linecap="butt" d="m225.5538 304.01575l37.826782 0l0 32.125977l-37.826782 0z" fill-rule="evenodd"/><path fill="#efefef" d="m382.5748 207.6378l37.826782 0l0 32.125977l-37.826782 0z" fill-rule="evenodd"/><path stroke="#000000" stroke-width="1.0" stroke-linejoin="round" stroke-linecap="butt" d="m382.5748 207.6378l37.826782 0l0 32.125977l-37.826782 0z" fill-rule="evenodd"/><path fill="#efefef" d="m382.5748 239.76378l37.826782 0l0 32.12599l-37.826782 0z" fill-rule="evenodd"/><path stroke="#000000" stroke-width="1.0" stroke-linejoin="round" stroke-linecap="butt" d="m382.5748 239.76378l37.826782 0l0 32.12599l-37.826782 0z" fill-rule="evenodd"/><path fill="#efefef" d="m382.5748 271.88977l37.826782 0l0 32.125977l-37.826782 0z" fill-rule="evenodd"/><path stroke="#000000" stroke-width="1.0" stroke-linejoin="round" stroke-linecap="butt" d="m382.5748 271.88977l37.826782 0l0 32.125977l-37.826782 0z" fill-rule="evenodd"/><path fill="#efefef" d="m382.5748 304.01575l37.826782 0l0 32.125977l-37.826782 0z" fill-rule="evenodd"/><path stroke="#000000" stroke-width="1.0" stroke-linejoin="round" stroke-linecap="butt" d="m382.5748 304.01575l37.826782 0l0 32.125977l-37.826782 0z" fill-rule="evenodd"/><path fill="#efefef" d="m539.5958 207.6378l37.82672 0l0 32.125977l-37.82672 0z" fill-rule="evenodd"/><path stroke="#000000" stroke-width="1.0" stroke-linejoin="round" stroke-linecap="butt" d="m539.5958 207.6378l37.82672 0l0 32.125977l-37.82672 0z" fill-rule="evenodd"/><path fill="#efefef" d="m539.5958 239.76378l37.82672 0l0 32.12599l-37.82672 0z" fill-rule="evenodd"/><path stroke="#000000" stroke-width="1.0" stroke-linejoin="round" stroke-linecap="butt" d="m539.5958 239.76378l37.82672 0l0 32.12599l-37.82672 0z" fill-rule="evenodd"/><path fill="#efefef" d="m539.5958 271.88977l37.82672 0l0 32.125977l-37.82672 0z" fill-rule="evenodd"/><path stroke="#000000" stroke-width="1.0" stroke-linejoin="round" stroke-linecap="butt" d="m539.5958 271.88977l37.82672 0l0 32.125977l-37.82672 0z" fill-rule="evenodd"/><path fill="#efefef" d="m539.5958 304.01575l37.82672 0l0 32.125977l-37.82672 0z" fill-rule="evenodd"/><path stroke="#000000" stroke-width="1.0" stroke-linejoin="round" stroke-linecap="butt" d="m539.5958 304.01575l37.82672 0l0 32.125977l-37.82672 0z" fill-rule="evenodd"/><path fill="#efefef" d="m696.6168 207.6378l37.82672 0l0 32.125977l-37.82672 0z" fill-rule="evenodd"/><path stroke="#000000" stroke-width="1.0" stroke-linejoin="round" stroke-linecap="butt" d="m696.6168 207.6378l37.82672 0l0 32.125977l-37.82672 0z" fill-rule="evenodd"/><path fill="#efefef" d="m696.6168 239.76378l37.82672 0l0 32.12599l-37.82672 0z" fill-rule="evenodd"/><path stroke="#000000" stroke-width="1.0" stroke-linejoin="round" stroke-linecap="butt" d="m696.6168 239.76378l37.82672 0l0 32.12599l-37.82672 0z" fill-rule="evenodd"/><path fill="#efefef" d="m696.6168 271.88977l37.82672 0l0 32.125977l-37.82672 0z" fill-rule="evenodd"/><path stroke="#000000" stroke-width="1.0" stroke-linejoin="round" stroke-linecap="butt" d="m696.6168 271.88977l37.82672 0l0 32.125977l-37.82672 0z" fill-rule="evenodd"/><path fill="#efefef" d="m696.6168 304.01575l37.82672 0l0 32.125977l-37.82672 0z" fill-rule="evenodd"/><path stroke="#000000" stroke-width="1.0" stroke-linejoin="round" stroke-linecap="butt" d="m696.6168 304.01575l37.82672 0l0 32.125977l-37.82672 0z" fill-rule="evenodd"/><path fill="#cfe2f3" d="m696.6168 207.6378l37.82672 0l0 16.062988l-37.82672 0z" fill-rule="evenodd"/><path stroke="#000000" stroke-width="1.0" stroke-linejoin="round" stroke-linecap="butt" d="m696.6168 207.6378l37.82672 0l0 16.062988l-37.82672 0z" fill-rule="evenodd"/><path fill="#000000" fill-opacity="0.0" d="m696.6168 215.6693l-29.007874 0" fill-rule="evenodd"/><path stroke="#000000" stroke-width="1.0" stroke-linejoin="round" stroke-linecap="butt" d="m696.6168 215.6693l-23.007874 0" fill-rule="evenodd"/><path fill="#000000" stroke="#000000" stroke-width="1.0" stroke-linecap="butt" d="m673.60895 214.01756l-4.538147 1.6517334l4.538147 1.6517334z" fill-rule="evenodd"/><path fill="#d9ead3" d="m225.5538 239.76378l37.826782 0l0 16.062988l-37.826782 0z" fill-rule="evenodd"/><path stroke="#000000" stroke-width="1.0" stroke-linejoin="round" stroke-linecap="butt" d="m225.5538 239.76378l37.826782 0l0 16.062988l-37.826782 0z" fill-rule="evenodd"/><path fill="#000000" fill-opacity="0.0" d="m225.5538 247.79527l-29.007874 0" fill-rule="evenodd"/><path stroke="#000000" stroke-width="1.0" stroke-linejoin="round" stroke-linecap="butt" d="m225.5538 247.79527l-23.007874 0" fill-rule="evenodd"/><path fill="#000000" stroke="#000000" stroke-width="1.0" stroke-linecap="butt" d="m202.54593 246.14354l-4.538101 1.6517334l4.538101 1.6517334z" fill-rule="evenodd"/><path fill="#fff2cc" d="m382.5748 271.88977l37.826782 0l0 16.062988l-37.826782 0z" fill-rule="evenodd"/><path stroke="#000000" stroke-width="1.0" stroke-linejoin="round" stroke-linecap="butt" d="m382.5748 271.88977l37.826782 0l0 16.062988l-37.826782 0z" fill-rule="evenodd"/><path fill="#000000" fill-opacity="0.0" d="m382.5748 279.92126l-29.007874 0" fill-rule="evenodd"/><path stroke="#000000" stroke-width="1.0" stroke-linejoin="round" stroke-linecap="butt" d="m382.5748 279.92126l-23.007874 0" fill-rule="evenodd"/><path fill="#000000" stroke="#000000" stroke-width="1.0" stroke-linecap="butt" d="m359.56693 278.26953l-4.538086 1.6517334l4.538086 1.6517334z" fill-rule="evenodd"/><path fill="#f4cccc" d="m539.59845 304.01575l37.82672 0l0 16.062988l-37.82672 0z" fill-rule="evenodd"/><path stroke="#000000" stroke-width="1.0" stroke-linejoin="round" stroke-linecap="butt" d="m539.59845 304.01575l37.82672 0l0 16.062988l-37.82672 0z" fill-rule="evenodd"/><path fill="#000000" fill-opacity="0.0" d="m539.59845 312.04724l-29.007904 0" fill-rule="evenodd"/><path stroke="#000000" stroke-width="1.0" stroke-linejoin="round" stroke-linecap="butt" d="m539.59845 312.04724l-23.007874 0" fill-rule="evenodd"/><path fill="#000000" stroke="#000000" stroke-width="1.0" stroke-linecap="butt" d="m516.5906 310.3955l-4.538147 1.6517334l4.538147 1.6517334z" fill-rule="evenodd"/><path fill="#cfe2f3" d="m382.5748 223.70079l37.826782 0l0 16.062988l-37.826782 0z" fill-rule="evenodd"/><path stroke="#000000" stroke-width="1.0" stroke-linejoin="round" stroke-linecap="butt" d="m382.5748 223.70079l37.826782 0l0 16.062988l-37.826782 0z" fill-rule="evenodd"/><path fill="#000000" fill-opacity="0.0" d="m420.40158 231.73228l29.007874 0" fill-rule="evenodd"/><path stroke="#000000" stroke-width="1.0" stroke-linejoin="round" stroke-linecap="butt" d="m420.40158 231.73228l23.007874 0" fill-rule="evenodd"/><path fill="#000000" stroke="#000000" stroke-width="1.0" stroke-linecap="butt" d="m443.40945 233.38402l4.538086 -1.6517334l-4.538086 -1.6517334z" fill-rule="evenodd"/><path fill="#d9ead3" d="m539.5958 255.82677l37.82672 0l0 16.063004l-37.82672 0z" fill-rule="evenodd"/><path stroke="#000000" stroke-width="1.0" stroke-linejoin="round" stroke-linecap="butt" d="m539.5958 255.82677l37.82672 0l0 16.063004l-37.82672 0z" fill-rule="evenodd"/><path fill="#000000" fill-opacity="0.0" d="m577.42255 263.85828l29.007874 0" fill-rule="evenodd"/><path stroke="#000000" stroke-width="1.0" stroke-linejoin="round" stroke-linecap="butt" d="m577.42255 263.85828l23.007874 0" fill-rule="evenodd"/><path fill="#000000" stroke="#000000" stroke-width="1.0" stroke-linecap="butt" d="m600.4304 265.51l4.538147 -1.6517334l-4.538147 -1.6517334z" fill-rule="evenodd"/><path fill="#fff2cc" d="m696.6168 287.95276l37.82672 0l0 16.062988l-37.82672 0z" fill-rule="evenodd"/><path stroke="#000000" stroke-width="1.0" stroke-linejoin="round" stroke-linecap="butt" d="m696.6168 287.95276l37.82672 0l0 16.062988l-37.82672 0z" fill-rule="evenodd"/><path fill="#000000" fill-opacity="0.0" d="m734.44354 295.98425l29.007874 0" fill-rule="evenodd"/><path stroke="#000000" stroke-width="1.0" stroke-linejoin="round" stroke-linecap="butt" d="m734.44354 295.98425l23.007874 0" fill-rule="evenodd"/><path fill="#000000" stroke="#000000" stroke-width="1.0" stroke-linecap="butt" d="m757.4514 297.636l4.538147 -1.6517334l-4.538147 -1.6517334z" fill-rule="evenodd"/><path fill="#f4cccc" d="m225.55643 320.07874l37.826782 0l0 16.062988l-37.826782 0z" fill-rule="evenodd"/><path stroke="#000000" stroke-width="1.0" stroke-linejoin="round" stroke-linecap="butt" d="m225.55643 320.07874l37.826782 0l0 16.062988l-37.826782 0z" fill-rule="evenodd"/><path fill="#000000" fill-opacity="0.0" d="m263.3832 328.11023l29.007874 0" fill-rule="evenodd"/><path stroke="#000000" stroke-width="1.0" stroke-linejoin="round" stroke-linecap="butt" d="m263.3832 328.11023l23.007874 0" fill-rule="evenodd"/><path fill="#000000" stroke="#000000" stroke-width="1.0" stroke-linecap="butt" d="m286.39108 329.76196l4.538086 -1.6517334l-4.538086 -1.6517334z" fill-rule="evenodd"/><path fill="#efefef" d="m225.55511 368.26773l37.826782 0l0 32.125977l-37.826782 0z" fill-rule="evenodd"/><path stroke="#000000" stroke-width="1.0" stroke-linejoin="round" stroke-linecap="butt" d="m225.55511 368.26773l37.826782 0l0 32.125977l-37.826782 0z" fill-rule="evenodd"/><path fill="#efefef" d="m225.55511 400.3937l37.826782 0l0 32.125977l-37.826782 0z" fill-rule="evenodd"/><path stroke="#000000" stroke-width="1.0" stroke-linejoin="round" stroke-linecap="butt" d="m225.55511 400.3937l37.826782 0l0 32.125977l-37.826782 0z" fill-rule="evenodd"/><path fill="#efefef" d="m225.55511 432.51968l37.826782 0l0 32.125977l-37.826782 0z" fill-rule="evenodd"/><path stroke="#000000" stroke-width="1.0" stroke-linejoin="round" stroke-linecap="butt" d="m225.55511 432.51968l37.826782 0l0 32.125977l-37.826782 0z" fill-rule="evenodd"/><path fill="#efefef" d="m225.55511 464.64566l37.826782 0l0 32.126007l-37.826782 0z" fill-rule="evenodd"/><path stroke="#000000" stroke-width="1.0" stroke-linejoin="round" stroke-linecap="butt" d="m225.55511 464.64566l37.826782 0l0 32.126007l-37.826782 0z" fill-rule="evenodd"/><path fill="#efefef" d="m382.5761 368.26773l37.826782 0l0 32.125977l-37.826782 0z" fill-rule="evenodd"/><path stroke="#000000" stroke-width="1.0" stroke-linejoin="round" stroke-linecap="butt" d="m382.5761 368.26773l37.826782 0l0 32.125977l-37.826782 0z" fill-rule="evenodd"/><path fill="#efefef" d="m382.5761 400.3937l37.826782 0l0 32.125977l-37.826782 0z" fill-rule="evenodd"/><path stroke="#000000" stroke-width="1.0" stroke-linejoin="round" stroke-linecap="butt" d="m382.5761 400.3937l37.826782 0l0 32.125977l-37.826782 0z" fill-rule="evenodd"/><path fill="#efefef" d="m382.5761 432.51968l37.826782 0l0 32.125977l-37.826782 0z" fill-rule="evenodd"/><path stroke="#000000" stroke-width="1.0" stroke-linejoin="round" stroke-linecap="butt" d="m382.5761 432.51968l37.826782 0l0 32.125977l-37.826782 0z" fill-rule="evenodd"/><path fill="#efefef" d="m382.5761 464.64566l37.826782 0l0 32.126007l-37.826782 0z" fill-rule="evenodd"/><path stroke="#000000" stroke-width="1.0" stroke-linejoin="round" stroke-linecap="butt" d="m382.5761 464.64566l37.826782 0l0 32.126007l-37.826782 0z" fill-rule="evenodd"/><path fill="#efefef" d="m539.5971 368.26773l37.826782 0l0 32.125977l-37.826782 0z" fill-rule="evenodd"/><path stroke="#000000" stroke-width="1.0" stroke-linejoin="round" stroke-linecap="butt" d="m539.5971 368.26773l37.826782 0l0 32.125977l-37.826782 0z" fill-rule="evenodd"/><path fill="#efefef" d="m539.5971 400.3937l37.826782 0l0 32.125977l-37.826782 0z" fill-rule="evenodd"/><path stroke="#000000" stroke-width="1.0" stroke-linejoin="round" stroke-linecap="butt" d="m539.5971 400.3937l37.826782 0l0 32.125977l-37.826782 0z" fill-rule="evenodd"/><path fill="#efefef" d="m539.5971 432.51968l37.826782 0l0 32.125977l-37.826782 0z" fill-rule="evenodd"/><path stroke="#000000" stroke-width="1.0" stroke-linejoin="round" stroke-linecap="butt" d="m539.5971 432.51968l37.826782 0l0 32.125977l-37.826782 0z" fill-rule="evenodd"/><path fill="#efefef" d="m539.5971 464.64566l37.826782 0l0 32.126007l-37.826782 0z" fill-rule="evenodd"/><path stroke="#000000" stroke-width="1.0" stroke-linejoin="round" stroke-linecap="butt" d="m539.5971 464.64566l37.826782 0l0 32.126007l-37.826782 0z" fill-rule="evenodd"/><path fill="#efefef" d="m696.6181 368.26773l37.826782 0l0 32.125977l-37.826782 0z" fill-rule="evenodd"/><path stroke="#000000" stroke-width="1.0" stroke-linejoin="round" stroke-linecap="butt" d="m696.6181 368.26773l37.826782 0l0 32.125977l-37.826782 0z" fill-rule="evenodd"/><path fill="#efefef" d="m696.6181 400.3937l37.826782 0l0 32.125977l-37.826782 0z" fill-rule="evenodd"/><path stroke="#000000" stroke-width="1.0" stroke-linejoin="round" stroke-linecap="butt" d="m696.6181 400.3937l37.826782 0l0 32.125977l-37.826782 0z" fill-rule="evenodd"/><path fill="#efefef" d="m696.6181 432.51968l37.826782 0l0 32.125977l-37.826782 0z" fill-rule="evenodd"/><path stroke="#000000" stroke-width="1.0" stroke-linejoin="round" stroke-linecap="butt" d="m696.6181 432.51968l37.826782 0l0 32.125977l-37.826782 0z" fill-rule="evenodd"/><path fill="#efefef" d="m696.6181 464.64566l37.826782 0l0 32.126007l-37.826782 0z" fill-rule="evenodd"/><path stroke="#000000" stroke-width="1.0" stroke-linejoin="round" stroke-linecap="butt" d="m696.6181 464.64566l37.826782 0l0 32.126007l-37.826782 0z" fill-rule="evenodd"/><path fill="#cfe2f3" d="m539.5971 368.26773l37.826782 0l0 16.062988l-37.826782 0z" fill-rule="evenodd"/><path stroke="#000000" stroke-width="1.0" stroke-linejoin="round" stroke-linecap="butt" d="m539.5971 368.26773l37.826782 0l0 16.062988l-37.826782 0z" fill-rule="evenodd"/><path fill="#000000" fill-opacity="0.0" d="m539.5971 376.29922l-29.007874 0" fill-rule="evenodd"/><path stroke="#000000" stroke-width="1.0" stroke-linejoin="round" stroke-linecap="butt" d="m539.5971 376.29922l-23.007874 0" fill-rule="evenodd"/><path fill="#000000" stroke="#000000" stroke-width="1.0" stroke-linecap="butt" d="m516.58923 374.6475l-4.538086 1.6517334l4.538086 1.6517334z" fill-rule="evenodd"/><path fill="#d9ead3" d="m696.6155 400.3937l37.826782 0l0 16.062988l-37.826782 0z" fill-rule="evenodd"/><path stroke="#000000" stroke-width="1.0" stroke-linejoin="round" stroke-linecap="butt" d="m696.6155 400.3937l37.826782 0l0 16.062988l-37.826782 0z" fill-rule="evenodd"/><path fill="#000000" fill-opacity="0.0" d="m696.6155 408.4252l-29.007874 0" fill-rule="evenodd"/><path stroke="#000000" stroke-width="1.0" stroke-linejoin="round" stroke-linecap="butt" d="m696.6155 408.4252l-23.007874 0" fill-rule="evenodd"/><path fill="#000000" stroke="#000000" stroke-width="1.0" stroke-linecap="butt" d="m673.6076 406.77347l-4.538086 1.6517334l4.538086 1.6517334z" fill-rule="evenodd"/><path fill="#fff2cc" d="m225.55511 432.51968l37.826782 0l0 16.062988l-37.826782 0z" fill-rule="evenodd"/><path stroke="#000000" stroke-width="1.0" stroke-linejoin="round" stroke-linecap="butt" d="m225.55511 432.51968l37.826782 0l0 16.062988l-37.826782 0z" fill-rule="evenodd"/><path fill="#000000" fill-opacity="0.0" d="m225.55511 440.55118l-29.007874 0" fill-rule="evenodd"/><path stroke="#000000" stroke-width="1.0" stroke-linejoin="round" stroke-linecap="butt" d="m225.55511 440.55118l-23.007874 0" fill-rule="evenodd"/><path fill="#000000" stroke="#000000" stroke-width="1.0" stroke-linecap="butt" d="m202.54724 438.89944l-4.538101 1.6517334l4.538101 1.6517334z" fill-rule="evenodd"/><path fill="#f4cccc" d="m382.5761 464.64566l37.826782 0l0 16.062988l-37.826782 0z" fill-rule="evenodd"/><path stroke="#000000" stroke-width="1.0" stroke-linejoin="round" stroke-linecap="butt" d="m382.5761 464.64566l37.826782 0l0 16.062988l-37.826782 0z" fill-rule="evenodd"/><path fill="#000000" fill-opacity="0.0" d="m382.5761 472.67715l-29.007874 0" fill-rule="evenodd"/><path stroke="#000000" stroke-width="1.0" stroke-linejoin="round" stroke-linecap="butt" d="m382.5761 472.67715l-23.007874 0" fill-rule="evenodd"/><path fill="#000000" stroke="#000000" stroke-width="1.0" stroke-linecap="butt" d="m359.56824 471.02542l-4.538086 1.6517334l4.538086 1.6517334z" fill-rule="evenodd"/><path fill="#cfe2f3" d="m539.5971 384.33072l37.826782 0l0 16.062988l-37.826782 0z" fill-rule="evenodd"/><path stroke="#000000" stroke-width="1.0" stroke-linejoin="round" stroke-linecap="butt" d="m539.5971 384.33072l37.826782 0l0 16.062988l-37.826782 0z" fill-rule="evenodd"/><path fill="#000000" fill-opacity="0.0" d="m577.4239 392.3622l29.007874 0" fill-rule="evenodd"/><path stroke="#000000" stroke-width="1.0" stroke-linejoin="round" stroke-linecap="butt" d="m577.4239 392.3622l23.007874 0" fill-rule="evenodd"/><path fill="#000000" stroke="#000000" stroke-width="1.0" stroke-linecap="butt" d="m600.43176 394.01395l4.538086 -1.6517334l-4.538086 -1.6517334z" fill-rule="evenodd"/><path fill="#d9ead3" d="m696.6181 416.4567l37.826782 0l0 16.062988l-37.826782 0z" fill-rule="evenodd"/><path stroke="#000000" stroke-width="1.0" stroke-linejoin="round" stroke-linecap="butt" d="m696.6181 416.4567l37.826782 0l0 16.062988l-37.826782 0z" fill-rule="evenodd"/><path fill="#000000" fill-opacity="0.0" d="m734.4449 424.4882l29.007874 0" fill-rule="evenodd"/><path stroke="#000000" stroke-width="1.0" stroke-linejoin="round" stroke-linecap="butt" d="m734.4449 424.4882l23.007874 0" fill-rule="evenodd"/><path fill="#000000" stroke="#000000" stroke-width="1.0" stroke-linecap="butt" d="m757.45276 426.13992l4.538086 -1.6517334l-4.538086 -1.6517334z" fill-rule="evenodd"/><path fill="#fff2cc" d="m225.55511 448.58267l37.826782 0l0 16.062988l-37.826782 0z" fill-rule="evenodd"/><path stroke="#000000" stroke-width="1.0" stroke-linejoin="round" stroke-linecap="butt" d="m225.55511 448.58267l37.826782 0l0 16.062988l-37.826782 0z" fill-rule="evenodd"/><path fill="#000000" fill-opacity="0.0" d="m263.3819 456.61417l29.007874 0" fill-rule="evenodd"/><path stroke="#000000" stroke-width="1.0" stroke-linejoin="round" stroke-linecap="butt" d="m263.3819 456.61417l23.007874 0" fill-rule="evenodd"/><path fill="#000000" stroke="#000000" stroke-width="1.0" stroke-linecap="butt" d="m286.38977 458.2659l4.538086 -1.6517334l-4.538086 -1.6517334z" fill-rule="evenodd"/><path fill="#f4cccc" d="m382.5761 480.70865l37.826782 0l0 16.063019l-37.826782 0z" fill-rule="evenodd"/><path stroke="#000000" stroke-width="1.0" stroke-linejoin="round" stroke-linecap="butt" d="m382.5761 480.70865l37.826782 0l0 16.063019l-37.826782 0z" fill-rule="evenodd"/><path fill="#000000" fill-opacity="0.0" d="m420.4029 488.74014l29.007874 0" fill-rule="evenodd"/><path stroke="#000000" stroke-width="1.0" stroke-linejoin="round" stroke-linecap="butt" d="m420.4029 488.74014l23.007874 0" fill-rule="evenodd"/><path fill="#000000" stroke="#000000" stroke-width="1.0" stroke-linecap="butt" d="m443.41077 490.39188l4.538086 -1.6517334l-4.538086 -1.6517029z" fill-rule="evenodd"/><path fill="#efefef" d="m225.5538 528.89764l37.826782 0l0 32.125977l-37.826782 0z" fill-rule="evenodd"/><path stroke="#000000" stroke-width="1.0" stroke-linejoin="round" stroke-linecap="butt" d="m225.5538 528.89764l37.826782 0l0 32.125977l-37.826782 0z" fill-rule="evenodd"/><path fill="#efefef" d="m225.5538 561.0236l37.826782 0l0 32.125977l-37.826782 0z" fill-rule="evenodd"/><path stroke="#000000" stroke-width="1.0" stroke-linejoin="round" stroke-linecap="butt" d="m225.5538 561.0236l37.826782 0l0 32.125977l-37.826782 0z" fill-rule="evenodd"/><path fill="#efefef" d="m225.5538 593.1496l37.826782 0l0 32.125977l-37.826782 0z" fill-rule="evenodd"/><path stroke="#000000" stroke-width="1.0" stroke-linejoin="round" stroke-linecap="butt" d="m225.5538 593.1496l37.826782 0l0 32.125977l-37.826782 0z" fill-rule="evenodd"/><path fill="#efefef" d="m225.5538 625.2756l37.826782 0l0 32.125977l-37.826782 0z" fill-rule="evenodd"/><path stroke="#000000" stroke-width="1.0" stroke-linejoin="round" stroke-linecap="butt" d="m225.5538 625.2756l37.826782 0l0 32.125977l-37.826782 0z" fill-rule="evenodd"/><path fill="#efefef" d="m382.5748 528.89764l37.826782 0l0 32.125977l-37.826782 0z" fill-rule="evenodd"/><path stroke="#000000" stroke-width="1.0" stroke-linejoin="round" stroke-linecap="butt" d="m382.5748 528.89764l37.826782 0l0 32.125977l-37.826782 0z" fill-rule="evenodd"/><path fill="#efefef" d="m382.5748 561.0236l37.826782 0l0 32.125977l-37.826782 0z" fill-rule="evenodd"/><path stroke="#000000" stroke-width="1.0" stroke-linejoin="round" stroke-linecap="butt" d="m382.5748 561.0236l37.826782 0l0 32.125977l-37.826782 0z" fill-rule="evenodd"/><path fill="#efefef" d="m382.5748 593.1496l37.826782 0l0 32.125977l-37.826782 0z" fill-rule="evenodd"/><path stroke="#000000" stroke-width="1.0" stroke-linejoin="round" stroke-linecap="butt" d="m382.5748 593.1496l37.826782 0l0 32.125977l-37.826782 0z" fill-rule="evenodd"/><path fill="#efefef" d="m382.5748 625.2756l37.826782 0l0 32.125977l-37.826782 0z" fill-rule="evenodd"/><path stroke="#000000" stroke-width="1.0" stroke-linejoin="round" stroke-linecap="butt" d="m382.5748 625.2756l37.826782 0l0 32.125977l-37.826782 0z" fill-rule="evenodd"/><path fill="#efefef" d="m539.5958 528.89764l37.82672 0l0 32.125977l-37.82672 0z" fill-rule="evenodd"/><path stroke="#000000" stroke-width="1.0" stroke-linejoin="round" stroke-linecap="butt" d="m539.5958 528.89764l37.82672 0l0 32.125977l-37.82672 0z" fill-rule="evenodd"/><path fill="#efefef" d="m539.5958 561.0236l37.82672 0l0 32.125977l-37.82672 0z" fill-rule="evenodd"/><path stroke="#000000" stroke-width="1.0" stroke-linejoin="round" stroke-linecap="butt" d="m539.5958 561.0236l37.82672 0l0 32.125977l-37.82672 0z" fill-rule="evenodd"/><path fill="#efefef" d="m539.5958 593.1496l37.82672 0l0 32.125977l-37.82672 0z" fill-rule="evenodd"/><path stroke="#000000" stroke-width="1.0" stroke-linejoin="round" stroke-linecap="butt" d="m539.5958 593.1496l37.82672 0l0 32.125977l-37.82672 0z" fill-rule="evenodd"/><path fill="#efefef" d="m539.5958 625.2756l37.82672 0l0 32.125977l-37.82672 0z" fill-rule="evenodd"/><path stroke="#000000" stroke-width="1.0" stroke-linejoin="round" stroke-linecap="butt" d="m539.5958 625.2756l37.82672 0l0 32.125977l-37.82672 0z" fill-rule="evenodd"/><path fill="#efefef" d="m696.6168 528.89764l37.82672 0l0 32.125977l-37.82672 0z" fill-rule="evenodd"/><path stroke="#000000" stroke-width="1.0" stroke-linejoin="round" stroke-linecap="butt" d="m696.6168 528.89764l37.82672 0l0 32.125977l-37.82672 0z" fill-rule="evenodd"/><path fill="#efefef" d="m696.6168 561.0236l37.82672 0l0 32.125977l-37.82672 0z" fill-rule="evenodd"/><path stroke="#000000" stroke-width="1.0" stroke-linejoin="round" stroke-linecap="butt" d="m696.6168 561.0236l37.82672 0l0 32.125977l-37.82672 0z" fill-rule="evenodd"/><path fill="#efefef" d="m696.6168 593.1496l37.82672 0l0 32.125977l-37.82672 0z" fill-rule="evenodd"/><path stroke="#000000" stroke-width="1.0" stroke-linejoin="round" stroke-linecap="butt" d="m696.6168 593.1496l37.82672 0l0 32.125977l-37.82672 0z" fill-rule="evenodd"/><path fill="#efefef" d="m696.6168 625.2756l37.82672 0l0 32.125977l-37.82672 0z" fill-rule="evenodd"/><path stroke="#000000" stroke-width="1.0" stroke-linejoin="round" stroke-linecap="butt" d="m696.6168 625.2756l37.82672 0l0 32.125977l-37.82672 0z" fill-rule="evenodd"/><path fill="#cfe2f3" d="m382.5748 528.89764l37.826782 0l0 16.062988l-37.826782 0z" fill-rule="evenodd"/><path stroke="#000000" stroke-width="1.0" stroke-linejoin="round" stroke-linecap="butt" d="m382.5748 528.89764l37.826782 0l0 16.062988l-37.826782 0z" fill-rule="evenodd"/><path fill="#000000" fill-opacity="0.0" d="m382.5748 536.92914l-29.007874 0" fill-rule="evenodd"/><path stroke="#000000" stroke-width="1.0" stroke-linejoin="round" stroke-linecap="butt" d="m382.5748 536.92914l-23.007874 0" fill-rule="evenodd"/><path fill="#000000" stroke="#000000" stroke-width="1.0" stroke-linecap="butt" d="m359.56693 535.2774l-4.538086 1.6517334l4.538086 1.6517334z" fill-rule="evenodd"/><path fill="#d9ead3" d="m539.59845 561.0236l37.82672 0l0 16.062988l-37.82672 0z" fill-rule="evenodd"/><path stroke="#000000" stroke-width="1.0" stroke-linejoin="round" stroke-linecap="butt" d="m539.59845 561.0236l37.82672 0l0 16.062988l-37.82672 0z" fill-rule="evenodd"/><path fill="#000000" fill-opacity="0.0" d="m539.59845 569.0551l-29.007904 0" fill-rule="evenodd"/><path stroke="#000000" stroke-width="1.0" stroke-linejoin="round" stroke-linecap="butt" d="m539.59845 569.0551l-23.007874 0" fill-rule="evenodd"/><path fill="#000000" stroke="#000000" stroke-width="1.0" stroke-linecap="butt" d="m516.5906 567.4034l-4.538147 1.6517334l4.538147 1.6517334z" fill-rule="evenodd"/><path fill="#fff2cc" d="m696.61945 593.1496l37.82672 0l0 16.062988l-37.82672 0z" fill-rule="evenodd"/><path stroke="#000000" stroke-width="1.0" stroke-linejoin="round" stroke-linecap="butt" d="m696.61945 593.1496l37.82672 0l0 16.062988l-37.82672 0z" fill-rule="evenodd"/><path fill="#000000" fill-opacity="0.0" d="m696.61945 601.1811l-29.007874 0" fill-rule="evenodd"/><path stroke="#000000" stroke-width="1.0" stroke-linejoin="round" stroke-linecap="butt" d="m696.61945 601.1811l-23.007874 0" fill-rule="evenodd"/><path fill="#000000" stroke="#000000" stroke-width="1.0" stroke-linecap="butt" d="m673.6116 599.52936l-4.538147 1.6517334l4.538147 1.6517334z" fill-rule="evenodd"/><path fill="#f4cccc" d="m225.5538 625.2756l37.826782 0l0 16.062988l-37.826782 0z" fill-rule="evenodd"/><path stroke="#000000" stroke-width="1.0" stroke-linejoin="round" stroke-linecap="butt" d="m225.5538 625.2756l37.826782 0l0 16.062988l-37.826782 0z" fill-rule="evenodd"/><path fill="#000000" fill-opacity="0.0" d="m225.5538 633.30707l-29.007874 0" fill-rule="evenodd"/><path stroke="#000000" stroke-width="1.0" stroke-linejoin="round" stroke-linecap="butt" d="m225.5538 633.30707l-23.007874 0" fill-rule="evenodd"/><path fill="#000000" stroke="#000000" stroke-width="1.0" stroke-linecap="butt" d="m202.54593 631.65533l-4.538101 1.6517334l4.538101 1.6517334z" fill-rule="evenodd"/><path fill="#cfe2f3" d="m696.6168 544.96063l37.82672 0l0 16.062988l-37.82672 0z" fill-rule="evenodd"/><path stroke="#000000" stroke-width="1.0" stroke-linejoin="round" stroke-linecap="butt" d="m696.6168 544.96063l37.82672 0l0 16.062988l-37.82672 0z" fill-rule="evenodd"/><path fill="#000000" fill-opacity="0.0" d="m734.44354 552.9921l29.007874 0" fill-rule="evenodd"/><path stroke="#000000" stroke-width="1.0" stroke-linejoin="round" stroke-linecap="butt" d="m734.44354 552.9921l23.007874 0" fill-rule="evenodd"/><path fill="#000000" stroke="#000000" stroke-width="1.0" stroke-linecap="butt" d="m757.4514 554.64386l4.538147 -1.6517334l-4.538147 -1.6517334z" fill-rule="evenodd"/><path fill="#d9ead3" d="m225.55643 577.0866l37.826782 0l0 16.062988l-37.826782 0z" fill-rule="evenodd"/><path stroke="#000000" stroke-width="1.0" stroke-linejoin="round" stroke-linecap="butt" d="m225.55643 577.0866l37.826782 0l0 16.062988l-37.826782 0z" fill-rule="evenodd"/><path fill="#000000" fill-opacity="0.0" d="m263.3832 585.1181l29.007874 0" fill-rule="evenodd"/><path stroke="#000000" stroke-width="1.0" stroke-linejoin="round" stroke-linecap="butt" d="m263.3832 585.1181l23.007874 0" fill-rule="evenodd"/><path fill="#000000" stroke="#000000" stroke-width="1.0" stroke-linecap="butt" d="m286.39108 586.76984l4.538086 -1.6517334l-4.538086 -1.6517334z" fill-rule="evenodd"/><path fill="#fff2cc" d="m382.57217 609.2126l37.826782 0l0 16.062988l-37.826782 0z" fill-rule="evenodd"/><path stroke="#000000" stroke-width="1.0" stroke-linejoin="round" stroke-linecap="butt" d="m382.57217 609.2126l37.826782 0l0 16.062988l-37.826782 0z" fill-rule="evenodd"/><path fill="#000000" fill-opacity="0.0" d="m420.39896 617.2441l29.007874 0" fill-rule="evenodd"/><path stroke="#000000" stroke-width="1.0" stroke-linejoin="round" stroke-linecap="butt" d="m420.39896 617.2441l23.007874 0" fill-rule="evenodd"/><path fill="#000000" stroke="#000000" stroke-width="1.0" stroke-linecap="butt" d="m443.40683 618.8958l4.538086 -1.6517334l-4.538086 -1.6517334z" fill-rule="evenodd"/><path fill="#f4cccc" d="m539.5958 641.33856l37.82672 0l0 16.062988l-37.82672 0z" fill-rule="evenodd"/><path stroke="#000000" stroke-width="1.0" stroke-linejoin="round" stroke-linecap="butt" d="m539.5958 641.33856l37.82672 0l0 16.062988l-37.82672 0z" fill-rule="evenodd"/><path fill="#000000" fill-opacity="0.0" d="m577.42255 649.37006l29.007874 0" fill-rule="evenodd"/><path stroke="#000000" stroke-width="1.0" stroke-linejoin="round" stroke-linecap="butt" d="m577.42255 649.37006l23.007874 0" fill-rule="evenodd"/><path fill="#000000" stroke="#000000" stroke-width="1.0" stroke-linecap="butt" d="m600.4304 651.0218l4.538147 -1.6517334l-4.538147 -1.6517334z" fill-rule="evenodd"/><path fill="#efefef" d="m225.55511 705.5906l37.826782 0l0 32.125977l-37.826782 0z" fill-rule="evenodd"/><path stroke="#000000" stroke-width="1.0" stroke-linejoin="round" stroke-linecap="butt" d="m225.55511 705.5906l37.826782 0l0 32.125977l-37.826782 0z" fill-rule="evenodd"/><path fill="#efefef" d="m225.55511 737.71655l37.826782 0l0 32.125977l-37.826782 0z" fill-rule="evenodd"/><path stroke="#000000" stroke-width="1.0" stroke-linejoin="round" stroke-linecap="butt" d="m225.55511 737.71655l37.826782 0l0 32.125977l-37.826782 0z" fill-rule="evenodd"/><path fill="#efefef" d="m225.55511 769.8425l37.826782 0l0 32.125977l-37.826782 0z" fill-rule="evenodd"/><path stroke="#000000" stroke-width="1.0" stroke-linejoin="round" stroke-linecap="butt" d="m225.55511 769.8425l37.826782 0l0 32.125977l-37.826782 0z" fill-rule="evenodd"/><path fill="#efefef" d="m225.55511 801.9685l37.826782 0l0 32.125977l-37.826782 0z" fill-rule="evenodd"/><path stroke="#000000" stroke-width="1.0" stroke-linejoin="round" stroke-linecap="butt" d="m225.55511 801.9685l37.826782 0l0 32.125977l-37.826782 0z" fill-rule="evenodd"/><path fill="#efefef" d="m382.5761 705.5906l37.826782 0l0 32.125977l-37.826782 0z" fill-rule="evenodd"/><path stroke="#000000" stroke-width="1.0" stroke-linejoin="round" stroke-linecap="butt" d="m382.5761 705.5906l37.826782 0l0 32.125977l-37.826782 0z" fill-rule="evenodd"/><path fill="#efefef" d="m382.5761 737.71655l37.826782 0l0 32.125977l-37.826782 0z" fill-rule="evenodd"/><path stroke="#000000" stroke-width="1.0" stroke-linejoin="round" stroke-linecap="butt" d="m382.5761 737.71655l37.826782 0l0 32.125977l-37.826782 0z" fill-rule="evenodd"/><path fill="#efefef" d="m382.5761 769.8425l37.826782 0l0 32.125977l-37.826782 0z" fill-rule="evenodd"/><path stroke="#000000" stroke-width="1.0" stroke-linejoin="round" stroke-linecap="butt" d="m382.5761 769.8425l37.826782 0l0 32.125977l-37.826782 0z" fill-rule="evenodd"/><path fill="#efefef" d="m382.5761 801.9685l37.826782 0l0 32.125977l-37.826782 0z" fill-rule="evenodd"/><path stroke="#000000" stroke-width="1.0" stroke-linejoin="round" stroke-linecap="butt" d="m382.5761 801.9685l37.826782 0l0 32.125977l-37.826782 0z" fill-rule="evenodd"/><path fill="#efefef" d="m539.5971 705.5906l37.826782 0l0 32.125977l-37.826782 0z" fill-rule="evenodd"/><path stroke="#000000" stroke-width="1.0" stroke-linejoin="round" stroke-linecap="butt" d="m539.5971 705.5906l37.826782 0l0 32.125977l-37.826782 0z" fill-rule="evenodd"/><path fill="#efefef" d="m539.5971 737.71655l37.826782 0l0 32.125977l-37.826782 0z" fill-rule="evenodd"/><path stroke="#000000" stroke-width="1.0" stroke-linejoin="round" stroke-linecap="butt" d="m539.5971 737.71655l37.826782 0l0 32.125977l-37.826782 0z" fill-rule="evenodd"/><path fill="#efefef" d="m539.5971 769.8425l37.826782 0l0 32.125977l-37.826782 0z" fill-rule="evenodd"/><path stroke="#000000" stroke-width="1.0" stroke-linejoin="round" stroke-linecap="butt" d="m539.5971 769.8425l37.826782 0l0 32.125977l-37.826782 0z" fill-rule="evenodd"/><path fill="#efefef" d="m539.5971 801.9685l37.826782 0l0 32.125977l-37.826782 0z" fill-rule="evenodd"/><path stroke="#000000" stroke-width="1.0" stroke-linejoin="round" stroke-linecap="butt" d="m539.5971 801.9685l37.826782 0l0 32.125977l-37.826782 0z" fill-rule="evenodd"/><path fill="#efefef" d="m696.6181 705.5906l37.826782 0l0 32.125977l-37.826782 0z" fill-rule="evenodd"/><path stroke="#000000" stroke-width="1.0" stroke-linejoin="round" stroke-linecap="butt" d="m696.6181 705.5906l37.826782 0l0 32.125977l-37.826782 0z" fill-rule="evenodd"/><path fill="#efefef" d="m696.6181 737.71655l37.826782 0l0 32.125977l-37.826782 0z" fill-rule="evenodd"/><path stroke="#000000" stroke-width="1.0" stroke-linejoin="round" stroke-linecap="butt" d="m696.6181 737.71655l37.826782 0l0 32.125977l-37.826782 0z" fill-rule="evenodd"/><path fill="#efefef" d="m696.6181 769.8425l37.826782 0l0 32.125977l-37.826782 0z" fill-rule="evenodd"/><path stroke="#000000" stroke-width="1.0" stroke-linejoin="round" stroke-linecap="butt" d="m696.6181 769.8425l37.826782 0l0 32.125977l-37.826782 0z" fill-rule="evenodd"/><path fill="#efefef" d="m696.6181 801.9685l37.826782 0l0 32.125977l-37.826782 0z" fill-rule="evenodd"/><path stroke="#000000" stroke-width="1.0" stroke-linejoin="round" stroke-linecap="butt" d="m696.6181 801.9685l37.826782 0l0 32.125977l-37.826782 0z" fill-rule="evenodd"/><path fill="#3d85c6" d="m225.55511 705.5906l37.826782 0l0 16.062988l-37.826782 0z" fill-rule="evenodd"/><path stroke="#000000" stroke-width="1.0" stroke-linejoin="round" stroke-linecap="butt" d="m225.55511 705.5906l37.826782 0l0 16.062988l-37.826782 0z" fill-rule="evenodd"/><path fill="#6aa84f" d="m382.5761 737.71655l37.826782 0l0 16.062988l-37.826782 0z" fill-rule="evenodd"/><path stroke="#000000" stroke-width="1.0" stroke-linejoin="round" stroke-linecap="butt" d="m382.5761 737.71655l37.826782 0l0 16.062988l-37.826782 0z" fill-rule="evenodd"/><path fill="#f1c232" d="m539.5971 769.8425l37.826782 0l0 16.062988l-37.826782 0z" fill-rule="evenodd"/><path stroke="#000000" stroke-width="1.0" stroke-linejoin="round" stroke-linecap="butt" d="m539.5971 769.8425l37.826782 0l0 16.062988l-37.826782 0z" fill-rule="evenodd"/><path fill="#cc0000" d="m696.6155 801.9685l37.826782 0l0 16.062988l-37.826782 0z" fill-rule="evenodd"/><path stroke="#000000" stroke-width="1.0" stroke-linejoin="round" stroke-linecap="butt" d="m696.6155 801.9685l37.826782 0l0 16.062988l-37.826782 0z" fill-rule="evenodd"/><path fill="#6aa84f" d="m382.5761 753.77954l37.826782 0l0 16.062988l-37.826782 0z" fill-rule="evenodd"/><path stroke="#000000" stroke-width="1.0" stroke-linejoin="round" stroke-linecap="butt" d="m382.5761 753.77954l37.826782 0l0 16.062988l-37.826782 0z" fill-rule="evenodd"/><path fill="#f1c232" d="m539.5971 785.9055l37.826782 0l0 16.062988l-37.826782 0z" fill-rule="evenodd"/><path stroke="#000000" stroke-width="1.0" stroke-linejoin="round" stroke-linecap="butt" d="m539.5971 785.9055l37.826782 0l0 16.062988l-37.826782 0z" fill-rule="evenodd"/><path fill="#3d85c6" d="m225.55249 721.65356l37.826782 0l0 16.062988l-37.826782 0z" fill-rule="evenodd"/><path stroke="#000000" stroke-width="1.0" stroke-linejoin="round" stroke-linecap="butt" d="m225.55249 721.65356l37.826782 0l0 16.062988l-37.826782 0z" fill-rule="evenodd"/><path fill="#cc0000" d="m696.6181 818.0315l37.826782 0l0 16.062988l-37.826782 0z" fill-rule="evenodd"/><path stroke="#000000" stroke-width="1.0" stroke-linejoin="round" stroke-linecap="butt" d="m696.6181 818.0315l37.826782 0l0 16.062988l-37.826782 0z" fill-rule="evenodd"/><path fill="#000000" fill-opacity="0.0" d="m70.44882 250.8819l662.07874 0l0 42.015747l-662.07874 0z" fill-rule="evenodd"/><path fill="#000000" d="m81.1832 277.80188l0 -13.359375l1.765625 0l0 13.359375l-1.765625 0zm8.261429 -1.46875l0.234375 1.453125q-0.6875 0.140625 -1.234375 0.140625q-0.890625 0 -1.390625 -0.28125q-0.484375 -0.28125 -0.6875 -0.734375q-0.203125 -0.46875 -0.203125 -1.9375l0 -5.578125l-1.203125 0l0 -1.265625l1.203125 0l0 -2.390625l1.625 -0.984375l0 3.375l1.65625 0l0 1.265625l-1.65625 0l0 5.671875q0 0.6875 0.078125 0.890625q0.09375 0.203125 0.28125 0.328125q0.203125 0.109375 0.578125 0.109375q0.265625 0 0.71875 -0.0625zm8.230179 -1.640625l1.6875 0.203125q-0.40625 1.484375 -1.484375 2.3125q-1.078125 0.8125 -2.765625 0.8125q-2.125 0 -3.375 -1.296875q-1.234375 -1.3125 -1.234375 -3.671875q0 -2.453125 1.25 -3.796875q1.265625 -1.34375 3.265625 -1.34375q1.9375 0 3.15625 1.328125q1.234375 1.3125 1.234375 3.703125q0 0.15625 0 0.4375l-7.21875 0q0.09375 1.59375 0.90625 2.453125q0.8125 0.84375 2.015625 0.84375q0.90625 0 1.546875 -0.46875q0.640625 -0.484375 1.015625 -1.515625zm-5.390625 -2.65625l5.40625 0q-0.109375 -1.21875 -0.625 -1.828125q-0.78125 -0.953125 -2.03125 -0.953125q-1.125 0 -1.90625 0.765625q-0.765625 0.75 -0.84375 2.015625zm9.125717 5.765625l0 -9.671875l1.46875 0l0 1.46875q0.5625 -1.03125 1.03125 -1.359375q0.484375 -0.328125 1.0625 -0.328125q0.828125 0 1.6875 0.53125l-0.5625 1.515625q-0.609375 -0.359375 -1.203125 -0.359375q-0.546875 0 -0.96875 0.328125q-0.421875 0.328125 -0.609375 0.890625q-0.28125 0.875 -0.28125 1.921875l0 5.0625l-1.625 0zm12.540802 -1.1875q-0.921875 0.765625 -1.765625 1.09375q-0.828125 0.3125 -1.796875 0.3125q-1.59375 0 -2.453125 -0.78125q-0.859375 -0.78125 -0.859375 -1.984375q0 -0.71875 0.328125 -1.296875q0.328125 -0.59375 0.84375 -0.9375q0.53125 -0.359375 1.1875 -0.546875q0.46875 -0.125 1.453125 -0.25q1.984375 -0.234375 2.921875 -0.5625q0.015625 -0.34375 0.015625 -0.421875q0 -1.0 -0.46875 -1.421875q-0.625 -0.546875 -1.875 -0.546875q-1.15625 0 -1.703125 0.40625q-0.546875 0.40625 -0.8125 1.421875l-1.609375 -0.21875q0.21875 -1.015625 0.71875 -1.640625q0.5 -0.640625 1.453125 -0.984375q0.953125 -0.34375 2.1875 -0.34375q1.25 0 2.015625 0.296875q0.78125 0.28125 1.140625 0.734375q0.375 0.4375 0.515625 1.109375q0.078125 0.421875 0.078125 1.515625l0 2.1875q0 2.28125 0.109375 2.890625q0.109375 0.59375 0.40625 1.15625l-1.703125 0q-0.265625 -0.515625 -0.328125 -1.1875zm-0.140625 -3.671875q-0.890625 0.375 -2.671875 0.625q-1.015625 0.140625 -1.4375 0.328125q-0.421875 0.1875 -0.65625 0.53125q-0.21875 0.34375 -0.21875 0.78125q0 0.65625 0.5 1.09375q0.5 0.4375 1.453125 0.4375q0.9375 0 1.671875 -0.40625q0.75 -0.421875 1.09375 -1.140625q0.265625 -0.5625 0.265625 -1.640625l0 -0.609375zm7.781967 3.390625l0.234375 1.453125q-0.6875 0.140625 -1.234375 0.140625q-0.890625 0 -1.390625 -0.28125q-0.484375 -0.28125 -0.6875 -0.734375q-0.203125 -0.46875 -0.203125 -1.9375l0 -5.578125l-1.203125 0l0 -1.265625l1.203125 0l0 -2.390625l1.625 -0.984375l0 3.375l1.65625 0l0 1.265625l-1.65625 0l0 5.671875q0 0.6875 0.078125 0.890625q0.09375 0.203125 0.28125 0.328125q0.203125 0.109375 0.578125 0.109375q0.265625 0 0.71875 -0.0625zm1.6051788 -10.0l0 -1.890625l1.640625 0l0 1.890625l-1.640625 0zm0 11.46875l0 -9.671875l1.640625 0l0 9.671875l-1.640625 0zm3.5354462 -4.84375q0 -2.6875 1.484375 -3.96875q1.25 -1.078125 3.046875 -1.078125q2.0 0 3.265625 1.3125q1.265625 1.296875 1.265625 3.609375q0 1.859375 -0.5625 2.9375q-0.5625 1.0625 -1.640625 1.65625q-1.0625 0.59375 -2.328125 0.59375q-2.03125 0 -3.28125 -1.296875q-1.25 -1.3125 -1.25 -3.765625zm1.6875 0q0 1.859375 0.796875 2.796875q0.8125 0.921875 2.046875 0.921875q1.21875 0 2.03125 -0.921875q0.8125 -0.9375 0.8125 -2.84375q0 -1.796875 -0.8125 -2.71875q-0.8125 -0.921875 -2.03125 -0.921875q-1.234375 0 -2.046875 0.921875q-0.796875 0.90625 -0.796875 2.765625zm9.297592 4.84375l0 -9.671875l1.46875 0l0 1.375q1.0625 -1.59375 3.078125 -1.59375q0.875 0 1.609375 0.3125q0.734375 0.3125 1.09375 0.828125q0.375 0.5 0.515625 1.203125q0.09375 0.453125 0.09375 1.59375l0 5.953125l-1.640625 0l0 -5.890625q0 -1.0 -0.203125 -1.484375q-0.1875 -0.5 -0.671875 -0.796875q-0.484375 -0.296875 -1.140625 -0.296875q-1.046875 0 -1.8125 0.671875q-0.75 0.65625 -0.75 2.515625l0 5.28125l-1.640625 0zm23.715271 -1.578125l0 1.578125l-8.828125 0q-0.015625 -0.59375 0.1875 -1.140625q0.34375 -0.90625 1.078125 -1.78125q0.75 -0.875 2.15625 -2.015625q2.171875 -1.78125 2.9375 -2.828125q0.765625 -1.046875 0.765625 -1.96875q0 -0.984375 -0.703125 -1.640625q-0.6875 -0.671875 -1.8125 -0.671875q-1.1875 0 -1.90625 0.71875q-0.703125 0.703125 -0.703125 1.953125l-1.6875 -0.171875q0.171875 -1.890625 1.296875 -2.875q1.140625 -0.984375 3.03125 -0.984375q1.921875 0 3.046875 1.0625q1.125 1.0625 1.125 2.640625q0 0.796875 -0.328125 1.578125q-0.328125 0.78125 -1.09375 1.640625q-0.75 0.84375 -2.53125 2.34375q-1.46875 1.234375 -1.890625 1.6875q-0.421875 0.4375 -0.6875 0.875l6.546875 0z" fill-rule="nonzero"/><path fill="#000000" fill-opacity="0.0" d="m70.44882 411.5118l662.07874 0l0 42.015747l-662.07874 0z" fill-rule="evenodd"/><path fill="#000000" d="m81.1832 438.43182l0 -13.359375l1.765625 0l0 13.359375l-1.765625 0zm8.261429 -1.46875l0.234375 1.453125q-0.6875 0.140625 -1.234375 0.140625q-0.890625 0 -1.390625 -0.28125q-0.484375 -0.28125 -0.6875 -0.734375q-0.203125 -0.46875 -0.203125 -1.9375l0 -5.578125l-1.203125 0l0 -1.265625l1.203125 0l0 -2.390625l1.625 -0.984375l0 3.375l1.65625 0l0 1.265625l-1.65625 0l0 5.671875q0 0.6875 0.078125 0.890625q0.09375 0.203125 0.28125 0.328125q0.203125 0.109375 0.578125 0.109375q0.265625 0 0.71875 -0.0625zm8.230179 -1.640625l1.6875 0.203125q-0.40625 1.484375 -1.484375 2.3125q-1.078125 0.8125 -2.765625 0.8125q-2.125 0 -3.375 -1.296875q-1.234375 -1.3125 -1.234375 -3.671875q0 -2.453125 1.25 -3.796875q1.265625 -1.34375 3.265625 -1.34375q1.9375 0 3.15625 1.328125q1.234375 1.3125 1.234375 3.703125q0 0.15625 0 0.4375l-7.21875 0q0.09375 1.59375 0.90625 2.453125q0.8125 0.84375 2.015625 0.84375q0.90625 0 1.546875 -0.46875q0.640625 -0.484375 1.015625 -1.515625zm-5.390625 -2.65625l5.40625 0q-0.109375 -1.21875 -0.625 -1.828125q-0.78125 -0.953125 -2.03125 -0.953125q-1.125 0 -1.90625 0.765625q-0.765625 0.75 -0.84375 2.015625zm9.125717 5.765625l0 -9.671875l1.46875 0l0 1.46875q0.5625 -1.03125 1.03125 -1.359375q0.484375 -0.328125 1.0625 -0.328125q0.828125 0 1.6875 0.53125l-0.5625 1.515625q-0.609375 -0.359375 -1.203125 -0.359375q-0.546875 0 -0.96875 0.328125q-0.421875 0.328125 -0.609375 0.890625q-0.28125 0.875 -0.28125 1.921875l0 5.0625l-1.625 0zm12.540802 -1.1875q-0.921875 0.765625 -1.765625 1.09375q-0.828125 0.3125 -1.796875 0.3125q-1.59375 0 -2.453125 -0.78125q-0.859375 -0.78125 -0.859375 -1.984375q0 -0.71875 0.328125 -1.296875q0.328125 -0.59375 0.84375 -0.9375q0.53125 -0.359375 1.1875 -0.546875q0.46875 -0.125 1.453125 -0.25q1.984375 -0.234375 2.921875 -0.5625q0.015625 -0.34375 0.015625 -0.421875q0 -1.0 -0.46875 -1.421875q-0.625 -0.546875 -1.875 -0.546875q-1.15625 0 -1.703125 0.40625q-0.546875 0.40625 -0.8125 1.421875l-1.609375 -0.21875q0.21875 -1.015625 0.71875 -1.640625q0.5 -0.640625 1.453125 -0.984375q0.953125 -0.34375 2.1875 -0.34375q1.25 0 2.015625 0.296875q0.78125 0.28125 1.140625 0.734375q0.375 0.4375 0.515625 1.109375q0.078125 0.421875 0.078125 1.515625l0 2.1875q0 2.28125 0.109375 2.890625q0.109375 0.59375 0.40625 1.15625l-1.703125 0q-0.265625 -0.515625 -0.328125 -1.1875zm-0.140625 -3.671875q-0.890625 0.375 -2.671875 0.625q-1.015625 0.140625 -1.4375 0.328125q-0.421875 0.1875 -0.65625 0.53125q-0.21875 0.34375 -0.21875 0.78125q0 0.65625 0.5 1.09375q0.5 0.4375 1.453125 0.4375q0.9375 0 1.671875 -0.40625q0.75 -0.421875 1.09375 -1.140625q0.265625 -0.5625 0.265625 -1.640625l0 -0.609375zm7.781967 3.390625l0.234375 1.453125q-0.6875 0.140625 -1.234375 0.140625q-0.890625 0 -1.390625 -0.28125q-0.484375 -0.28125 -0.6875 -0.734375q-0.203125 -0.46875 -0.203125 -1.9375l0 -5.578125l-1.203125 0l0 -1.265625l1.203125 0l0 -2.390625l1.625 -0.984375l0 3.375l1.65625 0l0 1.265625l-1.65625 0l0 5.671875q0 0.6875 0.078125 0.890625q0.09375 0.203125 0.28125 0.328125q0.203125 0.109375 0.578125 0.109375q0.265625 0 0.71875 -0.0625zm1.6051788 -10.0l0 -1.890625l1.640625 0l0 1.890625l-1.640625 0zm0 11.46875l0 -9.671875l1.640625 0l0 9.671875l-1.640625 0zm3.5354462 -4.84375q0 -2.6875 1.484375 -3.96875q1.25 -1.078125 3.046875 -1.078125q2.0 0 3.265625 1.3125q1.265625 1.296875 1.265625 3.609375q0 1.859375 -0.5625 2.9375q-0.5625 1.0625 -1.640625 1.65625q-1.0625 0.59375 -2.328125 0.59375q-2.03125 0 -3.28125 -1.296875q-1.25 -1.3125 -1.25 -3.765625zm1.6875 0q0 1.859375 0.796875 2.796875q0.8125 0.921875 2.046875 0.921875q1.21875 0 2.03125 -0.921875q0.8125 -0.9375 0.8125 -2.84375q0 -1.796875 -0.8125 -2.71875q-0.8125 -0.921875 -2.03125 -0.921875q-1.234375 0 -2.046875 0.921875q-0.796875 0.90625 -0.796875 2.765625zm9.297592 4.84375l0 -9.671875l1.46875 0l0 1.375q1.0625 -1.59375 3.078125 -1.59375q0.875 0 1.609375 0.3125q0.734375 0.3125 1.09375 0.828125q0.375 0.5 0.515625 1.203125q0.09375 0.453125 0.09375 1.59375l0 5.953125l-1.640625 0l0 -5.890625q0 -1.0 -0.203125 -1.484375q-0.1875 -0.5 -0.671875 -0.796875q-0.484375 -0.296875 -1.140625 -0.296875q-1.046875 0 -1.8125 0.671875q-0.75 0.65625 -0.75 2.515625l0 5.28125l-1.640625 0zm15.105896 -3.53125l1.640625 -0.21875q0.28125 1.40625 0.953125 2.015625q0.6875 0.609375 1.65625 0.609375q1.15625 0 1.953125 -0.796875q0.796875 -0.796875 0.796875 -1.984375q0 -1.125 -0.734375 -1.859375q-0.734375 -0.734375 -1.875 -0.734375q-0.46875 0 -1.15625 0.171875l0.1875 -1.4375q0.15625 0.015625 0.265625 0.015625q1.046875 0 1.875 -0.546875q0.84375 -0.546875 0.84375 -1.671875q0 -0.90625 -0.609375 -1.5q-0.609375 -0.59375 -1.578125 -0.59375q-0.953125 0 -1.59375 0.609375q-0.640625 0.59375 -0.8125 1.796875l-1.640625 -0.296875q0.296875 -1.640625 1.359375 -2.546875q1.0625 -0.90625 2.65625 -0.90625q1.09375 0 2.0 0.46875q0.921875 0.46875 1.40625 1.28125q0.5 0.8125 0.5 1.71875q0 0.859375 -0.46875 1.578125q-0.46875 0.703125 -1.375 1.125q1.1875 0.28125 1.84375 1.140625q0.65625 0.859375 0.65625 2.15625q0 1.734375 -1.28125 2.953125q-1.265625 1.21875 -3.21875 1.21875q-1.765625 0 -2.921875 -1.046875q-1.15625 -1.046875 -1.328125 -2.71875z" fill-rule="nonzero"/><path fill="#000000" fill-opacity="0.0" d="m70.45145 564.1102l662.07874 0l0 42.015747l-662.07874 0z" fill-rule="evenodd"/><path fill="#000000" d="m81.18582 591.0302l0 -13.359375l1.765625 0l0 13.359375l-1.765625 0zm8.261429 -1.46875l0.234375 1.453125q-0.6875 0.140625 -1.234375 0.140625q-0.890625 0 -1.390625 -0.28125q-0.484375 -0.28125 -0.6875 -0.734375q-0.203125 -0.46875 -0.203125 -1.9375l0 -5.578125l-1.203125 0l0 -1.265625l1.203125 0l0 -2.390625l1.625 -0.984375l0 3.375l1.65625 0l0 1.265625l-1.65625 0l0 5.671875q0 0.6875 0.078125 0.890625q0.09375 0.203125 0.28125 0.328125q0.203125 0.109375 0.578125 0.109375q0.265625 0 0.71875 -0.0625zm8.230179 -1.640625l1.6875 0.203125q-0.40625 1.484375 -1.484375 2.3125q-1.078125 0.8125 -2.765625 0.8125q-2.125 0 -3.375 -1.296875q-1.234375 -1.3125 -1.234375 -3.671875q0 -2.453125 1.25 -3.796875q1.265625 -1.34375 3.265625 -1.34375q1.9375 0 3.15625 1.328125q1.234375 1.3125 1.234375 3.703125q0 0.15625 0 0.4375l-7.21875 0q0.09375 1.59375 0.90625 2.453125q0.8125 0.84375 2.015625 0.84375q0.90625 0 1.546875 -0.46875q0.640625 -0.484375 1.015625 -1.515625zm-5.390625 -2.65625l5.40625 0q-0.109375 -1.21875 -0.625 -1.828125q-0.78125 -0.953125 -2.03125 -0.953125q-1.125 0 -1.90625 0.765625q-0.765625 0.75 -0.84375 2.015625zm9.125717 5.765625l0 -9.671875l1.46875 0l0 1.46875q0.5625 -1.03125 1.03125 -1.359375q0.484375 -0.328125 1.0625 -0.328125q0.828125 0 1.6875 0.53125l-0.5625 1.515625q-0.609375 -0.359375 -1.203125 -0.359375q-0.546875 0 -0.96875 0.328125q-0.421875 0.328125 -0.609375 0.890625q-0.28125 0.875 -0.28125 1.921875l0 5.0625l-1.625 0zm12.540802 -1.1875q-0.921875 0.765625 -1.765625 1.09375q-0.828125 0.3125 -1.796875 0.3125q-1.59375 0 -2.453125 -0.78125q-0.859375 -0.78125 -0.859375 -1.984375q0 -0.71875 0.328125 -1.296875q0.328125 -0.59375 0.84375 -0.9375q0.53125 -0.359375 1.1875 -0.546875q0.46875 -0.125 1.453125 -0.25q1.984375 -0.234375 2.921875 -0.5625q0.015625 -0.34375 0.015625 -0.421875q0 -1.0 -0.46875 -1.421875q-0.625 -0.546875 -1.875 -0.546875q-1.15625 0 -1.703125 0.40625q-0.546875 0.40625 -0.8125 1.421875l-1.609375 -0.21875q0.21875 -1.015625 0.71875 -1.640625q0.5 -0.640625 1.453125 -0.984375q0.953125 -0.34375 2.1875 -0.34375q1.25 0 2.015625 0.296875q0.78125 0.28125 1.140625 0.734375q0.375 0.4375 0.515625 1.109375q0.078125 0.421875 0.078125 1.515625l0 2.1875q0 2.28125 0.109375 2.890625q0.109375 0.59375 0.40625 1.15625l-1.703125 0q-0.265625 -0.515625 -0.328125 -1.1875zm-0.140625 -3.671875q-0.890625 0.375 -2.671875 0.625q-1.015625 0.140625 -1.4375 0.328125q-0.421875 0.1875 -0.65625 0.53125q-0.21875 0.34375 -0.21875 0.78125q0 0.65625 0.5 1.09375q0.5 0.4375 1.453125 0.4375q0.9375 0 1.671875 -0.40625q0.75 -0.421875 1.09375 -1.140625q0.265625 -0.5625 0.265625 -1.640625l0 -0.609375zm7.781967 3.390625l0.234375 1.453125q-0.6875 0.140625 -1.234375 0.140625q-0.890625 0 -1.390625 -0.28125q-0.484375 -0.28125 -0.6875 -0.734375q-0.203125 -0.46875 -0.203125 -1.9375l0 -5.578125l-1.203125 0l0 -1.265625l1.203125 0l0 -2.390625l1.625 -0.984375l0 3.375l1.65625 0l0 1.265625l-1.65625 0l0 5.671875q0 0.6875 0.078125 0.890625q0.09375 0.203125 0.28125 0.328125q0.203125 0.109375 0.578125 0.109375q0.265625 0 0.71875 -0.0625zm1.6051788 -10.0l0 -1.890625l1.640625 0l0 1.890625l-1.640625 0zm0 11.46875l0 -9.671875l1.640625 0l0 9.671875l-1.640625 0zm3.5354462 -4.84375q0 -2.6875 1.484375 -3.96875q1.25 -1.078125 3.046875 -1.078125q2.0 0 3.265625 1.3125q1.265625 1.296875 1.265625 3.609375q0 1.859375 -0.5625 2.9375q-0.5625 1.0625 -1.640625 1.65625q-1.0625 0.59375 -2.328125 0.59375q-2.03125 0 -3.28125 -1.296875q-1.25 -1.3125 -1.25 -3.765625zm1.6875 0q0 1.859375 0.796875 2.796875q0.8125 0.921875 2.046875 0.921875q1.21875 0 2.03125 -0.921875q0.8125 -0.9375 0.8125 -2.84375q0 -1.796875 -0.8125 -2.71875q-0.8125 -0.921875 -2.03125 -0.921875q-1.234375 0 -2.046875 0.921875q-0.796875 0.90625 -0.796875 2.765625zm9.297592 4.84375l0 -9.671875l1.46875 0l0 1.375q1.0625 -1.59375 3.078125 -1.59375q0.875 0 1.609375 0.3125q0.734375 0.3125 1.09375 0.828125q0.375 0.5 0.515625 1.203125q0.09375 0.453125 0.09375 1.59375l0 5.953125l-1.640625 0l0 -5.890625q0 -1.0 -0.203125 -1.484375q-0.1875 -0.5 -0.671875 -0.796875q-0.484375 -0.296875 -1.140625 -0.296875q-1.046875 0 -1.8125 0.671875q-0.75 0.65625 -0.75 2.515625l0 5.28125l-1.640625 0zm20.355896 0l0 -3.203125l-5.796875 0l0 -1.5l6.09375 -8.65625l1.34375 0l0 8.65625l1.796875 0l0 1.5l-1.796875 0l0 3.203125l-1.640625 0zm0 -4.703125l0 -6.015625l-4.1875 6.015625l4.1875 0z" fill-rule="nonzero"/><path fill="#000000" fill-opacity="0.0" d="m70.44882 90.25197l662.07874 0l0 42.015747l-662.07874 0z" fill-rule="evenodd"/><path fill="#000000" d="m81.1832 117.17197l0 -13.359375l1.765625 0l0 13.359375l-1.765625 0zm8.261429 -1.46875l0.234375 1.453125q-0.6875 0.140625 -1.234375 0.140625q-0.890625 0 -1.390625 -0.28125q-0.484375 -0.28125 -0.6875 -0.734375q-0.203125 -0.46875 -0.203125 -1.9375l0 -5.578125l-1.203125 0l0 -1.265625l1.203125 0l0 -2.390625l1.625 -0.984375l0 3.375l1.65625 0l0 1.265625l-1.65625 0l0 5.671875q0 0.6875 0.078125 0.890625q0.09375 0.203125 0.28125 0.328125q0.203125 0.109375 0.578125 0.109375q0.265625 0 0.71875 -0.0625zm8.230179 -1.640625l1.6875 0.203125q-0.40625 1.484375 -1.484375 2.3125q-1.078125 0.8125 -2.765625 0.8125q-2.125 0 -3.375 -1.296875q-1.234375 -1.3125 -1.234375 -3.671875q0 -2.453125 1.25 -3.796875q1.265625 -1.34375 3.265625 -1.34375q1.9375 0 3.15625 1.328125q1.234375 1.3125 1.234375 3.703125q0 0.15625 0 0.4375l-7.21875 0q0.09375 1.59375 0.90625 2.453125q0.8125 0.84375 2.015625 0.84375q0.90625 0 1.546875 -0.46875q0.640625 -0.484375 1.015625 -1.515625zm-5.390625 -2.65625l5.40625 0q-0.109375 -1.21875 -0.625 -1.828125q-0.78125 -0.953125 -2.03125 -0.953125q-1.125 0 -1.90625 0.765625q-0.765625 0.75 -0.84375 2.015625zm9.125717 5.765625l0 -9.671875l1.46875 0l0 1.46875q0.5625 -1.03125 1.03125 -1.359375q0.484375 -0.328125 1.0625 -0.328125q0.828125 0 1.6875 0.53125l-0.5625 1.515625q-0.609375 -0.359375 -1.203125 -0.359375q-0.546875 0 -0.96875 0.328125q-0.421875 0.328125 -0.609375 0.890625q-0.28125 0.875 -0.28125 1.921875l0 5.0625l-1.625 0zm12.540802 -1.1875q-0.921875 0.765625 -1.765625 1.09375q-0.828125 0.3125 -1.796875 0.3125q-1.59375 0 -2.453125 -0.78125q-0.859375 -0.78125 -0.859375 -1.984375q0 -0.71875 0.328125 -1.296875q0.328125 -0.59375 0.84375 -0.9375q0.53125 -0.359375 1.1875 -0.546875q0.46875 -0.125 1.453125 -0.25q1.984375 -0.234375 2.921875 -0.5625q0.015625 -0.34375 0.015625 -0.421875q0 -1.0 -0.46875 -1.421875q-0.625 -0.546875 -1.875 -0.546875q-1.15625 0 -1.703125 0.40625q-0.546875 0.40625 -0.8125 1.421875l-1.609375 -0.21875q0.21875 -1.015625 0.71875 -1.640625q0.5 -0.640625 1.453125 -0.984375q0.953125 -0.34375 2.1875 -0.34375q1.25 0 2.015625 0.296875q0.78125 0.28125 1.140625 0.734375q0.375 0.4375 0.515625 1.109375q0.078125 0.421875 0.078125 1.515625l0 2.1875q0 2.28125 0.109375 2.890625q0.109375 0.59375 0.40625 1.15625l-1.703125 0q-0.265625 -0.515625 -0.328125 -1.1875zm-0.140625 -3.671875q-0.890625 0.375 -2.671875 0.625q-1.015625 0.140625 -1.4375 0.328125q-0.421875 0.1875 -0.65625 0.53125q-0.21875 0.34375 -0.21875 0.78125q0 0.65625 0.5 1.09375q0.5 0.4375 1.453125 0.4375q0.9375 0 1.671875 -0.40625q0.75 -0.421875 1.09375 -1.140625q0.265625 -0.5625 0.265625 -1.640625l0 -0.609375zm7.781967 3.390625l0.234375 1.453125q-0.6875 0.140625 -1.234375 0.140625q-0.890625 0 -1.390625 -0.28125q-0.484375 -0.28125 -0.6875 -0.734375q-0.203125 -0.46875 -0.203125 -1.9375l0 -5.578125l-1.203125 0l0 -1.265625l1.203125 0l0 -2.390625l1.625 -0.984375l0 3.375l1.65625 0l0 1.265625l-1.65625 0l0 5.671875q0 0.6875 0.078125 0.890625q0.09375 0.203125 0.28125 0.328125q0.203125 0.109375 0.578125 0.109375q0.265625 0 0.71875 -0.0625zm1.6051788 -10.0l0 -1.890625l1.640625 0l0 1.890625l-1.640625 0zm0 11.46875l0 -9.671875l1.640625 0l0 9.671875l-1.640625 0zm3.5354462 -4.84375q0 -2.6875 1.484375 -3.96875q1.25 -1.078125 3.046875 -1.078125q2.0 0 3.265625 1.3125q1.265625 1.296875 1.265625 3.609375q0 1.859375 -0.5625 2.9375q-0.5625 1.0625 -1.640625 1.65625q-1.0625 0.59375 -2.328125 0.59375q-2.03125 0 -3.28125 -1.296875q-1.25 -1.3125 -1.25 -3.765625zm1.6875 0q0 1.859375 0.796875 2.796875q0.8125 0.921875 2.046875 0.921875q1.21875 0 2.03125 -0.921875q0.8125 -0.9375 0.8125 -2.84375q0 -1.796875 -0.8125 -2.71875q-0.8125 -0.921875 -2.03125 -0.921875q-1.234375 0 -2.046875 0.921875q-0.796875 0.90625 -0.796875 2.765625zm9.297592 4.84375l0 -9.671875l1.46875 0l0 1.375q1.0625 -1.59375 3.078125 -1.59375q0.875 0 1.609375 0.3125q0.734375 0.3125 1.09375 0.828125q0.375 0.5 0.515625 1.203125q0.09375 0.453125 0.09375 1.59375l0 5.953125l-1.640625 0l0 -5.890625q0 -1.0 -0.203125 -1.484375q-0.1875 -0.5 -0.671875 -0.796875q-0.484375 -0.296875 -1.140625 -0.296875q-1.046875 0 -1.8125 0.671875q-0.75 0.65625 -0.75 2.515625l0 5.28125l-1.640625 0zm21.277771 0l-1.640625 0l0 -10.453125q-0.59375 0.5625 -1.5625 1.140625q-0.953125 0.5625 -1.71875 0.84375l0 -1.59375q1.375 -0.640625 2.40625 -1.5625q1.03125 -0.921875 1.453125 -1.78125l1.0625 0l0 13.40625z" fill-rule="nonzero"/></g></svg>