<svg version="1.1" viewBox="0.0 0.0 1053.1522309711286 390.99212598425197" fill="none" stroke="none" stroke-linecap="square" stroke-miterlimit="10" xmlns:xlink="http://www.w3.org/1999/xlink" xmlns="http://www.w3.org/2000/svg"><clipPath id="p.0"><path d="m0 0l1053.1522 0l0 390.99213l-1053.1522 0l0 -390.99213z" clip-rule="nonzero"/></clipPath><g clip-path="url(#p.0)"><path fill="#000000" fill-opacity="0.0" d="m0 0l1053.1522 0l0 390.99213l-1053.1522 0z" fill-rule="evenodd"/><path fill="#000000" fill-opacity="0.0" d="m56.220474 89.71391l986.8347 0" fill-rule="evenodd"/><path stroke="#000000" stroke-width="1.0" stroke-linejoin="round" stroke-linecap="butt" stroke-dasharray="4.0,3.0" d="m56.220474 89.71391l986.8347 0" fill-rule="evenodd"/><path fill="#000000" fill-opacity="0.0" d="m56.220474 188.83727l986.8347 0" fill-rule="evenodd"/><path stroke="#000000" stroke-width="1.0" stroke-linejoin="round" stroke-linecap="butt" stroke-dasharray="4.0,3.0" d="m56.220474 188.83727l986.8347 0" fill-rule="evenodd"/><path fill="#000000" fill-opacity="0.0" d="m56.220474 284.63516l986.8347 0" fill-rule="evenodd"/><path stroke="#000000" stroke-width="1.0" stroke-linejoin="round" stroke-linecap="butt" stroke-dasharray="4.0,3.0" d="m56.220474 284.63516l986.8347 0" fill-rule="evenodd"/><path fill="#cfe2f3" d="m198.87665 28.086615l39.527557 0l0 39.527557l-39.527557 0z" fill-rule="evenodd"/><path stroke="#000000" stroke-width="1.0" stroke-linejoin="round" stroke-linecap="butt" d="m198.87665 28.086615l39.527557 0l0 39.527557l-39.527557 0z" fill-rule="evenodd"/><path fill="#000000" d="m217.07388 44.848515l0 2.21875q1.03125 -0.328125 1.875 -0.328125q1.734375 0 2.859375 1.1875q1.140625 1.171875 1.140625 3.03125q0 1.90625 -1.15625 3.0q-1.140625 1.078125 -3.515625 1.078125q-2.09375 0 -3.328125 -0.78125q-0.703125 -0.453125 -0.703125 -1.046875q0 -0.375 0.28125 -0.65625q0.28125 -0.28125 0.65625 -0.28125q0.3125 0 0.6875 0.3125q0.375 0.296875 0.78125 0.421875q0.59375 0.171875 1.5 0.171875q1.703125 0 2.3125 -0.53125q0.625 -0.546875 0.625 -1.671875q0 -1.109375 -0.609375 -1.734375q-0.59375 -0.625 -1.53125 -0.625q-1.0 0 -2.296875 0.65625q-0.296875 0.15625 -0.515625 0.15625q-0.390625 0 -0.671875 -0.296875q-0.265625 -0.296875 -0.265625 -0.75l0 -5.390625l5.71875 0q0.671875 0 0.953125 0.265625q0.296875 0.25 0.296875 0.671875q0 0.40625 -0.296875 0.671875q-0.28125 0.25 -0.953125 0.25l-3.84375 0z" fill-rule="nonzero"/><path fill="#cfe2f3" d="m60.666668 120.86352l39.52756 0l0 39.527565l-39.52756 0z" fill-rule="evenodd"/><path stroke="#000000" stroke-width="1.0" stroke-linejoin="round" stroke-linecap="butt" d="m60.666668 120.86352l39.52756 0l0 39.527565l-39.52756 0z" fill-rule="evenodd"/><path fill="#000000" d="m83.09828 141.31291q0.828125 0.5625 1.234375 1.3125q0.40625 0.734375 0.40625 1.65625q0 0.984375 -0.546875 1.828125q-0.53125 0.84375 -1.5625 1.28125q-1.03125 0.421875 -2.703125 0.421875q-2.15625 0 -3.25 -0.671875q-0.609375 -0.375 -0.609375 -0.90625q0 -0.40625 0.265625 -0.671875q0.265625 -0.28125 0.65625 -0.28125q0.25 0 0.546875 0.171875q0.390625 0.28125 0.75 0.375q0.546875 0.125 1.5 0.125q1.640625 0 2.359375 -0.421875q0.734375 -0.421875 0.734375 -1.203125q0 -0.578125 -0.421875 -1.109375q-0.421875 -0.53125 -1.140625 -0.8125q-0.40625 -0.171875 -1.390625 -0.234375q-0.453125 -0.03125 -0.703125 -0.28125q-0.25 -0.265625 -0.25 -0.640625q0 -0.40625 0.265625 -0.671875q0.28125 -0.28125 0.6875 -0.28125q0.9375 0 1.0 -0.015625q0.359375 -0.03125 0.71875 -0.234375q0.375 -0.203125 0.59375 -0.546875q0.234375 -0.359375 0.234375 -0.71875q0 -0.59375 -0.53125 -1.03125q-0.515625 -0.4375 -1.578125 -0.4375q-1.34375 0 -2.046875 0.78125q-0.21875 0.234375 -0.34375 0.296875q-0.1875 0.09375 -0.421875 0.09375q-0.390625 0 -0.671875 -0.265625q-0.265625 -0.265625 -0.265625 -0.671875q0 -0.625 0.84375 -1.21875q1.21875 -0.875 3.046875 -0.875q1.734375 0 2.78125 0.984375q1.046875 0.984375 1.046875 2.375q0 0.71875 -0.3125 1.34375q-0.3125 0.625 -0.921875 1.15625z" fill-rule="nonzero"/><path fill="#000000" fill-opacity="0.0" d="m100.19421 119.61942l30.015755 0l0 42.015755l-30.015755 0z" fill-rule="evenodd"/><path fill="#000000" d="m116.135544 142.16441l0 3.125q0 0.671875 -0.265625 0.96875q-0.25 0.28125 -0.65625 0.28125q-0.421875 0 -0.6875 -0.28125q-0.25 -0.296875 -0.25 -0.96875l0 -3.125l-2.671875 0q-0.671875 0 -0.96875 -0.25q-0.28125 -0.265625 -0.28125 -0.6875q0 -0.421875 0.28125 -0.671875q0.296875 -0.265625 0.96875 -0.25l2.671875 0l0 -3.125q0 -0.65625 0.25 -0.953125q0.265625 -0.296875 0.6875 -0.296875q0.40625 0 0.671875 0.296875q0.265625 0.28125 0.265625 0.953125l-0.015625 3.125l2.671875 0q0.671875 0 0.953125 0.25q0.296875 0.25 0.296875 0.671875q0 0.421875 -0.296875 0.6875q-0.28125 0.25 -0.953125 0.25l-2.671875 0z" fill-rule="nonzero"/><path fill="#cfe2f3" d="m130.79396 120.86352l39.527557 0l0 39.527565l-39.527557 0z" fill-rule="evenodd"/><path stroke="#000000" stroke-width="1.0" stroke-linejoin="round" stroke-linecap="butt" d="m130.79396 120.86352l39.527557 0l0 39.527565l-39.527557 0z" fill-rule="evenodd"/><path fill="#000000" d="m148.99121 137.62541l0 2.21875q1.03125 -0.328125 1.875 -0.328125q1.734375 0 2.859375 1.1875q1.140625 1.171875 1.140625 3.03125q0 1.90625 -1.15625 3.0q-1.140625 1.078125 -3.515625 1.078125q-2.09375 0 -3.328125 -0.78125q-0.703125 -0.453125 -0.703125 -1.046875q0 -0.375 0.28125 -0.65625q0.28125 -0.28125 0.65625 -0.28125q0.3125 0 0.6875 0.3125q0.375 0.296875 0.78125 0.421875q0.59375 0.171875 1.5 0.171875q1.703125 0 2.3125 -0.53125q0.625 -0.546875 0.625 -1.671875q0 -1.109375 -0.609375 -1.734375q-0.59375 -0.625 -1.53125 -0.625q-1.0 0 -2.296875 0.65625q-0.296875 0.15625 -0.515625 0.15625q-0.390625 0 -0.671875 -0.296875q-0.265625 -0.296875 -0.265625 -0.75l0 -5.390625l5.71875 0q0.671875 0 0.953125 0.265625q0.296875 0.25 0.296875 0.671875q0 0.40625 -0.296875 0.671875q-0.28125 0.25 -0.953125 0.25l-3.84375 0z" fill-rule="nonzero"/><path fill="#3d85c6" d="m198.87665 120.86483l39.527557 0l0 39.527565l-39.527557 0z" fill-rule="evenodd"/><path stroke="#000000" stroke-width="1.0" stroke-linejoin="round" stroke-linecap="butt" d="m198.87665 120.86483l39.527557 0l0 39.527565l-39.527557 0z" fill-rule="evenodd"/><path fill="#000000" d="m221.29263 141.57985q0.71875 0.5625 1.078125 1.265625q0.359375 0.703125 0.359375 1.546875q0 0.9375 -0.46875 1.734375q-0.453125 0.78125 -1.4375 1.234375q-0.984375 0.453125 -2.1875 0.453125q-1.203125 0 -2.171875 -0.453125q-0.96875 -0.453125 -1.421875 -1.234375q-0.453125 -0.796875 -0.453125 -1.734375q0 -0.84375 0.359375 -1.546875q0.359375 -0.703125 1.078125 -1.265625q-0.640625 -0.578125 -0.953125 -1.234375q-0.3125 -0.65625 -0.3125 -1.390625q0 -1.421875 1.09375 -2.453125q1.09375 -1.046875 2.796875 -1.046875q1.71875 0 2.8125 1.046875q1.09375 1.03125 1.09375 2.453125q0 0.734375 -0.328125 1.390625q-0.3125 0.65625 -0.9375 1.234375zm-0.65625 -2.578125q0 -0.703125 -0.546875 -1.1875q-0.53125 -0.484375 -1.453125 -0.484375q-0.921875 0 -1.46875 0.484375q-0.546875 0.484375 -0.546875 1.1875q0 0.6875 0.546875 1.1875q0.546875 0.484375 1.46875 0.484375q0.921875 0 1.453125 -0.484375q0.546875 -0.5 0.546875 -1.1875zm0.21875 5.484375q0 -0.734375 -0.640625 -1.328125q-0.625 -0.59375 -1.5625 -0.59375q-0.9375 0 -1.578125 0.59375q-0.625 0.59375 -0.625 1.34375q0 0.59375 0.546875 1.03125q0.546875 0.421875 1.65625 0.421875q1.125 0 1.65625 -0.421875q0.546875 -0.4375 0.546875 -1.046875z" fill-rule="nonzero"/><path fill="#000000" fill-opacity="0.0" d="m170.22702 120.8189l30.015747 0l0 42.01574l-30.015747 0z" fill-rule="evenodd"/><path fill="#000000" d="m189.23085 141.59827l-7.96875 0q-0.671875 0 -0.96875 -0.25q-0.28125 -0.265625 -0.28125 -0.6875q0 -0.40625 0.28125 -0.65625q0.296875 -0.265625 0.96875 -0.265625l7.96875 0q0.6875 0 0.96875 0.265625q0.28125 0.25 0.28125 0.671875q0 0.40625 -0.28125 0.671875q-0.28125 0.25 -0.96875 0.25zm0 3.515625l-7.96875 0q-0.671875 0 -0.96875 -0.25q-0.28125 -0.265625 -0.28125 -0.671875q0 -0.421875 0.28125 -0.671875q0.296875 -0.265625 0.96875 -0.265625l7.96875 0q0.6875 0 0.96875 0.265625q0.28125 0.25 0.28125 0.671875q0 0.40625 -0.28125 0.671875q-0.28125 0.25 -0.96875 0.25z" fill-rule="nonzero"/><path fill="#cfe2f3" d="m60.666668 216.08398l39.52756 0l0 39.527557l-39.52756 0z" fill-rule="evenodd"/><path stroke="#000000" stroke-width="1.0" stroke-linejoin="round" stroke-linecap="butt" d="m60.666668 216.08398l39.52756 0l0 39.527557l-39.52756 0z" fill-rule="evenodd"/><path fill="#000000" d="m81.37953 230.67401l0 10.21875l1.890625 0q0.671875 0 0.953125 0.265625q0.296875 0.265625 0.296875 0.6875q0 0.40625 -0.296875 0.671875q-0.28125 0.25 -0.953125 0.25l-5.640625 0q-0.671875 0 -0.96875 -0.25q-0.28125 -0.265625 -0.28125 -0.6875q0 -0.40625 0.28125 -0.671875q0.296875 -0.265625 0.96875 -0.265625l1.890625 0l0 -7.78125l-1.671875 0.4375q-0.40625 0.109375 -0.609375 0.109375q-0.34375 0 -0.609375 -0.28125q-0.25 -0.28125 -0.25 -0.6875q0 -0.375 0.1875 -0.59375q0.1875 -0.21875 0.796875 -0.375l4.015625 -1.046875z" fill-rule="nonzero"/><path fill="#000000" fill-opacity="0.0" d="m100.19421 214.83989l30.015755 0l0 42.015762l-30.015755 0z" fill-rule="evenodd"/><path fill="#000000" d="m116.135544 237.38489l0 3.125q0 0.671875 -0.265625 0.96875q-0.25 0.28125 -0.65625 0.28125q-0.421875 0 -0.6875 -0.28125q-0.25 -0.296875 -0.25 -0.96875l0 -3.125l-2.671875 0q-0.671875 0 -0.96875 -0.25q-0.28125 -0.265625 -0.28125 -0.6875q0 -0.421875 0.28125 -0.671875q0.296875 -0.265625 0.96875 -0.25l2.671875 0l0 -3.125q0 -0.65625 0.25 -0.953125q0.265625 -0.296875 0.6875 -0.296875q0.40625 0 0.671875 0.296875q0.265625 0.28125 0.265625 0.953125l-0.015625 3.125l2.671875 0q0.671875 0 0.953125 0.25q0.296875 0.25 0.296875 0.671875q0 0.421875 -0.296875 0.6875q-0.28125 0.25 -0.953125 0.25l-2.671875 0z" fill-rule="nonzero"/><path fill="#cfe2f3" d="m130.79396 216.08398l39.527557 0l0 39.527557l-39.527557 0z" fill-rule="evenodd"/><path stroke="#000000" stroke-width="1.0" stroke-linejoin="round" stroke-linecap="butt" d="m130.79396 216.08398l39.527557 0l0 39.527557l-39.527557 0z" fill-rule="evenodd"/><path fill="#000000" d="m153.20996 236.79901q0.71875 0.5625 1.078125 1.265625q0.359375 0.703125 0.359375 1.546875q0 0.9375 -0.46875 1.734375q-0.453125 0.78125 -1.4375 1.234375q-0.984375 0.453125 -2.1875 0.453125q-1.203125 0 -2.171875 -0.453125q-0.96875 -0.453125 -1.421875 -1.234375q-0.453125 -0.796875 -0.453125 -1.734375q0 -0.84375 0.359375 -1.546875q0.359375 -0.703125 1.078125 -1.265625q-0.640625 -0.578125 -0.953125 -1.234375q-0.3125 -0.65625 -0.3125 -1.390625q0 -1.421875 1.09375 -2.453125q1.09375 -1.046875 2.796875 -1.046875q1.71875 0 2.8125 1.046875q1.09375 1.03125 1.09375 2.453125q0 0.734375 -0.328125 1.390625q-0.3125 0.65625 -0.9375 1.234375zm-0.65625 -2.578125q0 -0.703125 -0.546875 -1.1875q-0.53125 -0.484375 -1.453125 -0.484375q-0.921875 0 -1.46875 0.484375q-0.546875 0.484375 -0.546875 1.1875q0 0.6875 0.546875 1.1875q0.546875 0.484375 1.46875 0.484375q0.921875 0 1.453125 -0.484375q0.546875 -0.5 0.546875 -1.1875zm0.21875 5.484375q0 -0.734375 -0.640625 -1.328125q-0.625 -0.59375 -1.5625 -0.59375q-0.9375 0 -1.578125 0.59375q-0.625 0.59375 -0.625 1.34375q0 0.59375 0.546875 1.03125q0.546875 0.421875 1.65625 0.421875q1.125 0 1.65625 -0.421875q0.546875 -0.4375 0.546875 -1.046875z" fill-rule="nonzero"/><path fill="#3d85c6" d="m198.87665 216.0853l39.527557 0l0 39.527557l-39.527557 0z" fill-rule="evenodd"/><path stroke="#000000" stroke-width="1.0" stroke-linejoin="round" stroke-linecap="butt" d="m198.87665 216.0853l39.527557 0l0 39.527557l-39.527557 0z" fill-rule="evenodd"/><path fill="#000000" d="m221.26138 237.86282q-0.6875 0.609375 -1.28125 0.859375q-0.578125 0.25 -1.21875 0.25q-1.515625 0 -2.640625 -1.203125q-1.125 -1.203125 -1.125 -2.984375q0 -1.390625 0.78125 -2.53125q1.0625 -1.578125 2.984375 -1.578125q1.375 0 2.390625 0.828125q1.03125 0.828125 1.515625 2.390625q0.484375 1.546875 0.484375 3.234375q0 2.859375 -2.21875 4.578125q-1.703125 1.328125 -3.75 1.328125q-1.125 0 -1.75 -0.453125q-0.40625 -0.296875 -0.40625 -0.78125q0 -0.40625 0.265625 -0.671875q0.265625 -0.265625 0.65625 -0.265625q0.21875 0 0.484375 0.125q0.359375 0.1875 0.75 0.1875q1.421875 0 2.609375 -0.953125q1.1875 -0.96875 1.46875 -2.359375zm-0.25 -2.9375q-0.3125 -1.296875 -0.90625 -1.828125q-0.578125 -0.546875 -1.328125 -0.546875q-0.796875 0 -1.359375 0.609375q-0.546875 0.59375 -0.546875 1.609375q0 1.046875 0.5625 1.6875q0.5625 0.640625 1.28125 0.640625q1.265625 0 2.296875 -2.171875z" fill-rule="nonzero"/><path fill="#000000" fill-opacity="0.0" d="m170.22702 216.03937l30.015747 0l0 42.015747l-30.015747 0z" fill-rule="evenodd"/><path fill="#000000" d="m189.23085 236.81874l-7.96875 0q-0.671875 0 -0.96875 -0.25q-0.28125 -0.265625 -0.28125 -0.6875q0 -0.40625 0.28125 -0.65625q0.296875 -0.265625 0.96875 -0.265625l7.96875 0q0.6875 0 0.96875 0.265625q0.28125 0.25 0.28125 0.671875q0 0.40625 -0.28125 0.671875q-0.28125 0.25 -0.96875 0.25zm0 3.515625l-7.96875 0q-0.671875 0 -0.96875 -0.25q-0.28125 -0.265625 -0.28125 -0.671875q0 -0.421875 0.28125 -0.671875q0.296875 -0.265625 0.96875 -0.265625l7.96875 0q0.6875 0 0.96875 0.265625q0.28125 0.25 0.28125 0.671875q0 0.40625 -0.28125 0.671875q-0.28125 0.25 -0.96875 0.25z" fill-rule="nonzero"/><path fill="#cfe2f3" d="m60.666668 316.2349l39.52756 0l0 39.527588l-39.52756 0z" fill-rule="evenodd"/><path stroke="#000000" stroke-width="1.0" stroke-linejoin="round" stroke-linecap="butt" d="m60.666668 316.2349l39.52756 0l0 39.527588l-39.52756 0z" fill-rule="evenodd"/><path fill="#000000" d="m78.69203 341.04367l4.078125 0q0.34375 -0.265625 0.640625 -0.265625q0.4375 0 0.6875 0.28125q0.25 0.28125 0.25 0.96875l0 0.890625l-8.515625 0l0 -1.984375q5.046875 -4.15625 6.09375 -5.34375q0.53125 -0.609375 0.53125 -1.15625q0 -0.6875 -0.59375 -1.203125q-0.59375 -0.53125 -1.59375 -0.53125q-1.0 0 -1.671875 0.578125q-0.34375 0.3125 -0.546875 0.921875q-0.125 0.390625 -0.359375 0.5625q-0.21875 0.15625 -0.546875 0.15625q-0.375 0 -0.65625 -0.265625q-0.28125 -0.28125 -0.28125 -0.65625q0 -0.546875 0.5 -1.359375q0.515625 -0.828125 1.484375 -1.3125q0.96875 -0.5 2.109375 -0.5q1.765625 0 2.890625 1.078125q1.125 1.0625 1.125 2.59375q0 0.765625 -0.328125 1.4375q-0.3125 0.65625 -1.546875 1.8125q-0.953125 0.921875 -3.75 3.296875z" fill-rule="nonzero"/><path fill="#000000" fill-opacity="0.0" d="m100.19421 314.9908l30.015755 0l0 42.015747l-30.015755 0z" fill-rule="evenodd"/><path fill="#000000" d="m116.135544 337.5358l0 3.125q0 0.671875 -0.265625 0.96875q-0.25 0.28125 -0.65625 0.28125q-0.421875 0 -0.6875 -0.28125q-0.25 -0.296875 -0.25 -0.96875l0 -3.125l-2.671875 0q-0.671875 0 -0.96875 -0.25q-0.28125 -0.265625 -0.28125 -0.6875q0 -0.421875 0.28125 -0.671875q0.296875 -0.265625 0.96875 -0.25l2.671875 0l0 -3.125q0 -0.65625 0.25 -0.953125q0.265625 -0.296875 0.6875 -0.296875q0.40625 0 0.671875 0.296875q0.265625 0.28125 0.265625 0.953125l-0.015625 3.125l2.671875 0q0.671875 0 0.953125 0.25q0.296875 0.25 0.296875 0.671875q0 0.421875 -0.296875 0.6875q-0.28125 0.25 -0.953125 0.25l-2.671875 0z" fill-rule="nonzero"/><path fill="#cfe2f3" d="m130.79396 316.2349l39.527557 0l0 39.527588l-39.527557 0z" fill-rule="evenodd"/><path stroke="#000000" stroke-width="1.0" stroke-linejoin="round" stroke-linecap="butt" d="m130.79396 316.2349l39.527557 0l0 39.527588l-39.527557 0z" fill-rule="evenodd"/><path fill="#000000" d="m153.17871 338.01242q-0.6875 0.609375 -1.28125 0.859375q-0.578125 0.25 -1.21875 0.25q-1.515625 0 -2.640625 -1.203125q-1.125 -1.203125 -1.125 -2.984375q0 -1.390625 0.78125 -2.53125q1.0625 -1.578125 2.984375 -1.578125q1.375 0 2.390625 0.828125q1.03125 0.828125 1.515625 2.390625q0.484375 1.546875 0.484375 3.234375q0 2.859375 -2.21875 4.578125q-1.703125 1.328125 -3.75 1.328125q-1.125 0 -1.75 -0.453125q-0.40625 -0.296875 -0.40625 -0.78125q0 -0.40625 0.265625 -0.671875q0.265625 -0.265625 0.65625 -0.265625q0.21875 0 0.484375 0.125q0.359375 0.1875 0.75 0.1875q1.421875 0 2.609375 -0.953125q1.1875 -0.96875 1.46875 -2.359375zm-0.25 -2.9375q-0.3125 -1.296875 -0.90625 -1.828125q-0.578125 -0.546875 -1.328125 -0.546875q-0.796875 0 -1.359375 0.609375q-0.546875 0.59375 -0.546875 1.609375q0 1.046875 0.5625 1.6875q0.5625 0.640625 1.28125 0.640625q1.265625 0 2.296875 -2.171875z" fill-rule="nonzero"/><path fill="#3d85c6" d="m198.87665 316.2362l39.527557 0l0 39.527588l-39.527557 0z" fill-rule="evenodd"/><path stroke="#000000" stroke-width="1.0" stroke-linejoin="round" stroke-linecap="butt" d="m198.87665 316.2362l39.527557 0l0 39.527588l-39.527557 0z" fill-rule="evenodd"/><path fill="#000000" d="m214.66386 331.485l0 8.765625l1.609375 0q0.578125 0 0.828125 0.234375q0.25 0.21875 0.25 0.578125q0 0.34375 -0.25 0.578125q-0.25 0.21875 -0.828125 0.21875l-4.828125 0q-0.578125 0 -0.828125 -0.21875q-0.25 -0.234375 -0.25 -0.59375q0 -0.34375 0.25 -0.5625q0.25 -0.234375 0.828125 -0.234375l1.609375 0l0 -6.671875l-1.421875 0.375q-0.34375 0.09375 -0.515625 0.09375q-0.3125 0 -0.53125 -0.234375q-0.21875 -0.25 -0.21875 -0.609375q0 -0.3125 0.15625 -0.5q0.171875 -0.1875 0.6875 -0.328125l3.453125 -0.890625zm9.6015625 0l0 8.765625l1.609375 0q0.578125 0 0.828125 0.234375q0.25 0.21875 0.25 0.578125q0 0.34375 -0.25 0.578125q-0.25 0.21875 -0.828125 0.21875l-4.828125 0q-0.578125 0 -0.828125 -0.21875q-0.25 -0.234375 -0.25 -0.59375q0 -0.34375 0.25 -0.5625q0.25 -0.234375 0.828125 -0.234375l1.609375 0l0 -6.671875l-1.421875 0.375q-0.34375 0.09375 -0.515625 0.09375q-0.3125 0 -0.53125 -0.234375q-0.21875 -0.25 -0.21875 -0.609375q0 -0.3125 0.15625 -0.5q0.171875 -0.1875 0.6875 -0.328125l3.453125 -0.890625z" fill-rule="nonzero"/><path fill="#000000" fill-opacity="0.0" d="m170.22702 316.19028l30.015747 0l0 42.015747l-30.015747 0z" fill-rule="evenodd"/><path fill="#000000" d="m189.23085 336.96967l-7.96875 0q-0.671875 0 -0.96875 -0.25q-0.28125 -0.265625 -0.28125 -0.6875q0 -0.40625 0.28125 -0.65625q0.296875 -0.265625 0.96875 -0.265625l7.96875 0q0.6875 0 0.96875 0.265625q0.28125 0.25 0.28125 0.671875q0 0.40625 -0.28125 0.671875q-0.28125 0.25 -0.96875 0.25zm0 3.515625l-7.96875 0q-0.671875 0 -0.96875 -0.25q-0.28125 -0.265625 -0.28125 -0.671875q0 -0.421875 0.28125 -0.671875q0.296875 -0.265625 0.96875 -0.265625l7.96875 0q0.6875 0 0.96875 0.265625q0.28125 0.25 0.28125 0.671875q0 0.40625 -0.28125 0.671875q-0.28125 0.25 -0.96875 0.25z" fill-rule="nonzero"/><path fill="#cfe2f3" d="m456.32022 25.692913l39.527557 0l0 39.52756l-39.527557 0z" fill-rule="evenodd"/><path stroke="#000000" stroke-width="1.0" stroke-linejoin="round" stroke-linecap="butt" d="m456.32022 25.692913l39.527557 0l0 39.52756l-39.527557 0z" fill-rule="evenodd"/><path fill="#000000" d="m474.34558 50.50169l4.078125 0q0.34375 -0.265625 0.640625 -0.265625q0.4375 0 0.6875 0.28125q0.25 0.28125 0.25 0.96875l0 0.890625l-8.515625 0l0 -1.984375q5.046875 -4.15625 6.09375 -5.34375q0.53125 -0.609375 0.53125 -1.15625q0 -0.6875 -0.59375 -1.203125q-0.59375 -0.53125 -1.59375 -0.53125q-1.0 0 -1.671875 0.578125q-0.34375 0.3125 -0.546875 0.921875q-0.125 0.390625 -0.359375 0.5625q-0.21875 0.15625 -0.546875 0.15625q-0.375 0 -0.65625 -0.265625q-0.28125 -0.28125 -0.28125 -0.65625q0 -0.546875 0.5 -1.359375q0.515625 -0.828125 1.484375 -1.3125q0.96875 -0.5 2.109375 -0.5q1.765625 0 2.890625 1.078125q1.125 1.0625 1.125 2.59375q0 0.765625 -0.328125 1.4375q-0.3125 0.65625 -1.546875 1.8125q-0.953125 0.921875 -3.75 3.296875z" fill-rule="nonzero"/><path fill="#cfe2f3" d="m318.11023 120.86352l39.527557 0l0 39.527565l-39.527557 0z" fill-rule="evenodd"/><path stroke="#000000" stroke-width="1.0" stroke-linejoin="round" stroke-linecap="butt" d="m318.11023 120.86352l39.527557 0l0 39.527565l-39.527557 0z" fill-rule="evenodd"/><path fill="#000000" d="m336.30746 137.62541l0 2.21875q1.03125 -0.328125 1.875 -0.328125q1.734375 0 2.859375 1.1875q1.140625 1.171875 1.140625 3.03125q0 1.90625 -1.15625 3.0q-1.140625 1.078125 -3.515625 1.078125q-2.09375 0 -3.328125 -0.78125q-0.7030945 -0.453125 -0.7030945 -1.046875q0 -0.375 0.28125 -0.65625q0.28125 -0.28125 0.6562195 -0.28125q0.3125 0 0.6875 0.3125q0.375 0.296875 0.78125 0.421875q0.59375 0.171875 1.5 0.171875q1.703125 0 2.3125 -0.53125q0.625 -0.546875 0.625 -1.671875q0 -1.109375 -0.609375 -1.734375q-0.59375 -0.625 -1.53125 -0.625q-1.0 0 -2.296875 0.65625q-0.296875 0.15625 -0.515625 0.15625q-0.390625 0 -0.671875 -0.296875q-0.265625 -0.296875 -0.265625 -0.75l0 -5.390625l5.71875 0q0.671875 0 0.953125 0.265625q0.296875 0.25 0.296875 0.671875q0 0.40625 -0.296875 0.671875q-0.28125 0.25 -0.953125 0.25l-3.84375 0z" fill-rule="nonzero"/><path fill="#000000" fill-opacity="0.0" d="m357.6378 119.61942l30.015747 0l0 42.015755l-30.015747 0z" fill-rule="evenodd"/><path fill="#000000" d="m373.5791 142.16441l0 3.125q0 0.671875 -0.265625 0.96875q-0.25 0.28125 -0.65625 0.28125q-0.421875 0 -0.6875 -0.28125q-0.25 -0.296875 -0.25 -0.96875l0 -3.125l-2.671875 0q-0.671875 0 -0.96875 -0.25q-0.28125 -0.265625 -0.28125 -0.6875q0 -0.421875 0.28125 -0.671875q0.296875 -0.265625 0.96875 -0.25l2.671875 0l0 -3.125q0 -0.65625 0.25 -0.953125q0.265625 -0.296875 0.6875 -0.296875q0.40625 0 0.671875 0.296875q0.265625 0.28125 0.265625 0.953125l-0.015625 3.125l2.671875 0q0.671875 0 0.953125 0.25q0.296875 0.25 0.296875 0.671875q0 0.421875 -0.296875 0.6875q-0.28125 0.25 -0.953125 0.25l-2.671875 0z" fill-rule="nonzero"/><path fill="#cfe2f3" d="m388.23752 120.86352l39.527588 0l0 39.527565l-39.527588 0z" fill-rule="evenodd"/><path stroke="#000000" stroke-width="1.0" stroke-linejoin="round" stroke-linecap="butt" d="m388.23752 120.86352l39.527588 0l0 39.527565l-39.527588 0z" fill-rule="evenodd"/><path fill="#000000" d="m406.2629 145.67229l4.078125 0q0.34375 -0.265625 0.640625 -0.265625q0.4375 0 0.6875 0.28125q0.25 0.28125 0.25 0.96875l0 0.890625l-8.515625 0l0 -1.984375q5.046875 -4.15625 6.09375 -5.34375q0.53125 -0.609375 0.53125 -1.15625q0 -0.6875 -0.59375 -1.203125q-0.59375 -0.53125 -1.59375 -0.53125q-1.0 0 -1.671875 0.578125q-0.34375 0.3125 -0.546875 0.921875q-0.125 0.390625 -0.359375 0.5625q-0.21875 0.15625 -0.546875 0.15625q-0.375 0 -0.65625 -0.265625q-0.28125 -0.28125 -0.28125 -0.65625q0 -0.546875 0.5 -1.359375q0.515625 -0.828125 1.484375 -1.3125q0.96875 -0.5 2.109375 -0.5q1.765625 0 2.890625 1.078125q1.125 1.0625 1.125 2.59375q0 0.765625 -0.328125 1.4375q-0.3125 0.65625 -1.546875 1.8125q-0.953125 0.921875 -3.75 3.296875z" fill-rule="nonzero"/><path fill="#3d85c6" d="m456.32022 120.86483l39.527557 0l0 39.527565l-39.527557 0z" fill-rule="evenodd"/><path stroke="#000000" stroke-width="1.0" stroke-linejoin="round" stroke-linecap="butt" d="m456.32022 120.86483l39.527557 0l0 39.527565l-39.527557 0z" fill-rule="evenodd"/><path fill="#000000" d="m478.01746 137.62672l-4.28125 0q-0.03125 0.546875 -0.28125 0.796875q-0.25 0.234375 -0.640625 0.234375q-0.421875 0 -0.6875 -0.28125q-0.25 -0.28125 -0.25 -0.953125l0 -1.65625l8.09375 0l0 1.859375l-3.015625 9.0q-0.1875 0.5625 -0.421875 0.75q-0.234375 0.1875 -0.5625 0.1875q-0.390625 0 -0.671875 -0.265625q-0.28125 -0.28125 -0.28125 -0.640625q0 -0.1875 0.15625 -0.625l2.84375 -8.40625z" fill-rule="nonzero"/><path fill="#000000" fill-opacity="0.0" d="m427.6706 120.8189l30.015747 0l0 42.01574l-30.015747 0z" fill-rule="evenodd"/><path fill="#000000" d="m446.6744 141.59827l-7.96875 0q-0.671875 0 -0.96875 -0.25q-0.28125 -0.265625 -0.28125 -0.6875q0 -0.40625 0.28125 -0.65625q0.296875 -0.265625 0.96875 -0.265625l7.96875 0q0.6875 0 0.96875 0.265625q0.28125 0.25 0.28125 0.671875q0 0.40625 -0.28125 0.671875q-0.28125 0.25 -0.96875 0.25zm0 3.515625l-7.96875 0q-0.671875 0 -0.96875 -0.25q-0.28125 -0.265625 -0.28125 -0.671875q0 -0.421875 0.28125 -0.671875q0.296875 -0.265625 0.96875 -0.265625l7.96875 0q0.6875 0 0.96875 0.265625q0.28125 0.25 0.28125 0.671875q0 0.40625 -0.28125 0.671875q-0.28125 0.25 -0.96875 0.25z" fill-rule="nonzero"/><path fill="#cfe2f3" d="m318.11023 216.08398l39.527557 0l0 39.527557l-39.527557 0z" fill-rule="evenodd"/><path stroke="#000000" stroke-width="1.0" stroke-linejoin="round" stroke-linecap="butt" d="m318.11023 216.08398l39.527557 0l0 39.527557l-39.527557 0z" fill-rule="evenodd"/><path fill="#000000" d="m340.54184 236.53339q0.828125 0.5625 1.234375 1.3125q0.40625 0.734375 0.40625 1.65625q0 0.984375 -0.546875 1.828125q-0.53125 0.84375 -1.5625 1.28125q-1.03125 0.421875 -2.703125 0.421875q-2.15625 0 -3.25 -0.671875q-0.6093445 -0.375 -0.6093445 -0.90625q0 -0.40625 0.265625 -0.671875q0.265625 -0.28125 0.6562195 -0.28125q0.25 0 0.546875 0.171875q0.390625 0.28125 0.75 0.375q0.546875 0.125 1.5 0.125q1.640625 0 2.359375 -0.421875q0.734375 -0.421875 0.734375 -1.203125q0 -0.578125 -0.421875 -1.109375q-0.421875 -0.53125 -1.140625 -0.8125q-0.40625 -0.171875 -1.390625 -0.234375q-0.453125 -0.03125 -0.703125 -0.28125q-0.25 -0.265625 -0.25 -0.640625q0 -0.40625 0.265625 -0.671875q0.28125 -0.28125 0.6875 -0.28125q0.9375 0 1.0 -0.015625q0.359375 -0.03125 0.71875 -0.234375q0.375 -0.203125 0.59375 -0.546875q0.234375 -0.359375 0.234375 -0.71875q0 -0.59375 -0.53125 -1.03125q-0.515625 -0.4375 -1.578125 -0.4375q-1.34375 0 -2.046875 0.78125q-0.21875 0.234375 -0.34375 0.296875q-0.1875 0.09375 -0.421875 0.09375q-0.390625 0 -0.671875 -0.265625q-0.26559448 -0.265625 -0.26559448 -0.671875q0 -0.625 0.8437195 -1.21875q1.21875 -0.875 3.046875 -0.875q1.734375 0 2.78125 0.984375q1.046875 0.984375 1.046875 2.375q0 0.71875 -0.3125 1.34375q-0.3125 0.625 -0.921875 1.15625z" fill-rule="nonzero"/><path fill="#000000" fill-opacity="0.0" d="m357.6378 214.83989l30.015747 0l0 42.015762l-30.015747 0z" fill-rule="evenodd"/><path fill="#000000" d="m373.5791 237.38489l0 3.125q0 0.671875 -0.265625 0.96875q-0.25 0.28125 -0.65625 0.28125q-0.421875 0 -0.6875 -0.28125q-0.25 -0.296875 -0.25 -0.96875l0 -3.125l-2.671875 0q-0.671875 0 -0.96875 -0.25q-0.28125 -0.265625 -0.28125 -0.6875q0 -0.421875 0.28125 -0.671875q0.296875 -0.265625 0.96875 -0.25l2.671875 0l0 -3.125q0 -0.65625 0.25 -0.953125q0.265625 -0.296875 0.6875 -0.296875q0.40625 0 0.671875 0.296875q0.265625 0.28125 0.265625 0.953125l-0.015625 3.125l2.671875 0q0.671875 0 0.953125 0.25q0.296875 0.25 0.296875 0.671875q0 0.421875 -0.296875 0.6875q-0.28125 0.25 -0.953125 0.25l-2.671875 0z" fill-rule="nonzero"/><path fill="#cfe2f3" d="m388.23752 216.08398l39.527588 0l0 39.527557l-39.527588 0z" fill-rule="evenodd"/><path stroke="#000000" stroke-width="1.0" stroke-linejoin="round" stroke-linecap="butt" d="m388.23752 216.08398l39.527588 0l0 39.527557l-39.527588 0z" fill-rule="evenodd"/><path fill="#000000" d="m409.93478 232.84589l-4.28125 0q-0.03125 0.546875 -0.28125 0.796875q-0.25 0.234375 -0.640625 0.234375q-0.421875 0 -0.6875 -0.28125q-0.25 -0.28125 -0.25 -0.953125l0 -1.65625l8.09375 0l0 1.859375l-3.015625 9.0q-0.1875 0.5625 -0.421875 0.75q-0.234375 0.1875 -0.5625 0.1875q-0.390625 0 -0.671875 -0.265625q-0.28125 -0.28125 -0.28125 -0.640625q0 -0.1875 0.15625 -0.625l2.84375 -8.40625z" fill-rule="nonzero"/><path fill="#3d85c6" d="m456.32022 216.0853l39.527557 0l0 39.527557l-39.527557 0z" fill-rule="evenodd"/><path stroke="#000000" stroke-width="1.0" stroke-linejoin="round" stroke-linecap="butt" d="m456.32022 216.0853l39.527557 0l0 39.527557l-39.527557 0z" fill-rule="evenodd"/><path fill="#000000" d="m472.10742 231.33408l0 8.765625l1.609375 0q0.578125 0 0.828125 0.234375q0.25 0.21875 0.25 0.578125q0 0.34375 -0.25 0.578125q-0.25 0.21875 -0.828125 0.21875l-4.828125 0q-0.578125 0 -0.828125 -0.21875q-0.25 -0.234375 -0.25 -0.59375q0 -0.34375 0.25 -0.5625q0.25 -0.234375 0.828125 -0.234375l1.609375 0l0 -6.671875l-1.421875 0.375q-0.34375 0.09375 -0.515625 0.09375q-0.3125 0 -0.53125 -0.234375q-0.21875 -0.25 -0.21875 -0.609375q0 -0.3125 0.15625 -0.5q0.171875 -0.1875 0.6875 -0.328125l3.453125 -0.890625zm12.2734375 4.421875l0 1.765625q0 1.5625 -0.90625 3.0q-0.890625 1.421875 -2.578125 1.421875q-0.96875 0 -1.640625 -0.421875q-0.65625 -0.4375 -1.265625 -1.578125q-0.59375 -1.140625 -0.59375 -2.421875l0 -1.765625q0 -1.546875 0.890625 -2.984375q0.90625 -1.4375 2.59375 -1.4375q0.953125 0 1.625 0.421875q0.671875 0.421875 1.265625 1.578125q0.609375 1.140625 0.609375 2.421875zm-1.609375 0q0 -1.296875 -0.71875 -2.28125q-0.421875 -0.53125 -1.171875 -0.53125q-0.71875 0 -1.1875 0.59375q-0.6875 0.890625 -0.6875 2.21875l0 1.765625q0 1.3125 0.734375 2.28125q0.40625 0.53125 1.15625 0.53125q0.71875 0 1.1875 -0.59375q0.6875 -0.890625 0.6875 -2.21875l0 -1.765625z" fill-rule="nonzero"/><path fill="#000000" fill-opacity="0.0" d="m427.6706 216.03937l30.015747 0l0 42.015747l-30.015747 0z" fill-rule="evenodd"/><path fill="#000000" d="m446.6744 236.81874l-7.96875 0q-0.671875 0 -0.96875 -0.25q-0.28125 -0.265625 -0.28125 -0.6875q0 -0.40625 0.28125 -0.65625q0.296875 -0.265625 0.96875 -0.265625l7.96875 0q0.6875 0 0.96875 0.265625q0.28125 0.25 0.28125 0.671875q0 0.40625 -0.28125 0.671875q-0.28125 0.25 -0.96875 0.25zm0 3.515625l-7.96875 0q-0.671875 0 -0.96875 -0.25q-0.28125 -0.265625 -0.28125 -0.671875q0 -0.421875 0.28125 -0.671875q0.296875 -0.265625 0.96875 -0.265625l7.96875 0q0.6875 0 0.96875 0.265625q0.28125 0.25 0.28125 0.671875q0 0.40625 -0.28125 0.671875q-0.28125 0.25 -0.96875 0.25z" fill-rule="nonzero"/><path fill="#cfe2f3" d="m318.11023 316.2349l39.527557 0l0 39.527588l-39.527557 0z" fill-rule="evenodd"/><path stroke="#000000" stroke-width="1.0" stroke-linejoin="round" stroke-linecap="butt" d="m318.11023 316.2349l39.527557 0l0 39.527588l-39.527557 0z" fill-rule="evenodd"/><path fill="#000000" d="m338.8231 330.82492l0 10.21875l1.890625 0q0.671875 0 0.953125 0.265625q0.296875 0.265625 0.296875 0.6875q0 0.40625 -0.296875 0.671875q-0.28125 0.25 -0.953125 0.25l-5.640625 0q-0.671875 0 -0.9687195 -0.25q-0.28125 -0.265625 -0.28125 -0.6875q0 -0.40625 0.28125 -0.671875q0.29684448 -0.265625 0.9687195 -0.265625l1.890625 0l0 -7.78125l-1.671875 0.4375q-0.40625 0.109375 -0.609375 0.109375q-0.34375 0 -0.6093445 -0.28125q-0.25 -0.28125 -0.25 -0.6875q0 -0.375 0.1875 -0.59375q0.18746948 -0.21875 0.7968445 -0.375l4.015625 -1.046875z" fill-rule="nonzero"/><path fill="#000000" fill-opacity="0.0" d="m357.6378 314.9908l30.015747 0l0 42.015747l-30.015747 0z" fill-rule="evenodd"/><path fill="#000000" d="m373.5791 337.5358l0 3.125q0 0.671875 -0.265625 0.96875q-0.25 0.28125 -0.65625 0.28125q-0.421875 0 -0.6875 -0.28125q-0.25 -0.296875 -0.25 -0.96875l0 -3.125l-2.671875 0q-0.671875 0 -0.96875 -0.25q-0.28125 -0.265625 -0.28125 -0.6875q0 -0.421875 0.28125 -0.671875q0.296875 -0.265625 0.96875 -0.25l2.671875 0l0 -3.125q0 -0.65625 0.25 -0.953125q0.265625 -0.296875 0.6875 -0.296875q0.40625 0 0.671875 0.296875q0.265625 0.28125 0.265625 0.953125l-0.015625 3.125l2.671875 0q0.671875 0 0.953125 0.25q0.296875 0.25 0.296875 0.671875q0 0.421875 -0.296875 0.6875q-0.28125 0.25 -0.953125 0.25l-2.671875 0z" fill-rule="nonzero"/><path fill="#cfe2f3" d="m388.23752 316.2349l39.527588 0l0 39.527588l-39.527588 0z" fill-rule="evenodd"/><path stroke="#000000" stroke-width="1.0" stroke-linejoin="round" stroke-linecap="butt" d="m388.23752 316.2349l39.527588 0l0 39.527588l-39.527588 0z" fill-rule="evenodd"/><path fill="#000000" d="m404.02475 331.48367l0 8.765625l1.609375 0q0.578125 0 0.828125 0.234375q0.25 0.21875 0.25 0.578125q0 0.34375 -0.25 0.578125q-0.25 0.21875 -0.828125 0.21875l-4.828125 0q-0.578125 0 -0.828125 -0.21875q-0.25 -0.234375 -0.25 -0.59375q0 -0.34375 0.25 -0.5625q0.25 -0.234375 0.828125 -0.234375l1.609375 0l0 -6.671875l-1.421875 0.375q-0.34375 0.09375 -0.515625 0.09375q-0.3125 0 -0.53125 -0.234375q-0.21875 -0.25 -0.21875 -0.609375q0 -0.3125 0.15625 -0.5q0.171875 -0.1875 0.6875 -0.328125l3.453125 -0.890625zm12.2734375 4.421875l0 1.765625q0 1.5625 -0.90625 3.0q-0.890625 1.421875 -2.578125 1.421875q-0.96875 0 -1.640625 -0.421875q-0.65625 -0.4375 -1.265625 -1.578125q-0.59375 -1.140625 -0.59375 -2.421875l0 -1.765625q0 -1.546875 0.890625 -2.984375q0.90625 -1.4375 2.59375 -1.4375q0.953125 0 1.625 0.421875q0.671875 0.421875 1.265625 1.578125q0.609375 1.140625 0.609375 2.421875zm-1.609375 0q0 -1.296875 -0.71875 -2.28125q-0.421875 -0.53125 -1.171875 -0.53125q-0.71875 0 -1.1875 0.59375q-0.6875 0.890625 -0.6875 2.21875l0 1.765625q0 1.3125 0.734375 2.28125q0.40625 0.53125 1.15625 0.53125q0.71875 0 1.1875 -0.59375q0.6875 -0.890625 0.6875 -2.21875l0 -1.765625z" fill-rule="nonzero"/><path fill="#3d85c6" d="m456.32022 316.2362l39.527557 0l0 39.527588l-39.527557 0z" fill-rule="evenodd"/><path stroke="#000000" stroke-width="1.0" stroke-linejoin="round" stroke-linecap="butt" d="m456.32022 316.2362l39.527557 0l0 39.527588l-39.527557 0z" fill-rule="evenodd"/><path fill="#000000" d="m472.10742 331.485l0 8.765625l1.609375 0q0.578125 0 0.828125 0.234375q0.25 0.21875 0.25 0.578125q0 0.34375 -0.25 0.578125q-0.25 0.21875 -0.828125 0.21875l-4.828125 0q-0.578125 0 -0.828125 -0.21875q-0.25 -0.234375 -0.25 -0.59375q0 -0.34375 0.25 -0.5625q0.25 -0.234375 0.828125 -0.234375l1.609375 0l0 -6.671875l-1.421875 0.375q-0.34375 0.09375 -0.515625 0.09375q-0.3125 0 -0.53125 -0.234375q-0.21875 -0.25 -0.21875 -0.609375q0 -0.3125 0.15625 -0.5q0.171875 -0.1875 0.6875 -0.328125l3.453125 -0.890625zm9.6015625 0l0 8.765625l1.609375 0q0.578125 0 0.828125 0.234375q0.25 0.21875 0.25 0.578125q0 0.34375 -0.25 0.578125q-0.25 0.21875 -0.828125 0.21875l-4.828125 0q-0.578125 0 -0.828125 -0.21875q-0.25 -0.234375 -0.25 -0.59375q0 -0.34375 0.25 -0.5625q0.25 -0.234375 0.828125 -0.234375l1.609375 0l0 -6.671875l-1.421875 0.375q-0.34375 0.09375 -0.515625 0.09375q-0.3125 0 -0.53125 -0.234375q-0.21875 -0.25 -0.21875 -0.609375q0 -0.3125 0.15625 -0.5q0.171875 -0.1875 0.6875 -0.328125l3.453125 -0.890625z" fill-rule="nonzero"/><path fill="#000000" fill-opacity="0.0" d="m427.6706 316.19028l30.015747 0l0 42.015747l-30.015747 0z" fill-rule="evenodd"/><path fill="#000000" d="m446.6744 336.96967l-7.96875 0q-0.671875 0 -0.96875 -0.25q-0.28125 -0.265625 -0.28125 -0.6875q0 -0.40625 0.28125 -0.65625q0.296875 -0.265625 0.96875 -0.265625l7.96875 0q0.6875 0 0.96875 0.265625q0.28125 0.25 0.28125 0.671875q0 0.40625 -0.28125 0.671875q-0.28125 0.25 -0.96875 0.25zm0 3.515625l-7.96875 0q-0.671875 0 -0.96875 -0.25q-0.28125 -0.265625 -0.28125 -0.671875q0 -0.421875 0.28125 -0.671875q0.296875 -0.265625 0.96875 -0.265625l7.96875 0q0.6875 0 0.96875 0.265625q0.28125 0.25 0.28125 0.671875q0 0.40625 -0.28125 0.671875q-0.28125 0.25 -0.96875 0.25z" fill-rule="nonzero"/><path fill="#cfe2f3" d="m713.7638 28.086615l39.527527 0l0 39.527557l-39.527527 0z" fill-rule="evenodd"/><path stroke="#000000" stroke-width="1.0" stroke-linejoin="round" stroke-linecap="butt" d="m713.7638 28.086615l39.527527 0l0 39.527557l-39.527527 0z" fill-rule="evenodd"/><path fill="#000000" d="m734.4766 42.67664l0 10.21875l1.890625 0q0.671875 0 0.953125 0.265625q0.296875 0.265625 0.296875 0.6875q0 0.40625 -0.296875 0.671875q-0.28125 0.25 -0.953125 0.25l-5.640625 0q-0.671875 0 -0.96875 -0.25q-0.28125 -0.265625 -0.28125 -0.6875q0 -0.40625 0.28125 -0.671875q0.296875 -0.265625 0.96875 -0.265625l1.890625 0l0 -7.78125l-1.671875 0.4375q-0.40625 0.109375 -0.609375 0.109375q-0.34375 0 -0.609375 -0.28125q-0.25 -0.28125 -0.25 -0.6875q0 -0.375 0.1875 -0.59375q0.1875 -0.21875 0.796875 -0.375l4.015625 -1.046875z" fill-rule="nonzero"/><path fill="#cfe2f3" d="m575.55383 120.86352l39.527527 0l0 39.527565l-39.527527 0z" fill-rule="evenodd"/><path stroke="#000000" stroke-width="1.0" stroke-linejoin="round" stroke-linecap="butt" d="m575.55383 120.86352l39.527527 0l0 39.527565l-39.527527 0z" fill-rule="evenodd"/><path fill="#000000" d="m593.57916 145.67229l4.078125 0q0.34375 -0.265625 0.640625 -0.265625q0.4375 0 0.6875 0.28125q0.25 0.28125 0.25 0.96875l0 0.890625l-8.515625 0l0 -1.984375q5.046875 -4.15625 6.09375 -5.34375q0.53125 -0.609375 0.53125 -1.15625q0 -0.6875 -0.59375 -1.203125q-0.59375 -0.53125 -1.59375 -0.53125q-1.0 0 -1.671875 0.578125q-0.34375 0.3125 -0.546875 0.921875q-0.125 0.390625 -0.359375 0.5625q-0.21875 0.15625 -0.546875 0.15625q-0.375 0 -0.65625 -0.265625q-0.28125 -0.28125 -0.28125 -0.65625q0 -0.546875 0.5 -1.359375q0.515625 -0.828125 1.484375 -1.3125q0.96875 -0.5 2.109375 -0.5q1.765625 0 2.890625 1.078125q1.125 1.0625 1.125 2.59375q0 0.765625 -0.328125 1.4375q-0.3125 0.65625 -1.546875 1.8125q-0.953125 0.921875 -3.75 3.296875z" fill-rule="nonzero"/><path fill="#000000" fill-opacity="0.0" d="m615.08136 119.61942l30.015747 0l0 42.015755l-30.015747 0z" fill-rule="evenodd"/><path fill="#000000" d="m631.0227 142.16441l0 3.125q0 0.671875 -0.265625 0.96875q-0.25 0.28125 -0.65625 0.28125q-0.421875 0 -0.6875 -0.28125q-0.25 -0.296875 -0.25 -0.96875l0 -3.125l-2.671875 0q-0.671875 0 -0.96875 -0.25q-0.28125 -0.265625 -0.28125 -0.6875q0 -0.421875 0.28125 -0.671875q0.296875 -0.265625 0.96875 -0.25l2.671875 0l0 -3.125q0 -0.65625 0.25 -0.953125q0.265625 -0.296875 0.6875 -0.296875q0.40625 0 0.671875 0.296875q0.265625 0.28125 0.265625 0.953125l-0.015625 3.125l2.671875 0q0.671875 0 0.953125 0.25q0.296875 0.25 0.296875 0.671875q0 0.421875 -0.296875 0.6875q-0.28125 0.25 -0.953125 0.25l-2.671875 0z" fill-rule="nonzero"/><path fill="#cfe2f3" d="m645.6811 120.86352l39.527588 0l0 39.527565l-39.527588 0z" fill-rule="evenodd"/><path stroke="#000000" stroke-width="1.0" stroke-linejoin="round" stroke-linecap="butt" d="m645.6811 120.86352l39.527588 0l0 39.527565l-39.527588 0z" fill-rule="evenodd"/><path fill="#000000" d="m666.394 135.45354l0 10.21875l1.890625 0q0.671875 0 0.953125 0.265625q0.296875 0.265625 0.296875 0.6875q0 0.40625 -0.296875 0.671875q-0.28125 0.25 -0.953125 0.25l-5.640625 0q-0.671875 0 -0.96875 -0.25q-0.28125 -0.265625 -0.28125 -0.6875q0 -0.40625 0.28125 -0.671875q0.296875 -0.265625 0.96875 -0.265625l1.890625 0l0 -7.78125l-1.671875 0.4375q-0.40625 0.109375 -0.609375 0.109375q-0.34375 0 -0.609375 -0.28125q-0.25 -0.28125 -0.25 -0.6875q0 -0.375 0.1875 -0.59375q0.1875 -0.21875 0.796875 -0.375l4.015625 -1.046875z" fill-rule="nonzero"/><path fill="#3d85c6" d="m713.7638 120.86483l39.527527 0l0 39.527565l-39.527527 0z" fill-rule="evenodd"/><path stroke="#000000" stroke-width="1.0" stroke-linejoin="round" stroke-linecap="butt" d="m713.7638 120.86483l39.527527 0l0 39.527565l-39.527527 0z" fill-rule="evenodd"/><path fill="#000000" d="m736.1954 141.31422q0.828125 0.5625 1.234375 1.3125q0.40625 0.734375 0.40625 1.65625q0 0.984375 -0.546875 1.828125q-0.53125 0.84375 -1.5625 1.28125q-1.03125 0.421875 -2.703125 0.421875q-2.15625 0 -3.25 -0.671875q-0.609375 -0.375 -0.609375 -0.90625q0 -0.40625 0.265625 -0.671875q0.265625 -0.28125 0.65625 -0.28125q0.25 0 0.546875 0.171875q0.390625 0.28125 0.75 0.375q0.546875 0.125 1.5 0.125q1.640625 0 2.359375 -0.421875q0.734375 -0.421875 0.734375 -1.203125q0 -0.578125 -0.421875 -1.109375q-0.421875 -0.53125 -1.140625 -0.8125q-0.40625 -0.171875 -1.390625 -0.234375q-0.453125 -0.03125 -0.703125 -0.28125q-0.25 -0.265625 -0.25 -0.640625q0 -0.40625 0.265625 -0.671875q0.28125 -0.28125 0.6875 -0.28125q0.9375 0 1.0 -0.015625q0.359375 -0.03125 0.71875 -0.234375q0.375 -0.203125 0.59375 -0.546875q0.234375 -0.359375 0.234375 -0.71875q0 -0.59375 -0.53125 -1.03125q-0.515625 -0.4375 -1.578125 -0.4375q-1.34375 0 -2.046875 0.78125q-0.21875 0.234375 -0.34375 0.296875q-0.1875 0.09375 -0.421875 0.09375q-0.390625 0 -0.671875 -0.265625q-0.265625 -0.265625 -0.265625 -0.671875q0 -0.625 0.84375 -1.21875q1.21875 -0.875 3.046875 -0.875q1.734375 0 2.78125 0.984375q1.046875 0.984375 1.046875 2.375q0 0.71875 -0.3125 1.34375q-0.3125 0.625 -0.921875 1.15625z" fill-rule="nonzero"/><path fill="#000000" fill-opacity="0.0" d="m685.11414 120.8189l30.015747 0l0 42.01574l-30.015747 0z" fill-rule="evenodd"/><path fill="#000000" d="m704.118 141.59827l-7.96875 0q-0.671875 0 -0.96875 -0.25q-0.28125 -0.265625 -0.28125 -0.6875q0 -0.40625 0.28125 -0.65625q0.296875 -0.265625 0.96875 -0.265625l7.96875 0q0.6875 0 0.96875 0.265625q0.28125 0.25 0.28125 0.671875q0 0.40625 -0.28125 0.671875q-0.28125 0.25 -0.96875 0.25zm0 3.515625l-7.96875 0q-0.671875 0 -0.96875 -0.25q-0.28125 -0.265625 -0.28125 -0.671875q0 -0.421875 0.28125 -0.671875q0.296875 -0.265625 0.96875 -0.265625l7.96875 0q0.6875 0 0.96875 0.265625q0.28125 0.25 0.28125 0.671875q0 0.40625 -0.28125 0.671875q-0.28125 0.25 -0.96875 0.25z" fill-rule="nonzero"/><path fill="#cfe2f3" d="m575.55383 216.08398l39.527527 0l0 39.527557l-39.527527 0z" fill-rule="evenodd"/><path stroke="#000000" stroke-width="1.0" stroke-linejoin="round" stroke-linecap="butt" d="m575.55383 216.08398l39.527527 0l0 39.527557l-39.527527 0z" fill-rule="evenodd"/><path fill="#000000" d="m593.75104 232.84589l0 2.21875q1.03125 -0.328125 1.875 -0.328125q1.734375 0 2.859375 1.1875q1.140625 1.171875 1.140625 3.03125q0 1.90625 -1.15625 3.0q-1.140625 1.078125 -3.515625 1.078125q-2.09375 0 -3.328125 -0.78125q-0.703125 -0.453125 -0.703125 -1.046875q0 -0.375 0.28125 -0.65625q0.28125 -0.28125 0.65625 -0.28125q0.3125 0 0.6875 0.3125q0.375 0.296875 0.78125 0.421875q0.59375 0.171875 1.5 0.171875q1.703125 0 2.3125 -0.53125q0.625 -0.546875 0.625 -1.671875q0 -1.109375 -0.609375 -1.734375q-0.59375 -0.625 -1.53125 -0.625q-1.0 0 -2.296875 0.65625q-0.296875 0.15625 -0.515625 0.15625q-0.390625 0 -0.671875 -0.296875q-0.265625 -0.296875 -0.265625 -0.75l0 -5.390625l5.71875 0q0.671875 0 0.953125 0.265625q0.296875 0.25 0.296875 0.671875q0 0.40625 -0.296875 0.671875q-0.28125 0.25 -0.953125 0.25l-3.84375 0z" fill-rule="nonzero"/><path fill="#000000" fill-opacity="0.0" d="m615.08136 214.83989l30.015747 0l0 42.015762l-30.015747 0z" fill-rule="evenodd"/><path fill="#000000" d="m631.0227 237.38489l0 3.125q0 0.671875 -0.265625 0.96875q-0.25 0.28125 -0.65625 0.28125q-0.421875 0 -0.6875 -0.28125q-0.25 -0.296875 -0.25 -0.96875l0 -3.125l-2.671875 0q-0.671875 0 -0.96875 -0.25q-0.28125 -0.265625 -0.28125 -0.6875q0 -0.421875 0.28125 -0.671875q0.296875 -0.265625 0.96875 -0.25l2.671875 0l0 -3.125q0 -0.65625 0.25 -0.953125q0.265625 -0.296875 0.6875 -0.296875q0.40625 0 0.671875 0.296875q0.265625 0.28125 0.265625 0.953125l-0.015625 3.125l2.671875 0q0.671875 0 0.953125 0.25q0.296875 0.25 0.296875 0.671875q0 0.421875 -0.296875 0.6875q-0.28125 0.25 -0.953125 0.25l-2.671875 0z" fill-rule="nonzero"/><path fill="#cfe2f3" d="m645.6811 216.08398l39.527588 0l0 39.527557l-39.527588 0z" fill-rule="evenodd"/><path stroke="#000000" stroke-width="1.0" stroke-linejoin="round" stroke-linecap="butt" d="m645.6811 216.08398l39.527588 0l0 39.527557l-39.527588 0z" fill-rule="evenodd"/><path fill="#000000" d="m668.11273 236.53339q0.828125 0.5625 1.234375 1.3125q0.40625 0.734375 0.40625 1.65625q0 0.984375 -0.546875 1.828125q-0.53125 0.84375 -1.5625 1.28125q-1.03125 0.421875 -2.703125 0.421875q-2.15625 0 -3.25 -0.671875q-0.609375 -0.375 -0.609375 -0.90625q0 -0.40625 0.265625 -0.671875q0.265625 -0.28125 0.65625 -0.28125q0.25 0 0.546875 0.171875q0.390625 0.28125 0.75 0.375q0.546875 0.125 1.5 0.125q1.640625 0 2.359375 -0.421875q0.734375 -0.421875 0.734375 -1.203125q0 -0.578125 -0.421875 -1.109375q-0.421875 -0.53125 -1.140625 -0.8125q-0.40625 -0.171875 -1.390625 -0.234375q-0.453125 -0.03125 -0.703125 -0.28125q-0.25 -0.265625 -0.25 -0.640625q0 -0.40625 0.265625 -0.671875q0.28125 -0.28125 0.6875 -0.28125q0.9375 0 1.0 -0.015625q0.359375 -0.03125 0.71875 -0.234375q0.375 -0.203125 0.59375 -0.546875q0.234375 -0.359375 0.234375 -0.71875q0 -0.59375 -0.53125 -1.03125q-0.515625 -0.4375 -1.578125 -0.4375q-1.34375 0 -2.046875 0.78125q-0.21875 0.234375 -0.34375 0.296875q-0.1875 0.09375 -0.421875 0.09375q-0.390625 0 -0.671875 -0.265625q-0.265625 -0.265625 -0.265625 -0.671875q0 -0.625 0.84375 -1.21875q1.21875 -0.875 3.046875 -0.875q1.734375 0 2.78125 0.984375q1.046875 0.984375 1.046875 2.375q0 0.71875 -0.3125 1.34375q-0.3125 0.625 -0.921875 1.15625z" fill-rule="nonzero"/><path fill="#3d85c6" d="m713.7638 216.0853l39.527527 0l0 39.527557l-39.527527 0z" fill-rule="evenodd"/><path stroke="#000000" stroke-width="1.0" stroke-linejoin="round" stroke-linecap="butt" d="m713.7638 216.0853l39.527527 0l0 39.527557l-39.527527 0z" fill-rule="evenodd"/><path fill="#000000" d="m736.17975 236.80032q0.71875 0.5625 1.078125 1.265625q0.359375 0.703125 0.359375 1.546875q0 0.9375 -0.46875 1.734375q-0.453125 0.78125 -1.4375 1.234375q-0.984375 0.453125 -2.1875 0.453125q-1.203125 0 -2.171875 -0.453125q-0.96875 -0.453125 -1.421875 -1.234375q-0.453125 -0.796875 -0.453125 -1.734375q0 -0.84375 0.359375 -1.546875q0.359375 -0.703125 1.078125 -1.265625q-0.640625 -0.578125 -0.953125 -1.234375q-0.3125 -0.65625 -0.3125 -1.390625q0 -1.421875 1.09375 -2.453125q1.09375 -1.046875 2.796875 -1.046875q1.71875 0 2.8125 1.046875q1.09375 1.03125 1.09375 2.453125q0 0.734375 -0.328125 1.390625q-0.3125 0.65625 -0.9375 1.234375zm-0.65625 -2.578125q0 -0.703125 -0.546875 -1.1875q-0.53125 -0.484375 -1.453125 -0.484375q-0.921875 0 -1.46875 0.484375q-0.546875 0.484375 -0.546875 1.1875q0 0.6875 0.546875 1.1875q0.546875 0.484375 1.46875 0.484375q0.921875 0 1.453125 -0.484375q0.546875 -0.5 0.546875 -1.1875zm0.21875 5.484375q0 -0.734375 -0.640625 -1.328125q-0.625 -0.59375 -1.5625 -0.59375q-0.9375 0 -1.578125 0.59375q-0.625 0.59375 -0.625 1.34375q0 0.59375 0.546875 1.03125q0.546875 0.421875 1.65625 0.421875q1.125 0 1.65625 -0.421875q0.546875 -0.4375 0.546875 -1.046875z" fill-rule="nonzero"/><path fill="#000000" fill-opacity="0.0" d="m685.11414 216.03937l30.015747 0l0 42.015747l-30.015747 0z" fill-rule="evenodd"/><path fill="#000000" d="m704.118 236.81874l-7.96875 0q-0.671875 0 -0.96875 -0.25q-0.28125 -0.265625 -0.28125 -0.6875q0 -0.40625 0.28125 -0.65625q0.296875 -0.265625 0.96875 -0.265625l7.96875 0q0.6875 0 0.96875 0.265625q0.28125 0.25 0.28125 0.671875q0 0.40625 -0.28125 0.671875q-0.28125 0.25 -0.96875 0.25zm0 3.515625l-7.96875 0q-0.671875 0 -0.96875 -0.25q-0.28125 -0.265625 -0.28125 -0.671875q0 -0.421875 0.28125 -0.671875q0.296875 -0.265625 0.96875 -0.265625l7.96875 0q0.6875 0 0.96875 0.265625q0.28125 0.25 0.28125 0.671875q0 0.40625 -0.28125 0.671875q-0.28125 0.25 -0.96875 0.25z" fill-rule="nonzero"/><path fill="#cfe2f3" d="m575.55383 316.2349l39.527527 0l0 39.527588l-39.527527 0z" fill-rule="evenodd"/><path stroke="#000000" stroke-width="1.0" stroke-linejoin="round" stroke-linecap="butt" d="m575.55383 316.2349l39.527527 0l0 39.527588l-39.527527 0z" fill-rule="evenodd"/><path fill="#000000" d="m597.9854 336.6843q0.828125 0.5625 1.234375 1.3125q0.40625 0.734375 0.40625 1.65625q0 0.984375 -0.546875 1.828125q-0.53125 0.84375 -1.5625 1.28125q-1.03125 0.421875 -2.703125 0.421875q-2.15625 0 -3.25 -0.671875q-0.609375 -0.375 -0.609375 -0.90625q0 -0.40625 0.265625 -0.671875q0.265625 -0.28125 0.65625 -0.28125q0.25 0 0.546875 0.171875q0.390625 0.28125 0.75 0.375q0.546875 0.125 1.5 0.125q1.640625 0 2.359375 -0.421875q0.734375 -0.421875 0.734375 -1.203125q0 -0.578125 -0.421875 -1.109375q-0.421875 -0.53125 -1.140625 -0.8125q-0.40625 -0.171875 -1.390625 -0.234375q-0.453125 -0.03125 -0.703125 -0.28125q-0.25 -0.265625 -0.25 -0.640625q0 -0.40625 0.265625 -0.671875q0.28125 -0.28125 0.6875 -0.28125q0.9375 0 1.0 -0.015625q0.359375 -0.03125 0.71875 -0.234375q0.375 -0.203125 0.59375 -0.546875q0.234375 -0.359375 0.234375 -0.71875q0 -0.59375 -0.53125 -1.03125q-0.515625 -0.4375 -1.578125 -0.4375q-1.34375 0 -2.046875 0.78125q-0.21875 0.234375 -0.34375 0.296875q-0.1875 0.09375 -0.421875 0.09375q-0.390625 0 -0.671875 -0.265625q-0.265625 -0.265625 -0.265625 -0.671875q0 -0.625 0.84375 -1.21875q1.21875 -0.875 3.046875 -0.875q1.734375 0 2.78125 0.984375q1.046875 0.984375 1.046875 2.375q0 0.71875 -0.3125 1.34375q-0.3125 0.625 -0.921875 1.15625z" fill-rule="nonzero"/><path fill="#000000" fill-opacity="0.0" d="m615.08136 314.9908l30.015747 0l0 42.015747l-30.015747 0z" fill-rule="evenodd"/><path fill="#000000" d="m631.0227 337.5358l0 3.125q0 0.671875 -0.265625 0.96875q-0.25 0.28125 -0.65625 0.28125q-0.421875 0 -0.6875 -0.28125q-0.25 -0.296875 -0.25 -0.96875l0 -3.125l-2.671875 0q-0.671875 0 -0.96875 -0.25q-0.28125 -0.265625 -0.28125 -0.6875q0 -0.421875 0.28125 -0.671875q0.296875 -0.265625 0.96875 -0.25l2.671875 0l0 -3.125q0 -0.65625 0.25 -0.953125q0.265625 -0.296875 0.6875 -0.296875q0.40625 0 0.671875 0.296875q0.265625 0.28125 0.265625 0.953125l-0.015625 3.125l2.671875 0q0.671875 0 0.953125 0.25q0.296875 0.25 0.296875 0.671875q0 0.421875 -0.296875 0.6875q-0.28125 0.25 -0.953125 0.25l-2.671875 0z" fill-rule="nonzero"/><path fill="#cfe2f3" d="m645.6811 316.2349l39.527588 0l0 39.527588l-39.527588 0z" fill-rule="evenodd"/><path stroke="#000000" stroke-width="1.0" stroke-linejoin="round" stroke-linecap="butt" d="m645.6811 316.2349l39.527588 0l0 39.527588l-39.527588 0z" fill-rule="evenodd"/><path fill="#000000" d="m668.0971 336.94992q0.71875 0.5625 1.078125 1.265625q0.359375 0.703125 0.359375 1.546875q0 0.9375 -0.46875 1.734375q-0.453125 0.78125 -1.4375 1.234375q-0.984375 0.453125 -2.1875 0.453125q-1.203125 0 -2.171875 -0.453125q-0.96875 -0.453125 -1.421875 -1.234375q-0.453125 -0.796875 -0.453125 -1.734375q0 -0.84375 0.359375 -1.546875q0.359375 -0.703125 1.078125 -1.265625q-0.640625 -0.578125 -0.953125 -1.234375q-0.3125 -0.65625 -0.3125 -1.390625q0 -1.421875 1.09375 -2.453125q1.09375 -1.046875 2.796875 -1.046875q1.71875 0 2.8125 1.046875q1.09375 1.03125 1.09375 2.453125q0 0.734375 -0.328125 1.390625q-0.3125 0.65625 -0.9375 1.234375zm-0.65625 -2.578125q0 -0.703125 -0.546875 -1.1875q-0.53125 -0.484375 -1.453125 -0.484375q-0.921875 0 -1.46875 0.484375q-0.546875 0.484375 -0.546875 1.1875q0 0.6875 0.546875 1.1875q0.546875 0.484375 1.46875 0.484375q0.921875 0 1.453125 -0.484375q0.546875 -0.5 0.546875 -1.1875zm0.21875 5.484375q0 -0.734375 -0.640625 -1.328125q-0.625 -0.59375 -1.5625 -0.59375q-0.9375 0 -1.578125 0.59375q-0.625 0.59375 -0.625 1.34375q0 0.59375 0.546875 1.03125q0.546875 0.421875 1.65625 0.421875q1.125 0 1.65625 -0.421875q0.546875 -0.4375 0.546875 -1.046875z" fill-rule="nonzero"/><path fill="#3d85c6" d="m713.7638 316.2362l39.527527 0l0 39.527588l-39.527527 0z" fill-rule="evenodd"/><path stroke="#000000" stroke-width="1.0" stroke-linejoin="round" stroke-linecap="butt" d="m713.7638 316.2362l39.527527 0l0 39.527588l-39.527527 0z" fill-rule="evenodd"/><path fill="#000000" d="m729.551 331.485l0 8.765625l1.609375 0q0.578125 0 0.828125 0.234375q0.25 0.21875 0.25 0.578125q0 0.34375 -0.25 0.578125q-0.25 0.21875 -0.828125 0.21875l-4.828125 0q-0.578125 0 -0.828125 -0.21875q-0.25 -0.234375 -0.25 -0.59375q0 -0.34375 0.25 -0.5625q0.25 -0.234375 0.828125 -0.234375l1.609375 0l0 -6.671875l-1.421875 0.375q-0.34375 0.09375 -0.515625 0.09375q-0.3125 0 -0.53125 -0.234375q-0.21875 -0.25 -0.21875 -0.609375q0 -0.3125 0.15625 -0.5q0.171875 -0.1875 0.6875 -0.328125l3.453125 -0.890625zm9.6015625 0l0 8.765625l1.609375 0q0.578125 0 0.828125 0.234375q0.25 0.21875 0.25 0.578125q0 0.34375 -0.25 0.578125q-0.25 0.21875 -0.828125 0.21875l-4.828125 0q-0.578125 0 -0.828125 -0.21875q-0.25 -0.234375 -0.25 -0.59375q0 -0.34375 0.25 -0.5625q0.25 -0.234375 0.828125 -0.234375l1.609375 0l0 -6.671875l-1.421875 0.375q-0.34375 0.09375 -0.515625 0.09375q-0.3125 0 -0.53125 -0.234375q-0.21875 -0.25 -0.21875 -0.609375q0 -0.3125 0.15625 -0.5q0.171875 -0.1875 0.6875 -0.328125l3.453125 -0.890625z" fill-rule="nonzero"/><path fill="#000000" fill-opacity="0.0" d="m685.11414 316.19028l30.015747 0l0 42.015747l-30.015747 0z" fill-rule="evenodd"/><path fill="#000000" d="m704.118 336.96967l-7.96875 0q-0.671875 0 -0.96875 -0.25q-0.28125 -0.265625 -0.28125 -0.6875q0 -0.40625 0.28125 -0.65625q0.296875 -0.265625 0.96875 -0.265625l7.96875 0q0.6875 0 0.96875 0.265625q0.28125 0.25 0.28125 0.671875q0 0.40625 -0.28125 0.671875q-0.28125 0.25 -0.96875 0.25zm0 3.515625l-7.96875 0q-0.671875 0 -0.96875 -0.25q-0.28125 -0.265625 -0.28125 -0.671875q0 -0.421875 0.28125 -0.671875q0.296875 -0.265625 0.96875 -0.265625l7.96875 0q0.6875 0 0.96875 0.265625q0.28125 0.25 0.28125 0.671875q0 0.40625 -0.28125 0.671875q-0.28125 0.25 -0.96875 0.25z" fill-rule="nonzero"/><path fill="#cfe2f3" d="m971.20734 25.692913l39.527588 0l0 39.52756l-39.527588 0z" fill-rule="evenodd"/><path stroke="#000000" stroke-width="1.0" stroke-linejoin="round" stroke-linecap="butt" d="m971.20734 25.692913l39.527588 0l0 39.52756l-39.527588 0z" fill-rule="evenodd"/><path fill="#000000" d="m993.639 46.142315q0.828125 0.5625 1.234375 1.3125q0.40625 0.734375 0.40625 1.65625q0 0.984375 -0.546875 1.828125q-0.53125 0.84375 -1.5625 1.28125q-1.03125 0.421875 -2.703125 0.421875q-2.15625 0 -3.25 -0.671875q-0.609375 -0.375 -0.609375 -0.90625q0 -0.40625 0.265625 -0.671875q0.265625 -0.28125 0.65625 -0.28125q0.25 0 0.546875 0.171875q0.390625 0.28125 0.75 0.375q0.546875 0.125 1.5 0.125q1.640625 0 2.359375 -0.421875q0.734375 -0.421875 0.734375 -1.203125q0 -0.578125 -0.421875 -1.109375q-0.421875 -0.53125 -1.140625 -0.8125q-0.40625 -0.171875 -1.390625 -0.234375q-0.453125 -0.03125 -0.703125 -0.28125q-0.25 -0.265625 -0.25 -0.640625q0 -0.40625 0.265625 -0.671875q0.28125 -0.28125 0.6875 -0.28125q0.9375 0 1.0 -0.015625q0.359375 -0.03125 0.71875 -0.234375q0.375 -0.203125 0.59375 -0.546875q0.234375 -0.359375 0.234375 -0.71875q0 -0.59375 -0.53125 -1.03125q-0.515625 -0.4375 -1.578125 -0.4375q-1.34375 0 -2.046875 0.78125q-0.21875 0.234375 -0.34375 0.296875q-0.1875 0.09375 -0.421875 0.09375q-0.390625 0 -0.671875 -0.265625q-0.265625 -0.265625 -0.265625 -0.671875q0 -0.625 0.84375 -1.21875q1.21875 -0.875 3.046875 -0.875q1.734375 0 2.78125 0.984375q1.046875 0.984375 1.046875 2.375q0 0.71875 -0.3125 1.34375q-0.3125 0.625 -0.921875 1.15625z" fill-rule="nonzero"/><path fill="#cfe2f3" d="m832.9974 120.86352l39.527588 0l0 39.527565l-39.527588 0z" fill-rule="evenodd"/><path stroke="#000000" stroke-width="1.0" stroke-linejoin="round" stroke-linecap="butt" d="m832.9974 120.86352l39.527588 0l0 39.527565l-39.527588 0z" fill-rule="evenodd"/><path fill="#000000" d="m853.71027 135.45354l0 10.21875l1.890625 0q0.671875 0 0.953125 0.265625q0.296875 0.265625 0.296875 0.6875q0 0.40625 -0.296875 0.671875q-0.28125 0.25 -0.953125 0.25l-5.640625 0q-0.671875 0 -0.96875 -0.25q-0.28125 -0.265625 -0.28125 -0.6875q0 -0.40625 0.28125 -0.671875q0.296875 -0.265625 0.96875 -0.265625l1.890625 0l0 -7.78125l-1.671875 0.4375q-0.40625 0.109375 -0.609375 0.109375q-0.34375 0 -0.609375 -0.28125q-0.25 -0.28125 -0.25 -0.6875q0 -0.375 0.1875 -0.59375q0.1875 -0.21875 0.796875 -0.375l4.015625 -1.046875z" fill-rule="nonzero"/><path fill="#000000" fill-opacity="0.0" d="m872.5249 119.61942l30.015747 0l0 42.015755l-30.015747 0z" fill-rule="evenodd"/><path fill="#000000" d="m888.46625 142.16441l0 3.125q0 0.671875 -0.265625 0.96875q-0.25 0.28125 -0.65625 0.28125q-0.421875 0 -0.6875 -0.28125q-0.25 -0.296875 -0.25 -0.96875l0 -3.125l-2.671875 0q-0.671875 0 -0.96875 -0.25q-0.28125 -0.265625 -0.28125 -0.6875q0 -0.421875 0.28125 -0.671875q0.296875 -0.265625 0.96875 -0.25l2.671875 0l0 -3.125q0 -0.65625 0.25 -0.953125q0.265625 -0.296875 0.6875 -0.296875q0.40625 0 0.671875 0.296875q0.265625 0.28125 0.265625 0.953125l-0.015625 3.125l2.671875 0q0.671875 0 0.953125 0.25q0.296875 0.25 0.296875 0.671875q0 0.421875 -0.296875 0.6875q-0.28125 0.25 -0.953125 0.25l-2.671875 0z" fill-rule="nonzero"/><path fill="#cfe2f3" d="m903.1247 120.86352l39.527527 0l0 39.527565l-39.527527 0z" fill-rule="evenodd"/><path stroke="#000000" stroke-width="1.0" stroke-linejoin="round" stroke-linecap="butt" d="m903.1247 120.86352l39.527527 0l0 39.527565l-39.527527 0z" fill-rule="evenodd"/><path fill="#000000" d="m925.5563 141.31291q0.828125 0.5625 1.234375 1.3125q0.40625 0.734375 0.40625 1.65625q0 0.984375 -0.546875 1.828125q-0.53125 0.84375 -1.5625 1.28125q-1.03125 0.421875 -2.703125 0.421875q-2.15625 0 -3.25 -0.671875q-0.609375 -0.375 -0.609375 -0.90625q0 -0.40625 0.265625 -0.671875q0.265625 -0.28125 0.65625 -0.28125q0.25 0 0.546875 0.171875q0.390625 0.28125 0.75 0.375q0.546875 0.125 1.5 0.125q1.640625 0 2.359375 -0.421875q0.734375 -0.421875 0.734375 -1.203125q0 -0.578125 -0.421875 -1.109375q-0.421875 -0.53125 -1.140625 -0.8125q-0.40625 -0.171875 -1.390625 -0.234375q-0.453125 -0.03125 -0.703125 -0.28125q-0.25 -0.265625 -0.25 -0.640625q0 -0.40625 0.265625 -0.671875q0.28125 -0.28125 0.6875 -0.28125q0.9375 0 1.0 -0.015625q0.359375 -0.03125 0.71875 -0.234375q0.375 -0.203125 0.59375 -0.546875q0.234375 -0.359375 0.234375 -0.71875q0 -0.59375 -0.53125 -1.03125q-0.515625 -0.4375 -1.578125 -0.4375q-1.34375 0 -2.046875 0.78125q-0.21875 0.234375 -0.34375 0.296875q-0.1875 0.09375 -0.421875 0.09375q-0.390625 0 -0.671875 -0.265625q-0.265625 -0.265625 -0.265625 -0.671875q0 -0.625 0.84375 -1.21875q1.21875 -0.875 3.046875 -0.875q1.734375 0 2.78125 0.984375q1.046875 0.984375 1.046875 2.375q0 0.71875 -0.3125 1.34375q-0.3125 0.625 -0.921875 1.15625z" fill-rule="nonzero"/><path fill="#3d85c6" d="m971.20734 120.86483l39.527588 0l0 39.527565l-39.527588 0z" fill-rule="evenodd"/><path stroke="#000000" stroke-width="1.0" stroke-linejoin="round" stroke-linecap="butt" d="m971.20734 120.86483l39.527588 0l0 39.527565l-39.527588 0z" fill-rule="evenodd"/><path fill="#000000" d="m993.7015 135.76735l0 7.296875q0.59375 0 0.875 0.265625q0.28125 0.25 0.28125 0.671875q0 0.40625 -0.28125 0.671875q-0.28125 0.265625 -0.875 0.265625l0 0.734375q0.59375 0 0.875 0.265625q0.28125 0.265625 0.28125 0.6875q0 0.40625 -0.28125 0.671875q-0.28125 0.25 -0.953125 0.25l-2.515625 0q-0.671875 0 -0.96875 -0.25q-0.28125 -0.265625 -0.28125 -0.6875q0 -0.40625 0.28125 -0.671875q0.296875 -0.265625 0.96875 -0.265625l0.734375 0l0 -0.734375l-5.078125 0l0 -1.5625l4.46875 -7.609375l2.46875 0zm-1.859375 7.296875l0 -4.59375l-2.703125 4.59375l2.703125 0z" fill-rule="nonzero"/><path fill="#000000" fill-opacity="0.0" d="m942.55774 120.8189l30.015747 0l0 42.01574l-30.015747 0z" fill-rule="evenodd"/><path fill="#000000" d="m961.5616 141.59827l-7.96875 0q-0.671875 0 -0.96875 -0.25q-0.28125 -0.265625 -0.28125 -0.6875q0 -0.40625 0.28125 -0.65625q0.296875 -0.265625 0.96875 -0.265625l7.96875 0q0.6875 0 0.96875 0.265625q0.28125 0.25 0.28125 0.671875q0 0.40625 -0.28125 0.671875q-0.28125 0.25 -0.96875 0.25zm0 3.515625l-7.96875 0q-0.671875 0 -0.96875 -0.25q-0.28125 -0.265625 -0.28125 -0.671875q0 -0.421875 0.28125 -0.671875q0.296875 -0.265625 0.96875 -0.265625l7.96875 0q0.6875 0 0.96875 0.265625q0.28125 0.25 0.28125 0.671875q0 0.40625 -0.28125 0.671875q-0.28125 0.25 -0.96875 0.25z" fill-rule="nonzero"/><path fill="#cfe2f3" d="m832.9974 216.08398l39.527588 0l0 39.527557l-39.527588 0z" fill-rule="evenodd"/><path stroke="#000000" stroke-width="1.0" stroke-linejoin="round" stroke-linecap="butt" d="m832.9974 216.08398l39.527588 0l0 39.527557l-39.527588 0z" fill-rule="evenodd"/><path fill="#000000" d="m851.02277 240.89276l4.078125 0q0.34375 -0.265625 0.640625 -0.265625q0.4375 0 0.6875 0.28125q0.25 0.28125 0.25 0.96875l0 0.890625l-8.515625 0l0 -1.984375q5.046875 -4.15625 6.09375 -5.34375q0.53125 -0.609375 0.53125 -1.15625q0 -0.6875 -0.59375 -1.203125q-0.59375 -0.53125 -1.59375 -0.53125q-1.0 0 -1.671875 0.578125q-0.34375 0.3125 -0.546875 0.921875q-0.125 0.390625 -0.359375 0.5625q-0.21875 0.15625 -0.546875 0.15625q-0.375 0 -0.65625 -0.265625q-0.28125 -0.28125 -0.28125 -0.65625q0 -0.546875 0.5 -1.359375q0.515625 -0.828125 1.484375 -1.3125q0.96875 -0.5 2.109375 -0.5q1.765625 0 2.890625 1.078125q1.125 1.0625 1.125 2.59375q0 0.765625 -0.328125 1.4375q-0.3125 0.65625 -1.546875 1.8125q-0.953125 0.921875 -3.75 3.296875z" fill-rule="nonzero"/><path fill="#000000" fill-opacity="0.0" d="m872.5249 214.83989l30.015747 0l0 42.015762l-30.015747 0z" fill-rule="evenodd"/><path fill="#000000" d="m888.46625 237.38489l0 3.125q0 0.671875 -0.265625 0.96875q-0.25 0.28125 -0.65625 0.28125q-0.421875 0 -0.6875 -0.28125q-0.25 -0.296875 -0.25 -0.96875l0 -3.125l-2.671875 0q-0.671875 0 -0.96875 -0.25q-0.28125 -0.265625 -0.28125 -0.6875q0 -0.421875 0.28125 -0.671875q0.296875 -0.265625 0.96875 -0.25l2.671875 0l0 -3.125q0 -0.65625 0.25 -0.953125q0.265625 -0.296875 0.6875 -0.296875q0.40625 0 0.671875 0.296875q0.265625 0.28125 0.265625 0.953125l-0.015625 3.125l2.671875 0q0.671875 0 0.953125 0.25q0.296875 0.25 0.296875 0.671875q0 0.421875 -0.296875 0.6875q-0.28125 0.25 -0.953125 0.25l-2.671875 0z" fill-rule="nonzero"/><path fill="#cfe2f3" d="m903.1247 216.08398l39.527527 0l0 39.527557l-39.527527 0z" fill-rule="evenodd"/><path stroke="#000000" stroke-width="1.0" stroke-linejoin="round" stroke-linecap="butt" d="m903.1247 216.08398l39.527527 0l0 39.527557l-39.527527 0z" fill-rule="evenodd"/><path fill="#000000" d="m925.6188 230.98651l0 7.296875q0.59375 0 0.875 0.265625q0.28125 0.25 0.28125 0.671875q0 0.40625 -0.28125 0.671875q-0.28125 0.265625 -0.875 0.265625l0 0.734375q0.59375 0 0.875 0.265625q0.28125 0.265625 0.28125 0.6875q0 0.40625 -0.28125 0.671875q-0.28125 0.25 -0.953125 0.25l-2.515625 0q-0.671875 0 -0.96875 -0.25q-0.28125 -0.265625 -0.28125 -0.6875q0 -0.40625 0.28125 -0.671875q0.296875 -0.265625 0.96875 -0.265625l0.734375 0l0 -0.734375l-5.078125 0l0 -1.5625l4.46875 -7.609375l2.46875 0zm-1.859375 7.296875l0 -4.59375l-2.703125 4.59375l2.703125 0z" fill-rule="nonzero"/><path fill="#3d85c6" d="m971.20734 216.0853l39.527588 0l0 39.527557l-39.527588 0z" fill-rule="evenodd"/><path stroke="#000000" stroke-width="1.0" stroke-linejoin="round" stroke-linecap="butt" d="m971.20734 216.0853l39.527588 0l0 39.527557l-39.527588 0z" fill-rule="evenodd"/><path fill="#000000" d="m989.2171 236.39407q0.671875 -0.5625 1.28125 -0.8125q0.609375 -0.265625 1.3125 -0.265625q1.453125 0 2.5625 1.171875q1.109375 1.15625 1.109375 2.90625q0 1.640625 -1.03125 2.640625q-1.03125 1.0 -2.78125 1.0q-1.46875 0 -2.421875 -0.671875q-0.9375 -0.6875 -1.421875 -2.109375q-0.484375 -1.421875 -0.484375 -3.171875q0 -2.09375 0.953125 -3.484375q0.953125 -1.390625 2.25 -2.15625q1.296875 -0.765625 2.734375 -0.765625q1.140625 0 1.765625 0.453125q0.40625 0.296875 0.40625 0.765625q0 0.40625 -0.28125 0.6875q-0.265625 0.28125 -0.640625 0.28125q-0.21875 0 -0.625 -0.21875q-0.25 -0.125 -0.484375 -0.125q-0.890625 0 -1.84375 0.5q-0.953125 0.5 -1.65625 1.546875q-0.484375 0.734375 -0.703125 1.828125zm0.28125 2.890625q0.28125 1.09375 0.78125 1.5q0.5 0.390625 1.421875 0.390625q0.90625 0 1.40625 -0.484375q0.5 -0.484375 0.5 -1.3125q0 -0.953125 -0.578125 -1.578125q-0.5625 -0.625 -1.265625 -0.625q-0.5625 0 -1.21875 0.5625q-0.640625 0.546875 -1.046875 1.546875z" fill-rule="nonzero"/><path fill="#000000" fill-opacity="0.0" d="m942.55774 216.03937l30.015747 0l0 42.015747l-30.015747 0z" fill-rule="evenodd"/><path fill="#000000" d="m961.5616 236.81874l-7.96875 0q-0.671875 0 -0.96875 -0.25q-0.28125 -0.265625 -0.28125 -0.6875q0 -0.40625 0.28125 -0.65625q0.296875 -0.265625 0.96875 -0.265625l7.96875 0q0.6875 0 0.96875 0.265625q0.28125 0.25 0.28125 0.671875q0 0.40625 -0.28125 0.671875q-0.28125 0.25 -0.96875 0.25zm0 3.515625l-7.96875 0q-0.671875 0 -0.96875 -0.25q-0.28125 -0.265625 -0.28125 -0.671875q0 -0.421875 0.28125 -0.671875q0.296875 -0.265625 0.96875 -0.265625l7.96875 0q0.6875 0 0.96875 0.265625q0.28125 0.25 0.28125 0.671875q0 0.40625 -0.28125 0.671875q-0.28125 0.25 -0.96875 0.25z" fill-rule="nonzero"/><path fill="#cfe2f3" d="m832.9974 316.2349l39.527588 0l0 39.527588l-39.527588 0z" fill-rule="evenodd"/><path stroke="#000000" stroke-width="1.0" stroke-linejoin="round" stroke-linecap="butt" d="m832.9974 316.2349l39.527588 0l0 39.527588l-39.527588 0z" fill-rule="evenodd"/><path fill="#000000" d="m851.19464 332.9968l0 2.21875q1.03125 -0.328125 1.875 -0.328125q1.734375 0 2.859375 1.1875q1.140625 1.171875 1.140625 3.03125q0 1.90625 -1.15625 3.0q-1.140625 1.078125 -3.515625 1.078125q-2.09375 0 -3.328125 -0.78125q-0.703125 -0.453125 -0.703125 -1.046875q0 -0.375 0.28125 -0.65625q0.28125 -0.28125 0.65625 -0.28125q0.3125 0 0.6875 0.3125q0.375 0.296875 0.78125 0.421875q0.59375 0.171875 1.5 0.171875q1.703125 0 2.3125 -0.53125q0.625 -0.546875 0.625 -1.671875q0 -1.109375 -0.609375 -1.734375q-0.59375 -0.625 -1.53125 -0.625q-1.0 0 -2.296875 0.65625q-0.296875 0.15625 -0.515625 0.15625q-0.390625 0 -0.671875 -0.296875q-0.265625 -0.296875 -0.265625 -0.75l0 -5.390625l5.71875 0q0.671875 0 0.953125 0.265625q0.296875 0.25 0.296875 0.671875q0 0.40625 -0.296875 0.671875q-0.28125 0.25 -0.953125 0.25l-3.84375 0z" fill-rule="nonzero"/><path fill="#000000" fill-opacity="0.0" d="m872.5249 314.9908l30.015747 0l0 42.015747l-30.015747 0z" fill-rule="evenodd"/><path fill="#000000" d="m888.46625 337.5358l0 3.125q0 0.671875 -0.265625 0.96875q-0.25 0.28125 -0.65625 0.28125q-0.421875 0 -0.6875 -0.28125q-0.25 -0.296875 -0.25 -0.96875l0 -3.125l-2.671875 0q-0.671875 0 -0.96875 -0.25q-0.28125 -0.265625 -0.28125 -0.6875q0 -0.421875 0.28125 -0.671875q0.296875 -0.265625 0.96875 -0.25l2.671875 0l0 -3.125q0 -0.65625 0.25 -0.953125q0.265625 -0.296875 0.6875 -0.296875q0.40625 0 0.671875 0.296875q0.265625 0.28125 0.265625 0.953125l-0.015625 3.125l2.671875 0q0.671875 0 0.953125 0.25q0.296875 0.25 0.296875 0.671875q0 0.421875 -0.296875 0.6875q-0.28125 0.25 -0.953125 0.25l-2.671875 0z" fill-rule="nonzero"/><path fill="#cfe2f3" d="m903.1247 316.2349l39.527527 0l0 39.527588l-39.527527 0z" fill-rule="evenodd"/><path stroke="#000000" stroke-width="1.0" stroke-linejoin="round" stroke-linecap="butt" d="m903.1247 316.2349l39.527527 0l0 39.527588l-39.527527 0z" fill-rule="evenodd"/><path fill="#000000" d="m921.1344 336.54367q0.671875 -0.5625 1.28125 -0.8125q0.609375 -0.265625 1.3125 -0.265625q1.453125 0 2.5625 1.171875q1.109375 1.15625 1.109375 2.90625q0 1.640625 -1.03125 2.640625q-1.03125 1.0 -2.78125 1.0q-1.46875 0 -2.421875 -0.671875q-0.9375 -0.6875 -1.421875 -2.109375q-0.484375 -1.421875 -0.484375 -3.171875q0 -2.09375 0.953125 -3.484375q0.953125 -1.390625 2.25 -2.15625q1.296875 -0.765625 2.734375 -0.765625q1.140625 0 1.765625 0.453125q0.40625 0.296875 0.40625 0.765625q0 0.40625 -0.28125 0.6875q-0.265625 0.28125 -0.640625 0.28125q-0.21875 0 -0.625 -0.21875q-0.25 -0.125 -0.484375 -0.125q-0.890625 0 -1.84375 0.5q-0.953125 0.5 -1.65625 1.546875q-0.484375 0.734375 -0.703125 1.828125zm0.28125 2.890625q0.28125 1.09375 0.78125 1.5q0.5 0.390625 1.421875 0.390625q0.90625 0 1.40625 -0.484375q0.5 -0.484375 0.5 -1.3125q0 -0.953125 -0.578125 -1.578125q-0.5625 -0.625 -1.265625 -0.625q-0.5625 0 -1.21875 0.5625q-0.640625 0.546875 -1.046875 1.546875z" fill-rule="nonzero"/><path fill="#3d85c6" d="m971.20734 316.2362l39.527588 0l0 39.527588l-39.527588 0z" fill-rule="evenodd"/><path stroke="#000000" stroke-width="1.0" stroke-linejoin="round" stroke-linecap="butt" d="m971.20734 316.2362l39.527588 0l0 39.527588l-39.527588 0z" fill-rule="evenodd"/><path fill="#000000" d="m986.99457 331.485l0 8.765625l1.609375 0q0.578125 0 0.828125 0.234375q0.25 0.21875 0.25 0.578125q0 0.34375 -0.25 0.578125q-0.25 0.21875 -0.828125 0.21875l-4.828125 0q-0.578125 0 -0.828125 -0.21875q-0.25 -0.234375 -0.25 -0.59375q0 -0.34375 0.25 -0.5625q0.25 -0.234375 0.828125 -0.234375l1.609375 0l0 -6.671875l-1.421875 0.375q-0.34375 0.09375 -0.515625 0.09375q-0.3125 0 -0.53125 -0.234375q-0.21875 -0.25 -0.21875 -0.609375q0 -0.3125 0.15625 -0.5q0.171875 -0.1875 0.6875 -0.328125l3.453125 -0.890625zm9.6015625 0l0 8.765625l1.609375 0q0.578125 0 0.828125 0.234375q0.25 0.21875 0.25 0.578125q0 0.34375 -0.25 0.578125q-0.25 0.21875 -0.828125 0.21875l-4.828125 0q-0.578125 0 -0.828125 -0.21875q-0.25 -0.234375 -0.25 -0.59375q0 -0.34375 0.25 -0.5625q0.25 -0.234375 0.828125 -0.234375l1.609375 0l0 -6.671875l-1.421875 0.375q-0.34375 0.09375 -0.515625 0.09375q-0.3125 0 -0.53125 -0.234375q-0.21875 -0.25 -0.21875 -0.609375q0 -0.3125 0.15625 -0.5q0.171875 -0.1875 0.6875 -0.328125l3.453125 -0.890625z" fill-rule="nonzero"/><path fill="#000000" fill-opacity="0.0" d="m942.55774 316.19028l30.015747 0l0 42.015747l-30.015747 0z" fill-rule="evenodd"/><path fill="#000000" d="m961.5616 336.96967l-7.96875 0q-0.671875 0 -0.96875 -0.25q-0.28125 -0.265625 -0.28125 -0.6875q0 -0.40625 0.28125 -0.65625q0.296875 -0.265625 0.96875 -0.265625l7.96875 0q0.6875 0 0.96875 0.265625q0.28125 0.25 0.28125 0.671875q0 0.40625 -0.28125 0.671875q-0.28125 0.25 -0.96875 0.25zm0 3.515625l-7.96875 0q-0.671875 0 -0.96875 -0.25q-0.28125 -0.265625 -0.28125 -0.671875q0 -0.421875 0.28125 -0.671875q0.296875 -0.265625 0.96875 -0.265625l7.96875 0q0.6875 0 0.96875 0.265625q0.28125 0.25 0.28125 0.671875q0 0.40625 -0.28125 0.671875q-0.28125 0.25 -0.96875 0.25z" fill-rule="nonzero"/><path fill="#000000" fill-opacity="0.0" d="m238.4042 47.850395l79.71652 92.78741" fill-rule="evenodd"/><path stroke="#000000" stroke-width="1.0" stroke-linejoin="round" stroke-linecap="butt" d="m238.4042 47.850395l75.80658 88.236336" fill-rule="evenodd"/><path fill="#000000" stroke="#000000" stroke-width="1.0" stroke-linecap="butt" d="m312.95792 137.1631l4.210144 2.3658295l-1.7044373 -4.51857z" fill-rule="evenodd"/><path fill="#000000" fill-opacity="0.0" d="m495.84778 45.45669l79.71655 95.18111" fill-rule="evenodd"/><path stroke="#000000" stroke-width="1.0" stroke-linejoin="round" stroke-linecap="butt" d="m495.84778 45.45669l75.86401 90.58127" fill-rule="evenodd"/><path fill="#000000" stroke="#000000" stroke-width="1.0" stroke-linecap="butt" d="m570.44556 137.09851l4.1801147 2.4185333l-1.647583 -4.539627z" fill-rule="evenodd"/><path fill="#000000" fill-opacity="0.0" d="m753.2913 47.850395l79.71655 92.78741" fill-rule="evenodd"/><path stroke="#000000" stroke-width="1.0" stroke-linejoin="round" stroke-linecap="butt" d="m753.2913 47.850395l75.80664 88.236336" fill-rule="evenodd"/><path fill="#000000" stroke="#000000" stroke-width="1.0" stroke-linecap="butt" d="m827.84503 137.1631l4.210205 2.3658295l-1.7044678 -4.51857z" fill-rule="evenodd"/><path fill="#000000" fill-opacity="0.0" d="m80.43044 160.39108l257.44882 55.685028" fill-rule="evenodd"/><path stroke="#000000" stroke-width="1.0" stroke-linejoin="round" stroke-linecap="butt" d="m80.43044 160.39108l251.58441 54.416595" fill-rule="evenodd"/><path fill="#000000" stroke="#000000" stroke-width="1.0" stroke-linecap="butt" d="m331.66568 216.42207l4.784729 -0.65501404l-4.086334 -2.5737915z" fill-rule="evenodd"/><path fill="#000000" fill-opacity="0.0" d="m337.86877 160.39896l257.4488 55.685028" fill-rule="evenodd"/><path stroke="#000000" stroke-width="1.0" stroke-linejoin="round" stroke-linecap="butt" d="m337.86877 160.39896l251.58441 54.416595" fill-rule="evenodd"/><path fill="#000000" stroke="#000000" stroke-width="1.0" stroke-linecap="butt" d="m589.104 216.42995l4.784729 -0.65501404l-4.0863647 -2.5737915z" fill-rule="evenodd"/><path fill="#000000" fill-opacity="0.0" d="m595.3123 160.39896l257.44885 55.685028" fill-rule="evenodd"/><path stroke="#000000" stroke-width="1.0" stroke-linejoin="round" stroke-linecap="butt" d="m595.3123 160.39896l251.58441 54.416595" fill-rule="evenodd"/><path fill="#000000" stroke="#000000" stroke-width="1.0" stroke-linecap="butt" d="m846.5476 216.42995l4.784668 -0.65501404l-4.0863037 -2.5737915z" fill-rule="evenodd"/><path fill="#000000" fill-opacity="0.0" d="m80.43044 255.61154l257.44882 60.629913" fill-rule="evenodd"/><path stroke="#000000" stroke-width="1.0" stroke-linejoin="round" stroke-linecap="butt" d="m80.43044 255.61154l251.60858 59.254547" fill-rule="evenodd"/><path fill="#000000" stroke="#000000" stroke-width="1.0" stroke-linecap="butt" d="m331.6604 316.47382l4.7958984 -0.56747437l-4.0386353 -2.6480103z" fill-rule="evenodd"/><path fill="#000000" fill-opacity="0.0" d="m337.87402 255.61154l257.4488 60.629913" fill-rule="evenodd"/><path stroke="#000000" stroke-width="1.0" stroke-linejoin="round" stroke-linecap="butt" d="m337.87402 255.61154l251.60858 59.254547" fill-rule="evenodd"/><path fill="#000000" stroke="#000000" stroke-width="1.0" stroke-linecap="butt" d="m589.104 316.47382l4.7958374 -0.56747437l-4.0386353 -2.6480103z" fill-rule="evenodd"/><path fill="#000000" fill-opacity="0.0" d="m595.31757 255.61154l257.44885 60.629913" fill-rule="evenodd"/><path stroke="#000000" stroke-width="1.0" stroke-linejoin="round" stroke-linecap="butt" d="m595.31757 255.61154l251.60864 59.254547" fill-rule="evenodd"/><path fill="#000000" stroke="#000000" stroke-width="1.0" stroke-linecap="butt" d="m846.54755 316.47382l4.7958984 -0.56747437l-4.0386353 -2.6480103z" fill-rule="evenodd"/></g></svg>