<svg version="1.1" viewBox="0.0 0.0 1294.981627296588 510.7979002624672" fill="none" stroke="none" stroke-linecap="square" stroke-miterlimit="10" xmlns:xlink="http://www.w3.org/1999/xlink" xmlns="http://www.w3.org/2000/svg"><clipPath id="p.0"><path d="m0 0l1294.9816 0l0 510.7979l-1294.9816 0l0 -510.7979z" clip-rule="nonzero"/></clipPath><g clip-path="url(#p.0)"><path fill="#000000" fill-opacity="0.0" d="m0 0l1294.9816 0l0 510.7979l-1294.9816 0z" fill-rule="evenodd"/><path fill="#95eeff" d="m109.23097 137.77165l69.13385 0l0 69.133865l-69.13385 0z" fill-rule="evenodd"/><path stroke="#999999" stroke-width="2.0" stroke-linejoin="round" stroke-linecap="butt" d="m109.23097 137.77165l69.13385 0l0 69.133865l-69.13385 0z" fill-rule="evenodd"/><path fill="#0000ff" d="m178.36482 137.77165l69.133865 0l0 69.133865l-69.133865 0z" fill-rule="evenodd"/><path stroke="#999999" stroke-width="2.0" stroke-linejoin="round" stroke-linecap="butt" d="m178.36482 137.77165l69.133865 0l0 69.133865l-69.133865 0z" fill-rule="evenodd"/><path fill="#95eeff" d="m247.49869 137.77165l69.13385 0l0 69.133865l-69.13385 0z" fill-rule="evenodd"/><path stroke="#999999" stroke-width="2.0" stroke-linejoin="round" stroke-linecap="butt" d="m247.49869 137.77165l69.13385 0l0 69.133865l-69.13385 0z" fill-rule="evenodd"/><path fill="#95eeff" d="m316.63254 137.77165l69.13388 0l0 69.133865l-69.13388 0z" fill-rule="evenodd"/><path stroke="#999999" stroke-width="2.0" stroke-linejoin="round" stroke-linecap="butt" d="m316.63254 137.77165l69.13388 0l0 69.133865l-69.13388 0z" fill-rule="evenodd"/><path fill="#ffffff" d="m109.23097 206.90552l69.13385 0l0 69.13385l-69.13385 0z" fill-rule="evenodd"/><path stroke="#999999" stroke-width="2.0" stroke-linejoin="round" stroke-linecap="butt" d="m109.23097 206.90552l69.13385 0l0 69.13385l-69.13385 0z" fill-rule="evenodd"/><path fill="#ffffff" d="m178.36482 206.90552l69.133865 0l0 69.13385l-69.133865 0z" fill-rule="evenodd"/><path stroke="#999999" stroke-width="2.0" stroke-linejoin="round" stroke-linecap="butt" d="m178.36482 206.90552l69.133865 0l0 69.13385l-69.133865 0z" fill-rule="evenodd"/><path fill="#ffffff" d="m247.49869 206.90552l69.13385 0l0 69.13385l-69.13385 0z" fill-rule="evenodd"/><path stroke="#999999" stroke-width="2.0" stroke-linejoin="round" stroke-linecap="butt" d="m247.49869 206.90552l69.13385 0l0 69.13385l-69.13385 0z" fill-rule="evenodd"/><path fill="#ffffff" d="m316.63254 206.90552l69.13388 0l0 69.13385l-69.13388 0z" fill-rule="evenodd"/><path stroke="#999999" stroke-width="2.0" stroke-linejoin="round" stroke-linecap="butt" d="m316.63254 206.90552l69.13388 0l0 69.13385l-69.13388 0z" fill-rule="evenodd"/><path fill="#ffffff" d="m109.23097 276.03937l69.13385 0l0 69.13385l-69.13385 0z" fill-rule="evenodd"/><path stroke="#999999" stroke-width="2.0" stroke-linejoin="round" stroke-linecap="butt" d="m109.23097 276.03937l69.13385 0l0 69.13385l-69.13385 0z" fill-rule="evenodd"/><path fill="#ffffff" d="m178.36482 276.03937l69.133865 0l0 69.13385l-69.133865 0z" fill-rule="evenodd"/><path stroke="#999999" stroke-width="2.0" stroke-linejoin="round" stroke-linecap="butt" d="m178.36482 276.03937l69.133865 0l0 69.13385l-69.133865 0z" fill-rule="evenodd"/><path fill="#ffffff" d="m247.49869 276.03937l69.13385 0l0 69.13385l-69.13385 0z" fill-rule="evenodd"/><path stroke="#999999" stroke-width="2.0" stroke-linejoin="round" stroke-linecap="butt" d="m247.49869 276.03937l69.13385 0l0 69.13385l-69.13385 0z" fill-rule="evenodd"/><path fill="#ffffff" d="m316.63254 276.03937l69.13388 0l0 69.13385l-69.13388 0z" fill-rule="evenodd"/><path stroke="#999999" stroke-width="2.0" stroke-linejoin="round" stroke-linecap="butt" d="m316.63254 276.03937l69.13388 0l0 69.13385l-69.13388 0z" fill-rule="evenodd"/><path fill="#ffffff" d="m109.23097 345.17322l69.13385 0l0 69.13388l-69.13385 0z" fill-rule="evenodd"/><path stroke="#999999" stroke-width="2.0" stroke-linejoin="round" stroke-linecap="butt" d="m109.23097 345.17322l69.13385 0l0 69.13388l-69.13385 0z" fill-rule="evenodd"/><path fill="#ffffff" d="m178.36482 345.17322l69.133865 0l0 69.13388l-69.133865 0z" fill-rule="evenodd"/><path stroke="#999999" stroke-width="2.0" stroke-linejoin="round" stroke-linecap="butt" d="m178.36482 345.17322l69.133865 0l0 69.13388l-69.133865 0z" fill-rule="evenodd"/><path fill="#ffffff" d="m247.49869 345.17322l69.13385 0l0 69.13388l-69.13385 0z" fill-rule="evenodd"/><path stroke="#999999" stroke-width="2.0" stroke-linejoin="round" stroke-linecap="butt" d="m247.49869 345.17322l69.13385 0l0 69.13388l-69.13385 0z" fill-rule="evenodd"/><path fill="#ffffff" d="m316.63254 345.17322l69.13388 0l0 69.13388l-69.13388 0z" fill-rule="evenodd"/><path stroke="#999999" stroke-width="2.0" stroke-linejoin="round" stroke-linecap="butt" d="m316.63254 345.17322l69.13388 0l0 69.13388l-69.13388 0z" fill-rule="evenodd"/><path fill="#95eeff" d="m385.76642 137.77165l69.13385 0l0 69.133865l-69.13385 0z" fill-rule="evenodd"/><path stroke="#999999" stroke-width="2.0" stroke-linejoin="round" stroke-linecap="butt" d="m385.76642 137.77165l69.13385 0l0 69.133865l-69.13385 0z" fill-rule="evenodd"/><path fill="#ffffff" d="m385.76642 206.90552l69.13385 0l0 69.13385l-69.13385 0z" fill-rule="evenodd"/><path stroke="#999999" stroke-width="2.0" stroke-linejoin="round" stroke-linecap="butt" d="m385.76642 206.90552l69.13385 0l0 69.13385l-69.13385 0z" fill-rule="evenodd"/><path fill="#ffffff" d="m385.76642 276.03937l69.13385 0l0 69.13385l-69.13385 0z" fill-rule="evenodd"/><path stroke="#999999" stroke-width="2.0" stroke-linejoin="round" stroke-linecap="butt" d="m385.76642 276.03937l69.13385 0l0 69.13385l-69.13385 0z" fill-rule="evenodd"/><path fill="#ffffff" d="m385.76642 345.17322l69.13385 0l0 69.13388l-69.13385 0z" fill-rule="evenodd"/><path stroke="#999999" stroke-width="2.0" stroke-linejoin="round" stroke-linecap="butt" d="m385.76642 345.17322l69.13385 0l0 69.13388l-69.13385 0z" fill-rule="evenodd"/><path fill="#ffffff" d="m875.5079 101.96063l0 69.13385l-69.13385 0l0 -69.13385z" fill-rule="evenodd"/><path stroke="#999999" stroke-width="2.0" stroke-linejoin="round" stroke-linecap="butt" d="m875.5079 101.96063l0 69.13385l-69.13385 0l0 -69.13385z" fill-rule="evenodd"/><path fill="#ffffff" d="m875.5079 171.09448l0 69.133865l-69.13385 0l0 -69.133865z" fill-rule="evenodd"/><path stroke="#999999" stroke-width="2.0" stroke-linejoin="round" stroke-linecap="butt" d="m875.5079 171.09448l0 69.133865l-69.13385 0l0 -69.133865z" fill-rule="evenodd"/><path fill="#ffffff" d="m875.5079 240.22835l0 69.133865l-69.13385 0l0 -69.133865z" fill-rule="evenodd"/><path stroke="#999999" stroke-width="2.0" stroke-linejoin="round" stroke-linecap="butt" d="m875.5079 240.22835l0 69.133865l-69.13385 0l0 -69.133865z" fill-rule="evenodd"/><path fill="#ffffff" d="m875.5079 309.3622l0 69.13385l-69.13385 0l0 -69.13385z" fill-rule="evenodd"/><path stroke="#999999" stroke-width="2.0" stroke-linejoin="round" stroke-linecap="butt" d="m875.5079 309.3622l0 69.13385l-69.13385 0l0 -69.13385z" fill-rule="evenodd"/><path fill="#ffffff" d="m806.374 101.96063l0 69.13385l-69.13385 0l0 -69.13385z" fill-rule="evenodd"/><path stroke="#999999" stroke-width="2.0" stroke-linejoin="round" stroke-linecap="butt" d="m806.374 101.96063l0 69.13385l-69.13385 0l0 -69.13385z" fill-rule="evenodd"/><path fill="#ffffff" d="m806.374 171.09448l0 69.133865l-69.13385 0l0 -69.133865z" fill-rule="evenodd"/><path stroke="#999999" stroke-width="2.0" stroke-linejoin="round" stroke-linecap="butt" d="m806.374 171.09448l0 69.133865l-69.13385 0l0 -69.133865z" fill-rule="evenodd"/><path fill="#ffffff" d="m806.374 240.22835l0 69.133865l-69.13385 0l0 -69.133865z" fill-rule="evenodd"/><path stroke="#999999" stroke-width="2.0" stroke-linejoin="round" stroke-linecap="butt" d="m806.374 240.22835l0 69.133865l-69.13385 0l0 -69.133865z" fill-rule="evenodd"/><path fill="#ffffff" d="m806.374 309.3622l0 69.13385l-69.13385 0l0 -69.13385z" fill-rule="evenodd"/><path stroke="#999999" stroke-width="2.0" stroke-linejoin="round" stroke-linecap="butt" d="m806.374 309.3622l0 69.13385l-69.13385 0l0 -69.13385z" fill-rule="evenodd"/><path fill="#95eeff" d="m737.2402 101.96063l0 69.13385l-69.13385 0l0 -69.13385z" fill-rule="evenodd"/><path stroke="#999999" stroke-width="2.0" stroke-linejoin="round" stroke-linecap="butt" d="m737.2402 101.96063l0 69.13385l-69.13385 0l0 -69.13385z" fill-rule="evenodd"/><path fill="#0000ff" d="m737.2402 171.09448l0 69.133865l-69.13385 0l0 -69.133865z" fill-rule="evenodd"/><path stroke="#999999" stroke-width="2.0" stroke-linejoin="round" stroke-linecap="butt" d="m737.2402 171.09448l0 69.133865l-69.13385 0l0 -69.133865z" fill-rule="evenodd"/><path fill="#95eeff" d="m737.2402 240.22835l0 69.133865l-69.13385 0l0 -69.133865z" fill-rule="evenodd"/><path stroke="#999999" stroke-width="2.0" stroke-linejoin="round" stroke-linecap="butt" d="m737.2402 240.22835l0 69.133865l-69.13385 0l0 -69.133865z" fill-rule="evenodd"/><path fill="#95eeff" d="m737.2402 309.3622l0 69.13385l-69.13385 0l0 -69.13385z" fill-rule="evenodd"/><path stroke="#999999" stroke-width="2.0" stroke-linejoin="round" stroke-linecap="butt" d="m737.2402 309.3622l0 69.13385l-69.13385 0l0 -69.13385z" fill-rule="evenodd"/><path fill="#ffffff" d="m668.1063 101.96063l0 69.13385l-69.13391 0l0 -69.13385z" fill-rule="evenodd"/><path stroke="#999999" stroke-width="2.0" stroke-linejoin="round" stroke-linecap="butt" d="m668.1063 101.96063l0 69.13385l-69.13391 0l0 -69.13385z" fill-rule="evenodd"/><path fill="#ffffff" d="m668.1063 171.09448l0 69.133865l-69.13391 0l0 -69.133865z" fill-rule="evenodd"/><path stroke="#999999" stroke-width="2.0" stroke-linejoin="round" stroke-linecap="butt" d="m668.1063 171.09448l0 69.133865l-69.13391 0l0 -69.133865z" fill-rule="evenodd"/><path fill="#ffffff" d="m668.1063 240.22835l0 69.133865l-69.13391 0l0 -69.133865z" fill-rule="evenodd"/><path stroke="#999999" stroke-width="2.0" stroke-linejoin="round" stroke-linecap="butt" d="m668.1063 240.22835l0 69.133865l-69.13391 0l0 -69.133865z" fill-rule="evenodd"/><path fill="#ffffff" d="m668.1063 309.3622l0 69.13385l-69.13391 0l0 -69.13385z" fill-rule="evenodd"/><path stroke="#999999" stroke-width="2.0" stroke-linejoin="round" stroke-linecap="butt" d="m668.1063 309.3622l0 69.13385l-69.13391 0l0 -69.13385z" fill-rule="evenodd"/><path fill="#ffffff" d="m875.5079 378.49606l0 69.13385l-69.13385 0l0 -69.13385z" fill-rule="evenodd"/><path stroke="#999999" stroke-width="2.0" stroke-linejoin="round" stroke-linecap="butt" d="m875.5079 378.49606l0 69.13385l-69.13385 0l0 -69.13385z" fill-rule="evenodd"/><path fill="#ffffff" d="m806.374 378.49606l0 69.13385l-69.13385 0l0 -69.13385z" fill-rule="evenodd"/><path stroke="#999999" stroke-width="2.0" stroke-linejoin="round" stroke-linecap="butt" d="m806.374 378.49606l0 69.13385l-69.13385 0l0 -69.13385z" fill-rule="evenodd"/><path fill="#95eeff" d="m737.2402 378.49606l0 69.13385l-69.13385 0l0 -69.13385z" fill-rule="evenodd"/><path stroke="#999999" stroke-width="2.0" stroke-linejoin="round" stroke-linecap="butt" d="m737.2402 378.49606l0 69.13385l-69.13385 0l0 -69.13385z" fill-rule="evenodd"/><path fill="#ffffff" d="m668.1063 378.49606l0 69.13385l-69.13391 0l0 -69.13385z" fill-rule="evenodd"/><path stroke="#999999" stroke-width="2.0" stroke-linejoin="round" stroke-linecap="butt" d="m668.1063 378.49606l0 69.13385l-69.13391 0l0 -69.13385z" fill-rule="evenodd"/><path fill="#ffffff" d="m1256.7296 137.77165l0 69.133865l-69.13379 0l0 -69.133865z" fill-rule="evenodd"/><path stroke="#999999" stroke-width="2.0" stroke-linejoin="round" stroke-linecap="butt" d="m1256.7296 137.77165l0 69.133865l-69.13379 0l0 -69.133865z" fill-rule="evenodd"/><path fill="#ffffff" d="m1256.7296 206.90552l0 69.13385l-69.13379 0l0 -69.13385z" fill-rule="evenodd"/><path stroke="#999999" stroke-width="2.0" stroke-linejoin="round" stroke-linecap="butt" d="m1256.7296 206.90552l0 69.13385l-69.13379 0l0 -69.13385z" fill-rule="evenodd"/><path fill="#ffffff" d="m1256.7296 276.03937l0 69.13385l-69.13379 0l0 -69.13385z" fill-rule="evenodd"/><path stroke="#999999" stroke-width="2.0" stroke-linejoin="round" stroke-linecap="butt" d="m1256.7296 276.03937l0 69.13385l-69.13379 0l0 -69.13385z" fill-rule="evenodd"/><path fill="#ffffff" d="m1256.7296 345.17322l0 69.13388l-69.13379 0l0 -69.13388z" fill-rule="evenodd"/><path stroke="#999999" stroke-width="2.0" stroke-linejoin="round" stroke-linecap="butt" d="m1256.7296 345.17322l0 69.13388l-69.13379 0l0 -69.13388z" fill-rule="evenodd"/><path fill="#ffffff" d="m1187.5958 137.77165l0 69.133865l-69.13391 0l0 -69.133865z" fill-rule="evenodd"/><path stroke="#999999" stroke-width="2.0" stroke-linejoin="round" stroke-linecap="butt" d="m1187.5958 137.77165l0 69.133865l-69.13391 0l0 -69.133865z" fill-rule="evenodd"/><path fill="#ffffff" d="m1187.5958 206.90552l0 69.13385l-69.13391 0l0 -69.13385z" fill-rule="evenodd"/><path stroke="#999999" stroke-width="2.0" stroke-linejoin="round" stroke-linecap="butt" d="m1187.5958 206.90552l0 69.13385l-69.13391 0l0 -69.13385z" fill-rule="evenodd"/><path fill="#ffffff" d="m1187.5958 276.03937l0 69.13385l-69.13391 0l0 -69.13385z" fill-rule="evenodd"/><path stroke="#999999" stroke-width="2.0" stroke-linejoin="round" stroke-linecap="butt" d="m1187.5958 276.03937l0 69.13385l-69.13391 0l0 -69.13385z" fill-rule="evenodd"/><path fill="#ffffff" d="m1187.5958 345.17322l0 69.13388l-69.13391 0l0 -69.13388z" fill-rule="evenodd"/><path stroke="#999999" stroke-width="2.0" stroke-linejoin="round" stroke-linecap="butt" d="m1187.5958 345.17322l0 69.13388l-69.13391 0l0 -69.13388z" fill-rule="evenodd"/><path fill="#95eeff" d="m1118.4619 137.77165l0 69.133865l-69.13379 0l0 -69.133865z" fill-rule="evenodd"/><path stroke="#999999" stroke-width="2.0" stroke-linejoin="round" stroke-linecap="butt" d="m1118.4619 137.77165l0 69.133865l-69.13379 0l0 -69.133865z" fill-rule="evenodd"/><path fill="#ffffff" d="m1118.4619 206.90552l0 69.13385l-69.13379 0l0 -69.13385z" fill-rule="evenodd"/><path stroke="#999999" stroke-width="2.0" stroke-linejoin="round" stroke-linecap="butt" d="m1118.4619 206.90552l0 69.13385l-69.13379 0l0 -69.13385z" fill-rule="evenodd"/><path fill="#ffffff" d="m1118.4619 276.03937l0 69.13385l-69.13379 0l0 -69.13385z" fill-rule="evenodd"/><path stroke="#999999" stroke-width="2.0" stroke-linejoin="round" stroke-linecap="butt" d="m1118.4619 276.03937l0 69.13385l-69.13379 0l0 -69.13385z" fill-rule="evenodd"/><path fill="#ffffff" d="m1118.4619 345.17322l0 69.13388l-69.13379 0l0 -69.13388z" fill-rule="evenodd"/><path stroke="#999999" stroke-width="2.0" stroke-linejoin="round" stroke-linecap="butt" d="m1118.4619 345.17322l0 69.13388l-69.13379 0l0 -69.13388z" fill-rule="evenodd"/><path fill="#ffffff" d="m1049.3281 137.77165l0 69.133865l-69.13391 0l0 -69.133865z" fill-rule="evenodd"/><path stroke="#999999" stroke-width="2.0" stroke-linejoin="round" stroke-linecap="butt" d="m1049.3281 137.77165l0 69.133865l-69.13391 0l0 -69.133865z" fill-rule="evenodd"/><path fill="#ffffff" d="m1049.3281 206.90552l0 69.13385l-69.13391 0l0 -69.13385z" fill-rule="evenodd"/><path stroke="#999999" stroke-width="2.0" stroke-linejoin="round" stroke-linecap="butt" d="m1049.3281 206.90552l0 69.13385l-69.13391 0l0 -69.13385z" fill-rule="evenodd"/><path fill="#ffffff" d="m1049.3281 276.03937l0 69.13385l-69.13391 0l0 -69.13385z" fill-rule="evenodd"/><path stroke="#999999" stroke-width="2.0" stroke-linejoin="round" stroke-linecap="butt" d="m1049.3281 276.03937l0 69.13385l-69.13391 0l0 -69.13385z" fill-rule="evenodd"/><path fill="#ffffff" d="m1049.3281 345.17322l0 69.13388l-69.13391 0l0 -69.13388z" fill-rule="evenodd"/><path stroke="#999999" stroke-width="2.0" stroke-linejoin="round" stroke-linecap="butt" d="m1049.3281 345.17322l0 69.13388l-69.13391 0l0 -69.13388z" fill-rule="evenodd"/><path fill="#000000" fill-opacity="0.0" d="m112.06036 113.23097l333.00787 0" fill-rule="evenodd"/><path stroke="#000000" stroke-width="1.0" stroke-linejoin="round" stroke-linecap="butt" d="m112.06036 113.23097l327.00787 0" fill-rule="evenodd"/><path fill="#000000" stroke="#000000" stroke-width="1.0" stroke-linecap="butt" d="m439.06824 114.882706l4.5381165 -1.6517334l-4.5381165 -1.6517334z" fill-rule="evenodd"/><path fill="#000000" fill-opacity="0.0" d="m490.68118 245.92651l38.26773 0l0 58.173218l-38.26773 0z" fill-rule="evenodd"/><path fill="#000000" d="m499.8218 285.6465l8.859375 -11.9375l-7.8125 -10.96875l3.609375 0l4.15625 5.875q1.296875 1.828125 1.84375 2.8125q0.765625 -1.25 1.8125305 -2.609375l4.609375 -6.078125l3.296875 0l-8.046875 10.796875l8.671875 12.109375l-3.75 0l-5.7656555 -8.171875q-0.484375 -0.703125 -1.0 -1.53125q-0.765625 1.25 -1.09375 1.71875l-5.75 7.984375l-3.640625 0z" fill-rule="nonzero"/><path fill="#000000" fill-opacity="0.0" d="m891.9253 245.92651l38.2677 0l0 58.173218l-38.2677 0z" fill-rule="evenodd"/><path fill="#000000" d="m917.83154 272.17776l-15.125 0l0 -2.625l15.125 0l0 2.625zm0 6.953125l-15.125 0l0 -2.625l15.125 0l0 2.625z" fill-rule="nonzero"/><path fill="#000000" fill-opacity="0.0" d="m95.90551 65.95538l384.09448 0l0 42.015747l-384.09448 0z" fill-rule="evenodd"/><path fill="#000000" d="m115.87426 88.18788l1.765625 0.453125q-0.5625 2.171875 -2.0 3.328125q-1.4375 1.140625 -3.53125 1.140625q-2.15625 0 -3.515625 -0.875q-1.34375 -0.890625 -2.0625 -2.546875q-0.703125 -1.671875 -0.703125 -3.59375q0 -2.078125 0.796875 -3.625q0.796875 -1.5625 2.265625 -2.359375q1.484375 -0.8125 3.25 -0.8125q2.0 0 3.359375 1.015625q1.375 1.015625 1.90625 2.875l-1.734375 0.40625q-0.46875 -1.453125 -1.359375 -2.109375q-0.875 -0.671875 -2.203125 -0.671875q-1.546875 0 -2.578125 0.734375q-1.03125 0.734375 -1.453125 1.984375q-0.421875 1.234375 -0.421875 2.5625q0 1.703125 0.5 2.96875q0.5 1.265625 1.546875 1.90625q1.046875 0.625 2.265625 0.625q1.484375 0 2.515625 -0.859375q1.03125 -0.859375 1.390625 -2.546875zm3.1291962 -0.15625q0 -2.6875 1.484375 -3.96875q1.25 -1.078125 3.046875 -1.078125q2.0 0 3.265625 1.3125q1.2656326 1.296875 1.2656326 3.609375q0 1.859375 -0.5625076 2.9375q-0.5625 1.0625 -1.640625 1.65625q-1.0625 0.59375 -2.328125 0.59375q-2.03125 0 -3.28125 -1.296875q-1.25 -1.3125 -1.25 -3.765625zm1.6875 0q0 1.859375 0.796875 2.796875q0.8125 0.921875 2.046875 0.921875q1.21875 0 2.03125 -0.921875q0.8125 -0.9375 0.8125 -2.84375q0 -1.796875 -0.8125 -2.71875q-0.8125 -0.921875 -2.03125 -0.921875q-1.234375 0 -2.046875 0.921875q-0.796875 0.90625 -0.796875 2.765625zm9.2976 4.84375l0 -9.671875l1.46875 0l0 1.375q1.0625 -1.59375 3.078125 -1.59375q0.875 0 1.609375 0.3125q0.734375 0.3125 1.09375 0.828125q0.375 0.5 0.515625 1.203125q0.09375 0.453125 0.09375 1.59375l0 5.953125l-1.640625 0l0 -5.890625q0 -1.0 -0.203125 -1.484375q-0.1875 -0.5 -0.671875 -0.796875q-0.484375 -0.296875 -1.140625 -0.296875q-1.046875 0 -1.8125 0.671875q-0.75 0.65625 -0.75 2.515625l0 5.28125l-1.640625 0zm13.953842 -1.46875l0.234375 1.453125q-0.6875 0.140625 -1.234375 0.140625q-0.890625 0 -1.390625 -0.28125q-0.484375 -0.28125 -0.6875 -0.734375q-0.203125 -0.46875 -0.203125 -1.9375l0 -5.578125l-1.203125 0l0 -1.265625l1.203125 0l0 -2.390625l1.625 -0.984375l0 3.375l1.65625 0l0 1.265625l-1.65625 0l0 5.671875q0 0.6875 0.078125 0.890625q0.09375 0.203125 0.28125 0.328125q0.203125 0.109375 0.578125 0.109375q0.265625 0 0.71875 -0.0625zm1.5895538 1.46875l0 -9.671875l1.46875 0l0 1.46875q0.5625 -1.03125 1.03125 -1.359375q0.484375 -0.328125 1.0625 -0.328125q0.828125 0 1.6875 0.53125l-0.5625 1.515625q-0.609375 -0.359375 -1.203125 -0.359375q-0.546875 0 -0.96875 0.328125q-0.421875 0.328125 -0.609375 0.890625q-0.28125 0.875 -0.28125 1.921875l0 5.0625l-1.625 0zm12.540802 -1.1875q-0.921875 0.765625 -1.765625 1.09375q-0.828125 0.3125 -1.796875 0.3125q-1.59375 0 -2.453125 -0.78125q-0.859375 -0.78125 -0.859375 -1.984375q0 -0.71875 0.328125 -1.296875q0.328125 -0.59375 0.84375 -0.9375q0.53125 -0.359375 1.1875 -0.546875q0.46875 -0.125 1.453125 -0.25q1.984375 -0.234375 2.921875 -0.5625q0.015625 -0.34375 0.015625 -0.421875q0 -1.0 -0.46875 -1.421875q-0.625 -0.546875 -1.875 -0.546875q-1.15625 0 -1.703125 0.40625q-0.546875 0.40625 -0.8125 1.421875l-1.609375 -0.21875q0.21875 -1.015625 0.71875 -1.640625q0.5 -0.640625 1.453125 -0.984375q0.953125 -0.34375 2.1875 -0.34375q1.25 0 2.015625 0.296875q0.78125 0.28125 1.140625 0.734375q0.375 0.4375 0.515625 1.109375q0.078125 0.421875 0.078125 1.515625l0 2.1875q0 2.28125 0.109375 2.890625q0.109375 0.59375 0.40625 1.15625l-1.703125 0q-0.265625 -0.515625 -0.328125 -1.1875zm-0.140625 -3.671875q-0.890625 0.375 -2.671875 0.625q-1.015625 0.140625 -1.4375 0.328125q-0.421875 0.1875 -0.65625 0.53125q-0.21875 0.34375 -0.21875 0.78125q0 0.65625 0.5 1.09375q0.5 0.4375 1.453125 0.4375q0.9375 0 1.671875 -0.40625q0.75 -0.421875 1.09375 -1.140625q0.265625 -0.5625 0.265625 -1.640625l0 -0.609375zm10.516342 1.3125l1.609375 0.21875q-0.265625 1.65625 -1.359375 2.609375q-1.078125 0.9375 -2.671875 0.9375q-1.984375 0 -3.1875 -1.296875q-1.203125 -1.296875 -1.203125 -3.71875q0 -1.578125 0.515625 -2.75q0.515625 -1.171875 1.578125 -1.75q1.0625 -0.59375 2.3125 -0.59375q1.578125 0 2.578125 0.796875q1.0 0.796875 1.28125 2.265625l-1.59375 0.234375q-0.234375 -0.96875 -0.8125 -1.453125q-0.578125 -0.5 -1.390625 -0.5q-1.234375 0 -2.015625 0.890625q-0.78125 0.890625 -0.78125 2.8125q0 1.953125 0.75 2.84375q0.75 0.875 1.953125 0.875q0.96875 0 1.609375 -0.59375q0.65625 -0.59375 0.828125 -1.828125zm6.59375 2.078125l0.234375 1.453125q-0.6875 0.140625 -1.234375 0.140625q-0.890625 0 -1.390625 -0.28125q-0.484375 -0.28125 -0.6875 -0.734375q-0.203125 -0.46875 -0.203125 -1.9375l0 -5.578125l-1.203125 0l0 -1.265625l1.203125 0l0 -2.390625l1.625 -0.984375l0 3.375l1.65625 0l0 1.265625l-1.65625 0l0 5.671875q0 0.6875 0.078125 0.890625q0.09375 0.203125 0.28125 0.328125q0.203125 0.109375 0.578125 0.109375q0.265625 0 0.71875 -0.0625zm1.6051788 -10.0l0 -1.890625l1.640625 0l0 1.890625l-1.640625 0zm0 11.46875l0 -9.671875l1.640625 0l0 9.671875l-1.640625 0zm4.144821 0l0 -9.671875l1.46875 0l0 1.375q1.0625 -1.59375 3.078125 -1.59375q0.875 0 1.609375 0.3125q0.734375 0.3125 1.09375 0.828125q0.375 0.5 0.515625 1.203125q0.09375 0.453125 0.09375 1.59375l0 5.953125l-1.640625 0l0 -5.890625q0 -1.0 -0.203125 -1.484375q-0.1875 -0.5 -0.671875 -0.796875q-0.484375 -0.296875 -1.140625 -0.296875q-1.046875 0 -1.8125 0.671875q-0.75 0.65625 -0.75 2.515625l0 5.28125l-1.640625 0zm10.063217 0.796875l1.59375 0.234375q0.109375 0.75 0.5625 1.078125q0.609375 0.453125 1.671875 0.453125q1.140625 0 1.75 -0.453125q0.625 -0.453125 0.84375 -1.265625q0.125 -0.5 0.109375 -2.109375q-1.0625 1.265625 -2.671875 1.265625q-2.0 0 -3.09375 -1.4375q-1.09375 -1.4375 -1.09375 -3.453125q0 -1.390625 0.5 -2.5625q0.515625 -1.171875 1.453125 -1.796875q0.953125 -0.640625 2.25 -0.640625q1.703125 0 2.8125 1.375l0 -1.15625l1.515625 0l0 8.359375q0 2.265625 -0.46875 3.203125q-0.453125 0.9375 -1.453125 1.484375q-0.984375 0.546875 -2.453125 0.546875q-1.71875 0 -2.796875 -0.78125q-1.0625 -0.765625 -1.03125 -2.34375zm1.359375 -5.8125q0 1.90625 0.75 2.78125q0.765625 0.875 1.90625 0.875q1.125 0 1.890625 -0.859375q0.765625 -0.875 0.765625 -2.734375q0 -1.78125 -0.796875 -2.671875q-0.78125 -0.90625 -1.890625 -0.90625q-1.09375 0 -1.859375 0.890625q-0.765625 0.875 -0.765625 2.625zm14.715271 5.015625l0 -13.359375l4.609375 0q1.546875 0 2.375 0.203125q1.140625 0.25 1.953125 0.953125q1.0625 0.890625 1.578125 2.28125q0.53125 1.390625 0.53125 3.171875q0 1.515625 -0.359375 2.703125q-0.359375 1.171875 -0.921875 1.9375q-0.546875 0.765625 -1.203125 1.21875q-0.65625 0.4375 -1.59375 0.671875q-0.9375 0.21875 -2.140625 0.21875l-4.828125 0zm1.765625 -1.578125l2.859375 0q1.3125 0 2.0625 -0.234375q0.75 -0.25 1.203125 -0.703125q0.625 -0.625 0.96875 -1.6875q0.359375 -1.0625 0.359375 -2.578125q0 -2.09375 -0.6875 -3.21875q-0.6875 -1.125 -1.671875 -1.5q-0.703125 -0.28125 -2.28125 -0.28125l-2.8125 0l0 10.203125zm11.504196 -9.890625l0 -1.890625l1.640625 0l0 1.890625l-1.640625 0zm0 11.46875l0 -9.671875l1.640625 0l0 9.671875l-1.640625 0zm4.144821 0l0 -9.671875l1.46875 0l0 1.359375q0.453125 -0.71875 1.203125 -1.140625q0.765625 -0.4375 1.71875 -0.4375q1.078125 0 1.765625 0.453125q0.6875 0.4375 0.96875 1.234375q1.15625 -1.6875 2.984375 -1.6875q1.453125 0 2.21875 0.796875q0.78125 0.796875 0.78125 2.453125l0 6.640625l-1.640625 0l0 -6.09375q0 -0.984375 -0.15625 -1.40625q-0.15625 -0.4375 -0.578125 -0.703125q-0.421875 -0.265625 -0.984375 -0.265625q-1.015625 0 -1.6875 0.6875q-0.671875 0.671875 -0.671875 2.15625l0 5.625l-1.640625 0l0 -6.28125q0 -1.09375 -0.40625 -1.640625q-0.40625 -0.546875 -1.3125 -0.546875q-0.6875 0 -1.28125 0.359375q-0.59375 0.359375 -0.859375 1.0625q-0.25 0.703125 -0.25 2.03125l0 5.015625l-1.640625 0zm22.165802 -3.109375l1.6875 0.203125q-0.40625 1.484375 -1.484375 2.3125q-1.078125 0.8125 -2.765625 0.8125q-2.125 0 -3.375 -1.296875q-1.234375 -1.3125 -1.234375 -3.671875q0 -2.453125 1.25 -3.796875q1.265625 -1.34375 3.265625 -1.34375q1.9375 0 3.15625 1.328125q1.234375 1.3125 1.234375 3.703125q0 0.15625 0 0.4375l-7.21875 0q0.09375 1.59375 0.90625 2.453125q0.8125 0.84375 2.015625 0.84375q0.90625 0 1.546875 -0.46875q0.640625 -0.484375 1.015625 -1.515625zm-5.390625 -2.65625l5.40625 0q-0.109375 -1.21875 -0.625 -1.828125q-0.78125 -0.953125 -2.03125 -0.953125q-1.125 0 -1.90625 0.765625q-0.765625 0.75 -0.84375 2.015625zm9.141342 5.765625l0 -9.671875l1.46875 0l0 1.375q1.0625 -1.59375 3.078125 -1.59375q0.875 0 1.6093597 0.3125q0.734375 0.3125 1.09375 0.828125q0.375 0.5 0.515625 1.203125q0.09375 0.453125 0.09375 1.59375l0 5.953125l-1.640625 0l0 -5.890625q0 -1.0 -0.203125 -1.484375q-0.1875 -0.5 -0.67185974 -0.796875q-0.484375 -0.296875 -1.140625 -0.296875q-1.046875 0 -1.8125 0.671875q-0.75 0.65625 -0.75 2.515625l0 5.28125l-1.640625 0zm9.719467 -2.890625l1.625 -0.25q0.125 0.96875 0.75 1.5q0.625 0.515625 1.75 0.515625q1.125 0 1.671875 -0.453125q0.546875 -0.46875 0.546875 -1.09375q0 -0.546875 -0.484375 -0.875q-0.328125 -0.21875 -1.671875 -0.546875q-1.8125 -0.46875 -2.515625 -0.796875q-0.6875 -0.328125 -1.046875 -0.90625q-0.359375 -0.59375 -0.359375 -1.3125q0 -0.640625 0.296875 -1.1875q0.296875 -0.5625 0.8125 -0.921875q0.375 -0.28125 1.03125 -0.46875q0.671875 -0.203125 1.421875 -0.203125q1.140625 0 2.0 0.328125q0.859375 0.328125 1.265625 0.890625q0.421875 0.5625 0.578125 1.5l-1.609375 0.21875q-0.109375 -0.75 -0.640625 -1.171875q-0.515625 -0.421875 -1.46875 -0.421875q-1.140625 0 -1.625 0.375q-0.46875 0.375 -0.46875 0.875q0 0.3125 0.1875 0.578125q0.203125 0.265625 0.640625 0.4375q0.234375 0.09375 1.4375 0.421875q1.75 0.453125 2.4375 0.75q0.6875 0.296875 1.078125 0.859375q0.390625 0.5625 0.390625 1.40625q0 0.828125 -0.484375 1.546875q-0.46875 0.71875 -1.375 1.125q-0.90625 0.390625 -2.046875 0.390625q-1.875 0 -2.875 -0.78125q-0.984375 -0.78125 -1.25 -2.328125zm9.984375 -8.578125l0 -1.890625l1.640625 0l0 1.890625l-1.640625 0zm0 11.46875l0 -9.671875l1.640625 0l0 9.671875l-1.640625 0zm3.535431 -4.84375q0 -2.6875 1.484375 -3.96875q1.25 -1.078125 3.046875 -1.078125q2.0 0 3.265625 1.3125q1.265625 1.296875 1.265625 3.609375q0 1.859375 -0.5625 2.9375q-0.5625 1.0625 -1.640625 1.65625q-1.0625 0.59375 -2.328125 0.59375q-2.03125 0 -3.28125 -1.296875q-1.25 -1.3125 -1.25 -3.765625zm1.6875 0q0 1.859375 0.796875 2.796875q0.8125 0.921875 2.046875 0.921875q1.21875 0 2.03125 -0.921875q0.8125 -0.9375 0.8125 -2.84375q0 -1.796875 -0.8125 -2.71875q-0.8125 -0.921875 -2.03125 -0.921875q-1.234375 0 -2.046875 0.921875q-0.796875 0.90625 -0.796875 2.765625zm9.297607 4.84375l0 -9.671875l1.46875 0l0 1.375q1.0625 -1.59375 3.078125 -1.59375q0.875 0 1.609375 0.3125q0.734375 0.3125 1.09375 0.828125q0.375 0.5 0.515625 1.203125q0.09375 0.453125 0.09375 1.59375l0 5.953125l-1.640625 0l0 -5.890625q0 -1.0 -0.203125 -1.484375q-0.1875 -0.5 -0.671875 -0.796875q-0.484375 -0.296875 -1.140625 -0.296875q-1.046875 0 -1.8125 0.671875q-0.75 0.65625 -0.75 2.515625l0 5.28125l-1.640625 0zm18.684021 3.921875q-1.359375 -1.703125 -2.296875 -4.0q-0.9375 -2.296875 -0.9375 -4.765625q0 -2.15625 0.703125 -4.140625q0.828125 -2.3125 2.53125 -4.59375l1.171875 0q-1.09375 1.890625 -1.453125 2.703125q-0.546875 1.25 -0.875 2.625q-0.390625 1.703125 -0.390625 3.421875q0 4.375 2.71875 8.75l-1.171875 0z" fill-rule="nonzero"/><path fill="#000000" d="m310.96045 93.06288q1.4375 0 2.421875 -0.578125q0.984375 -0.578125 1.46875 -1.328125l-1.03125 -0.796875q-0.46875 0.59375 -1.171875 0.96875q-0.6875 0.359375 -1.59375 0.359375q-0.6875 0 -1.25 -0.25q-0.5625 -0.265625 -0.96875 -0.71875q-0.390625 -0.40625 -0.609375 -0.953125q-0.21875 -0.546875 -0.28125 -1.265625l0 -0.078125l7.03125 0l0 -0.75q0 -1.03125 -0.265625 -1.90625q-0.25 -0.890625 -0.78125 -1.546875q-0.53125 -0.640625 -1.328125 -1.0q-0.796875 -0.375 -1.859375 -0.375q-0.84375 0 -1.65625 0.34375q-0.796875 0.34375 -1.4375 0.984375q-0.625 0.65625 -1.015625 1.609375q-0.375 0.9375 -0.375 2.125l0 0.390625q0 1.03125 0.34375 1.90625q0.34375 0.875 0.96875 1.5q0.609375 0.640625 1.484375 1.0q0.875 0.359375 1.90625 0.359375zm-0.21875 -8.84375q0.65625 0 1.125 0.234375q0.46875 0.234375 0.765625 0.625q0.3125 0.375 0.484375 0.90625q0.171875 0.515625 0.171875 0.984375l0 0.078125l-5.296875 0q0.09375 -0.6875 0.34375 -1.203125q0.265625 -0.53125 0.625 -0.890625q0.359375 -0.359375 0.8125 -0.546875q0.453125 -0.1875 0.96875 -0.1875zm7.8361816 -1.203125l-1.515625 0l0 9.859375l1.609375 0l0 -7.84375q0.046875 -0.140625 0.125 -0.265625q0.09375 -0.140625 0.21875 -0.234375q0.15625 -0.125 0.375 -0.1875q0.21875 -0.078125 0.53125 -0.078125q0.265625 0 0.46875 0.078125q0.203125 0.0625 0.34375 0.203125q0.15625 0.15625 0.21875 0.390625q0.0625 0.234375 0.0625 0.546875l0 7.390625l1.609375 0l0 -7.375q0 -0.0625 0 -0.09375q0 -0.046875 0 -0.09375q0.03125 -0.21875 0.109375 -0.40625q0.078125 -0.1875 0.21875 -0.34375q0.15625 -0.125 0.375 -0.203125q0.21875 -0.09375 0.515625 -0.09375q0.28125 0 0.484375 0.078125q0.21875 0.0625 0.375 0.21875q0.140625 0.15625 0.203125 0.390625q0.078125 0.234375 0.078125 0.546875l0 7.375l1.59375 0l0 -7.359375q0 -0.71875 -0.171875 -1.234375q-0.15625 -0.53125 -0.453125 -0.859375q-0.28125 -0.28125 -0.703125 -0.421875q-0.40625 -0.15625 -0.921875 -0.15625q-0.359375 0 -0.6875 0.09375q-0.3125 0.09375 -0.5625 0.25q-0.203125 0.125 -0.375 0.3125q-0.171875 0.1875 -0.296875 0.390625q-0.109375 -0.21875 -0.25 -0.40625q-0.140625 -0.1875 -0.3125 -0.3125q-0.234375 -0.15625 -0.546875 -0.234375q-0.3125 -0.09375 -0.703125 -0.09375q-0.6875 0 -1.1875 0.296875q-0.484375 0.28125 -0.78125 0.8125l-0.046875 -0.9375zm10.679962 0l0 1.46875l3.359375 0l0 6.9375l-3.359375 0l0 1.453125l8.265625 0l0 -1.453125l-3.21875 0l0 -8.40625l-5.046875 0zm3.140625 -2.578125q0 0.40625 0.25 0.6875q0.25 0.265625 0.765625 0.265625q0.5 0 0.75 -0.265625q0.25 -0.28125 0.25 -0.6875q0 -0.234375 -0.078125 -0.421875q-0.0625 -0.1875 -0.203125 -0.328125q-0.125 -0.109375 -0.3125 -0.171875q-0.171875 -0.078125 -0.40625 -0.078125q-0.25 0 -0.4375 0.078125q-0.171875 0.0625 -0.296875 0.171875q-0.140625 0.140625 -0.21875 0.34375q-0.0625 0.1875 -0.0625 0.40625zm11.789307 0.1875l-1.703125 0l0 2.390625l-2.578125 0l0 1.3125l2.578125 0l0 5.34375q0 0.921875 0.234375 1.5625q0.25 0.640625 0.671875 1.046875q0.421875 0.40625 0.984375 0.59375q0.578125 0.1875 1.234375 0.1875q0.390625 0 0.78125 -0.046875q0.40625 -0.03125 0.75 -0.109375q0.359375 -0.0625 0.65625 -0.15625q0.296875 -0.09375 0.515625 -0.21875l-0.234375 -1.203125q-0.15625 0.046875 -0.40625 0.09375q-0.234375 0.046875 -0.515625 0.09375q-0.28125 0.046875 -0.578125 0.078125q-0.28125 0.03125 -0.546875 0.03125q-0.375 0 -0.71875 -0.09375q-0.328125 -0.09375 -0.578125 -0.3125q-0.265625 -0.21875 -0.40625 -0.59375q-0.140625 -0.375 -0.140625 -0.953125l0 -5.34375l3.75 0l0 -1.3125l-3.75 0l0 -2.390625zm15.383087 13.625l0 -1.375l-8.359375 0l0 1.375l8.359375 0zm3.0080566 2.421875l1.6875 0l0 -4.75q0.171875 0.203125 0.375 0.375q0.21875 0.171875 0.453125 0.3125q0.390625 0.21875 0.875 0.328125q0.5 0.125 1.0625 0.125q0.921875 0 1.640625 -0.375q0.734375 -0.390625 1.234375 -1.0625q0.484375 -0.6875 0.734375 -1.59375q0.265625 -0.921875 0.265625 -1.96875l0 -0.203125q0 -1.09375 -0.265625 -2.015625q-0.25 -0.9375 -0.734375 -1.59375q-0.5 -0.671875 -1.234375 -1.03125q-0.71875 -0.375 -1.671875 -0.375q-0.53125 0 -1.0 0.109375q-0.46875 0.109375 -0.859375 0.328125q-0.265625 0.140625 -0.515625 0.359375q-0.234375 0.203125 -0.421875 0.453125l-0.09375 -1.078125l-1.53125 0l0 13.65625zm6.640625 -8.8125l0 0.203125q0 0.71875 -0.171875 1.375q-0.15625 0.65625 -0.484375 1.15625q-0.328125 0.5 -0.84375 0.796875q-0.5 0.296875 -1.203125 0.296875q-0.4375 0 -0.796875 -0.109375q-0.359375 -0.109375 -0.640625 -0.3125q-0.265625 -0.15625 -0.46875 -0.390625q-0.1875 -0.234375 -0.34375 -0.515625l0 -4.75q0.171875 -0.296875 0.390625 -0.546875q0.234375 -0.265625 0.53125 -0.4375q0.265625 -0.171875 0.59375 -0.265625q0.328125 -0.09375 0.71875 -0.09375q0.71875 0 1.21875 0.296875q0.515625 0.28125 0.84375 0.78125q0.328125 0.5 0.484375 1.15625q0.171875 0.640625 0.171875 1.359375zm4.820587 -4.84375l0 1.46875l3.359375 0l0 6.9375l-3.359375 0l0 1.453125l8.265625 0l0 -1.453125l-3.21875 0l0 -8.40625l-5.046875 0zm3.140625 -2.578125q0 0.40625 0.25 0.6875q0.25 0.265625 0.765625 0.265625q0.5 0 0.75 -0.265625q0.25 -0.28125 0.25 -0.6875q0 -0.234375 -0.078125 -0.421875q-0.0625 -0.1875 -0.203125 -0.328125q-0.125 -0.109375 -0.3125 -0.171875q-0.171875 -0.078125 -0.40625 -0.078125q-0.25 0 -0.4375 0.078125q-0.171875 0.0625 -0.296875 0.171875q-0.140625 0.140625 -0.21875 0.34375q-0.0625 0.1875 -0.0625 0.40625zm7.789337 16.234375l1.6875 0l0 -4.75q0.171875 0.203125 0.375 0.375q0.21875 0.171875 0.453125 0.3125q0.390625 0.21875 0.875 0.328125q0.5 0.125 1.0625 0.125q0.921875 0 1.640625 -0.375q0.734375 -0.390625 1.234375 -1.0625q0.484375 -0.6875 0.734375 -1.59375q0.265625 -0.921875 0.265625 -1.96875l0 -0.203125q0 -1.09375 -0.265625 -2.015625q-0.25 -0.9375 -0.734375 -1.59375q-0.5 -0.671875 -1.234375 -1.03125q-0.71875 -0.375 -1.671875 -0.375q-0.53125 0 -1.0 0.109375q-0.46875 0.109375 -0.859375 0.328125q-0.265625 0.140625 -0.515625 0.359375q-0.234375 0.203125 -0.421875 0.453125l-0.09375 -1.078125l-1.53125 0l0 13.65625zm6.640625 -8.8125l0 0.203125q0 0.71875 -0.171875 1.375q-0.15625 0.65625 -0.484375 1.15625q-0.328125 0.5 -0.84375 0.796875q-0.5 0.296875 -1.203125 0.296875q-0.4375 0 -0.796875 -0.109375q-0.359375 -0.109375 -0.640625 -0.3125q-0.265625 -0.15625 -0.46875 -0.390625q-0.1875 -0.234375 -0.34375 -0.515625l0 -4.75q0.171875 -0.296875 0.390625 -0.546875q0.234375 -0.265625 0.53125 -0.4375q0.265625 -0.171875 0.59375 -0.265625q0.328125 -0.09375 0.71875 -0.09375q0.71875 0 1.21875 0.296875q0.515625 0.28125 0.84375 0.78125q0.328125 0.5 0.484375 1.15625q0.171875 0.640625 0.171875 1.359375zm8.914307 5.203125q1.4375 0 2.421875 -0.578125q0.984375 -0.578125 1.46875 -1.328125l-1.03125 -0.796875q-0.46875 0.59375 -1.171875 0.96875q-0.6875 0.359375 -1.59375 0.359375q-0.6875 0 -1.25 -0.25q-0.5625 -0.265625 -0.96875 -0.71875q-0.390625 -0.40625 -0.609375 -0.953125q-0.21875 -0.546875 -0.28125 -1.265625l0 -0.078125l7.03125 0l0 -0.75q0 -1.03125 -0.265625 -1.90625q-0.25 -0.890625 -0.78125 -1.546875q-0.53125 -0.640625 -1.328125 -1.0q-0.796875 -0.375 -1.859375 -0.375q-0.84375 0 -1.65625 0.34375q-0.796875 0.34375 -1.4375 0.984375q-0.625 0.65625 -1.015625 1.609375q-0.375 0.9375 -0.375 2.125l0 0.390625q0 1.03125 0.34375 1.90625q0.34375 0.875 0.96875 1.5q0.609375 0.640625 1.484375 1.0q0.875 0.359375 1.90625 0.359375zm-0.21875 -8.84375q0.65625 0 1.125 0.234375q0.46875 0.234375 0.765625 0.625q0.3125 0.375 0.484375 0.90625q0.171875 0.515625 0.171875 0.984375l0 0.078125l-5.296875 0q0.09375 -0.6875 0.34375 -1.203125q0.265625 -0.53125 0.625 -0.890625q0.359375 -0.359375 0.8125 -0.546875q0.453125 -0.1875 0.96875 -0.1875zm7.3205566 -5.34375l0 1.46875l3.359375 0l0 11.078125l-3.359375 0l0 1.453125l8.265625 0l0 -1.453125l-3.21875 0l0 -12.546875l-5.046875 0zm11.195587 4.140625l0 1.46875l3.359375 0l0 6.9375l-3.359375 0l0 1.453125l8.265625 0l0 -1.453125l-3.21875 0l0 -8.40625l-5.046875 0zm3.140625 -2.578125q0 0.40625 0.25 0.6875q0.25 0.265625 0.765625 0.265625q0.5 0 0.75 -0.265625q0.25 -0.28125 0.25 -0.6875q0 -0.234375 -0.078125 -0.421875q-0.0625 -0.1875 -0.203125 -0.328125q-0.125 -0.109375 -0.3125 -0.171875q-0.171875 -0.078125 -0.40625 -0.078125q-0.25 0 -0.4375 0.078125q-0.171875 0.0625 -0.296875 0.171875q-0.140625 0.140625 -0.21875 0.34375q-0.0625 0.1875 -0.0625 0.40625zm7.789337 12.4375l1.6875 0l0 -7.0625q0.171875 -0.328125 0.40625 -0.59375q0.234375 -0.265625 0.515625 -0.453125q0.328125 -0.234375 0.71875 -0.359375q0.40625 -0.140625 0.875 -0.140625q0.546875 0 0.953125 0.125q0.421875 0.125 0.703125 0.40625q0.28125 0.296875 0.421875 0.75q0.15625 0.453125 0.15625 1.109375l0 6.21875l1.6875 0l0 -6.265625q0 -0.96875 -0.25 -1.6875q-0.234375 -0.71875 -0.6875 -1.1875q-0.4375 -0.453125 -1.078125 -0.671875q-0.625 -0.21875 -1.40625 -0.21875q-0.5625 0 -1.078125 0.171875q-0.515625 0.15625 -0.953125 0.4375q-0.296875 0.1875 -0.5625 0.453125q-0.25 0.265625 -0.46875 0.5625l-0.125 -1.453125l-1.515625 0l0 9.859375zm15.554932 0.1875q1.4375 0 2.421875 -0.578125q0.984375 -0.578125 1.46875 -1.328125l-1.03125 -0.796875q-0.46875 0.59375 -1.171875 0.96875q-0.6875 0.359375 -1.59375 0.359375q-0.6875 0 -1.25 -0.25q-0.5625 -0.265625 -0.96875 -0.71875q-0.390625 -0.40625 -0.609375 -0.953125q-0.21875 -0.546875 -0.28125 -1.265625l0 -0.078125l7.03125 0l0 -0.75q0 -1.03125 -0.265625 -1.90625q-0.25 -0.890625 -0.78125 -1.546875q-0.53125 -0.640625 -1.328125 -1.0q-0.796875 -0.375 -1.859375 -0.375q-0.84375 0 -1.65625 0.34375q-0.796875 0.34375 -1.4375 0.984375q-0.625 0.65625 -1.015625 1.609375q-0.375 0.9375 -0.375 2.125l0 0.390625q0 1.03125 0.34375 1.90625q0.34375 0.875 0.96875 1.5q0.609375 0.640625 1.484375 1.0q0.875 0.359375 1.90625 0.359375zm-0.21875 -8.84375q0.65625 0 1.125 0.234375q0.46875 0.234375 0.765625 0.625q0.3125 0.375 0.484375 0.90625q0.171875 0.515625 0.171875 0.984375l0 0.078125l-5.296875 0q0.09375 -0.6875 0.34375 -1.203125q0.265625 -0.53125 0.625 -0.890625q0.359375 -0.359375 0.8125 -0.546875q0.453125 -0.1875 0.96875 -0.1875z" fill-rule="nonzero"/><path fill="#000000" d="m452.87787 96.79726l-1.1875 0q2.734375 -4.375 2.734375 -8.75q0 -1.71875 -0.390625 -3.390625q-0.3125 -1.375 -0.875 -2.625q-0.359375 -0.828125 -1.46875 -2.734375l1.1875 0q1.703125 2.28125 2.53125 4.59375q0.6875 1.984375 0.6875 4.140625q0 2.46875 -0.9375 4.765625q-0.9375 2.296875 -2.28125 4.0z" fill-rule="nonzero"/><path fill="#000000" fill-opacity="0.0" d="m601.7651 82.58793l261.22833 0" fill-rule="evenodd"/><path stroke="#000000" stroke-width="1.0" stroke-linejoin="round" stroke-linecap="butt" d="m601.7651 82.58793l255.22833 0" fill-rule="evenodd"/><path fill="#000000" stroke="#000000" stroke-width="1.0" stroke-linecap="butt" d="m856.9934 84.23966l4.538147 -1.6517334l-4.538147 -1.6517334z" fill-rule="evenodd"/><path fill="#000000" fill-opacity="0.0" d="m585.6102 35.312336l333.00787 0l0 42.01575l-333.00787 0z" fill-rule="evenodd"/><path fill="#000000" d="m596.0321 62.232334l0 -13.359375l1.8125 0l7.015625 10.484375l0 -10.484375l1.6875 0l0 13.359375l-1.8125 0l-7.015625 -10.5l0 10.5l-1.6875 0zm12.676086 -4.84375q0 -2.6875 1.484375 -3.96875q1.25 -1.078125 3.046875 -1.078125q2.0 0 3.265625 1.3125q1.265625 1.296875 1.265625 3.609375q0 1.859375 -0.5625 2.9375q-0.5625 1.0625 -1.640625 1.65625q-1.0625 0.59375 -2.328125 0.59375q-2.03125 0 -3.28125 -1.296875q-1.25 -1.3125 -1.25 -3.765625zm1.6875 0q0 1.859375 0.796875 2.796875q0.8125 0.921875 2.046875 0.921875q1.21875 0 2.03125 -0.921875q0.8125 -0.9375 0.8125 -2.84375q0 -1.796875 -0.8125 -2.71875q-0.8125 -0.921875 -2.03125 -0.921875q-1.234375 0 -2.046875 0.921875q-0.796875 0.90625 -0.796875 2.765625zm9.297607 4.84375l0 -9.671875l1.46875 0l0 1.375q1.0625 -1.59375 3.078125 -1.59375q0.875 0 1.609375 0.3125q0.734375 0.3125 1.09375 0.828125q0.375 0.5 0.515625 1.203125q0.09375 0.453125 0.09375 1.59375l0 5.953125l-1.640625 0l0 -5.890625q0 -1.0 -0.203125 -1.484375q-0.1875 -0.5 -0.671875 -0.796875q-0.484375 -0.296875 -1.140625 -0.296875q-1.046875 0 -1.8125 0.671875q-0.75 0.65625 -0.75 2.515625l0 5.28125l-1.640625 0zm9.735046 -4.015625l0 -1.640625l5.03125 0l0 1.640625l-5.03125 0zm13.1658325 0.46875l1.609375 0.21875q-0.265625 1.65625 -1.359375 2.609375q-1.078125 0.9375 -2.671875 0.9375q-1.984375 0 -3.1875 -1.296875q-1.203125 -1.296875 -1.203125 -3.71875q0 -1.578125 0.515625 -2.75q0.515625 -1.171875 1.578125 -1.75q1.0625 -0.59375 2.3125 -0.59375q1.578125 0 2.578125 0.796875q1.0 0.796875 1.28125 2.265625l-1.59375 0.234375q-0.234375 -0.96875 -0.8125 -1.453125q-0.578125 -0.5 -1.390625 -0.5q-1.234375 0 -2.015625 0.890625q-0.78125 0.890625 -0.78125 2.8125q0 1.953125 0.75 2.84375q0.75 0.875 1.953125 0.875q0.96875 0 1.609375 -0.59375q0.65625 -0.59375 0.828125 -1.828125zm2.40625 -1.296875q0 -2.6875 1.484375 -3.96875q1.25 -1.078125 3.046875 -1.078125q2.0 0 3.265625 1.3125q1.265625 1.296875 1.265625 3.609375q0 1.859375 -0.5625 2.9375q-0.5625 1.0625 -1.640625 1.65625q-1.0625 0.59375 -2.328125 0.59375q-2.03125 0 -3.28125 -1.296875q-1.25 -1.3125 -1.25 -3.765625zm1.6875 0q0 1.859375 0.796875 2.796875q0.8125 0.921875 2.046875 0.921875q1.21875 0 2.03125 -0.921875q0.8125 -0.9375 0.8125 -2.84375q0 -1.796875 -0.8125 -2.71875q-0.8125 -0.921875 -2.03125 -0.921875q-1.234375 0 -2.046875 0.921875q-0.796875 0.90625 -0.796875 2.765625zm9.297607 4.84375l0 -9.671875l1.46875 0l0 1.375q1.0625 -1.59375 3.078125 -1.59375q0.875 0 1.609375 0.3125q0.734375 0.3125 1.09375 0.828125q0.375 0.5 0.515625 1.203125q0.09375 0.453125 0.09375 1.59375l0 5.953125l-1.640625 0l0 -5.890625q0 -1.0 -0.203125 -1.484375q-0.1875 -0.5 -0.671875 -0.796875q-0.484375 -0.296875 -1.140625 -0.296875q-1.046875 0 -1.8125 0.671875q-0.75 0.65625 -0.75 2.515625l0 5.28125l-1.640625 0zm13.953796 -1.46875l0.234375 1.453125q-0.6875 0.140625 -1.234375 0.140625q-0.890625 0 -1.390625 -0.28125q-0.484375 -0.28125 -0.6875 -0.734375q-0.203125 -0.46875 -0.203125 -1.9375l0 -5.578125l-1.203125 0l0 -1.265625l1.203125 0l0 -2.390625l1.625 -0.984375l0 3.375l1.65625 0l0 1.265625l-1.65625 0l0 5.671875q0 0.6875 0.078125 0.890625q0.09375 0.203125 0.28125 0.328125q0.203125 0.109375 0.578125 0.109375q0.265625 0 0.71875 -0.0625zm1.5895996 1.46875l0 -9.671875l1.46875 0l0 1.46875q0.5625 -1.03125 1.03125 -1.359375q0.484375 -0.328125 1.0625 -0.328125q0.828125 0 1.6875 0.53125l-0.5625 1.515625q-0.609375 -0.359375 -1.203125 -0.359375q-0.546875 0 -0.96875 0.328125q-0.421875 0.328125 -0.609375 0.890625q-0.28125 0.875 -0.28125 1.921875l0 5.0625l-1.625 0zm12.5407715 -1.1875q-0.921875 0.765625 -1.765625 1.09375q-0.828125 0.3125 -1.796875 0.3125q-1.59375 0 -2.453125 -0.78125q-0.859375 -0.78125 -0.859375 -1.984375q0 -0.71875 0.328125 -1.296875q0.328125 -0.59375 0.84375 -0.9375q0.53125 -0.359375 1.1875 -0.546875q0.46875 -0.125 1.453125 -0.25q1.984375 -0.234375 2.921875 -0.5625q0.015625 -0.34375 0.015625 -0.421875q0 -1.0 -0.46875 -1.421875q-0.625 -0.546875 -1.875 -0.546875q-1.15625 0 -1.703125 0.40625q-0.546875 0.40625 -0.8125 1.421875l-1.609375 -0.21875q0.21875 -1.015625 0.71875 -1.640625q0.5 -0.640625 1.453125 -0.984375q0.953125 -0.34375 2.1875 -0.34375q1.25 0 2.015625 0.296875q0.78125 0.28125 1.140625 0.734375q0.375 0.4375 0.515625 1.109375q0.078125 0.421875 0.078125 1.515625l0 2.1875q0 2.28125 0.109375 2.890625q0.109375 0.59375 0.40625 1.15625l-1.703125 0q-0.265625 -0.515625 -0.328125 -1.1875zm-0.140625 -3.671875q-0.890625 0.375 -2.671875 0.625q-1.015625 0.140625 -1.4375 0.328125q-0.421875 0.1875 -0.65625 0.53125q-0.21875 0.34375 -0.21875 0.78125q0 0.65625 0.5 1.09375q0.5 0.4375 1.453125 0.4375q0.9375 0 1.671875 -0.40625q0.75 -0.421875 1.09375 -1.140625q0.265625 -0.5625 0.265625 -1.640625l0 -0.609375zm10.516357 1.3125l1.609375 0.21875q-0.265625 1.65625 -1.359375 2.609375q-1.078125 0.9375 -2.671875 0.9375q-1.984375 0 -3.1875 -1.296875q-1.203125 -1.296875 -1.203125 -3.71875q0 -1.578125 0.515625 -2.75q0.515625 -1.171875 1.578125 -1.75q1.0625 -0.59375 2.3125 -0.59375q1.578125 0 2.578125 0.796875q1.0 0.796875 1.28125 2.265625l-1.59375 0.234375q-0.234375 -0.96875 -0.8125 -1.453125q-0.578125 -0.5 -1.390625 -0.5q-1.234375 0 -2.015625 0.890625q-0.78125 0.890625 -0.78125 2.8125q0 1.953125 0.75 2.84375q0.75 0.875 1.953125 0.875q0.96875 0 1.609375 -0.59375q0.65625 -0.59375 0.828125 -1.828125zm6.59375 2.078125l0.234375 1.453125q-0.6875 0.140625 -1.234375 0.140625q-0.890625 0 -1.390625 -0.28125q-0.484375 -0.28125 -0.6875 -0.734375q-0.203125 -0.46875 -0.203125 -1.9375l0 -5.578125l-1.203125 0l0 -1.265625l1.203125 0l0 -2.390625l1.625 -0.984375l0 3.375l1.65625 0l0 1.265625l-1.65625 0l0 5.671875q0 0.6875 0.078125 0.890625q0.09375 0.203125 0.28125 0.328125q0.203125 0.109375 0.578125 0.109375q0.265625 0 0.71875 -0.0625zm1.6051636 -10.0l0 -1.890625l1.640625 0l0 1.890625l-1.640625 0zm0 11.46875l0 -9.671875l1.640625 0l0 9.671875l-1.640625 0zm4.1448364 0l0 -9.671875l1.46875 0l0 1.375q1.0625 -1.59375 3.078125 -1.59375q0.875 0 1.609375 0.3125q0.734375 0.3125 1.09375 0.828125q0.375 0.5 0.515625 1.203125q0.09375 0.453125 0.09375 1.59375l0 5.953125l-1.640625 0l0 -5.890625q0 -1.0 -0.203125 -1.484375q-0.1875 -0.5 -0.671875 -0.796875q-0.484375 -0.296875 -1.140625 -0.296875q-1.046875 0 -1.8125 0.671875q-0.75 0.65625 -0.75 2.515625l0 5.28125l-1.640625 0zm10.063232 0.796875l1.59375 0.234375q0.109375 0.7499962 0.5625 1.0781212q0.609375 0.453125 1.671875 0.453125q1.140625 0 1.75 -0.453125q0.625 -0.4531212 0.84375 -1.2656212q0.125 -0.5 0.109375 -2.109375q-1.0625 1.265625 -2.671875 1.265625q-2.0 0 -3.09375 -1.4375q-1.09375 -1.4375 -1.09375 -3.453125q0 -1.390625 0.5 -2.5625q0.515625 -1.171875 1.453125 -1.796875q0.953125 -0.640625 2.25 -0.640625q1.703125 0 2.8125 1.375l0 -1.15625l1.515625 0l0 8.359375q0 2.265625 -0.46875 3.2031212q-0.453125 0.9375 -1.453125 1.484375q-0.984375 0.546875 -2.453125 0.546875q-1.71875 0 -2.796875 -0.78125q-1.0625 -0.765625 -1.03125 -2.3437462zm1.359375 -5.8125q0 1.90625 0.75 2.78125q0.765625 0.875 1.90625 0.875q1.125 0 1.890625 -0.859375q0.765625 -0.875 0.765625 -2.734375q0 -1.78125 -0.796875 -2.671875q-0.78125 -0.90625 -1.890625 -0.90625q-1.09375 0 -1.859375 0.890625q-0.765625 0.875 -0.765625 2.625zm17.637146 8.937496q-1.359375 -1.703125 -2.296875 -3.9999962q-0.9375 -2.296875 -0.9375 -4.765625q0 -2.15625 0.703125 -4.140625q0.828125 -2.3125 2.53125 -4.59375l1.171875 0q-1.09375 1.890625 -1.453125 2.703125q-0.546875 1.25 -0.875 2.625q-0.390625 1.703125 -0.390625 3.421875q0 4.375 2.71875 8.749996l-1.171875 0z" fill-rule="nonzero"/><path fill="#000000" d="m739.28033 66.029205l1.6875 0l0 -4.749996q0.171875 0.203125 0.375 0.375q0.21875 0.171875 0.453125 0.3125q0.390625 0.21875 0.875 0.328125q0.5 0.125 1.0625 0.125q0.921875 0 1.640625 -0.375q0.734375 -0.390625 1.234375 -1.0625q0.484375 -0.6875 0.734375 -1.59375q0.265625 -0.921875 0.265625 -1.96875l0 -0.203125q0 -1.09375 -0.265625 -2.015625q-0.25 -0.9375 -0.734375 -1.59375q-0.5 -0.671875 -1.234375 -1.03125q-0.71875 -0.375 -1.671875 -0.375q-0.53125 0 -1.0 0.109375q-0.46875 0.109375 -0.859375 0.328125q-0.265625 0.140625 -0.515625 0.359375q-0.234375 0.203125 -0.421875 0.453125l-0.09375 -1.078125l-1.53125 0l0 13.656246zm6.640625 -8.812496l0 0.203125q0 0.71875 -0.171875 1.375q-0.15625 0.65625 -0.484375 1.15625q-0.328125 0.5 -0.84375 0.796875q-0.5 0.296875 -1.203125 0.296875q-0.4375 0 -0.796875 -0.109375q-0.359375 -0.109375 -0.640625 -0.3125q-0.265625 -0.15625 -0.46875 -0.390625q-0.1875 -0.234375 -0.34375 -0.515625l0 -4.75q0.171875 -0.296875 0.390625 -0.546875q0.234375 -0.265625 0.53125 -0.4375q0.265625 -0.171875 0.59375 -0.265625q0.328125 -0.09375 0.71875 -0.09375q0.71875 0 1.21875 0.296875q0.515625 0.28125 0.84375 0.78125q0.328125 0.5 0.484375 1.15625q0.171875 0.640625 0.171875 1.359375zm11.039307 5.015625l1.75 0l0 -0.140625q-0.15625 -0.421875 -0.25 -0.96875q-0.09375 -0.546875 -0.09375 -1.046875l0 -4.578125q0 -0.828125 -0.296875 -1.4375q-0.296875 -0.625 -0.8125 -1.046875q-0.53125 -0.40625 -1.25 -0.609375q-0.71875 -0.203125 -1.5625 -0.203125q-0.921875 0 -1.65625 0.25q-0.71875 0.25 -1.21875 0.65625q-0.5 0.421875 -0.78125 0.953125q-0.265625 0.515625 -0.265625 1.046875l1.6875 0q0 -0.3125 0.140625 -0.59375q0.15625 -0.28125 0.4375 -0.5q0.265625 -0.203125 0.65625 -0.328125q0.40625 -0.140625 0.90625 -0.140625q0.546875 0 0.96875 0.140625q0.4375 0.140625 0.734375 0.390625q0.296875 0.25 0.453125 0.609375q0.171875 0.34375 0.171875 0.796875l0 0.78125l-1.828125 0q-1.03125 0 -1.875 0.203125q-0.828125 0.1875 -1.421875 0.59375q-0.59375 0.40625 -0.921875 1.015625q-0.3125 0.609375 -0.3125 1.421875q0 0.625 0.234375 1.15625q0.25 0.53125 0.6875 0.90625q0.4375 0.40625 1.0625 0.640625q0.640625 0.21875 1.4375 0.21875q0.46875 0 0.890625 -0.109375q0.4375 -0.09375 0.828125 -0.265625q0.375 -0.171875 0.6875 -0.390625q0.3125 -0.234375 0.5625 -0.5q0.03125 0.3125 0.09375 0.609375q0.0625 0.28125 0.15625 0.46875zm-2.984375 -1.28125q-0.484375 0 -0.859375 -0.125q-0.375 -0.140625 -0.625 -0.359375q-0.234375 -0.21875 -0.359375 -0.53125q-0.125 -0.3125 -0.125 -0.671875q0 -0.390625 0.140625 -0.6875q0.140625 -0.296875 0.40625 -0.515625q0.390625 -0.3125 1.03125 -0.453125q0.65625 -0.15625 1.53125 -0.15625l1.5625 0l0 2.0q-0.140625 0.28125 -0.40625 0.5625q-0.25 0.265625 -0.59375 0.46875q-0.34375 0.203125 -0.78125 0.34375q-0.421875 0.125 -0.921875 0.125zm7.9612427 -12.71875l0 1.46875l3.359375 0l0 11.078125l-3.359375 0l0 1.453125l8.265625 0l0 -1.453125l-3.21875 0l0 -12.546875l-5.046875 0zm11.195557 0l0 1.46875l3.359375 0l0 11.078125l-3.359375 0l0 1.453125l8.265625 0l0 -1.453125l-3.21875 0l0 -12.546875l-5.046875 0zm17.414307 14.0l1.75 0l0 -0.140625q-0.15625 -0.421875 -0.25 -0.96875q-0.09375 -0.546875 -0.09375 -1.046875l0 -4.578125q0 -0.828125 -0.296875 -1.4375q-0.296875 -0.625 -0.8125 -1.046875q-0.53125 -0.40625 -1.25 -0.609375q-0.71875 -0.203125 -1.5625 -0.203125q-0.921875 0 -1.65625 0.25q-0.71875 0.25 -1.21875 0.65625q-0.5 0.421875 -0.78125 0.953125q-0.265625 0.515625 -0.265625 1.046875l1.6875 0q0 -0.3125 0.140625 -0.59375q0.15625 -0.28125 0.4375 -0.5q0.265625 -0.203125 0.65625 -0.328125q0.40625 -0.140625 0.90625 -0.140625q0.546875 0 0.96875 0.140625q0.4375 0.140625 0.734375 0.390625q0.296875 0.25 0.453125 0.609375q0.171875 0.34375 0.171875 0.796875l0 0.78125l-1.828125 0q-1.03125 0 -1.875 0.203125q-0.828125 0.1875 -1.421875 0.59375q-0.59375 0.40625 -0.921875 1.015625q-0.3125 0.609375 -0.3125 1.421875q0 0.625 0.234375 1.15625q0.25 0.53125 0.6875 0.90625q0.4375 0.40625 1.0625 0.640625q0.640625 0.21875 1.4375 0.21875q0.46875 0 0.890625 -0.109375q0.4375 -0.09375 0.828125 -0.265625q0.375 -0.171875 0.6875 -0.390625q0.3125 -0.234375 0.5625 -0.5q0.03125 0.3125 0.09375 0.609375q0.0625 0.28125 0.15625 0.46875zm-2.984375 -1.28125q-0.484375 0 -0.859375 -0.125q-0.375 -0.140625 -0.625 -0.359375q-0.234375 -0.21875 -0.359375 -0.53125q-0.125 -0.3125 -0.125 -0.671875q0 -0.390625 0.140625 -0.6875q0.140625 -0.296875 0.40625 -0.515625q0.390625 -0.3125 1.03125 -0.453125q0.65625 -0.15625 1.53125 -0.15625l1.5625 0l0 2.0q-0.140625 0.28125 -0.40625 0.5625q-0.25 0.265625 -0.59375 0.46875q-0.34375 0.203125 -0.78125 0.34375q-0.421875 0.125 -0.921875 0.125zm14.258057 -1.328125q0 0.234375 -0.09375 0.453125q-0.09375 0.203125 -0.265625 0.375q-0.28125 0.28125 -0.78125 0.4375q-0.5 0.15625 -1.171875 0.15625q-0.4375 0 -0.875 -0.078125q-0.4375 -0.09375 -0.796875 -0.3125q-0.359375 -0.21875 -0.609375 -0.578125q-0.234375 -0.359375 -0.265625 -0.875l-1.6875 0q0 0.625 0.28125 1.21875q0.296875 0.578125 0.84375 1.015625q0.53125 0.4375 1.3125 0.71875q0.78125 0.265625 1.796875 0.265625q0.875 0 1.609375 -0.203125q0.734375 -0.21875 1.265625 -0.609375q0.53125 -0.375 0.8125 -0.90625q0.296875 -0.546875 0.296875 -1.203125q0 -0.609375 -0.265625 -1.0625q-0.25 -0.46875 -0.734375 -0.828125q-0.5 -0.34375 -1.21875 -0.59375q-0.71875 -0.25 -1.625 -0.453125q-0.6875 -0.125 -1.140625 -0.265625q-0.453125 -0.15625 -0.71875 -0.34375q-0.28125 -0.171875 -0.390625 -0.40625q-0.109375 -0.234375 -0.109375 -0.515625q0 -0.28125 0.140625 -0.546875q0.140625 -0.265625 0.40625 -0.46875q0.265625 -0.203125 0.671875 -0.3125q0.40625 -0.125 0.953125 -0.125q0.515625 0 0.921875 0.15625q0.421875 0.140625 0.71875 0.375q0.28125 0.234375 0.4375 0.546875q0.171875 0.296875 0.171875 0.625l1.6875 0q0 -0.65625 -0.28125 -1.21875q-0.265625 -0.5625 -0.78125 -0.96875q-0.515625 -0.421875 -1.25 -0.65625q-0.71875 -0.234375 -1.625 -0.234375q-0.859375 0 -1.5625 0.234375q-0.703125 0.21875 -1.21875 0.609375q-0.5 0.390625 -0.78125 0.921875q-0.28125 0.515625 -0.28125 1.109375q0 0.609375 0.265625 1.078125q0.28125 0.453125 0.78125 0.796875q0.484375 0.34375 1.171875 0.59375q0.703125 0.234375 1.5625 0.421875q0.6875 0.125 1.140625 0.296875q0.46875 0.171875 0.75 0.375q0.28125 0.203125 0.40625 0.4375q0.125 0.234375 0.125 0.546875zm12.820618 3.984375l0 -1.375l-8.359375 0l0 1.375l8.359375 0zm7.2111816 -2.5625q-0.796875 0 -1.328125 -0.3125q-0.53125 -0.3125 -0.84375 -0.828125q-0.328125 -0.5 -0.46875 -1.125q-0.140625 -0.640625 -0.140625 -1.28125l0 -0.390625q0 -0.625 0.140625 -1.25q0.140625 -0.640625 0.46875 -1.15625q0.328125 -0.5 0.859375 -0.8125q0.53125 -0.3125 1.3125 -0.3125q0.515625 0 0.953125 0.171875q0.4375 0.171875 0.765625 0.484375q0.3125 0.296875 0.5 0.6875q0.1875 0.390625 0.203125 0.84375l1.59375 0q0 -0.75 -0.3125 -1.40625q-0.296875 -0.65625 -0.828125 -1.140625q-0.53125 -0.46875 -1.265625 -0.734375q-0.734375 -0.28125 -1.609375 -0.28125q-1.109375 0 -1.953125 0.40625q-0.84375 0.390625 -1.390625 1.0625q-0.5625 0.6875 -0.859375 1.578125q-0.28125 0.890625 -0.28125 1.859375l0 0.390625q0 0.984375 0.28125 1.875q0.296875 0.875 0.859375 1.5625q0.546875 0.671875 1.390625 1.078125q0.84375 0.40625 1.953125 0.40625q0.78125 0 1.5 -0.265625q0.71875 -0.28125 1.28125 -0.734375q0.5625 -0.4375 0.890625 -1.03125q0.328125 -0.609375 0.34375 -1.265625l-1.59375 0q-0.015625 0.40625 -0.21875 0.765625q-0.203125 0.34375 -0.546875 0.609375q-0.328125 0.265625 -0.765625 0.40625q-0.4375 0.140625 -0.890625 0.140625zm13.476807 1.1875l1.75 0l0 -0.140625q-0.15625 -0.421875 -0.25 -0.96875q-0.09375 -0.546875 -0.09375 -1.046875l0 -4.578125q0 -0.828125 -0.296875 -1.4375q-0.296875 -0.625 -0.8125 -1.046875q-0.53125 -0.40625 -1.25 -0.609375q-0.71875 -0.203125 -1.5625 -0.203125q-0.921875 0 -1.65625 0.25q-0.71875 0.25 -1.21875 0.65625q-0.5 0.421875 -0.78125 0.953125q-0.265625 0.515625 -0.265625 1.046875l1.6875 0q0 -0.3125 0.140625 -0.59375q0.15625 -0.28125 0.4375 -0.5q0.265625 -0.203125 0.65625 -0.328125q0.40625 -0.140625 0.90625 -0.140625q0.546875 0 0.96875 0.140625q0.4375 0.140625 0.734375 0.390625q0.296875 0.25 0.453125 0.609375q0.171875 0.34375 0.171875 0.796875l0 0.78125l-1.828125 0q-1.03125 0 -1.875 0.203125q-0.828125 0.1875 -1.421875 0.59375q-0.59375 0.40625 -0.921875 1.015625q-0.3125 0.609375 -0.3125 1.421875q0 0.625 0.234375 1.15625q0.25 0.53125 0.6875 0.90625q0.4375 0.40625 1.0625 0.640625q0.640625 0.21875 1.4375 0.21875q0.46875 0 0.890625 -0.109375q0.4375 -0.09375 0.828125 -0.265625q0.375 -0.171875 0.6875 -0.390625q0.3125 -0.234375 0.5625 -0.5q0.03125 0.3125 0.09375 0.609375q0.0625 0.28125 0.15625 0.46875zm-2.984375 -1.28125q-0.484375 0 -0.859375 -0.125q-0.375 -0.140625 -0.625 -0.359375q-0.234375 -0.21875 -0.359375 -0.53125q-0.125 -0.3125 -0.125 -0.671875q0 -0.390625 0.140625 -0.6875q0.140625 -0.296875 0.40625 -0.515625q0.390625 -0.3125 1.03125 -0.453125q0.65625 -0.15625 1.53125 -0.15625l1.5625 0l0 2.0q-0.140625 0.28125 -0.40625 0.5625q-0.25 0.265625 -0.59375 0.46875q-0.34375 0.203125 -0.78125 0.34375q-0.421875 0.125 -0.921875 0.125zm7.9611816 -12.71875l0 1.46875l3.359375 0l0 11.078125l-3.359375 0l0 1.453125l8.265625 0l0 -1.453125l-3.21875 0l0 -12.546875l-5.046875 0zm11.195618 0l0 1.46875l3.359375 0l0 11.078125l-3.359375 0l0 1.453125l8.265625 0l0 -1.453125l-3.21875 0l0 -12.546875l-5.046875 0z" fill-rule="nonzero"/><path fill="#000000" d="m863.166 66.154205l-1.1875 0q2.734375 -4.374996 2.734375 -8.749996q0 -1.71875 -0.390625 -3.390625q-0.3125 -1.375 -0.875 -2.625q-0.359375 -0.828125 -1.46875 -2.734375l1.1875 0q1.703125 2.28125 2.53125 4.59375q0.6875 1.984375 0.6875 4.140625q0 2.46875 -0.9375 4.765625q-0.9375 2.2968712 -2.28125 3.9999962z" fill-rule="nonzero"/><path fill="#000000" fill-opacity="0.0" d="m81.45407 137.2336l0 273.54333" fill-rule="evenodd"/><path stroke="#000000" stroke-width="1.0" stroke-linejoin="round" stroke-linecap="butt" d="m81.45407 137.2336l0 267.54333" fill-rule="evenodd"/><path fill="#000000" stroke="#000000" stroke-width="1.0" stroke-linecap="butt" d="m79.80234 404.77692l1.6517334 4.538086l1.6517334 -4.538086z" fill-rule="evenodd"/><path fill="#000000" fill-opacity="0.0" d="m34.17848 421.9029l0 -333.00787l42.01575 0l0 333.00787z" fill-rule="evenodd"/><path fill="#000000" d="m61.098476 411.48102l-13.359375 0l0 -1.8125l10.484375 -7.015625l-10.484375 0l0 -1.6875l13.359375 0l0 1.8125l-10.5 7.015625l10.5 0l0 1.6875zm-4.84375 -12.676086q-2.6875 0 -3.96875 -1.484375q-1.078125 -1.25 -1.078125 -3.046875q0 -2.0 1.3125 -3.265625q1.296875 -1.265625 3.609375 -1.265625q1.859375 0 2.9375 0.5625q1.0625 0.5625 1.65625 1.640625q0.59375 1.0625 0.59375 2.328125q0 2.03125 -1.296875 3.28125q-1.3125 1.25 -3.765625 1.25zm0 -1.6875q1.859375 0 2.796875 -0.796875q0.921875 -0.8125 0.921875 -2.046875q0 -1.21875 -0.921875 -2.03125q-0.9375 -0.8125 -2.84375 -0.8125q-1.796875 0 -2.71875 0.8125q-0.921875 0.8125 -0.921875 2.03125q0 1.234375 0.921875 2.046875q0.90625 0.796875 2.765625 0.796875zm4.84375 -9.297577l-9.671875 0l0 -1.46875l1.375 0q-1.59375 -1.0625 -1.59375 -3.078125q0 -0.875 0.3125 -1.609375q0.3125 -0.734375 0.828125 -1.09375q0.5 -0.375 1.203125 -0.515625q0.453125 -0.09375 1.59375 -0.09375l5.953125 0l0 1.640625l-5.890625 0q-1.0 0 -1.484375 0.203125q-0.5 0.1875 -0.796875 0.671875q-0.296875 0.484375 -0.296875 1.140625q0 1.046875 0.671875 1.8125q0.65625 0.75 2.515625 0.75l5.28125 0l0 1.640625zm-4.015625 -9.735107l-1.640625 0l0 -5.03125l1.640625 0l0 5.03125zm0.46875 -13.165802l0.21875 -1.609375q1.65625 0.265625 2.609375 1.359375q0.9375 1.078125 0.9375 2.671875q0 1.984375 -1.296875 3.1875q-1.296875 1.203125 -3.71875 1.203125q-1.578125 0 -2.75 -0.515625q-1.171875 -0.515625 -1.75 -1.578125q-0.59375 -1.0625 -0.59375 -2.3125q0 -1.578125 0.796875 -2.578125q0.796875 -1.0 2.265625 -1.28125l0.234375 1.59375q-0.96875 0.234375 -1.453125 0.8125q-0.5 0.578125 -0.5 1.390625q0 1.234375 0.890625 2.015625q0.890625 0.78125 2.8125 0.78125q1.953125 0 2.84375 -0.75q0.875 -0.75 0.875 -1.953125q0 -0.96875 -0.59375 -1.609375q-0.59375 -0.65625 -1.828125 -0.828125zm-1.296875 -2.40625q-2.6875 0 -3.96875 -1.484375q-1.078125 -1.25 -1.078125 -3.046875q0 -2.0 1.3125 -3.265625q1.296875 -1.265625 3.609375 -1.265625q1.859375 0 2.9375 0.5625q1.0625 0.5625 1.65625 1.640625q0.59375 1.0625 0.59375 2.328125q0 2.03125 -1.296875 3.28125q-1.3125 1.25 -3.765625 1.25zm0 -1.6875q1.859375 0 2.796875 -0.796875q0.921875 -0.8125 0.921875 -2.046875q0 -1.21875 -0.921875 -2.03125q-0.9375 -0.8125 -2.84375 -0.8125q-1.796875 0 -2.71875 0.8125q-0.921875 0.8125 -0.921875 2.03125q0 1.234375 0.921875 2.046875q0.90625 0.796875 2.765625 0.796875zm4.84375 -9.297577l-9.671875 0l0 -1.46875l1.375 0q-1.59375 -1.0625 -1.59375 -3.078125q0 -0.875 0.3125 -1.609375q0.3125 -0.734375 0.828125 -1.09375q0.5 -0.375 1.203125 -0.515625q0.453125 -0.09375 1.59375 -0.09375l5.953125 0l0 1.640625l-5.890625 0q-1.0 0 -1.484375 0.203125q-0.5 0.1875 -0.796875 0.671875q-0.296875 0.484375 -0.296875 1.140625q0 1.046875 0.671875 1.8125q0.65625 0.75 2.515625 0.75l5.28125 0l0 1.640625zm-1.46875 -13.953857l1.453125 -0.234375q0.140625 0.6875 0.140625 1.234375q0 0.890625 -0.28125 1.390625q-0.28125 0.484375 -0.734375 0.6875q-0.46875 0.203125 -1.9375 0.203125l-5.578125 0l0 1.203125l-1.265625 0l0 -1.203125l-2.390625 0l-0.984375 -1.625l3.375 0l0 -1.65625l1.265625 0l0 1.65625l5.671875 0q0.6875 0 0.890625 -0.078125q0.203125 -0.09375 0.328125 -0.28125q0.109375 -0.203125 0.109375 -0.578125q0 -0.265625 -0.0625 -0.71875zm1.46875 -1.5895386l-9.671875 0l0 -1.46875l1.46875 0q-1.03125 -0.5625 -1.359375 -1.03125q-0.328125 -0.484375 -0.328125 -1.0625q0 -0.828125 0.53125 -1.6875l1.515625 0.5625q-0.359375 0.609375 -0.359375 1.203125q0 0.546875 0.328125 0.96875q0.328125 0.421875 0.890625 0.609375q0.875 0.28125 1.921875 0.28125l5.0625 0l0 1.625zm-1.1875 -12.540802q0.765625 0.921875 1.09375 1.765625q0.3125 0.828125 0.3125 1.796875q0 1.59375 -0.78125 2.453125q-0.78125 0.859375 -1.984375 0.859375q-0.71875 0 -1.296875 -0.328125q-0.59375 -0.328125 -0.9375 -0.84375q-0.359375 -0.53125 -0.546875 -1.1875q-0.125 -0.46875 -0.25 -1.453125q-0.234375 -1.984375 -0.5625 -2.921875q-0.34375 -0.015625 -0.421875 -0.015625q-1.0 0 -1.421875 0.46875q-0.546875 0.625 -0.546875 1.875q0 1.15625 0.40625 1.703125q0.40625 0.546875 1.421875 0.8125l-0.21875 1.609375q-1.015625 -0.21875 -1.640625 -0.71875q-0.640625 -0.5 -0.984375 -1.453125q-0.34375 -0.953125 -0.34375 -2.1875q0 -1.25 0.296875 -2.015625q0.28125 -0.78125 0.734375 -1.140625q0.4375 -0.375 1.109375 -0.515625q0.421875 -0.078125 1.515625 -0.078125l2.1875 0q2.28125 0 2.890625 -0.109375q0.59375 -0.109375 1.15625 -0.40625l0 1.703125q-0.515625 0.265625 -1.1875 0.328125zm-3.671875 0.140625q0.375 0.890625 0.625 2.671875q0.140625 1.015625 0.328125 1.4375q0.1875 0.421875 0.53125 0.65625q0.34375 0.21875 0.78125 0.21875q0.65625 0 1.09375 -0.5q0.4375 -0.5 0.4375 -1.453125q0 -0.9375 -0.40625 -1.671875q-0.421875 -0.75 -1.140625 -1.09375q-0.5625 -0.265625 -1.640625 -0.265625l-0.609375 0zm1.3125 -10.516357l0.21875 -1.609375q1.65625 0.265625 2.609375 1.359375q0.9375 1.078125 0.9375 2.671875q0 1.984375 -1.296875 3.1875q-1.296875 1.203125 -3.71875 1.203125q-1.578125 0 -2.75 -0.515625q-1.171875 -0.515625 -1.75 -1.578125q-0.59375 -1.0625 -0.59375 -2.3125q0 -1.578125 0.796875 -2.578125q0.796875 -1.0 2.265625 -1.28125l0.234375 1.59375q-0.96875 0.234375 -1.453125 0.8125q-0.5 0.578125 -0.5 1.390625q0 1.234375 0.890625 2.015625q0.890625 0.78125 2.8125 0.78125q1.953125 0 2.84375 -0.75q0.875 -0.75 0.875 -1.953125q0 -0.96875 -0.59375 -1.609375q-0.59375 -0.65625 -1.828125 -0.828125zm2.078125 -6.59375l1.453125 -0.234375q0.140625 0.6875 0.140625 1.234375q0 0.890625 -0.28125 1.390625q-0.28125 0.484375 -0.734375 0.6875q-0.46875 0.203125 -1.9375 0.203125l-5.578125 0l0 1.203125l-1.265625 0l0 -1.203125l-2.390625 0l-0.984375 -1.625l3.375 0l0 -1.65625l1.265625 0l0 1.65625l5.671875 0q0.6875 0 0.890625 -0.078125q0.203125 -0.09375 0.328125 -0.28125q0.109375 -0.203125 0.109375 -0.578125q0 -0.265625 -0.0625 -0.71875zm-10.0 -1.6051636l-1.890625 0l0 -1.640625l1.890625 0l0 1.640625zm11.46875 0l-9.671875 0l0 -1.640625l9.671875 0l0 1.640625zm0 -4.1448364l-9.671875 0l0 -1.46875l1.375 0q-1.59375 -1.0625 -1.59375 -3.078125q0 -0.875 0.3125 -1.609375q0.3125 -0.734375 0.828125 -1.09375q0.5 -0.375 1.203125 -0.515625q0.453125 -0.09375 1.59375 -0.09375l5.953125 0l0 1.640625l-5.890625 0q-1.0 0 -1.484375 0.203125q-0.5 0.1875 -0.796875 0.671875q-0.296875 0.484375 -0.296875 1.140625q0 1.046875 0.671875 1.8125q0.65625 0.75 2.515625 0.75l5.28125 0l0 1.640625zm0.796875 -10.063202l0.234375 -1.59375q0.75 -0.109375 1.078125 -0.5625q0.453125 -0.609375 0.453125 -1.671875q0 -1.140625 -0.453125 -1.75q-0.453125 -0.625 -1.265625 -0.84375q-0.5 -0.125 -2.109375 -0.109375q1.265625 1.0625 1.265625 2.671875q0 2.0 -1.4375 3.09375q-1.4375 1.09375 -3.453125 1.09375q-1.390625 0 -2.5625 -0.5q-1.171875 -0.515625 -1.796875 -1.453125q-0.640625 -0.953125 -0.640625 -2.25q0 -1.703125 1.375 -2.8125l-1.15625 0l0 -1.515625l8.359375 0q2.265625 0 3.203125 0.46875q0.9375 0.453125 1.4843712 1.453125q0.546875 0.984375 0.546875 2.453125q0 1.71875 -0.78125 2.796875q-0.7656212 1.0625 -2.3437462 1.03125zm-5.8125 -1.359375q1.90625 0 2.78125 -0.75q0.875 -0.765625 0.875 -1.90625q0 -1.125 -0.859375 -1.890625q-0.875 -0.765625 -2.734375 -0.765625q-1.78125 0 -2.671875 0.796875q-0.90625 0.78125 -0.90625 1.890625q0 1.09375 0.890625 1.859375q0.875 0.765625 2.625 0.765625zm8.937496 -17.637146q-1.7031212 1.359375 -3.9999962 2.296875q-2.296875 0.9375 -4.765625 0.9375q-2.15625 0 -4.140625 -0.703125q-2.3125 -0.828125 -4.59375 -2.53125l0 -1.171875q1.890625 1.09375 2.703125 1.453125q1.25 0.546875 2.625 0.875q1.703125 0.390625 3.421875 0.390625q4.375 0 8.749996 -2.71875l0 1.171875z" fill-rule="nonzero"/><path fill="#000000" d="m64.89535 268.2328l0 -1.6875l-4.749996 0q0.203125 -0.171875 0.375 -0.375q0.171875 -0.21875 0.3125 -0.453125q0.21875 -0.390625 0.328125 -0.875q0.125 -0.5 0.125 -1.0625q0 -0.921875 -0.375 -1.640625q-0.390625 -0.734375 -1.0625 -1.234375q-0.6875 -0.484375 -1.59375 -0.734375q-0.921875 -0.265625 -1.96875 -0.265625l-0.203125 0q-1.09375 0 -2.015625 0.265625q-0.9375 0.25 -1.59375 0.734375q-0.671875 0.5 -1.03125 1.234375q-0.375 0.71875 -0.375 1.671875q0 0.53125 0.109375 1.0q0.109375 0.46875 0.328125 0.859375q0.140625 0.265625 0.359375 0.515625q0.203125 0.234375 0.453125 0.421875l-1.078125 0.09375l0 1.53125l13.656246 0zm-8.812496 -6.640625l0.203125 0q0.71875 0 1.375 0.171875q0.65625 0.15625 1.15625 0.484375q0.5 0.328125 0.796875 0.84375q0.296875 0.5 0.296875 1.203125q0 0.4375 -0.109375 0.796875q-0.109375 0.359375 -0.3125 0.640625q-0.15625 0.265625 -0.390625 0.46875q-0.234375 0.1875 -0.515625 0.34375l-4.75 0q-0.296875 -0.171875 -0.546875 -0.390625q-0.265625 -0.234375 -0.4375 -0.53125q-0.171875 -0.265625 -0.265625 -0.59375q-0.09375 -0.328125 -0.09375 -0.71875q0 -0.71875 0.296875 -1.21875q0.28125 -0.515625 0.78125 -0.84375q0.5 -0.328125 1.15625 -0.484375q0.640625 -0.171875 1.359375 -0.171875zm5.015625 -11.039322l0 -1.75l-0.140625 0q-0.421875 0.15625 -0.96875 0.25q-0.546875 0.09375 -1.046875 0.09375l-4.578125 0q-0.828125 0 -1.4375 0.296875q-0.625 0.296875 -1.046875 0.8125q-0.40625 0.53125 -0.609375 1.25q-0.203125 0.71875 -0.203125 1.5625q0 0.921875 0.25 1.65625q0.25 0.71875 0.65625 1.21875q0.421875 0.49998474 0.953125 0.78123474q0.515625 0.265625 1.046875 0.265625l0 -1.6874847q-0.3125 0 -0.59375 -0.140625q-0.28125 -0.15625 -0.5 -0.4375q-0.203125 -0.265625 -0.328125 -0.65625q-0.140625 -0.40625 -0.140625 -0.90625q0 -0.546875 0.140625 -0.96875q0.140625 -0.4375 0.390625 -0.734375q0.25 -0.296875 0.609375 -0.453125q0.34375 -0.171875 0.796875 -0.171875l0.78125 0l0 1.828125q0 1.03125 0.203125 1.875q0.1875 0.828125 0.59375 1.421875q0.40625 0.59373474 1.015625 0.92185974q0.609375 0.3125 1.421875 0.3125q0.625 0 1.15625 -0.234375q0.53125 -0.25 0.90625 -0.6875q0.40625 -0.43748474 0.640625 -1.0624847q0.21875 -0.640625 0.21875 -1.4375q0 -0.46875 -0.109375 -0.890625q-0.09375 -0.4375 -0.265625 -0.828125q-0.171875 -0.375 -0.390625 -0.6875q-0.234375 -0.3125 -0.5 -0.5625q0.3125 -0.03125 0.609375 -0.09375q0.28125 -0.0625 0.46875 -0.15625zm-1.28125 2.984375q0 0.484375 -0.125 0.859375q-0.140625 0.375 -0.359375 0.625q-0.21875 0.234375 -0.53125 0.359375q-0.3125 0.125 -0.671875 0.125q-0.390625 0 -0.6875 -0.140625q-0.296875 -0.140625 -0.515625 -0.40625q-0.3125 -0.390625 -0.453125 -1.03125q-0.15625 -0.65625 -0.15625 -1.53125l0 -1.5625l2.0 0q0.28125 0.140625 0.5625 0.40625q0.265625 0.25 0.46875 0.59375q0.203125 0.34375 0.34375 0.78125q0.125 0.421875 0.125 0.921875zm-12.71875 -7.961197l1.46875 0l0 -3.359375l11.078125 0l0 3.359375l1.453125 0l0 -8.265625l-1.453125 0l0 3.21875l-12.546875 0l0 5.046875zm0 -11.195572l1.46875 0l0 -3.359375l11.078125 0l0 3.359375l1.453125 0l0 -8.265625l-1.453125 0l0 3.21875l-12.546875 0l0 5.046875zm14.0 -17.414322l0 -1.75l-0.140625 0q-0.421875 0.15625 -0.96875 0.25q-0.546875 0.09375 -1.046875 0.09375l-4.578125 0q-0.828125 0 -1.4375 0.296875q-0.625 0.296875 -1.046875 0.8125q-0.40625 0.53125 -0.609375 1.25q-0.203125 0.71875 -0.203125 1.5625q0 0.921875 0.25 1.65625q0.25 0.71875 0.65625 1.21875q0.421875 0.5 0.953125 0.78125q0.515625 0.265625 1.046875 0.265625l0 -1.6875q-0.3125 0 -0.59375 -0.140625q-0.28125 -0.15625 -0.5 -0.4375q-0.203125 -0.265625 -0.328125 -0.65625q-0.140625 -0.40625 -0.140625 -0.90625q0 -0.546875 0.140625 -0.96875q0.140625 -0.4375 0.390625 -0.734375q0.25 -0.296875 0.609375 -0.453125q0.34375 -0.171875 0.796875 -0.171875l0.78125 0l0 1.828125q0 1.03125 0.203125 1.875q0.1875 0.828125 0.59375 1.421875q0.40625 0.59375 1.015625 0.921875q0.609375 0.3125 1.421875 0.3125q0.625 0 1.15625 -0.234375q0.53125 -0.25 0.90625 -0.6875q0.40625 -0.4375 0.640625 -1.0625q0.21875 -0.640625 0.21875 -1.4375q0 -0.46875 -0.109375 -0.890625q-0.09375 -0.4375 -0.265625 -0.828125q-0.171875 -0.375 -0.390625 -0.6875q-0.234375 -0.3125 -0.5 -0.5625q0.3125 -0.03125 0.609375 -0.09375q0.28125 -0.0625 0.46875 -0.15625zm-1.28125 2.984375q0 0.484375 -0.125 0.859375q-0.140625 0.375 -0.359375 0.625q-0.21875 0.234375 -0.53125 0.359375q-0.3125 0.125 -0.671875 0.125q-0.390625 0 -0.6875 -0.140625q-0.296875 -0.140625 -0.515625 -0.40625q-0.3125 -0.390625 -0.453125 -1.03125q-0.15625 -0.65625 -0.15625 -1.53125l0 -1.5625l2.0 0q0.28125 0.140625 0.5625 0.40625q0.265625 0.25 0.46875 0.59375q0.203125 0.34375 0.34375 0.78125q0.125 0.421875 0.125 0.921875zm-1.328125 -14.258072q0.234375 0 0.453125 0.09375q0.203125 0.09375 0.375 0.265625q0.28125 0.28125 0.4375 0.78125q0.15625 0.5 0.15625 1.171875q0 0.4375 -0.078125 0.875q-0.09375 0.4375 -0.3125 0.796875q-0.21875 0.359375 -0.578125 0.609375q-0.359375 0.234375 -0.875 0.265625l0 1.6875q0.625 0 1.21875 -0.28125q0.578125 -0.296875 1.015625 -0.84375q0.4375 -0.53125 0.71875 -1.3125q0.265625 -0.78125 0.265625 -1.796875q0 -0.875 -0.203125 -1.609375q-0.21875 -0.734375 -0.609375 -1.265625q-0.375 -0.53125 -0.90625 -0.8125q-0.546875 -0.296875 -1.203125 -0.296875q-0.609375 0 -1.0625 0.265625q-0.46875 0.25 -0.828125 0.734375q-0.34375 0.5 -0.59375 1.21875q-0.25 0.71875 -0.453125 1.625q-0.125 0.6875 -0.265625 1.140625q-0.15625 0.453125 -0.34375 0.71875q-0.171875 0.28125 -0.40625 0.390625q-0.234375 0.109375 -0.515625 0.109375q-0.28125 0 -0.546875 -0.140625q-0.265625 -0.140625 -0.46875 -0.40625q-0.203125 -0.265625 -0.3125 -0.671875q-0.125 -0.40625 -0.125 -0.953125q0 -0.515625 0.15625 -0.921875q0.140625 -0.421875 0.375 -0.71875q0.234375 -0.28125 0.546875 -0.4375q0.296875 -0.171875 0.625 -0.171875l0 -1.6875q-0.65625 0 -1.21875 0.28125q-0.5625 0.265625 -0.96875 0.78125q-0.421875 0.515625 -0.65625 1.25q-0.234375 0.71875 -0.234375 1.625q0 0.859375 0.234375 1.5625q0.21875 0.703125 0.609375 1.21875q0.390625 0.5 0.921875 0.78125q0.515625 0.28125 1.109375 0.28125q0.609375 0 1.078125 -0.265625q0.453125 -0.28125 0.796875 -0.78125q0.34375 -0.484375 0.59375 -1.171875q0.234375 -0.703125 0.421875 -1.5625q0.125 -0.6875 0.296875 -1.140625q0.171875 -0.46875 0.375 -0.75q0.203125 -0.28125 0.4375 -0.40625q0.234375 -0.125 0.546875 -0.125zm3.984375 -12.820572l-1.375 0l0 8.359375l1.375 0l0 -8.359375zm-2.5625 -7.211197q0 0.796875 -0.3125 1.328125q-0.3125 0.53125 -0.828125 0.84375q-0.5 0.328125 -1.125 0.46875q-0.640625 0.140625 -1.28125 0.140625l-0.390625 0q-0.625 0 -1.25 -0.140625q-0.640625 -0.140625 -1.15625 -0.46875q-0.5 -0.328125 -0.8125 -0.859375q-0.3125 -0.53125 -0.3125 -1.3125q0 -0.515625 0.171875 -0.953125q0.171875 -0.4375 0.484375 -0.765625q0.296875 -0.3125 0.6875 -0.5q0.390625 -0.1875 0.84375 -0.203125l0 -1.59375q-0.75 0 -1.40625 0.3125q-0.65625 0.296875 -1.140625 0.828125q-0.46875 0.53125 -0.734375 1.265625q-0.28125 0.734375 -0.28125 1.609375q0 1.109375 0.40625 1.953125q0.390625 0.84375 1.0625 1.390625q0.6875 0.5625 1.578125 0.859375q0.890625 0.28125 1.859375 0.28125l0.390625 0q0.984375 0 1.875 -0.28125q0.875 -0.296875 1.5625 -0.859375q0.671875 -0.546875 1.078125 -1.390625q0.40625 -0.84375 0.40625 -1.953125q0 -0.78125 -0.265625 -1.5q-0.28125 -0.71875 -0.734375 -1.28125q-0.4375 -0.5625 -1.03125 -0.890625q-0.609375 -0.328125 -1.265625 -0.34375l0 1.59375q0.40625 0.015625 0.765625 0.21875q0.34375 0.203125 0.609375 0.546875q0.265625 0.328125 0.40625 0.765625q0.140625 0.4375 0.140625 0.890625zm1.1875 -13.476822l0 -1.75l-0.140625 0q-0.421875 0.15625 -0.96875 0.25q-0.546875 0.09375 -1.046875 0.09375l-4.578125 0q-0.828125 0 -1.4375 0.296875q-0.625 0.296875 -1.046875 0.8125q-0.40625 0.53125 -0.609375 1.25q-0.203125 0.71875 -0.203125 1.5625q0 0.921875 0.25 1.65625q0.25 0.71875 0.65625 1.21875q0.421875 0.5 0.953125 0.78125q0.515625 0.265625 1.046875 0.265625l0 -1.6875q-0.3125 0 -0.59375 -0.140625q-0.28125 -0.15625 -0.5 -0.4375q-0.203125 -0.265625 -0.328125 -0.65625q-0.140625 -0.40625 -0.140625 -0.90625q0 -0.546875 0.140625 -0.96875q0.140625 -0.4375 0.390625 -0.734375q0.25 -0.296875 0.609375 -0.453125q0.34375 -0.171875 0.796875 -0.171875l0.78125 0l0 1.828125q0 1.03125 0.203125 1.875q0.1875 0.828125 0.59375 1.421875q0.40625 0.59375 1.015625 0.921875q0.609375 0.3125 1.421875 0.3125q0.625 0 1.15625 -0.234375q0.53125 -0.25 0.90625 -0.6875q0.40625 -0.4375 0.640625 -1.0625q0.21875 -0.640625 0.21875 -1.4375q0 -0.46875 -0.109375 -0.890625q-0.09375 -0.4375 -0.265625 -0.828125q-0.171875 -0.375 -0.390625 -0.6875q-0.234375 -0.3125 -0.5 -0.5625q0.3125 -0.03125 0.609375 -0.09375q0.28125 -0.0625 0.46875 -0.15625zm-1.28125 2.984375q0 0.484375 -0.125 0.859375q-0.140625 0.375 -0.359375 0.625q-0.21875 0.234375 -0.53125 0.359375q-0.3125 0.125 -0.671875 0.125q-0.390625 0 -0.6875 -0.140625q-0.296875 -0.140625 -0.515625 -0.40625q-0.3125 -0.390625 -0.453125 -1.03125q-0.15625 -0.65625 -0.15625 -1.53125l0 -1.5625l2.0 0q0.28125 0.140625 0.5625 0.40625q0.265625 0.25 0.46875 0.59375q0.203125 0.34375 0.34375 0.78125q0.125 0.421875 0.125 0.921875zm-12.71875 -7.961197l1.46875 0l0 -3.3593597l11.078125 0l0 3.3593597l1.453125 0l0 -8.26561l-1.453125 0l0 3.21875l-12.546875 0l0 5.0468597zm0 -11.195572l1.46875 0l0 -3.359375l11.078125 0l0 3.359375l1.453125 0l0 -8.265625l-1.453125 0l0 3.21875l-12.546875 0l0 5.046875z" fill-rule="nonzero"/><path fill="#000000" d="m65.02035 144.3471l0 1.1875q-4.374996 -2.734375 -8.749996 -2.734375q-1.71875 0 -3.390625 0.390625q-1.375 0.3125 -2.625 0.875q-0.828125 0.359375 -2.734375 1.46875l0 -1.1875q2.28125 -1.703125 4.59375 -2.53125q1.984375 -0.6875 4.140625 -0.6875q2.46875 0 4.765625 0.9375q2.296875 0.9375 3.9999962 2.28125z" fill-rule="nonzero"/><path fill="#000000" fill-opacity="0.0" d="m580.0289 100.84777l0 344.0" fill-rule="evenodd"/><path stroke="#000000" stroke-width="1.0" stroke-linejoin="round" stroke-linecap="butt" d="m580.0289 100.84777l0 338.0" fill-rule="evenodd"/><path fill="#000000" stroke="#000000" stroke-width="1.0" stroke-linecap="butt" d="m578.37714 438.84778l1.6517334 4.538086l1.6517334 -4.538086z" fill-rule="evenodd"/><path fill="#000000" fill-opacity="0.0" d="m533.1457 466.0525l0 -384.09448l42.015747 0l0 384.09448z" fill-rule="evenodd"/><path fill="#000000" d="m555.3782 446.08374l0.453125 -1.765625q2.171875 0.5625 3.328125 2.0q1.140625 1.4375 1.140625 3.53125q0 2.15625 -0.875 3.515625q-0.890625 1.34375 -2.546875 2.0625q-1.671875 0.703125 -3.59375 0.703125q-2.078125 0 -3.625 -0.796875q-1.5625 -0.796875 -2.359375 -2.265625q-0.8125 -1.484375 -0.8125 -3.25q0 -2.0 1.015625 -3.359375q1.015625 -1.375 2.875 -1.90625l0.40625 1.734375q-1.453125 0.46875 -2.109375 1.359375q-0.671875 0.875 -0.671875 2.203125q0 1.546875 0.734375 2.578125q0.734375 1.03125 1.984375 1.453125q1.234375 0.421875 2.5625 0.421875q1.703125 0 2.96875 -0.5q1.265625 -0.5 1.90625 -1.546875q0.625 -1.046875 0.625 -2.265625q0 -1.484375 -0.859375 -2.515625q-0.859375 -1.03125 -2.546875 -1.390625zm-0.15625 -3.129181q-2.6875 0 -3.96875 -1.484375q-1.078125 -1.25 -1.078125 -3.046875q0 -2.0 1.3125 -3.265625q1.296875 -1.265625 3.609375 -1.265625q1.859375 0 2.9375 0.5625q1.0625 0.5625 1.65625 1.640625q0.59375 1.0625 0.59375 2.328125q0 2.03125 -1.296875 3.28125q-1.3125 1.25 -3.765625 1.25zm0 -1.6875q1.859375 0 2.796875 -0.796875q0.921875 -0.8125 0.921875 -2.046875q0 -1.21875 -0.921875 -2.03125q-0.9375 -0.8125 -2.84375 -0.8125q-1.796875 0 -2.71875 0.8125q-0.921875 0.8125 -0.921875 2.03125q0 1.234375 0.921875 2.046875q0.90625 0.796875 2.765625 0.796875zm4.84375 -9.297607l-9.671875 0l0 -1.46875l1.375 0q-1.59375 -1.0625 -1.59375 -3.078125q0 -0.875 0.3125 -1.609375q0.3125 -0.734375 0.828125 -1.09375q0.5 -0.375 1.203125 -0.515625q0.453125 -0.09375 1.59375 -0.09375l5.953125 0l0 1.640625l-5.890625 0q-1.0 0 -1.484375 0.203125q-0.5 0.1875 -0.796875 0.671875q-0.296875 0.484375 -0.296875 1.140625q0 1.046875 0.671875 1.8125q0.65625 0.75 2.515625 0.75l5.28125 0l0 1.640625zm-1.46875 -13.953827l1.453125 -0.234375q0.140625 0.6875 0.140625 1.234375q0 0.890625 -0.28125 1.390625q-0.28125 0.484375 -0.734375 0.6875q-0.46875 0.203125 -1.9375 0.203125l-5.578125 0l0 1.203125l-1.265625 0l0 -1.203125l-2.390625 0l-0.984375 -1.625l3.375 0l0 -1.65625l1.265625 0l0 1.65625l5.671875 0q0.6875 0 0.890625 -0.078125q0.203125 -0.09375 0.328125 -0.28125q0.109375 -0.203125 0.109375 -0.578125q0 -0.265625 -0.0625 -0.71875zm1.46875 -1.5895691l-9.671875 0l0 -1.46875l1.46875 0q-1.03125 -0.5625 -1.359375 -1.03125q-0.328125 -0.484375 -0.328125 -1.0625q0 -0.828125 0.53125 -1.6875l1.515625 0.5625q-0.359375 0.609375 -0.359375 1.203125q0 0.546875 0.328125 0.96875q0.328125 0.421875 0.890625 0.609375q0.875 0.28125 1.921875 0.28125l5.0625 0l0 1.625zm-1.1875 -12.540802q0.765625 0.921875 1.09375 1.765625q0.3125 0.828125 0.3125 1.796875q0 1.59375 -0.78125 2.453125q-0.78125 0.859375 -1.984375 0.859375q-0.71875 0 -1.296875 -0.328125q-0.59375 -0.328125 -0.9375 -0.84375q-0.359375 -0.53125 -0.546875 -1.1875q-0.125 -0.46875 -0.25 -1.453125q-0.234375 -1.984375 -0.5625 -2.921875q-0.34375 -0.015625 -0.421875 -0.015625q-1.0 0 -1.421875 0.46875q-0.546875 0.625 -0.546875 1.875q0 1.15625 0.40625 1.703125q0.40625 0.546875 1.421875 0.8125l-0.21875 1.609375q-1.015625 -0.21875 -1.640625 -0.71875q-0.640625 -0.5 -0.984375 -1.453125q-0.34375 -0.953125 -0.34375 -2.1875q0 -1.25 0.296875 -2.015625q0.28125 -0.78125 0.734375 -1.140625q0.4375 -0.375 1.109375 -0.515625q0.421875 -0.078125 1.515625 -0.078125l2.1875 0q2.28125 0 2.890625 -0.109375q0.59375 -0.109375 1.15625 -0.40625l0 1.703125q-0.515625 0.265625 -1.1875 0.328125zm-3.671875 0.140625q0.375 0.890625 0.625 2.671875q0.140625 1.015625 0.328125 1.4375q0.1875 0.421875 0.53125 0.65625q0.34375 0.21875 0.78125 0.21875q0.65625 0 1.09375 -0.5q0.4375 -0.5 0.4375 -1.453125q0 -0.9375 -0.40625 -1.671875q-0.421875 -0.75 -1.140625 -1.09375q-0.5625 -0.265625 -1.640625 -0.265625l-0.609375 0zm1.3125 -10.516327l0.21875 -1.609375q1.65625 0.265625 2.609375 1.359375q0.9375 1.078125 0.9375 2.671875q0 1.984375 -1.296875 3.1875q-1.296875 1.203125 -3.71875 1.203125q-1.578125 0 -2.75 -0.515625q-1.171875 -0.515625 -1.75 -1.578125q-0.59375 -1.0625 -0.59375 -2.3125q0 -1.578125 0.796875 -2.578125q0.796875 -1.0 2.265625 -1.28125l0.234375 1.59375q-0.96875 0.234375 -1.453125 0.8125q-0.5 0.578125 -0.5 1.390625q0 1.234375 0.890625 2.015625q0.890625 0.78125 2.8125 0.78125q1.953125 0 2.84375 -0.75q0.875 -0.75 0.875 -1.953125q0 -0.96875 -0.59375 -1.609375q-0.59375 -0.65625 -1.828125 -0.828125zm2.078125 -6.59375l1.453125 -0.234375q0.140625 0.6875 0.140625 1.234375q0 0.890625 -0.28125 1.390625q-0.28125 0.484375 -0.734375 0.6875q-0.46875 0.203125 -1.9375 0.203125l-5.578125 0l0 1.203125l-1.265625 0l0 -1.203125l-2.390625 0l-0.984375 -1.625l3.375 0l0 -1.65625l1.265625 0l0 1.65625l5.671875 0q0.6875 0 0.890625 -0.078125q0.203125 -0.09375 0.328125 -0.28125q0.109375 -0.203125 0.109375 -0.578125q0 -0.265625 -0.0625 -0.71875zm-10.0 -1.6051941l-1.890625 0l0 -1.640625l1.890625 0l0 1.640625zm11.46875 0l-9.671875 0l0 -1.640625l9.671875 0l0 1.640625zm0 -4.144806l-9.671875 0l0 -1.46875l1.375 0q-1.59375 -1.0625 -1.59375 -3.078125q0 -0.875 0.3125 -1.609375q0.3125 -0.734375 0.828125 -1.09375q0.5 -0.375 1.203125 -0.515625q0.453125 -0.09375 1.59375 -0.09375l5.953125 0l0 1.640625l-5.890625 0q-1.0 0 -1.484375 0.203125q-0.5 0.1875 -0.796875 0.671875q-0.296875 0.484375 -0.296875 1.140625q0 1.046875 0.671875 1.8125q0.65625 0.75 2.515625 0.75l5.28125 0l0 1.640625zm0.796875 -10.063232l0.234375 -1.59375q0.75 -0.109375 1.078125 -0.5625q0.453125 -0.609375 0.453125 -1.671875q0 -1.140625 -0.453125 -1.75q-0.453125 -0.625 -1.265625 -0.84375q-0.5 -0.125 -2.109375 -0.109375q1.265625 1.0625 1.265625 2.671875q0 2.0 -1.4375 3.09375q-1.4375 1.09375 -3.453125 1.09375q-1.390625 0 -2.5625 -0.5q-1.171875 -0.515625 -1.796875 -1.453125q-0.640625 -0.953125 -0.640625 -2.25q0 -1.703125 1.375 -2.8125l-1.15625 0l0 -1.515625l8.359375 0q2.265625 0 3.203125 0.46875q0.9375 0.453125 1.484375 1.453125q0.546875 0.984375 0.546875 2.453125q0 1.71875 -0.78125 2.796875q-0.765625 1.0625 -2.34375 1.03125zm-5.8125 -1.359375q1.90625 0 2.78125 -0.75q0.875 -0.765625 0.875 -1.90625q0 -1.125 -0.859375 -1.890625q-0.875 -0.765625 -2.734375 -0.765625q-1.78125 0 -2.671875 0.796875q-0.90625 0.78125 -0.90625 1.890625q0 1.09375 0.890625 1.859375q0.875 0.765625 2.625 0.765625zm5.015625 -14.715271l-13.359375 0l0 -4.609375q0 -1.546875 0.203125 -2.375q0.25 -1.140625 0.953125 -1.953125q0.890625 -1.0625 2.28125 -1.578125q1.390625 -0.53125 3.171875 -0.53125q1.515625 0 2.703125 0.359375q1.171875 0.359375 1.9375 0.921875q0.765625 0.546875 1.21875 1.203125q0.4375 0.65625 0.671875 1.59375q0.21875 0.9375 0.21875 2.140625l0 4.828125zm-1.578125 -1.765625l0 -2.859375q0 -1.3125 -0.234375 -2.0625q-0.25 -0.75 -0.703125 -1.203125q-0.625 -0.625 -1.6875 -0.96875q-1.0625 -0.359375 -2.578125 -0.359375q-2.09375 0 -3.21875 0.6875q-1.125 0.6875 -1.5 1.671875q-0.28125 0.703125 -0.28125 2.28125l0 2.8125l10.203125 0zm-9.890625 -11.504181l-1.890625 0l0 -1.640625l1.890625 0l0 1.640625zm11.46875 0l-9.671875 0l0 -1.640625l9.671875 0l0 1.640625zm0 -4.1448364l-9.671875 0l0 -1.46875l1.359375 0q-0.71875 -0.453125 -1.140625 -1.203125q-0.4375 -0.765625 -0.4375 -1.71875q0 -1.078125 0.453125 -1.765625q0.4375 -0.6875 1.234375 -0.96875q-1.6875 -1.15625 -1.6875 -2.984375q0 -1.453125 0.796875 -2.21875q0.796875 -0.78125 2.453125 -0.78125l6.640625 0l0 1.640625l-6.09375 0q-0.984375 0 -1.40625 0.15625q-0.4375 0.15625 -0.703125 0.578125q-0.265625 0.421875 -0.265625 0.984375q0 1.015625 0.6875 1.6875q0.671875 0.671875 2.15625 0.671875l5.625 0l0 1.640625l-6.28125 0q-1.09375 0 -1.640625 0.40625q-0.546875 0.40625 -0.546875 1.3125q0 0.6875 0.359375 1.28125q0.359375 0.59375 1.0625 0.859375q0.703125 0.25 2.03125 0.25l5.015625 0l0 1.640625zm-3.109375 -22.165802l0.203125 -1.6875q1.484375 0.40625 2.3125 1.484375q0.8125 1.078125 0.8125 2.765625q0 2.125 -1.296875 3.375q-1.3125 1.234375 -3.671875 1.234375q-2.453125 0 -3.796875 -1.25q-1.34375 -1.265625 -1.34375 -3.265625q0 -1.9375 1.328125 -3.15625q1.3125 -1.234375 3.703125 -1.234375q0.15625 0 0.4375 0l0 7.21875q1.59375 -0.09375 2.453125 -0.90625q0.84375 -0.8125 0.84375 -2.015625q0 -0.90625 -0.46875 -1.546875q-0.484375 -0.640625 -1.515625 -1.015625zm-2.65625 5.390625l0 -5.40625q-1.21875 0.109375 -1.828125 0.625q-0.953125 0.78125 -0.953125 2.03125q0 1.125 0.765625 1.90625q0.75 0.765625 2.015625 0.84375zm5.765625 -9.141327l-9.671875 0l0 -1.46875l1.375 0q-1.59375 -1.0625 -1.59375 -3.078125q0 -0.875 0.3125 -1.609375q0.3125 -0.734375 0.828125 -1.09375q0.5 -0.375 1.203125 -0.515625q0.453125 -0.09375 1.59375 -0.09375l5.953125 0l0 1.640625l-5.890625 0q-1.0 0 -1.484375 0.203125q-0.5 0.1875 -0.796875 0.671875q-0.296875 0.484375 -0.296875 1.140625q0 1.046875 0.671875 1.8125q0.65625 0.75 2.515625 0.75l5.28125 0l0 1.640625zm-2.890625 -9.719482l-0.25 -1.625q0.96875 -0.125 1.5 -0.75q0.515625 -0.625 0.515625 -1.75q0 -1.125 -0.453125 -1.671875q-0.46875 -0.546875 -1.09375 -0.546875q-0.546875 0 -0.875 0.484375q-0.21875 0.328125 -0.546875 1.671875q-0.46875 1.8125 -0.796875 2.515625q-0.328125 0.6875 -0.90625 1.046875q-0.59375 0.359375 -1.3125 0.359375q-0.640625 0 -1.1875 -0.296875q-0.5625 -0.296875 -0.921875 -0.8125q-0.28125 -0.375 -0.46875 -1.03125q-0.203125 -0.671875 -0.203125 -1.421875q0 -1.140625 0.328125 -2.0q0.328125 -0.859375 0.890625 -1.265625q0.5625 -0.421875 1.5 -0.578125l0.21875 1.609375q-0.75 0.109375 -1.171875 0.640625q-0.421875 0.515625 -0.421875 1.46875q0 1.140625 0.375 1.625q0.375 0.46875 0.875 0.46875q0.3125 0 0.578125 -0.1875q0.265625 -0.203125 0.4375 -0.640625q0.09375 -0.234375 0.421875 -1.4375q0.453125 -1.75 0.75 -2.4375q0.296875 -0.6875 0.859375 -1.078125q0.5625 -0.390625 1.40625 -0.390625q0.828125 0 1.546875 0.484375q0.71875 0.46875 1.125 1.375q0.390625 0.90625 0.390625 2.046875q0 1.875 -0.78125 2.875q-0.78125 0.984375 -2.328125 1.25zm-8.578125 -9.984375l-1.890625 0l0 -1.640625l1.890625 0l0 1.640625zm11.46875 0l-9.671875 0l0 -1.640625l9.671875 0l0 1.640625zm-4.84375 -3.535431q-2.6875 0 -3.96875 -1.484375q-1.078125 -1.25 -1.078125 -3.046875q0 -2.0 1.3125 -3.265625q1.296875 -1.265625 3.609375 -1.265625q1.859375 0 2.9375 0.5625q1.0625 0.5625 1.65625 1.640625q0.59375 1.0625 0.59375 2.328125q0 2.03125 -1.296875 3.28125q-1.3125 1.25 -3.765625 1.25zm0 -1.6875q1.859375 0 2.796875 -0.796875q0.921875 -0.8125 0.921875 -2.046875q0 -1.21875 -0.921875 -2.03125q-0.9375 -0.8125 -2.84375 -0.8125q-1.796875 0 -2.71875 0.8125q-0.921875 0.8125 -0.921875 2.03125q0 1.234375 0.921875 2.046875q0.90625 0.796875 2.765625 0.796875zm4.84375 -9.297607l-9.671875 0l0 -1.46875l1.375 0q-1.59375 -1.0625 -1.59375 -3.078125q0 -0.875 0.3125 -1.609375q0.3125 -0.734375 0.828125 -1.09375q0.5 -0.375 1.203125 -0.515625q0.453125 -0.09375 1.59375 -0.09375l5.953125 0l0 1.640625l-5.890625 0q-1.0 0 -1.484375 0.203125q-0.5 0.1875 -0.796875 0.671875q-0.296875 0.484375 -0.296875 1.140625q0 1.046875 0.671875 1.8125q0.65625 0.75 2.515625 0.75l5.28125 0l0 1.640625zm3.921875 -18.684021q-1.703125 1.359375 -4.0 2.296875q-2.296875 0.9375 -4.765625 0.9375q-2.15625 0 -4.140625 -0.703125q-2.3125 -0.828125 -4.59375 -2.53125l0 -1.171875q1.890625 1.09375 2.703125 1.453125q1.25 0.546875 2.625 0.875q1.703125 0.390625 3.421875 0.390625q4.375 0 8.75 -2.71875l0 1.171875z" fill-rule="nonzero"/><path fill="#000000" d="m560.2532 250.99756q0 -1.4375 -0.578125 -2.421875q-0.578125 -0.984375 -1.328125 -1.46875l-0.796875 1.03125q0.59375 0.46875 0.96875 1.171875q0.359375 0.6875 0.359375 1.59375q0 0.6875 -0.25 1.25q-0.265625 0.5625 -0.71875 0.96875q-0.40625 0.390625 -0.953125 0.609375q-0.546875 0.21875 -1.265625 0.28125l-0.078125 0l0 -7.03125l-0.75 0q-1.03125 0 -1.90625 0.265625q-0.890625 0.25 -1.546875 0.78125q-0.640625 0.53125 -1.0 1.328125q-0.375 0.796875 -0.375 1.859375q0 0.84375 0.34375 1.65625q0.34375 0.796875 0.984375 1.4375q0.65625 0.625 1.609375 1.015625q0.9375 0.375 2.125 0.375l0.390625 0q1.03125 0 1.90625 -0.34375q0.875 -0.34375 1.5 -0.96875q0.640625 -0.609375 1.0 -1.484375q0.359375 -0.875 0.359375 -1.90625zm-8.84375 0.21875q0 -0.65625 0.234375 -1.125q0.234375 -0.46875 0.625 -0.765625q0.375 -0.3125 0.90625 -0.484375q0.515625 -0.171875 0.984375 -0.171875l0.078125 0l0 5.296875q-0.6875 -0.09375 -1.203125 -0.34375q-0.53125 -0.265625 -0.890625 -0.625q-0.359375 -0.359375 -0.546875 -0.8125q-0.1875 -0.453125 -0.1875 -0.96875zm-1.203125 -7.836197l0 1.515625l9.859375 0l0 -1.609375l-7.84375 0q-0.140625 -0.046875 -0.265625 -0.125q-0.140625 -0.09375 -0.234375 -0.21875q-0.125 -0.15625 -0.1875 -0.375q-0.078125 -0.21875 -0.078125 -0.53125q0 -0.265625 0.078125 -0.46875q0.0625 -0.203125 0.203125 -0.34375q0.15625 -0.15625 0.390625 -0.21875q0.234375 -0.0625 0.546875 -0.0625l7.390625 0l0 -1.609375l-7.375 0q-0.0625 0 -0.09375 0q-0.046875 0 -0.09375 0q-0.21875 -0.03125 -0.40625 -0.109375q-0.1875 -0.078125 -0.34375 -0.21875q-0.125 -0.15625 -0.203125 -0.375q-0.09375 -0.21875 -0.09375 -0.515625q0 -0.28125 0.078125 -0.484375q0.0625 -0.21875 0.21875 -0.375q0.15625 -0.140625 0.390625 -0.203125q0.234375 -0.078125 0.546875 -0.078125l7.375 0l0 -1.59375l-7.359375 0q-0.71875 0 -1.234375 0.171875q-0.53125 0.15625 -0.859375 0.453125q-0.28125 0.28125 -0.421875 0.703125q-0.15625 0.40625 -0.15625 0.921875q0 0.359375 0.09375 0.6875q0.09375 0.3125 0.25 0.5625q0.125 0.203125 0.3125 0.375q0.1875 0.171875 0.390625 0.296875q-0.21875 0.109375 -0.40625 0.25q-0.1875 0.140625 -0.3125 0.3125q-0.15625 0.234375 -0.234375 0.546875q-0.09375 0.3125 -0.09375 0.703125q0 0.6875 0.296875 1.1875q0.28125 0.484375 0.8125 0.78125l-0.9375 0.046875zm0 -10.679947l1.46875 0l0 -3.359375l6.9375 0l0 3.359375l1.453125 0l0 -8.265625l-1.453125 0l0 3.21875l-8.40625 0l0 5.046875zm-2.578125 -3.140625q0.40625 0 0.6875 -0.25q0.265625 -0.25 0.265625 -0.765625q0 -0.5 -0.265625 -0.75q-0.28125 -0.25 -0.6875 -0.25q-0.234375 0 -0.421875 0.078125q-0.1875 0.0625 -0.328125 0.203125q-0.109375 0.125 -0.171875 0.3125q-0.078125 0.171875 -0.078125 0.40625q0 0.25 0.078125 0.4375q0.0625 0.171875 0.171875 0.296875q0.140625 0.140625 0.34375 0.21875q0.1875 0.0625 0.40625 0.0625zm0.1875 -11.789322l0 1.703125l2.390625 0l0 2.578125l1.3125 0l0 -2.578125l5.34375 0q0.921875 0 1.5625 -0.234375q0.640625 -0.25 1.046875 -0.671875q0.40625 -0.421875 0.59375 -0.984375q0.1875 -0.578125 0.1875 -1.234375q0 -0.390625 -0.046875 -0.78125q-0.03125 -0.40625 -0.109375 -0.75q-0.0625 -0.359375 -0.15625 -0.65625q-0.09375 -0.296875 -0.21875 -0.515625l-1.203125 0.234375q0.046875 0.15625 0.09375 0.40625q0.046875 0.234375 0.09375 0.515625q0.046875 0.28125 0.078125 0.578125q0.03125 0.28125 0.03125 0.546875q0 0.375 -0.09375 0.71875q-0.09375 0.328125 -0.3125 0.578125q-0.21875 0.265625 -0.59375 0.40625q-0.375 0.140625 -0.953125 0.140625l-5.34375 0l0 -3.75l-1.3125 0l0 3.75l-2.390625 0zm13.625 -15.383072l-1.375 0l0 8.359375l1.375 0l0 -8.359375zm2.421875 -3.0080566l0 -1.6875l-4.75 0q0.203125 -0.171875 0.375 -0.375q0.171875 -0.21875 0.3125 -0.453125q0.21875 -0.390625 0.328125 -0.875q0.125 -0.5 0.125 -1.0625q0 -0.921875 -0.375 -1.640625q-0.390625 -0.734375 -1.0625 -1.234375q-0.6875 -0.484375 -1.59375 -0.734375q-0.921875 -0.265625 -1.96875 -0.265625l-0.203125 0q-1.09375 0 -2.015625 0.265625q-0.9375 0.25 -1.59375 0.734375q-0.671875 0.5 -1.03125 1.234375q-0.375 0.71875 -0.375 1.671875q0 0.53125 0.109375 1.0q0.109375 0.46875 0.328125 0.859375q0.140625 0.265625 0.359375 0.515625q0.203125 0.234375 0.453125 0.421875l-1.078125 0.09375l0 1.53125l13.65625 0zm-8.8125 -6.640625l0.203125 0q0.71875 0 1.375 0.171875q0.65625 0.15625 1.15625 0.484375q0.5 0.328125 0.796875 0.84375q0.296875 0.5 0.296875 1.203125q0 0.4375 -0.109375 0.796875q-0.109375 0.359375 -0.3125 0.640625q-0.15625 0.265625 -0.390625 0.46875q-0.234375 0.1875 -0.515625 0.34375l-4.75 0q-0.296875 -0.171875 -0.546875 -0.390625q-0.265625 -0.234375 -0.4375 -0.53125q-0.171875 -0.265625 -0.265625 -0.59375q-0.09375 -0.328125 -0.09375 -0.71875q0 -0.71875 0.296875 -1.21875q0.28125 -0.515625 0.78125 -0.84375q0.5 -0.328125 1.15625 -0.484375q0.640625 -0.171875 1.359375 -0.171875zm-4.84375 -4.820587l1.46875 0l0 -3.359375l6.9375 0l0 3.359375l1.453125 0l0 -8.265625l-1.453125 0l0 3.21875l-8.40625 0l0 5.046875zm-2.578125 -3.140625q0.40625 0 0.6875 -0.25q0.265625 -0.25 0.265625 -0.765625q0 -0.5 -0.265625 -0.75q-0.28125 -0.25 -0.6875 -0.25q-0.234375 0 -0.421875 0.078125q-0.1875 0.0625 -0.328125 0.203125q-0.109375 0.125 -0.171875 0.3125q-0.078125 0.171875 -0.078125 0.40625q0 0.25 0.078125 0.4375q0.0625 0.171875 0.171875 0.296875q0.140625 0.140625 0.34375 0.21875q0.1875 0.0625 0.40625 0.0625zm16.234375 -7.789337l0 -1.6875l-4.75 0q0.203125 -0.171875 0.375 -0.375q0.171875 -0.21875 0.3125 -0.453125q0.21875 -0.390625 0.328125 -0.875q0.125 -0.5 0.125 -1.0625q0 -0.921875 -0.375 -1.640625q-0.390625 -0.734375 -1.0625 -1.234375q-0.6875 -0.484375 -1.59375 -0.734375q-0.921875 -0.265625 -1.96875 -0.265625l-0.203125 0q-1.09375 0 -2.015625 0.265625q-0.9375 0.25 -1.59375 0.734375q-0.671875 0.5 -1.03125 1.234375q-0.375 0.71875 -0.375 1.671875q0 0.53125 0.109375 1.0q0.109375 0.46875 0.328125 0.859375q0.140625 0.265625 0.359375 0.515625q0.203125 0.234375 0.453125 0.421875l-1.078125 0.09375l0 1.53125l13.65625 0zm-8.8125 -6.640625l0.203125 0q0.71875 0 1.375 0.171875q0.65625 0.15625 1.15625 0.484375q0.5 0.328125 0.796875 0.84375q0.296875 0.5 0.296875 1.203125q0 0.4375 -0.109375 0.796875q-0.109375 0.359375 -0.3125 0.640625q-0.15625 0.265625 -0.390625 0.46875q-0.234375 0.1875 -0.515625 0.34375l-4.75 0q-0.296875 -0.171875 -0.546875 -0.390625q-0.265625 -0.234375 -0.4375 -0.53125q-0.171875 -0.265625 -0.265625 -0.59375q-0.09375 -0.328125 -0.09375 -0.71875q0 -0.71875 0.296875 -1.21875q0.28125 -0.515625 0.78125 -0.84375q0.5 -0.328125 1.15625 -0.484375q0.640625 -0.171875 1.359375 -0.171875zm5.203125 -8.914307q0 -1.4375 -0.578125 -2.421875q-0.578125 -0.984375 -1.328125 -1.46875l-0.796875 1.03125q0.59375 0.46875 0.96875 1.171875q0.359375 0.6875 0.359375 1.59375q0 0.6875 -0.25 1.25q-0.265625 0.5625 -0.71875 0.96875q-0.40625 0.390625 -0.953125 0.609375q-0.546875 0.21875 -1.265625 0.28125l-0.078125 0l0 -7.03125l-0.75 0q-1.03125 0 -1.90625 0.265625q-0.890625 0.25 -1.546875 0.78125q-0.640625 0.53125 -1.0 1.328125q-0.375 0.796875 -0.375 1.859375q0 0.84375 0.34375 1.65625q0.34375 0.796875 0.984375 1.4375q0.65625 0.625 1.609375 1.015625q0.9375 0.375 2.125 0.375l0.390625 0q1.03125 0 1.90625 -0.34375q0.875 -0.34375 1.5 -0.96875q0.640625 -0.609375 1.0 -1.484375q0.359375 -0.875 0.359375 -1.90625zm-8.84375 0.21875q0 -0.65625 0.234375 -1.125q0.234375 -0.46875 0.625 -0.765625q0.375 -0.3125 0.90625 -0.484375q0.515625 -0.171875 0.984375 -0.171875l0.078125 0l0 5.296875q-0.6875 -0.09375 -1.203125 -0.34375q-0.53125 -0.265625 -0.890625 -0.625q-0.359375 -0.359375 -0.546875 -0.8125q-0.1875 -0.453125 -0.1875 -0.96875zm-5.34375 -7.3205566l1.46875 0l0 -3.359375l11.078125 0l0 3.359375l1.453125 0l0 -8.265625l-1.453125 0l0 3.21875l-12.546875 0l0 5.046875zm4.140625 -11.195587l1.46875 0l0 -3.359375l6.9375 0l0 3.359375l1.453125 0l0 -8.265625l-1.453125 0l0 3.21875l-8.40625 0l0 5.046875zm-2.578125 -3.140625q0.40625 0 0.6875 -0.25q0.265625 -0.25 0.265625 -0.765625q0 -0.5 -0.265625 -0.75q-0.28125 -0.25 -0.6875 -0.25q-0.234375 0 -0.421875 0.078125q-0.1875 0.0625 -0.328125 0.203125q-0.109375 0.125 -0.171875 0.3125q-0.078125 0.171875 -0.078125 0.40625q0 0.25 0.078125 0.4375q0.0625 0.171875 0.171875 0.296875q0.140625 0.140625 0.34375 0.21875q0.1875 0.0625 0.40625 0.0625zm12.4375 -7.789337l0 -1.6875l-7.0625 0q-0.328125 -0.171875 -0.59375 -0.40625q-0.265625 -0.234375 -0.453125 -0.515625q-0.234375 -0.328125 -0.359375 -0.71875q-0.140625 -0.40625 -0.140625 -0.875q0 -0.546875 0.125 -0.953125q0.125 -0.421875 0.40625 -0.703125q0.296875 -0.28125 0.75 -0.421875q0.453125 -0.15625 1.109375 -0.15625l6.21875 0l0 -1.6875l-6.265625 0q-0.96875 0 -1.6875 0.25q-0.71875 0.234375 -1.1875 0.6875q-0.453125 0.4375 -0.671875 1.078125q-0.21875 0.625 -0.21875 1.40625q0 0.5625 0.171875 1.078125q0.15625 0.515625 0.4375 0.953125q0.1875 0.296875 0.453125 0.5625q0.265625 0.25 0.5625 0.46875l-1.453125 0.125l0 1.515625l9.859375 0zm0.1875 -15.554932q0 -1.4375 -0.578125 -2.421875q-0.578125 -0.984375 -1.328125 -1.46875l-0.796875 1.03125q0.59375 0.46875 0.96875 1.171875q0.359375 0.6875 0.359375 1.59375q0 0.6875 -0.25 1.25q-0.265625 0.5625 -0.71875 0.96875q-0.40625 0.390625 -0.953125 0.609375q-0.546875 0.21875 -1.265625 0.28125l-0.078125 0l0 -7.03125l-0.75 0q-1.03125 0 -1.90625 0.265625q-0.890625 0.25 -1.546875 0.78125q-0.640625 0.53125 -1.0 1.328125q-0.375 0.796875 -0.375 1.859375q0 0.84375 0.34375 1.65625q0.34375 0.796875 0.984375 1.4375q0.65625 0.625 1.609375 1.015625q0.9375 0.375 2.125 0.375l0.390625 0q1.03125 0 1.90625 -0.34375q0.875 -0.34375 1.5 -0.96875q0.640625 -0.609375 1.0 -1.484375q0.359375 -0.875 0.359375 -1.90625zm-8.84375 0.21875q0 -0.65625 0.234375 -1.125q0.234375 -0.46875 0.625 -0.765625q0.375 -0.3125 0.90625 -0.484375q0.515625 -0.171875 0.984375 -0.171875l0.078125 0l0 5.296875q-0.6875 -0.09375 -1.203125 -0.34375q-0.53125 -0.265625 -0.890625 -0.625q-0.359375 -0.359375 -0.546875 -0.8125q-0.1875 -0.453125 -0.1875 -0.96875z" fill-rule="nonzero"/><path fill="#000000" d="m563.98755 109.08014l0 1.1875q-4.375 -2.734375 -8.75 -2.734375q-1.71875 0 -3.390625 0.390625q-1.375 0.3125 -2.625 0.875q-0.828125 0.359375 -2.734375 1.46875l0 -1.1875q2.28125 -1.703125 4.59375 -2.53125q1.984375 -0.6875 4.140625 -0.6875q2.46875 0 4.765625 0.9375q2.296875 0.9375 4.0 2.28125z" fill-rule="nonzero"/></g></svg>