<svg xmlns="http://www.w3.org/2000/svg" viewBox="0 0 451 260.81"><defs><style>.cls-1{fill:#5e97f6;}.cls-1,.cls-2,.cls-3,.cls-4,.cls-5,.cls-6,.cls-7,.cls-8,.cls-9{stroke:#dce0df;stroke-linejoin:round;}.cls-2{fill:#2a56c6;}.cls-3{fill:#00796b;}.cls-4{fill:#3367d6;}.cls-5{fill:#26a69a;}.cls-6{fill:#9c27b0;}.cls-7{fill:#6a1b9a;}.cls-8{fill:#00695c;}.cls-9{fill:#ea80fc;}</style></defs><title>JAX Light Stroke</title><g id="Layer_2" data-name="Layer 2"><g id="Layer_1-2" data-name="Layer 1"><polygon class="cls-1" points="50.5 130.4 25.5 173.71 75.5 173.71 100.5 130.4 50.5 130.4"/><polygon class="cls-1" points="0.5 217.01 25.5 173.71 75.5 173.71 50.5 217.01 0.5 217.01"/><polygon class="cls-1" points="125.5 173.71 75.5 173.71 50.5 217.01 100.5 217.01 125.5 173.71"/><polygon class="cls-1" points="175.5 173.71 125.5 173.71 100.5 217.01 150.5 217.01 175.5 173.71"/><polygon class="cls-1" points="150.5 130.4 125.5 173.71 175.5 173.71 200.5 130.4 150.5 130.4"/><polygon class="cls-1" points="175.5 87.1 150.5 130.4 200.5 130.4 225.5 87.1 175.5 87.1"/><polygon class="cls-1" points="200.5 43.8 175.5 87.1 225.5 87.1 250.5 43.8 200.5 43.8"/><polygon class="cls-1" points="225.5 0.5 200.5 43.8 250.5 43.8 275.5 0.5 225.5 0.5"/><polygon class="cls-2" points="0.5 217.01 25.5 260.31 75.5 260.31 50.5 217.01 0.5 217.01"/><polygon class="cls-2" points="125.5 260.31 75.5 260.31 50.5 217.01 100.5 217.01 125.5 260.31"/><polygon class="cls-2" points="175.5 260.31 125.5 260.31 100.5 217.01 150.5 217.01 175.5 260.31"/><polygon class="cls-3" points="200.5 217.01 175.5 173.71 150.5 217.01 175.5 260.31 200.5 217.01"/><polygon class="cls-3" points="250.5 130.4 225.5 87.1 200.5 130.4 250.5 130.4"/><polygon class="cls-3" points="250.5 43.8 225.5 87.1 250.5 130.4 275.5 87.1 250.5 43.8"/><polygon class="cls-4" points="125.5 173.71 100.5 130.4 75.5 173.71 125.5 173.71"/><polygon class="cls-5" points="250.5 130.4 200.5 130.4 175.5 173.71 225.5 173.71 250.5 130.4"/><polygon class="cls-5" points="300.5 130.4 250.5 130.4 225.5 173.71 275.5 173.71 300.5 130.4"/><polygon class="cls-6" points="350.5 43.8 325.5 0.5 300.5 43.8 325.5 87.1 350.5 43.8"/><polygon class="cls-6" points="375.5 87.1 350.5 43.8 325.5 87.1 350.5 130.4 375.5 87.1"/><polygon class="cls-6" points="400.5 130.4 375.5 87.1 350.5 130.4 375.5 173.71 400.5 130.4"/><polygon class="cls-6" points="425.5 173.71 400.5 130.4 375.5 173.71 400.5 217.01 425.5 173.71"/><polygon class="cls-6" points="450.5 217.01 425.5 173.71 400.5 217.01 425.5 260.31 450.5 217.01"/><polygon class="cls-6" points="425.5 0.5 400.5 43.8 425.5 87.1 450.5 43.8 425.5 0.5"/><polygon class="cls-6" points="375.5 87.1 400.5 43.8 425.5 87.1 400.5 130.4 375.5 87.1"/><polygon class="cls-6" points="350.5 130.4 325.5 173.71 350.5 217.01 375.5 173.71 350.5 130.4"/><polygon class="cls-6" points="325.5 260.31 300.5 217.01 325.5 173.71 350.5 217.01 325.5 260.31"/><polygon class="cls-7" points="275.5 260.31 250.5 217.01 300.5 217.01 325.5 260.31 275.5 260.31"/><polygon class="cls-8" points="225.5 173.71 175.5 173.71 200.5 217.01 250.5 217.01 225.5 173.71"/><polygon class="cls-8" points="275.5 173.71 225.5 173.71 250.5 217.01 275.5 173.71"/><polygon class="cls-8" points="275.5 87.1 300.5 130.4 350.5 130.4 325.5 87.1 275.5 87.1"/><polygon class="cls-8" points="300.5 43.8 250.5 43.8 275.5 87.1 325.5 87.1 300.5 43.8"/><polygon class="cls-8" points="425.5 260.31 400.5 217.01 350.5 217.01 375.5 260.31 425.5 260.31"/><polygon class="cls-8" points="375.5 173.71 350.5 217.01 400.5 217.01 375.5 173.71"/><polygon class="cls-9" points="325.5 0.5 275.5 0.5 250.5 43.8 300.5 43.8 325.5 0.5"/><polygon class="cls-9" points="325.5 173.71 275.5 173.71 250.5 217.01 300.5 217.01 325.5 173.71"/><polygon class="cls-9" points="350.5 130.4 300.5 130.4 275.5 173.71 325.5 173.71 350.5 130.4"/><polygon class="cls-9" points="425.5 0.5 375.5 0.5 350.5 43.8 400.5 43.8 425.5 0.5"/><polygon class="cls-9" points="375.5 87.1 350.5 43.8 400.5 43.8 375.5 87.1"/></g></g></svg>