<?xml version="1.0" encoding="UTF-8" standalone="no"?>
<!DOCTYPE svg PUBLIC "-//W3C//DTD SVG 1.1//EN"
 "http://www.w3.org/Graphics/SVG/1.1/DTD/svg11.dtd">
<!-- Generated by graphviz version 2.44.0 (20200408.0750)
 -->
<!-- Title: unnamed Pages: 1 -->
<svg width="791pt" height="851pt"
 viewBox="0.00 0.00 791.00 851.00" xmlns="http://www.w3.org/2000/svg" xmlns:xlink="http://www.w3.org/1999/xlink">
<g id="graph0" class="graph" transform="scale(1 1) rotate(0) translate(4 847)">
<title>unnamed</title>
<polygon fill="white" stroke="transparent" points="-4,4 -4,-847 787,-847 787,4 -4,4"/>
<g id="clust1" class="cluster">
<title>cluster_L</title>
<polygon fill="none" stroke="black" points="8,-720 8,-835 496,-835 496,-720 8,-720"/>
</g>
<!-- Type: space -->
<g id="node1" class="node">
<title>Type: space</title>
<polygon fill="#f8f8f8" stroke="black" points="487.5,-827 16.5,-827 16.5,-728 487.5,-728 487.5,-827"/>
<text text-anchor="start" x="24.5" y="-810.2" font-family="Times,serif" font-size="16.00">Type: space</text>
<text text-anchor="start" x="24.5" y="-792.2" font-family="Times,serif" font-size="16.00">Showing nodes accounting for 5806.95kB, 99.79% of 5819.22kB total</text>
<text text-anchor="start" x="24.5" y="-774.2" font-family="Times,serif" font-size="16.00">Dropped 25 nodes (cum &lt;= 29.10kB)</text>
<text text-anchor="start" x="24.5" y="-737.2" font-family="Times,serif" font-size="16.00">See https://git.io/JfYMW for how to read the graph</text>
</g>
<!-- N1 -->
<g id="node1" class="node">
<title>N1</title>
<g id="a_node1"><a xlink:title="_execute_compiled (5664.06kB)">
<polygon fill="#edd5d5" stroke="#b20100" points="661.5,-242 442.5,-242 442.5,-182 661.5,-182 661.5,-242"/>
<text text-anchor="middle" x="552" y="-218.8" font-family="Times,serif" font-size="24.00">_execute_compiled</text>
<text text-anchor="middle" x="552" y="-192.8" font-family="Times,serif" font-size="24.00">5664.06kB (97.33%)</text>
</a>
</g>
</g>
<!-- N1_0 -->
<g id="N1_0" class="node">
<title>N1_0</title>
<g id="a_N1_0"><a xlink:title="5664.06kB">
<polygon fill="#f8f8f8" stroke="black" points="579,-127 529,-127 525,-123 525,-91 575,-91 579,-95 579,-127"/>
<polyline fill="none" stroke="black" points="575,-123 525,-123 "/>
<polyline fill="none" stroke="black" points="575,-123 575,-91 "/>
<polyline fill="none" stroke="black" points="575,-123 579,-127 "/>
<text text-anchor="middle" x="552" y="-107.1" font-family="Times,serif" font-size="8.00">kind:buffer</text>
</a>
</g>
</g>
<!-- N1&#45;&gt;N1_0 -->
<g id="edge1" class="edge">
<title>N1&#45;&gt;N1_0</title>
<g id="a_edge1"><a xlink:title="5664.06kB">
<path fill="none" stroke="black" d="M552,-181.79C552,-167.81 552,-151.17 552,-137.44"/>
<polygon fill="black" stroke="black" points="555.5,-137.15 552,-127.15 548.5,-137.15 555.5,-137.15"/>
</a>
</g>
<g id="a_edge1&#45;label"><a xlink:title="5664.06kB">
<text text-anchor="middle" x="584" y="-152.8" font-family="Times,serif" font-size="14.00"> 5664.06kB</text>
</a>
</g>
</g>
<!-- N2 -->
<g id="node2" class="node">
<title>N2</title>
<g id="a_node2"><a xlink:title="&lt;unknown&gt; (5819.22kB)">
<polygon fill="#edd5d5" stroke="#b20000" points="598,-795.5 506,-795.5 506,-759.5 598,-759.5 598,-795.5"/>
<text text-anchor="middle" x="552" y="-780.1" font-family="Times,serif" font-size="8.00">&lt;unknown&gt;</text>
<text text-anchor="middle" x="552" y="-771.1" font-family="Times,serif" font-size="8.00">0 of 5819.22kB (100%)</text>
</a>
</g>
</g>
<!-- N6 -->
<g id="node6" class="node">
<title>N6</title>
<g id="a_node6"><a xlink:title="afunction (3925.29kB)">
<polygon fill="#edd8d5" stroke="#b21300" points="601,-677 503,-677 503,-641 601,-641 601,-677"/>
<text text-anchor="middle" x="552" y="-661.6" font-family="Times,serif" font-size="8.00">afunction</text>
<text text-anchor="middle" x="552" y="-652.6" font-family="Times,serif" font-size="8.00">0 of 3925.29kB (67.45%)</text>
</a>
</g>
</g>
<!-- N2&#45;&gt;N6 -->
<g id="edge7" class="edge">
<title>N2&#45;&gt;N6</title>
<g id="a_edge7"><a xlink:title="&lt;unknown&gt; &#45;&gt; afunction (3925.29kB)">
<path fill="none" stroke="#b21300" stroke-width="4" d="M552,-759.31C552,-740.38 552,-709.68 552,-687.42"/>
<polygon fill="#b21300" stroke="#b21300" stroke-width="4" points="555.5,-687.26 552,-677.26 548.5,-687.26 555.5,-687.26"/>
</a>
</g>
<g id="a_edge7&#45;label"><a xlink:title="&lt;unknown&gt; &#45;&gt; afunction (3925.29kB)">
<text text-anchor="middle" x="584" y="-698.8" font-family="Times,serif" font-size="14.00"> 3925.29kB</text>
</a>
</g>
</g>
<!-- N7 -->
<g id="node7" class="node">
<title>N7</title>
<g id="a_node7"><a xlink:title="anotherfunc (1893.93kB)">
<polygon fill="#eddcd5" stroke="#b23300" points="717,-677 619,-677 619,-641 717,-641 717,-677"/>
<text text-anchor="middle" x="668" y="-661.6" font-family="Times,serif" font-size="8.00">anotherfunc</text>
<text text-anchor="middle" x="668" y="-652.6" font-family="Times,serif" font-size="8.00">0 of 1893.93kB (32.55%)</text>
</a>
</g>
</g>
<!-- N2&#45;&gt;N7 -->
<g id="edge9" class="edge">
<title>N2&#45;&gt;N7</title>
<g id="a_edge9"><a xlink:title="&lt;unknown&gt; &#45;&gt; anotherfunc (1893.93kB)">
<path fill="none" stroke="#b23300" stroke-width="2" d="M569.76,-759.43C583.57,-746.08 603.15,-727.01 620,-710 628,-701.92 636.64,-692.99 644.35,-684.95"/>
<polygon fill="#b23300" stroke="#b23300" stroke-width="2" points="647.32,-686.9 651.69,-677.25 642.26,-682.07 647.32,-686.9"/>
</a>
</g>
<g id="a_edge9&#45;label"><a xlink:title="&lt;unknown&gt; &#45;&gt; anotherfunc (1893.93kB)">
<text text-anchor="middle" x="666" y="-698.8" font-family="Times,serif" font-size="14.00"> 1893.93kB</text>
</a>
</g>
</g>
<!-- N3 -->
<g id="node3" class="node">
<title>N3</title>
<g id="a_node3"><a xlink:title="normal (5817.23kB)">
<polygon fill="#edd5d5" stroke="#b20000" points="598,-590 506,-590 506,-554 598,-554 598,-590"/>
<text text-anchor="middle" x="552" y="-574.6" font-family="Times,serif" font-size="8.00">normal</text>
<text text-anchor="middle" x="552" y="-565.6" font-family="Times,serif" font-size="8.00">0 of 5817.23kB (100%)</text>
</a>
</g>
</g>
<!-- N9 -->
<g id="node9" class="node">
<title>N9</title>
<g id="a_node9"><a xlink:title="f_jitted (5817.23kB)">
<polygon fill="#edd5d5" stroke="#b20000" points="598,-503 506,-503 506,-467 598,-467 598,-503"/>
<text text-anchor="middle" x="552" y="-487.6" font-family="Times,serif" font-size="8.00">f_jitted</text>
<text text-anchor="middle" x="552" y="-478.6" font-family="Times,serif" font-size="8.00">0 of 5817.23kB (100%)</text>
</a>
</g>
</g>
<!-- N3&#45;&gt;N9 -->
<g id="edge5" class="edge">
<title>N3&#45;&gt;N9</title>
<g id="a_edge5"><a xlink:title="normal &#45;&gt; f_jitted (5817.23kB)">
<path fill="none" stroke="#b20000" stroke-width="5" d="M552,-553.8C552,-542.16 552,-526.55 552,-513.24"/>
<polygon fill="#b20000" stroke="#b20000" stroke-width="5" points="556.38,-513.18 552,-503.18 547.63,-513.18 556.38,-513.18"/>
</a>
</g>
<g id="a_edge5&#45;label"><a xlink:title="normal &#45;&gt; f_jitted (5817.23kB)">
<text text-anchor="middle" x="584" y="-524.8" font-family="Times,serif" font-size="14.00"> 5817.23kB</text>
</a>
</g>
</g>
<!-- N4 -->
<g id="node4" class="node">
<title>N4</title>
<g id="a_node4"><a xlink:title="_xla_call_impl (5817.23kB)">
<polygon fill="#edd5d5" stroke="#b20000" points="598,-329 506,-329 506,-293 598,-293 598,-329"/>
<text text-anchor="middle" x="552" y="-313.6" font-family="Times,serif" font-size="8.00">_xla_call_impl</text>
<text text-anchor="middle" x="552" y="-304.6" font-family="Times,serif" font-size="8.00">0 of 5817.23kB (100%)</text>
</a>
</g>
</g>
<!-- N4&#45;&gt;N1 -->
<g id="edge6" class="edge">
<title>N4&#45;&gt;N1</title>
<g id="a_edge6"><a xlink:title="_xla_call_impl &#45;&gt; _execute_compiled (5664.06kB)">
<path fill="none" stroke="#b20100" stroke-width="5" d="M552,-292.66C552,-281.54 552,-266.64 552,-252.73"/>
<polygon fill="#b20100" stroke="#b20100" stroke-width="5" points="556.38,-252.37 552,-242.37 547.63,-252.37 556.38,-252.37"/>
</a>
</g>
<g id="a_edge6&#45;label"><a xlink:title="_xla_call_impl &#45;&gt; _execute_compiled (5664.06kB)">
<text text-anchor="middle" x="584" y="-263.8" font-family="Times,serif" font-size="14.00"> 5664.06kB</text>
</a>
</g>
</g>
<!-- N10 -->
<g id="node10" class="node">
<title>N10</title>
<g id="a_node10"><a xlink:title="memoized_fun (153.16kB)">
<polygon fill="#edecea" stroke="#b2aa9b" points="770,-230 680,-230 680,-194 770,-194 770,-230"/>
<text text-anchor="middle" x="725" y="-214.6" font-family="Times,serif" font-size="8.00">memoized_fun</text>
<text text-anchor="middle" x="725" y="-205.6" font-family="Times,serif" font-size="8.00">0 of 153.16kB (2.63%)</text>
</a>
</g>
</g>
<!-- N4&#45;&gt;N10 -->
<g id="edge11" class="edge">
<title>N4&#45;&gt;N10</title>
<g id="a_edge11"><a xlink:title="_xla_call_impl &#45;&gt; memoized_fun (153.16kB)">
<path fill="none" stroke="#b2aa9b" d="M586.1,-292.94C597,-287.35 609.07,-281.03 620,-275 642.98,-262.31 668.34,-247.37 688.37,-235.33"/>
<polygon fill="#b2aa9b" stroke="#b2aa9b" points="690.42,-238.19 697.18,-230.02 686.81,-232.19 690.42,-238.19"/>
</a>
</g>
<g id="a_edge11&#45;label"><a xlink:title="_xla_call_impl &#45;&gt; memoized_fun (153.16kB)">
<text text-anchor="middle" x="675" y="-263.8" font-family="Times,serif" font-size="14.00"> 153.16kB</text>
</a>
</g>
</g>
<!-- N5 -->
<g id="node5" class="node">
<title>N5</title>
<g id="a_node5"><a xlink:title="_xla_callable (153.16kB)">
<polygon fill="#edecea" stroke="#b2aa9b" points="779.5,-131 670.5,-131 670.5,-87 779.5,-87 779.5,-131"/>
<text text-anchor="middle" x="725" y="-118.2" font-family="Times,serif" font-size="11.00">_xla_callable</text>
<text text-anchor="middle" x="725" y="-106.2" font-family="Times,serif" font-size="11.00">142.89kB (2.46%)</text>
<text text-anchor="middle" x="725" y="-94.2" font-family="Times,serif" font-size="11.00">of 153.16kB (2.63%)</text>
</a>
</g>
</g>
<!-- N5_0 -->
<g id="N5_0" class="node">
<title>N5_0</title>
<g id="a_N5_0"><a xlink:title="153.16kB">
<polygon fill="#f8f8f8" stroke="black" points="758.5,-36 695.5,-36 691.5,-32 691.5,0 754.5,0 758.5,-4 758.5,-36"/>
<polyline fill="none" stroke="black" points="754.5,-32 691.5,-32 "/>
<polyline fill="none" stroke="black" points="754.5,-32 754.5,0 "/>
<polyline fill="none" stroke="black" points="754.5,-32 758.5,-36 "/>
<text text-anchor="middle" x="725" y="-16.1" font-family="Times,serif" font-size="8.00">kind:executable</text>
</a>
</g>
</g>
<!-- N5&#45;&gt;N5_0 -->
<g id="edge2" class="edge">
<title>N5&#45;&gt;N5_0</title>
<g id="a_edge2"><a xlink:title="153.16kB">
<path fill="none" stroke="black" d="M725,-86.91C725,-74.78 725,-59.41 725,-46.36"/>
<polygon fill="black" stroke="black" points="728.5,-46.07 725,-36.07 721.5,-46.07 728.5,-46.07"/>
</a>
</g>
<g id="a_edge2&#45;label"><a xlink:title="153.16kB">
<text text-anchor="middle" x="754" y="-57.8" font-family="Times,serif" font-size="14.00"> 153.16kB</text>
</a>
</g>
</g>
<!-- N6&#45;&gt;N3 -->
<g id="edge8" class="edge">
<title>N6&#45;&gt;N3</title>
<g id="a_edge8"><a xlink:title="afunction &#45;&gt; normal (3923.30kB)">
<path fill="none" stroke="#b21300" stroke-width="4" d="M552,-640.8C552,-629.16 552,-613.55 552,-600.24"/>
<polygon fill="#b21300" stroke="#b21300" stroke-width="4" points="555.5,-600.18 552,-590.18 548.5,-600.18 555.5,-600.18"/>
</a>
</g>
<g id="a_edge8&#45;label"><a xlink:title="afunction &#45;&gt; normal (3923.30kB)">
<text text-anchor="middle" x="584" y="-611.8" font-family="Times,serif" font-size="14.00"> 3923.30kB</text>
</a>
</g>
</g>
<!-- N7&#45;&gt;N3 -->
<g id="edge10" class="edge">
<title>N7&#45;&gt;N3</title>
<g id="a_edge10"><a xlink:title="anotherfunc &#45;&gt; normal (1893.93kB)">
<path fill="none" stroke="#b23300" stroke-width="2" d="M654.09,-640.85C645.1,-630.49 632.73,-617.49 620,-608 613.71,-603.31 606.71,-598.93 599.65,-594.95"/>
<polygon fill="#b23300" stroke="#b23300" stroke-width="2" points="601.19,-591.81 590.73,-590.14 597.87,-597.97 601.19,-591.81"/>
</a>
</g>
<g id="a_edge10&#45;label"><a xlink:title="anotherfunc &#45;&gt; normal (1893.93kB)">
<text text-anchor="middle" x="669" y="-611.8" font-family="Times,serif" font-size="14.00"> 1893.93kB</text>
</a>
</g>
</g>
<!-- N8 -->
<g id="node8" class="node">
<title>N8</title>
<g id="a_node8"><a xlink:title="call_bind (5817.23kB)">
<polygon fill="#edd5d5" stroke="#b20000" points="598,-416 506,-416 506,-380 598,-380 598,-416"/>
<text text-anchor="middle" x="552" y="-400.6" font-family="Times,serif" font-size="8.00">call_bind</text>
<text text-anchor="middle" x="552" y="-391.6" font-family="Times,serif" font-size="8.00">0 of 5817.23kB (100%)</text>
</a>
</g>
</g>
<!-- N8&#45;&gt;N4 -->
<g id="edge3" class="edge">
<title>N8&#45;&gt;N4</title>
<g id="a_edge3"><a xlink:title="call_bind &#45;&gt; _xla_call_impl (5817.23kB)">
<path fill="none" stroke="#b20000" stroke-width="5" d="M552,-379.8C552,-368.16 552,-352.55 552,-339.24"/>
<polygon fill="#b20000" stroke="#b20000" stroke-width="5" points="556.38,-339.18 552,-329.18 547.63,-339.18 556.38,-339.18"/>
</a>
</g>
<g id="a_edge3&#45;label"><a xlink:title="call_bind &#45;&gt; _xla_call_impl (5817.23kB)">
<text text-anchor="middle" x="584" y="-350.8" font-family="Times,serif" font-size="14.00"> 5817.23kB</text>
</a>
</g>
</g>
<!-- N9&#45;&gt;N8 -->
<g id="edge4" class="edge">
<title>N9&#45;&gt;N8</title>
<g id="a_edge4"><a xlink:title="f_jitted &#45;&gt; call_bind (5817.23kB)">
<path fill="none" stroke="#b20000" stroke-width="5" d="M552,-466.8C552,-455.16 552,-439.55 552,-426.24"/>
<polygon fill="#b20000" stroke="#b20000" stroke-width="5" points="556.38,-426.18 552,-416.18 547.63,-426.18 556.38,-426.18"/>
</a>
</g>
<g id="a_edge4&#45;label"><a xlink:title="f_jitted &#45;&gt; call_bind (5817.23kB)">
<text text-anchor="middle" x="584" y="-437.8" font-family="Times,serif" font-size="14.00"> 5817.23kB</text>
</a>
</g>
</g>
<!-- N10&#45;&gt;N5 -->
<g id="edge12" class="edge">
<title>N10&#45;&gt;N5</title>
<g id="a_edge12"><a xlink:title="memoized_fun &#45;&gt; _xla_callable (153.16kB)">
<path fill="none" stroke="#b2aa9b" d="M725,-193.87C725,-179.51 725,-158.65 725,-141.32"/>
<polygon fill="#b2aa9b" stroke="#b2aa9b" points="728.5,-141.08 725,-131.08 721.5,-141.08 728.5,-141.08"/>
</a>
</g>
<g id="a_edge12&#45;label"><a xlink:title="memoized_fun &#45;&gt; _xla_callable (153.16kB)">
<text text-anchor="middle" x="754" y="-152.8" font-family="Times,serif" font-size="14.00"> 153.16kB</text>
</a>
</g>
</g>
</g>
</svg>
